<svg xmlns="http://www.w3.org/2000/svg"><defs><font id="NexaBlack" horiz-adv-x="622"><font-face font-family="Nexa Black" font-weight="900" panose-1="2 0 0 0 0 0 0 0 0 0" ascent="750" descent="-250" x-height="494" cap-height="700" bbox="-184 -305 1273 991" underline-thickness="50" underline-position="-250" unicode-range="U+0020-FB02"/><glyph glyph-name=".notdef" horiz-adv-x="665" d="M250 142q0-38 31-54t62 0 31 54q0 40-31 56.5t-62 0-31-56.5zM142 443h108q-1 24 20 42t50 18q73 0 74-57 0-17-9.5-26T351 402t-34-15q-2-2-13.5-11.5t-17.5-17-14.5-22-12-36T256 251l107-1q0 18 7 49 10 9 36 21.5t46 24 36.5 38T504 446q0 75-53 114.5T320 600t-128.5-41T142 443zM40 0v700h563V0H40z"/><glyph glyph-name=".null" horiz-adv-x="0"/><glyph glyph-name="nonmarkingreturn" horiz-adv-x="333"/><glyph glyph-name="space" horiz-adv-x="227"/><glyph glyph-name="exclam" unicode="!" horiz-adv-x="321" d="M254 230H67l-3 470h194zM159-5q-50 0-78 30.5T53 93t28 67.5 78 30.5 79-30.5T267 93t-28.5-67.5T159-5z"/><glyph glyph-name="quotedbl" unicode="&quot;" horiz-adv-x="471" d="M58 701h150V428H58v273zm205 0h150V428H263v273z"/><glyph glyph-name="numbersign" unicode="#" horiz-adv-x="739" d="M244 700h168l-36-143h93l35 143h170l-36-143h64V416h-99l-38-145h72V129H533L502 0H333l31 129h-92L240 0H73l31 129H36v142h104l35 146h-74v140h109zm193-275h-93l-40-160h93z"/><glyph glyph-name="dollar" unicode="$" horiz-adv-x="685" d="M259-110v94Q129-1 32 103l109 125q81-79 205-79 50 0 80 16.5t30 45.5q0 53-117 64-64 6-110 17.5T140.5 328 76 395.5 54 502q0 84 57 135.5T259 706v91h168v-89q103-15 182-77l-98-125q-64 48-164 48-40 0-67.5-13T252 502q0-33 27-44.5t89-17.5q57-6 104-20.5t89.5-40.5 66.5-69.5T652 208q0-93-63-148.5T426-13h1v-97H259z"/><glyph glyph-name="percent" unicode="%" horiz-adv-x="900" d="M211 710q87 0 133-49.5T390 542q0-70-46-118.5T211 375 78.5 423.5 33 542q0 69 45.5 118.5T211 710zm377-11h180L310 0H127zM211 498q23 0 35 13t12 31-12 31-35 13-35-13-12-31 12-31 35-13zm477-171q87 0 133-49.5T867 159q0-70-46-118.5T688-8 555.5 40.5 510 159q0 69 45.5 118.5T688 327zm0-212q23 0 35 13t12 31-12 31-35 13-35-13-12-31 12-31 35-13z"/><glyph glyph-name="ampersand" unicode="&amp;" horiz-adv-x="743" d="M236 215q0-34 28-50.5t69-16.5q46 0 79.5 23.5T446 235v47H339q-103 0-103-67zm391 283H447q-1 44-46 61t-90-.5-45-58.5q0-36 26-55.5t58-19.5h345V285h-71v-54q0-30 20-47.5t55-11.5V-1Q564-27 524 74q-80-85-215-85-54 0-99 10.5T125.5 33t-62 66.5T41 204q0 41 28 84t73 69q-39 20-58 61t-19 78q0 60 27.5 104.5t72.5 68 92.5 34T356 713q118 0 194.5-51.5T627 498z"/><glyph glyph-name="quotesingle" unicode="'" horiz-adv-x="266" d="M58 701h150V428H58v273z"/><glyph glyph-name="parenleft" unicode="(" horiz-adv-x="374" d="M284 797l84-98q-80-66-127-166.5T194 318q0-107 44.5-210T358-57l-79-106Q155-80 91.5 43.5T28 318q0 144 69.5 270.5T284 797z"/><glyph glyph-name="parenright" unicode=")" horiz-adv-x="374" d="M6 699l84 98q117-82 186.5-208.5T346 318q0-151-63.5-274.5T95-163L16-57Q91 5 135.5 108T180 318q0 114-47 214.5T6 699z"/><glyph glyph-name="asterisk" unicode="*" horiz-adv-x="433" d="M369 463l-106-79-46 78-45-79-109 69 62 66-88 18 37 118 85-34-7 86h133l-14-87 91 38 34-121-87-16z"/><glyph glyph-name="plus" unicode="+" horiz-adv-x="518" d="M40 400h136v132h165V400h137V247H341V114H176v133H40v153z"/><glyph glyph-name="comma" unicode="," horiz-adv-x="275" d="M230 61q0-50-58-169H76L97-5Q44 5 44 62q0 38 28.5 59.5T141 143q37 0 63-21.5T230 61z"/><glyph glyph-name="hyphen" unicode="-" horiz-adv-x="510" d="M54 217v146h402V217H54z"/><glyph glyph-name="period" unicode="." horiz-adv-x="283" d="M141-8Q95-8 68 20.5t-27 62 26.5 62T141 173q38 0 64-18.5t32-45 0-53.5-32-45.5T141-8z"/><glyph glyph-name="slash" unicode="/" horiz-adv-x="532" d="M336 752h173L195-77H24z"/><glyph glyph-name="zero" unicode="0" horiz-adv-x="728" d="M241 392v-95q0-77 34-115.5t89-38.5q56 0 90 38.5T488 297v95q0 74-33.5 112T366 542t-90-37.5T241 392zM47 297v96q0 161 89.5 238.5T366 709t227.5-79.5T681 393v-95q0-159-88.5-238T368-19q-65 0-120.5 17.5T146 52.5t-72.5 99T47 297z"/><glyph glyph-name="one" unicode="1" horiz-adv-x="474" d="M48 0v149h112v333L54 451v155l292 106V149h104V0H48z"/><glyph glyph-name="two" unicode="2" horiz-adv-x="690" d="M251 479H58q1 115 84 173t210 58q125 0 207.5-57T642 489q0-232-293-232-114 0-114-89h402V0H46v163q0 250 303 250 37 0 67.5 17.5T447 486q0 34-27.5 50.5T352 553q-94 0-101-74z"/><glyph glyph-name="three" unicode="3" horiz-adv-x="696" d="M351 287H224v140h118q96 0 98 58 0 27-27 45.5T342 549q-43 0-72.5-17T239 480H49q1 50 18.5 90t46 66 66.5 43.5 78.5 25T342 712q54 0 104-12t94-36.5 71-68.5 27-102q0-41-25.5-79T545 358q109-40 109-154 0-58-29-102.5t-77-68-100-35T341-13q-44 0-85.5 8T174 21.5t-69.5 46T57 137t-18 94h194q1-44 34.5-64t83.5-20q39 0 68 18.5t29 50.5q0 10-2.5 19t-11 22.5-30 21.5-53.5 8z"/><glyph glyph-name="four" unicode="4" horiz-adv-x="691" d="M392 700h183V277h75V121h-75V0H389v121H32L19 285zM223 277h166v183z"/><glyph glyph-name="five" unicode="5" horiz-adv-x="665" d="M591 699V538H242v-83h94q63 0 111.5-10t91.5-34 66-71.5T628 224q0-62-26-108.5t-69-73-92-39T340-9Q205-9 126.5 48.5T47 232h193q0-41 30-61.5t68-20.5q13 0 27.5 3t31.5 10.5 27.5 23T435 224q0 24-9.5 40.5T399 288t-31.5 9.5T336 300H59v399h532z"/><glyph glyph-name="six" unicode="6" horiz-adv-x="706" d="M652 497H463q-3 30-32 45.5T358 558t-77-23-33-61v-66q64 48 162 48 115 0 186.5-59.5T668 229q0-62-25.5-110T573 43.5 476 2 363-12q-80 0-147.5 23.5T101 92 54 231v243q0 79 44.5 134.5t111 79.5T357 712q62 0 113-11t93-35 65.5-67T652 497zM363 150q47 0 77.5 21.5T471 229q0 40-29 62.5T364 314q-55 0-84.5-23.5T250 230q0-33 30-56.5t83-23.5z"/><glyph glyph-name="seven" unicode="7" horiz-adv-x="593" d="M285 0H71l265 538H29v163h552l5-89z"/><glyph glyph-name="eight" unicode="8" horiz-adv-x="721" d="M361 292q-52 0-83-19.5T247 218t32.5-54.5T360 144q47 0 79.5 19t31.5 54q0 34-29 54.5T361 292zM42 218q1 35 24.5 78t68.5 67q-70 50-72 139 0 103 80.5 158T352 715q131 0 219.5-55.5T660 504q1-41-18.5-76.5T586 370q49-27 70-70t22-82q2-121-84.5-177T360-15q-95 0-164.5 21.5T83 81.5 42 218zm314 204q37 0 62 14.5t31 35.5.5 42.5-30.5 36-62 14.5-62-14.5-31-35.5 0-42.5 31-36 61-14.5z"/><glyph glyph-name="nine" unicode="9" horiz-adv-x="708" d="M49 203h189q3-30 32-45.5t73-15.5q46 0 81.5 24t35.5 66v60q-60-48-162-48-115 0-186.5 59.5T40 471q0 62 25.5 110t69.5 75.5 97 41.5 113 14q80 0 147.5-23.5T607 608t47-139V233q0-63-26-112t-71-77-98.5-42T345-12q-49 0-91.5 6.5t-81 22.5-65 40T65 118.5 49 203zm296 347q-47 0-77.5-21.5T237 471q0-40 29-62.5t78-22.5q55 0 84.5 23.5T458 470q0 33-30 56.5T345 550z"/><glyph glyph-name="colon" unicode=":" horiz-adv-x="314" d="M57 83q0 42 29.5 65.5T156 172q41 0 71-23.5T257 83t-30-65.5T156-6q-40 0-69.5 23.5T57 83zm0 271q0 42 29 65t70 23 71-23 30-65-30-65.5-71-23.5-70 23.5T57 354z"/><glyph glyph-name="semicolon" unicode=";" horiz-adv-x="296" d="M54 354q0 39 27 60.5t65 21.5 66-21.5 28-60.5q0-40-28-61.5T146 271t-65 21.5T54 354zM241 61q0-50-58-169H87L108-5Q55 5 55 62q0 38 28.5 59.5T152 143q37 0 63-21.5T241 61z"/><glyph glyph-name="less" unicode="&lt;" horiz-adv-x="441" d="M245 309l144-136L274 56 31 304v12l245 247 114-117z"/><glyph glyph-name="equal" unicode="=" horiz-adv-x="557" d="M60 127v144h437V127H60zm0 214v145h437V341H60z"/><glyph glyph-name="greater" unicode="&gt;" horiz-adv-x="443" d="M53 164l149 145L51 455l116 112 245-250v-14L167 53z"/><glyph glyph-name="question" unicode="?" horiz-adv-x="601" d="M382 230H188q2 39 12 70.5t19.5 49 31.5 36 31 24.5 35 21q47 28 48 57 1 25-18 42.5T292 548q-83 0-83-74H33q-7 74 29 128.5t96 80T292 708q117 0 197-55t79-163q0-40-19-69.5T503 372t-54-36.5-46.5-44T382 230zM287-5q-50 0-78 30.5T181 93t28 67.5 78 30.5 79-30.5T395 93t-28.5-67.5T287-5z"/><glyph glyph-name="at" unicode="@" horiz-adv-x="922" d="M590-19l45-91q-80-47-175-47-63 0-122.5 14t-114 45.5T129-20 65 93.5 41 243q0 96 36.5 175.5T175 548t136.5 77T467 652q90 0 165-24t133-71 90.5-125.5T888 251q0-119-52.5-190T694-10q-77 0-101 79Q549-3 444-3 337-3 272 62t-65 181q0 114 70.5 179T444 487q46 0 83.5-17.5T582 422l6 49 107-17V133q0-16 7.5-22.5T717 104q28 0 44 37t16 107q0 157-79.5 227.5T467 546q-127 0-218.5-84T157 243q0-77 25-135t68.5-92 97-50.5T463-51q74 0 127 32zM460 363q-56 0-85-35t-29-84 29.5-83 85.5-34q55 0 85 34.5t30 87.5q0 49-30 81.5T460 363z"/><glyph glyph-name="A" unicode="A" horiz-adv-x="797" d="M600 0l-46 115H241L195 0H-15l314 700h200L812 0H600zM487 281l-89 223-90-223h179z"/><glyph glyph-name="B" unicode="B" horiz-adv-x="739" d="M266 287V154h167q36 0 55 18t19 48-19 48.5-55 18.5H266zm0 253V433h158q30 0 46.5 14t16.5 38-16.5 39.5T426 540H266zM71 700h358q111 0 182.5-50T683 504q0-101-77-136 47-25 72-69.5t25-93.5q0-56-23.5-97.5t-64.5-64-86-33T432 0H71v700z"/><glyph glyph-name="C" unicode="C" horiz-adv-x="707" d="M581 221L697 91Q587-18 416-18q-100 0-175.5 29.5T121 92.5t-66 115T33 345q0 69 23.5 134T125 597.5t120.5 86T416 716q156 0 271-112L565 484q-64 61-149 61-93 0-140.5-61.5T229 344q1-79 46.5-136.5T416 150q39 0 84.5 17.5T581 221z"/><glyph glyph-name="D" unicode="D" horiz-adv-x="771" d="M71 700h300q178 0 272-96.5T737 355q0-154-93.5-254.5T371 0H71v700zm196-165V167h104q88 0 129 54.5T541 357q0 78-42 128t-128 50H267z"/><glyph glyph-name="E" unicode="E" horiz-adv-x="672" d="M631 167V0H71v700h546V534H266V434h331V273H266V167h365z"/><glyph glyph-name="F" unicode="F" horiz-adv-x="641" d="M267 0H71v700h537V534H267V403h320V241H267V0z"/><glyph glyph-name="G" unicode="G" horiz-adv-x="756" d="M690 607L575 493q-65 61-160 61-88 0-138-52.5T227 349q0-50 16.5-93t61-75.5T415 148q85 0 135 36v90H373v155h342V118Q683 53 600.5 17T414-19q-100 0-176 31.5T118.5 97t-65 116.5T32 349q0 71 23.5 135.5t69 118T245 688t170 32q81 0 146-24t129-89z"/><glyph glyph-name="H" unicode="H" horiz-adv-x="788" d="M717-1H521v265H269V-1H71v700h198V433h252v266h196V-1z"/><glyph glyph-name="I" unicode="I" horiz-adv-x="339" d="M268 0H71v700h197V0z"/><glyph glyph-name="J" unicode="J" horiz-adv-x="728" d="M15 302h193q1-74 37-109.5t92-35.5q63 0 97.5 37.5T469 303v231H283v166h384V302q0-142-87.5-229.5T335-15Q15-15 15 302z"/><glyph glyph-name="K" unicode="K" horiz-adv-x="703" d="M690 700v-12L406 357Q582 163 714 12V0H469L269 233V0H71v700h198V470q37 46 184 230h237z"/><glyph glyph-name="L" unicode="L" horiz-adv-x="620" d="M71 700h198V168h335V0H71v700z"/><glyph glyph-name="M" unicode="M" horiz-adv-x="923" d="M656 0v417L477 205h-35L267 416V0H71v700h207l184-237 184 237h206V0H656z"/><glyph glyph-name="N" unicode="N" horiz-adv-x="799" d="M239 700l296-383q-2 31-6 143v240h199V0H560L268 377l3-153V0H71v700h168z"/><glyph glyph-name="O" unicode="O" horiz-adv-x="842" d="M810 350q0-172-106.5-269.5T421-17q-175 0-282 97.5T32 350q0 170 107.5 268.5T421 717q176 0 282.5-97.5T810 350zm-198 0q0 90-52 144t-139 54q-85 0-138-55.5T230 350q0-88 53.5-143T421 152q86 0 138.5 55T612 350z"/><glyph glyph-name="P" unicode="P" horiz-adv-x="709" d="M269 530V356h142q39 0 61 24.5t22 61.5-22 62.5-61 25.5H269zm142-341H269V0H71v700h340q135 0 208-73t73-182q0-112-73-183.5T411 189z"/><glyph glyph-name="Q" unicode="Q" horiz-adv-x="839" d="M806 351q0-116-59-208l79-81L694-68l-88 90q-80-38-187-38-174 0-280.5 98.5T32 351t106.5 268T419 717q175 0 281-98t106-268zm-198 0q0 88-51.5 143T419 549q-84 0-137.5-55.5T228 351q0-90 53-144t138-54q87 0 138 52.5T608 351z"/><glyph glyph-name="R" unicode="R" horiz-adv-x="737" d="M719 12V0H501L338 227h-69V0H71v700h342q128 0 200-70t72-171q0-71-32.5-122.5T537 248zM413 542H269V374h146q37 0 56 23.5t19 57.5q0 36-20 61.5T413 542z"/><glyph glyph-name="S" unicode="S" horiz-adv-x="666" d="M600 631l-98-125q-64 48-164 48-40 0-67.5-13T243 502q0-33 27-44.5t89-17.5q57-6 104-20.5t89.5-40.5 66.5-69.5T643 208q0-76-45-129T485.5 3.5 336-20Q234-21 163 4.5T23 103l109 125q81-79 205-79 50 0 80 16.5t30 45.5q0 53-117 64-64 6-110 17.5T131.5 328 67 395.5 45 502q0 104 85.5 158T338 714q156 0 262-83z"/><glyph glyph-name="T" unicode="T" horiz-adv-x="636" d="M219 0v537H15v163h606V537H416V0H219z"/><glyph glyph-name="U" unicode="U" horiz-adv-x="782" d="M524 699h197V308q1-154-87-238.5T391-15q-156 0-243 83.5T61 310v389h197V310q0-80 35-118t98-38q62 0 97.5 38.5T524 308v391z"/><glyph glyph-name="V" unicode="V" horiz-adv-x="749" d="M762 700L471-3H278L-13 700h219l80-210 88-259 89 259 80 210h219z"/><glyph glyph-name="W" unicode="W" horiz-adv-x="1066" d="M1072 700L817 1H656L532 336 412 1H252L-9 700h216l90-246q15-46 37-162l129 408h137l133-408q15 81 39 167l84 241h216z"/><glyph glyph-name="X" unicode="X" horiz-adv-x="714" d="M292 593l65-124 66 126 64 105h213v-11L480 352 715 8V0H500l-65 97-78 130-79-132-64-95H-1v8l235 344L14 689v11h213z"/><glyph glyph-name="Y" unicode="Y" horiz-adv-x="722" d="M217 700l145-240 151 240h223v-9L458 279V0H260v279L-6 692v8h223z"/><glyph glyph-name="Z" unicode="Z" horiz-adv-x="643" d="M42 540v160h561v-56L297 171h314V0H25v62l313 478H42z"/><glyph glyph-name="bracketleft" unicode="[" horiz-adv-x="372" d="M337-157H66v860h271V558H231V-12h106v-145z"/><glyph glyph-name="backslash" unicode="\" horiz-adv-x="533" d="M23 752h172L509-77H336z"/><glyph glyph-name="bracketright" unicode="]" horiz-adv-x="374" d="M308-157H35v145h106v570H35v145h273v-860z"/><glyph glyph-name="asciicircum" unicode="^" horiz-adv-x="638" d="M36 331v13l225 347h106l235-346v-14H425L313 494 208 331H36z"/><glyph glyph-name="underscore" unicode="_" horiz-adv-x="511" d="M9-143V3h493v-146H9z"/><glyph glyph-name="grave" unicode="`" horiz-adv-x="288" d="M-3 693v8h193l77-161v-6H106z"/><glyph glyph-name="a" unicode="a" horiz-adv-x="648" d="M412 441l9 53h173V0H424l-8 53q-30-34-74-49T253-9Q146-2 86.5 67.5T27 247q0 111 66.5 184.5T267 505q103 0 145-64zm-103-85q-43 0-71-29.5T210 247t28-79 71-29q45 0 73.5 31.5T411 247q0 50-27 79.5T309 356z"/><glyph glyph-name="b" unicode="b" horiz-adv-x="643" d="M238 700V452q43 53 137 53 107 0 173.5-72T615 247q0-117-58.5-183T389-9q-45-2-89 13t-74 49l-8-53H54v700h184zm95-344q-47 0-73-33t-26-81q0-41 27.5-72t71.5-31q43 0 71 29t28 79-28 79.5-71 29.5z"/><glyph glyph-name="c" unicode="c" horiz-adv-x="519" d="M406 184L511 74q-94-84-204-84-56 0-105 14.5t-89 44-63 80T27 246q0 65 23.5 116t63 81.5 88 46T304 505q117 0 194-77l-98-106q-35 36-85 36-51 0-79.5-32T207 245q0-43 28.5-72.5T314 143q54 0 92 41z"/><glyph glyph-name="d" unicode="d" horiz-adv-x="643" d="M405 452v248h184V0H425l-8 53q-30-34-74-49T254-9Q145-2 86.5 64T28 247q0 114 66.5 186T268 505q94 0 137-53zm-95-96q-43 0-71-29.5T211 247t28-79 71-29q44 0 71.5 31t27.5 72q0 48-26 81t-73 33z"/><glyph glyph-name="e" unicode="e" horiz-adv-x="590" d="M214 313h179q-2 37-44 52.5t-85.5.5-49.5-53zm88 193q136 0 211.5-84.5T558 195H213q9-30 42-46.5t68-16.5q74 0 127 40l90-101q-88-82-225-82-126 0-207 64.5T27 246q0 126 82 193t193 67z"/><glyph glyph-name="f" unicode="f" horiz-adv-x="428" d="M286 0H102v343H18v142h84v24q0 101 63.5 151.5T315 711q93 0 149-54l-56-111q-28 24-67 24-24 0-39.5-15.5T286 509v-24h128V343H286V0z"/><glyph glyph-name="g" unicode="g" horiz-adv-x="615" d="M34-35h173q-2-94 93-94 39 0 65 18.5T391-58q0 66-89 66-125 0-200 67.5T27 257t78.5 183.5T302 510q50 0 102-19 7 9 25.5 32.5T457 559l133-95-64-76q50-56 47-133-2-100-90-164 97-55 97-149 0-58-23.5-101.5t-64-68.5-89-37.5T300-278q-132 0-203 64.5T34-35zm268 394q-42 0-69-27t-27-75q0-43 27.5-70t68.5-27q39 0 66 25t27 72q0 43-26.5 72.5T302 359z"/><glyph glyph-name="h" unicode="h" horiz-adv-x="613" d="M54 700h186V441q50 64 132 64 83 0 138.5-57T566 274V0H383v273q-3 73-67 73-30 0-53-22t-24-63V0H54v700z"/><glyph glyph-name="i" unicode="i" horiz-adv-x="293" d="M43 621q0 44 31 68.5t73 24.5 72.5-24.5T250 621q0-43-31-67.5T147 529q-42 0-73 24.5T43 621zM54 0h185v486H54V0z"/><glyph glyph-name="j" unicode="j" horiz-adv-x="292" d="M43 621q0 44 31 68.5t73 24.5 72.5-24.5T250 621q0-43-31-67.5T147 529q-42 0-73 24.5T43 621zM-35-72l-35-129q59-29 115-31.5t98.5 19 68.5 71T238-23v509H54V-23q0-46-24-59t-65 10z"/><glyph glyph-name="k" unicode="k" horiz-adv-x="569" d="M54 700h185V349l103 145h205v-8L374 262 575 11V0H367L239 172V0H54v700z"/><glyph glyph-name="l" unicode="l" horiz-adv-x="290" d="M54 701h182V0H54v701z"/><glyph glyph-name="m" unicode="m" horiz-adv-x="882" d="M535 0H354v274q0 76-52 76-26 0-45-20.5T237 271V0H54v494h155l13-53q22 31 59 47.5t77 15.5q86-2 123-70 57 71 164 71 86 0 137.5-56.5T834 275V0H650v274q0 37-14.5 55T599 347q-26 0-45-18.5T535 272V0z"/><glyph glyph-name="n" unicode="n" d="M574 0H390v273q0 42-20 62t-49 20q-36 0-60.5-24.5T236 260V0H54v494h163l8-54q58 68 156 66 87-1 140-55t53-177V0z"/><glyph glyph-name="o" unicode="o" horiz-adv-x="618" d="M309 505q119 0 200.5-66T591 246q0-126-83.5-192T309-12q-55 0-104.5 15.5T115 49t-64 81-24 116q0 87 41.5 147.5t103.5 86T309 505zm0-366q46 0 74 30.5t28 76.5q0 45-27.5 76.5T309 354t-74.5-31.5T207 246t27.5-76 74.5-31z"/><glyph glyph-name="p" unicode="p" horiz-adv-x="643" d="M238 42v-248H54v700h164l8-53q30 34 74 49t89 13q109-7 167.5-73T615 247q0-114-66.5-186T375-11q-94 0-137 53zm95 96q43 0 71 29.5t28 79.5-28 79-71 29q-44 0-71.5-31T234 252q0-48 26-81t73-33z"/><glyph glyph-name="q" unicode="q" horiz-adv-x="643" d="M405-206V42q-43-53-137-53-107 0-173.5 72T28 247q0 117 58.5 183T254 503q45 2 89-13t74-49l8 53h164v-700H405zm-95 344q47 0 73 33t26 81q0 41-27.5 72T310 355q-43 0-71-29t-28-79 28-79.5 71-29.5z"/><glyph glyph-name="r" unicode="r" horiz-adv-x="472" d="M54 494h165l11-54q37 66 120 66 80 0 130-53l-74-133q-38 30-83 30-37 0-61-23.5T238 257V0H54v494z"/><glyph glyph-name="s" unicode="s" horiz-adv-x="511" d="M19 52l60 134q77-50 175-55 50 0 50 24 0 23-52 27-39 1-74 10t-67.5 27T59 269t-19 75q0 83 65.5 122.5T268 506q122 0 202-60l-78-110q-20 13-57 22t-67 8q-44 0-44-24 0-23 37-24 227-7 227-163 0-58-33.5-97T371 3 258-13q-66 0-132 17.5T19 52z"/><glyph glyph-name="t" unicode="t" horiz-adv-x="432" d="M98 614l183 20V491h111V350H280V188q1-48 49-48 29 0 54 17l40-136q-58-33-142-33-83 0-134 46T98 188v162H19v141h79v123z"/><glyph glyph-name="u" unicode="u" d="M48 494h184V221q0-42 20-62t49-20q36 0 60.5 23t24.5 69v263h182V0H405l-8 54q-58-68-156-66-87 1-140 55T48 220v274z"/><glyph glyph-name="v" unicode="v" horiz-adv-x="589" d="M187 494l54-138 53-160 50 160 53 138h195L388-3H205L-8 494h195z"/><glyph glyph-name="w" unicode="w" horiz-adv-x="836" d="M363 494h111l87-275 37 140 46 135h193L656-3H487l-69 187L350-3H179L-1 494h192l47-136 38-139z"/><glyph glyph-name="x" unicode="x" horiz-adv-x="566" d="M331 55l-48 84-48-84-32-55H0l166 248L16 485v9h198l34-60 35-70 35 69 34 61h198v-9L401 249 566 0H363z"/><glyph glyph-name="y" unicode="y" horiz-adv-x="582" d="M394 494h197L285-209H93L193 22-3 494h195l42-118 54-171 60 172z"/><glyph glyph-name="z" unicode="z" horiz-adv-x="495" d="M42 494h413v-62L267 158h197V0H23v57l197 291H42v146z"/><glyph glyph-name="braceleft" unicode="{" horiz-adv-x="386" d="M350-14v-132q-53-10-93-10Q90-156 90 19v141q0 11-2 19t-8 17-19.5 14-33.5 5v128q38 0 50.5 15.5T90 399v133q0 90 39 137t128 47q42 0 93-9V585q-87 18-87-60V385q0-23-.5-33.5T258 325t-14.5-27-27.5-21q29-16 38-40.5t9-63.5V37q0-29 13-42t32.5-12 41.5 3z"/><glyph glyph-name="bar" unicode="|" horiz-adv-x="311" d="M245 750V-70H66v820h179z"/><glyph glyph-name="braceright" unicode="}" horiz-adv-x="386" d="M36-146v132q22-2 41.5-3T110-5t13 42v136q0 39 9 63.5t38 40.5q-17 10-27.5 21T128 325t-4.5 26.5-.5 33.5v140q0 78-87 60v122q51 9 93 9 89 0 128-47t39-137V399q0-16 3.5-26.5t18-20T359 343V215q-38 0-50.5-15.5T296 160V19q0-175-167-175-40 0-93 10z"/><glyph glyph-name="asciitilde" unicode="~" horiz-adv-x="619" d="M170 208L47 253q10 71 54 113.5T216 408q27-1 59.5-14t56.5-26.5 47.5-21.5 41.5 3 30 46l123-45q-10-71-54-113.5T405 195q-32 1-69.5 20t-61 34-52 8.5T170 208z"/><glyph glyph-name="exclamdown" unicode="¡" horiz-adv-x="303" d="M244 269H57l-4-470h194zm-92 235q50 0 78-30.5t28-67.5-28-67.5-78-30.5-79 30.5T44 406t28.5 67.5T152 504z"/><glyph glyph-name="cent" unicode="¢" horiz-adv-x="561" d="M422 184L527 74Q460 13 383-3v-76H222V3Q140 26 91.5 86T43 246q0 98 49.5 159.5T222 491v85h161v-78q75-16 131-70l-98-106q-35 36-85 36-51 0-79.5-32T223 245q0-43 28.5-72.5T330 143q54 0 92 41z"/><glyph glyph-name="sterling" unicode="£" horiz-adv-x="669" d="M291 472q0-31 10-69h189V267H324q4-26-5-59.5T293 157h333V0H50v156q44 1 67 36t20 75H50v136h60q-8 35-10 68-5 107 64.5 173T361 710q119 0 187-57.5T611 483H436q-1 36-19.5 54T367 555q-35 0-55.5-21T291 472z"/><glyph glyph-name="currency" unicode="¤" horiz-adv-x="632" d="M316 233q35 0 55.5 20t20.5 56-20.5 56-55.5 20-55.5-20-20.5-56 20.5-56 55.5-20zm0 287q37 0 80-10l68 69 121-121-56-56q18-39 18-93 0-50-18-93l55-54L463 41l-67 67q-41-11-80-11-44 0-81 10l-66-67L48 161l55 56q-17 40-17 92 0 51 17 91l-58 58 121 121 70-69q36 10 80 10z"/><glyph glyph-name="yen" unicode="¥" horiz-adv-x="797" d="M139 110v119h157v41H139v127h80L28 692v8h220l74-123 74-140 76 139 78 124h220v-9L570 397h80V270H490v-41h160V110H490V0H296v110H139z"/><glyph glyph-name="brokenbar" unicode="¦" horiz-adv-x="318" d="M252 339H66v360h186V339zM66 280h186V-86H66v366z"/><glyph glyph-name="section" unicode="§" horiz-adv-x="639" d="M37 69l79 117q93-63 203-63 95 0 95 31 0 13-24 21t-67 7q-50-1-96.5 7.5t-86 27T78 269t-20 78q1 23 21 51t50 40q-65 35-65 101 0 48 25 83t67 53.5 86.5 26.5 92.5 8q70 0 126-15t110-63l-97-96q-47 36-139 36-90 0-90-29 0-26 84-26 39 0 74-3.5t72.5-15 63.5-29 41.5-48.5 12.5-72q-3-23-20-48.5T531 259q29-19 45-47t16-56q0-43-20-76t-49.5-51-69-29-72-14.5T315-18q-87 0-154 18T37 69zm384 282q0 39-92 39-100 0-100-38 0-18 24.5-28t63.5-10q104 0 104 37z"/><glyph glyph-name="dieresis" unicode="¨" horiz-adv-x="565" d="M38 626q0 40 27.5 63t65.5 23 66.5-23 28.5-63q0-38-28.5-60.5T131 543t-65.5 22.5T38 626zm290 0q0 40 28 63t67 23q37 0 65.5-23t28.5-63q0-38-28.5-60.5T423 543q-39 0-67 22.5T328 626z"/><glyph glyph-name="copyright" unicode="©" horiz-adv-x="818" d="M413 721q171 0 268-102t97-263q0-162-97-263.5T413-9Q243-9 141 93.5T39 356q0 156 102.5 260.5T413 721zM225 352q0-88 57.5-138.5T421 163q91 0 157 65l-68 68q-33-33-80-33-41 0-70 23.5T331 352q0 47 28.5 71.5T430 448q44 0 78-30l67 66q-64 63-150 63-82 0-138.5-51.5T225 352zm-76 4q0-120 72.5-194T413 88q120 0 188 72.5T669 356t-68 195-188 72q-118 0-191-74.5T149 356z"/><glyph glyph-name="ordfeminine" unicode="ª" horiz-adv-x="438" d="M274 652l13 42h107V362H281l-8 44q-27-52-102-52-70 4-112.5 48T16 528t44.5 127.5T175 701q67 0 99-49zm-75-64q-26 0-42-16t-16-44q0-29 16-45t42-16q27 0 42.5 18t15.5 43q0 24-15.5 42T199 588zM36 206v106h355V206H36z"/><glyph glyph-name="guillemotleft" unicode="«" horiz-adv-x="558" d="M29 297l139 222h153v1L182 297q98-162 139-223H168zm206 0l139 222h154v1L389 297 528 74H374z"/><glyph glyph-name="logicalnot" unicode="¬" horiz-adv-x="557" d="M491 394V135H337v125H58v134h433z"/><glyph glyph-name="registered" unicode="®" horiz-adv-x="818" d="M583 170l-83 129q34 10 55 37t22 59.5-12 63.5-48 52-84 21H267V170h103v108h42l60-108h111zM368 443h69q14 0 24-8.5t12.5-20.5.5-23.5-12-20-24-8.5h-70v81zm45 278q171 0 268-102t97-263q0-162-97-263.5T413-9Q243-9 141 93.5T39 356q0 156 102.5 260.5T413 721zM149 356q0-120 72.5-194T413 88q120 0 188 72.5T669 356t-68 195-188 72q-118 0-191-74.5T149 356z"/><glyph glyph-name="macron" unicode="¯" horiz-adv-x="453" d="M45 561v140h350V561H45z"/><glyph glyph-name="degree" unicode="°" horiz-adv-x="389" d="M195 708q75 0 117.5-43.5T355 563q0-59-42.5-101.5T193 419q-76 0-117.5 42T34 562q0 58 42.5 102T195 708zm-1-101q-22 0-34-13t-12-31 12.5-30.5T194 520t33.5 12.5T240 563t-11.5 31-34.5 13z"/><glyph glyph-name="plusminus" unicode="±" horiz-adv-x="563" d="M60 328v156h137v134h170V484h136V328H367V194H197v134H60zM58-2v147h447V-2H58z"/><glyph glyph-name="twosuperior" unicode="²" horiz-adv-x="378" d="M142 636H37q1 58 44.5 91.5T187 761q68 0 112.5-33t44.5-93q0-26-10-46t-21.5-31.5-35-21-37-12.5-39.5-9q-60-13-63-35h203V378H35v99q0 32 11 54t34.5 35 39.5 18.5 47 12.5q19 5 26.5 7t19.5 7 16.5 10.5T234 635q0 31-46 31-40 0-46-30z"/><glyph glyph-name="threesuperior" unicode="³" horiz-adv-x="384" d="M189 529h-62v80h58q50 0 50 31 0 28-51 28-48 0-54-28H34q0 59 46.5 90T187 761q62 0 109-30.5t47-91.5q0-21-11.5-41T300 569q53-21 53-80 0-45-27.5-73.5t-61.5-37-76-8.5q-66 0-113 31t-48 93h112q4-28 48-28 21 0 36 8t15 24q0 31-49 31z"/><glyph glyph-name="acute" unicode="´" horiz-adv-x="288" d="M276 701v-8L167 534H6v6l77 161h193z"/><glyph glyph-name="mu" unicode="µ" horiz-adv-x="641" d="M597 0H448l-18 63q-14-38-50-56t-77-8.5T235 44v-249H63v699h179V259q0-51 26.5-74t63.5-23q38 0 63 24.5t26 73.5v234h176V0z"/><glyph glyph-name="mu" unicode="μ" horiz-adv-x="641" d="M597 0H448l-18 63q-14-38-50-56t-77-8.5T235 44v-249H63v699h179V259q0-51 26.5-74t63.5-23q38 0 63 24.5t26 73.5v234h176V0z"/><glyph glyph-name="paragraph" unicode="¶" horiz-adv-x="891" d="M456 532v-732H278v392q-128 0-199 99-60 86-45 194 15 114 107 172 67 43 162 43h548V532h-91v-732H578v732H456z"/><glyph glyph-name="periodcentered" unicode="·" horiz-adv-x="298" d="M148 199q-49 0-77 29.5T43 294t28 65.5 77 29.5 77-29.5 28-65.5-28-65.5-77-29.5z"/><glyph glyph-name="cedilla" unicode="¸" horiz-adv-x="364" d="M42-199l63 66q24-24 60.5-27.5T213-135q7 26-26 38.5t-59-5.5l-28 21 42 110h118l-19-53q64-7 90.5-48.5T341-167q-19-57-78.5-81t-124-9.5T42-199z"/><glyph glyph-name="onesuperior" unicode="¹" horiz-adv-x="286" d="M33 379v95h61v158q-7-1-25.5-5.5T43 621v93l158 42V474h63v-95H33z"/><glyph glyph-name="ordmasculine" unicode="º" horiz-adv-x="425" d="M35 181v124h356V181H35zm177 163q-87 0-141 48T17 530q0 89 53.5 135.5T212 712q89 0 142-46.5T407 530q0-90-54-138t-141-48zm0 125q26 0 43 16t17 45q0 28-17 44.5T212 591q-25 0-42.5-16.5T152 530q0-29 17.5-45t42.5-16z"/><glyph glyph-name="guillemotright" unicode="»" horiz-adv-x="557" d="M390 521l139-222L390 77H236l139 222-139 223v-1h154zm-205 0l139-222L185 77H32l139 222L32 522v-1h153z"/><glyph glyph-name="onequarter" unicode="¼" horiz-adv-x="798" d="M584 372h136V155h44V60h-44V0H616v60H423l-4 91zm32-217v104q-13-16-39-50t-43-54h82zM255-1H134l388 705h123zM42 323v97h61v156q-45-9-52-10v92l160 42V420h62v-97H42z"/><glyph glyph-name="onehalf" unicode="½" horiz-adv-x="812" d="M248-2H129l388 706h121zM39 322v97h61v156q-9-2-29.5-6T49 565v93l159 42V419h63v-97H39zm535-69H469q1 57 45 90.5T619 377q70 0 113.5-32t43.5-93q0-32-12-55t-36.5-36.5-43-19.5-49.5-13q-59-11-65-29h203V-5H467v99q0 31 11 53t33.5 35 39.5 19 47 13q24 5 35 8.5t22 11 11 18.5q0 14-13 21.5t-31 7.5q-42 0-48-28z"/><glyph glyph-name="threequarters" unicode="¾" horiz-adv-x="842" d="M305-6H183l391 710h123zm324 378h135V155h44V60h-44V0H660v60H467l-4 91zm31-217v104l-81-104h81zM192 485h-60v77h56q48 0 48 30 0 27-49 27-47 0-52-27H42q0 57 45 87t103 30q59 0 104.5-29.5T340 591q0-47-41-68 51-20 51-77 0-63-47-89t-112-26q-64 0-109.5 30T35 451h108q4-27 47-27 49 0 49 31 0 30-47 30z"/><glyph glyph-name="questiondown" unicode="¿" horiz-adv-x="594" d="M410 271H216q-1-35-20-62.5T150 162t-54-39-46-50.5T31 2q0-56 22-97.5t61.5-65 87.5-35T306-207q74 0 134 25.5t96 80T565 27H389q0-74-83-74-36 0-55 17.5T233 13q1 29 48 57 26 15 35 21t31 24.5 31.5 36 19.5 49 12 70.5zm-99 235q50 0 78-30.5t28-67.5-28-67.5-78-30.5-79 30.5-29 67.5 28.5 67.5T311 506z"/><glyph glyph-name="Agrave" unicode="À" horiz-adv-x="797" d="M600 0l-46 115H241L195 0H-15l314 700h200L812 0H600zM487 281l-89 223-90-223h179zM212 911v8h193l77-161v-6H321z"/><glyph glyph-name="Aacute" unicode="Á" horiz-adv-x="797" d="M554 115L600 0h212L499 700H299L-15 0h210l46 115h313zM398 504l89-223H308zm193 415v-8L482 752H321v6l77 161h193z"/><glyph glyph-name="Acircumflex" unicode="Â" horiz-adv-x="797" d="M554 115L600 0h212L499 700H299L-15 0h210l46 115h313zM398 504l89-223H308zm-58 411h114l152-157v-8H448l-51 47-51-47H188v8z"/><glyph glyph-name="Atilde" unicode="Ã" horiz-adv-x="797" d="M600 0l-46 115H241L195 0H-15l314 700h200L812 0H600zM487 281l-89 223-90-223h179zm-96 490q-79 43-105-14l-101 64q25 67 91 87.5T400 895q73-40 107 17l97-63q-27-69-84-91t-129 13z"/><glyph glyph-name="Adieresis" unicode="Ä" horiz-adv-x="797" d="M554 115L600 0h212L499 700H299L-15 0h210l46 115h313zM398 504l89-223H308zM158 830q0 40 27.5 63t65.5 23 66.5-23 28.5-63q0-38-28.5-60.5T251 747t-65.5 22.5T158 830zm290 0q0 40 28 63t67 23q37 0 65.5-23t28.5-63q0-38-28.5-60.5T543 747q-39 0-67 22.5T448 830z"/><glyph glyph-name="Aring" unicode="Å" horiz-adv-x="797" d="M399 879q54 0 93-25t53-60.5 9-75.5-32-70L812 0H600l-46 115H241L195 0H-15l292 650q-26 30-31 70t9 75 52 59.5 92 24.5zm47-495l-48 146-49-146-41-103h179zm-45 395q-29 0-41-21t0-42 41-21q28 0 39.5 21t0 42-39.5 21z"/><glyph glyph-name="AE" unicode="Æ" horiz-adv-x="925" d="M-26 0v11l415 689h480V542H626V432h226V279H626V157h258V0H444v105H236L173 0H-26zm361 278h109l3 116 12 124z"/><glyph glyph-name="Ccedilla" unicode="Ç" horiz-adv-x="708" d="M217-221l65 64q25-23 62.5-26.5T393-159q7 25-26.5 37t-60.5-5l-29 21 39 97Q174 17 104.5 114T34 345q0 69 23.5 134T126 597.5t120.5 86T417 716q156 0 271-112L566 484q-64 61-149 61-93 0-140.5-61.5T230 344q1-79 46.5-136.5T417 150q39 0 84.5 17.5T582 221L698 91Q594-12 434-18l-12-33q65-7 92.5-47t10.5-92q-19-55-81-78t-128-9-99 56z"/><glyph glyph-name="Egrave" unicode="È" horiz-adv-x="672" d="M631 167V0H71v700h546V534H266V434h331V273H266V167h365zM177 910v8h193l77-161v-6H286z"/><glyph glyph-name="Eacute" unicode="É" horiz-adv-x="672" d="M631 0v167H266v106h331v161H266v100h351v166H71V0h560zM530 918v-8L421 751H260v6l77 161h193z"/><glyph glyph-name="Ecircumflex" unicode="Ê" horiz-adv-x="672" d="M631 0v167H266v106h331v161H266v100h351v166H71V0h560zM296 912h114l152-157v-8H404l-51 47-51-47H144v8z"/><glyph glyph-name="Edieresis" unicode="Ë" horiz-adv-x="672" d="M631 0v167H266v106h331v161H266v100h351v166H71V0h560zM112 836q0 40 27.5 63t65.5 23 66.5-23 28.5-63q0-38-28.5-60.5T205 753t-65.5 22.5T112 836zm290 0q0 40 28 63t67 23q37 0 65.5-23t28.5-63q0-38-28.5-60.5T497 753q-39 0-67 22.5T402 836z"/><glyph glyph-name="Igrave" unicode="Ì" horiz-adv-x="339" d="M268 0H71v700h197V0zM-9 910v8h193l77-161v-6H100z"/><glyph glyph-name="Iacute" unicode="Í" horiz-adv-x="339" d="M71 0h197v700H71V0zm279 916v-8L241 749H80v6l77 161h193z"/><glyph glyph-name="Icircumflex" unicode="Î" horiz-adv-x="339" d="M71 0h197v700H71V0zm44 915h114l152-157v-8H223l-51 47-51-47H-37v8z"/><glyph glyph-name="Idieresis" unicode="Ï" horiz-adv-x="339" d="M-50 847q0 40 27.5 63T43 933t66.5-23 28.5-63q0-38-28.5-60.5T43 764t-65.5 22.5T-50 847zm263 0q0 40 28 63t67 23q37 0 65.5-23t28.5-63q0-38-28.5-60.5T308 764q-39 0-67 22.5T213 847zM71 0h197v700H71V0z"/><glyph glyph-name="Eth" unicode="Ð" horiz-adv-x="773" d="M7 281v142h78v277h279q176 0 275.5-95.5T739 361q0-157-96-259T364 0H85v281H7zm269 0V162h88q89 0 133.5 52T543 361q1 90-45 135.5T364 542h-88V423h121V281H276z"/><glyph glyph-name="Ntilde" unicode="Ñ" horiz-adv-x="799" d="M239 700l296-383q-2 31-6 143v240h199V0H560L268 377l3-153V0H71v700h168zm148 85q-83 47-111-15l-107 68q26 71 96.5 92.5T397 917q77-43 114 18l103-67q-29-74-89.5-97T387 785z"/><glyph glyph-name="Ograve" unicode="Ò" horiz-adv-x="842" d="M810 350q0-172-106.5-269.5T421-17q-175 0-282 97.5T32 350q0 170 107.5 268.5T421 717q176 0 282.5-97.5T810 350zm-198 0q0 90-52 144t-139 54q-85 0-138-55.5T230 350q0-88 53.5-143T421 152q86 0 138.5 55T612 350zM247 928v8h193l77-161v-6H356z"/><glyph glyph-name="Oacute" unicode="Ó" horiz-adv-x="842" d="M810 350q0 172-106.5 269.5T421 717q-174 0-281.5-98.5T32 350q0-172 107-269.5T421-17q176 0 282.5 97.5T810 350zm-198 0q0-88-52.5-143T421 152q-84 0-137.5 55T230 350q0 87 53 142.5T421 548q87 0 139-54t52-144zm-10 586v-8L493 769H332v6l77 161h193z"/><glyph glyph-name="Ocircumflex" unicode="Ô" horiz-adv-x="842" d="M810 350q0 172-106.5 269.5T421 717q-174 0-281.5-98.5T32 350q0-172 107-269.5T421-17q176 0 282.5 97.5T810 350zm-198 0q0-88-52.5-143T421 152q-84 0-137.5 55T230 350q0 87 53 142.5T421 548q87 0 139-54t52-144zM367 928h114l152-157v-8H475l-51 47-51-47H215v8z"/><glyph glyph-name="Otilde" unicode="Õ" horiz-adv-x="842" d="M810 350q0-172-106.5-269.5T421-17q-175 0-282 97.5T32 350q0 170 107.5 268.5T421 717q176 0 282.5-97.5T810 350zm-198 0q0 90-52 144t-139 54q-85 0-138-55.5T230 350q0-88 53.5-143T421 152q86 0 138.5 55T612 350zM419 788q-82 46-110-14l-106 67q26 70 95.5 91T429 918q33-21 62-18t50 36l101-66q-27-72-87-95t-136 13z"/><glyph glyph-name="Odieresis" unicode="Ö" horiz-adv-x="842" d="M810 350q0 172-106.5 269.5T421 717q-174 0-281.5-98.5T32 350q0-172 107-269.5T421-17q176 0 282.5 97.5T810 350zm-198 0q0-88-52.5-143T421 152q-84 0-137.5 55T230 350q0 87 53 142.5T421 548q87 0 139-54t52-144zM184 843q0 40 27.5 63t65.5 23 66.5-23 28.5-63q0-38-28.5-60.5T277 760t-65.5 22.5T184 843zm290 0q0 40 28 63t67 23q37 0 65.5-23t28.5-63q0-38-28.5-60.5T569 760q-39 0-67 22.5T474 843z"/><glyph glyph-name="multiply" unicode="×" horiz-adv-x="476" d="M161 508l79-84 83 85 111-111-87-89 87-87-113-106-83 84q-63-65-81-85L41 229l84 83-81 83z"/><glyph glyph-name="Oslash" unicode="Ø" horiz-adv-x="842" d="M610 769h173l-91-140q118-99 118-279 0-172-106.5-269.5T421-17q-71 0-136 17l-48-74H66l90 139Q32 165 32 350q0 170 107.5 268.5T421 717q76 0 142-20zM421 548q-85 0-138-55.5T230 350q0-68 33-118l202 312q-28 4-44 4zm191-198q0 64-28 112L385 155q18-3 36-3 86 0 138.5 55T612 350z"/><glyph glyph-name="Ugrave" unicode="Ù" horiz-adv-x="780" d="M523 699h197V308q1-154-87-238.5T390-15q-156 0-243 83.5T60 310v389h197V310q0-80 35-118t98-38q62 0 97.5 38.5T523 308v391zM216 917v8h193l77-161v-6H325z"/><glyph glyph-name="Uacute" unicode="Ú" horiz-adv-x="780" d="M720 699H523V308q0-77-35.5-115.5T390 154q-63 0-98 38t-35 118v389H60V310q0-158 87-241.5T390-15q155 0 243 84.5T720 308v391zM567 924v-8L458 757H297v6l77 161h193z"/><glyph glyph-name="Ucircumflex" unicode="Û" horiz-adv-x="780" d="M720 699H523V308q0-77-35.5-115.5T390 154q-63 0-98 38t-35 118v389H60V310q0-158 87-241.5T390-15q155 0 243 84.5T720 308v391zM336 929h114l152-157v-8H444l-51 47-51-47H184v8z"/><glyph glyph-name="Udieresis" unicode="Ü" horiz-adv-x="780" d="M720 699H523V308q0-77-35.5-115.5T390 154q-63 0-98 38t-35 118v389H60V310q0-158 87-241.5T390-15q155 0 243 84.5T720 308v391zM148 848q0 40 27.5 63t65.5 23 66.5-23 28.5-63q0-38-28.5-60.5T241 765t-65.5 22.5T148 848zm290 0q0 40 28 63t67 23q37 0 65.5-23t28.5-63q0-38-28.5-60.5T533 765q-39 0-67 22.5T438 848z"/><glyph glyph-name="Yacute" unicode="Ý" horiz-adv-x="722" d="M362 460L217 700H-6v-8l266-413V0h198v279l278 412v9H513zm183 464v-8L436 757H275v6l77 161h193z"/><glyph glyph-name="Thorn" unicode="Þ" horiz-adv-x="696" d="M70 0l1 700h196V592h134q133 0 206.5-71.5T681 351t-73.5-169.5T401 110H267V0H70zm197 427V272h134q40 0 62 23t22 54-22 54.5-62 23.5H267z"/><glyph glyph-name="germandbls" unicode="ß" horiz-adv-x="634" d="M290-5v146q28-6 42-6 85 0 85 89 0 44-27.5 59.5T316 299h-26v161h16q31 0 48 13t17 36-17.5 36-40.5 13q-30 0-47.5-14.5T247 504V0H54v507q0 94 78 149t182 55q103 0 175.5-48.5T562 515q0-86-88-127 134-49 134-177 0-107-69-164T361-10q-40 0-71 5z"/><glyph glyph-name="agrave" unicode="à" horiz-adv-x="648" d="M412 441l9 53h173V0H424l-8 53q-30-34-74-49T253-9Q146-2 86.5 67.5T27 247q0 111 66.5 184.5T267 505q103 0 145-64zm-103-85q-43 0-71-29.5T210 247t28-79 71-29q45 0 73.5 31.5T411 247q0 50-27 79.5T309 356zM165 708v7h189l76-158v-6H272z"/><glyph glyph-name="aacute" unicode="á" horiz-adv-x="648" d="M421 494l-9-53q-42 64-145 64-107 0-173.5-73.5T27 247q0-110 59.5-179.5T253-9q45-2 89 13t74 49l8-53h170v494H421zM309 356q48 0 75-29.5t27-79.5q0-45-28.5-76.5T309 139q-43 0-71 29t-28 79 28 79.5 71 29.5zm189 358v-8L391 551H234v6l75 157h189z"/><glyph glyph-name="acircumflex" unicode="â" horiz-adv-x="648" d="M421 494l-9-53q-42 64-145 64-107 0-173.5-73.5T27 247q0-110 59.5-179.5T253-9q45-2 89 13t74 49l8-53h170v494H421zM309 356q48 0 75-29.5t27-79.5q0-45-28.5-76.5T309 139q-43 0-71 29t-28 79 28 79.5 71 29.5zm-35 359h114l152-157v-8H382l-51 47-51-47H122v8z"/><glyph glyph-name="atilde" unicode="ã" horiz-adv-x="648" d="M412 441l9 53h173V0H424l-8 53q-30-34-74-49T253-9Q146-2 86.5 67.5T27 247q0 111 66.5 184.5T267 505q103 0 145-64zm-103-85q-43 0-71-29.5T210 247t28-79 71-29q45 0 73.5 31.5T411 247q0 50-27 79.5T309 356zm14 217q-76 45-101-14l-97 66q16 45 51.5 70.5t75.5 25 80-20.5q70-40 103 18l93-65q-26-71-81-93.5T323 573z"/><glyph glyph-name="adieresis" unicode="ä" horiz-adv-x="648" d="M122 635q0 40 27.5 63t65.5 23 66.5-23 28.5-63q0-38-28.5-60.5T215 552t-65.5 22.5T122 635zm256 0q0 40 28 63t67 23q37 0 65.5-23t28.5-63q0-38-28.5-60.5T473 552q-39 0-67 22.5T378 635zm43-141l-9-53q-42 64-145 64-107 0-173.5-73.5T27 247q0-110 59.5-179.5T253-9q45-2 89 13t74 49l8-53h170v494H421zM309 356q48 0 75-29.5t27-79.5q0-45-28.5-76.5T309 139q-43 0-71 29t-28 79 28 79.5 71 29.5z"/><glyph glyph-name="aring" unicode="å" horiz-adv-x="648" d="M412 441l9 53h173V0H424l-8 53q-30-34-74-49T253-9Q146-2 86.5 67.5T27 247q0 111 66.5 184.5T267 505q103 0 145-64zm-103-85q-43 0-71-29.5T210 247t28-79 71-29q45 0 73.5 31.5T411 247q0 50-27 79.5T309 356zm13 432q48 0 83-18t51-45.5 16-59-15.5-59-51-45.5-83.5-18q-47 0-81.5 18T190 606.5t-16 59 15.5 59T240 770t82 18zm1-88q-26 0-36.5-17t0-34 36.5-17 36.5 17 0 34-36.5 17z"/><glyph glyph-name="ae" unicode="æ" horiz-adv-x="946" d="M315 356q-43 0-71-29.5T216 247t28-79 71-29q46 0 75 28.5t29 74.5q0 54-27.5 84T315 356zm258-43h182q-2 37-45 52.5t-87 .5-50-53zm337-118H572q9-30 43.5-46.5T685 132q74 0 127 40l90-101q-88-82-225-82-94 0-137 56l-3-45H424l-8 53q-30-34-74-49T253-9Q146-2 86.5 67.5T27 247q0 111 66.5 184.5T267 505q103 0 145-64l9 53h116l3-41q63 52 148 50 116-1 184.5-84.5T910 195z"/><glyph glyph-name="ccedilla" unicode="ç" horiz-adv-x="520" d="M406 184L511 74Q427 0 331-9l-16-42q65-7 92-44.5t11-85.5q-19-54-79.5-78t-126-10.5T114-213l64 61q24-22 61-25.5t48 23.5q4 16-10.5 27.5t-35 12.5-40.5-9l-28 19L216 0Q130 21 78.5 82T27 246q0 65 23.5 116t63 81.5 88 46T304 505q117 0 194-77l-98-106q-35 36-85 36-51 0-79.5-32T207 245q0-43 28.5-72.5T314 143q54 0 92 41z"/><glyph glyph-name="egrave" unicode="è" horiz-adv-x="590" d="M214 313h179q-2 37-44 52.5t-85.5.5-49.5-53zm88 193q136 0 211.5-84.5T558 195H213q9-30 42-46.5t68-16.5q74 0 127 40l90-101q-88-82-225-82-126 0-207 64.5T27 246q0 126 82 193t193 67zM143 707v8h187l75-156v-6H249z"/><glyph glyph-name="eacute" unicode="é" horiz-adv-x="590" d="M214 313h179q-2 37-44 52.5t-85.5.5-49.5-53zm88 193q136 0 211.5-84.5T558 195H213q9-30 42-46.5t68-16.5q74 0 127 40l90-101q-88-82-225-82-126 0-207 64.5T27 246q0 126 82 193t193 67zm179 208v-8L375 552H219v6l75 156h187z"/><glyph glyph-name="ecircumflex" unicode="ê" horiz-adv-x="590" d="M214 313h179q-2 37-44 52.5t-85.5.5-49.5-53zm88 193q136 0 211.5-84.5T558 195H213q9-30 42-46.5t68-16.5q74 0 127 40l90-101q-88-82-225-82-126 0-207 64.5T27 246q0 126 82 193t193 67zm-55 205h114l152-157v-8H355l-51 47-51-47H95v8z"/><glyph glyph-name="edieresis" unicode="ë" horiz-adv-x="590" d="M106 635q0 38 26.5 60t61.5 22q36 0 63-22t27-60q0-36-27-57.5T194 556q-35 0-61.5 21.5T106 635zm244 0q0 38 26.5 60t63.5 22q35 0 62-22t27-60q0-36-27-57.5T440 556q-37 0-63.5 21.5T350 635zM214 313h179q-2 37-44 52.5t-85.5.5-49.5-53zm88 193q136 0 211.5-84.5T558 195H213q9-30 42-46.5t68-16.5q74 0 127 40l90-101q-88-82-225-82-126 0-207 64.5T27 246q0 126 82 193t193 67z"/><glyph glyph-name="igrave" unicode="ì" horiz-adv-x="292" d="M0 698v8h171l52-157v-6H74zM238 0H54v494h184V0z"/><glyph glyph-name="iacute" unicode="í" horiz-adv-x="292" d="M283 706v-8l-74-155H55v6l57 157h171zM54 0h184v494H54V0z"/><glyph glyph-name="icircumflex" unicode="î" horiz-adv-x="292" d="M91 709h101l134-159v-8H184l-43 45-45-45H-44v8zM54 0h184v494H54V0z"/><glyph glyph-name="idieresis" unicode="ï" horiz-adv-x="292" d="M-55 619q0 41 26 65t62 24 63-24 27-65q0-39-27-62t-63-23-62 23-26 62zm220 0q0 41 27 65t63 24 62.5-24 26.5-65q0-39-26.5-62T255 534t-63 23-27 62zM54 0h184v494H54V0z"/><glyph glyph-name="eth" unicode="ð" horiz-adv-x="585" d="M294 656l53 63 103-79-43-50q81-63 116-153.5T555 250q-7-119-72-188.5T291-8Q166-8 96.5 64.5T27 238q0 107 69 175.5T275 482q21 0 32-1-76 66-197 81l28 131q96-12 156-37zm-3-515q41 0 64.5 30.5t24 67-23 67T291 336q-40 0-63-30.5t-23-67 22.5-67T291 141z"/><glyph glyph-name="ntilde" unicode="ñ" d="M574 0H390v273q0 42-20 62t-49 20q-36 0-60.5-24.5T236 260V0H54v494h163l8-54q58 68 156 66 87-1 140-55t53-177V0zM315 585q-70 45-94-14l-91 65q23 68 82 88t111-14q29-20 54-17.5t43 35.5l87-64q-24-70-75-92t-117 13z"/><glyph glyph-name="ograve" unicode="ò" horiz-adv-x="618" d="M309 505q119 0 200.5-66T591 246q0-126-83.5-192T309-12q-55 0-104.5 15.5T115 49t-64 81-24 116q0 87 41.5 147.5t103.5 86T309 505zm0-366q46 0 74 30.5t28 76.5q0 45-27.5 76.5T309 354t-74.5-31.5T207 246t27.5-76 74.5-31zM138 709v7h194l77-153v-6H247z"/><glyph glyph-name="oacute" unicode="ó" horiz-adv-x="618" d="M309 505q-75 0-137-25.5t-103.5-86T27 246q0-65 24-116t64-81 89.5-45.5T309-12q115 0 198.5 66T591 246q0 127-81.5 193T309 505zm0-366q-47 0-74.5 31T207 246t27.5 76.5T309 354t74.5-31.5T411 246q0-46-28-76.5T309 139zm168 574v-8L370 552H213v6l75 155h189z"/><glyph glyph-name="ocircumflex" unicode="ô" horiz-adv-x="618" d="M309 505q-75 0-137-25.5t-103.5-86T27 246q0-65 24-116t64-81 89.5-45.5T309-12q115 0 198.5 66T591 246q0 127-81.5 193T309 505zm0-366q-47 0-74.5 31T207 246t27.5 76.5T309 354t74.5-31.5T411 246q0-46-28-76.5T309 139zm-57 571h114l152-157v-8H360l-51 47-51-47H100v8z"/><glyph glyph-name="otilde" unicode="õ" horiz-adv-x="618" d="M309 505q119 0 200.5-66T591 246q0-126-83.5-192T309-12q-55 0-104.5 15.5T115 49t-64 81-24 116q0 87 41.5 147.5t103.5 86T309 505zm0-366q46 0 74 30.5t28 76.5q0 45-27.5 76.5T309 354t-74.5-31.5T207 246t27.5-76 74.5-31zm6 430q-74 44-99-14l-96 65q23 69 86 90t118-14q68-40 101 18l91-65q-25-71-78.5-93.5T315 569z"/><glyph glyph-name="odieresis" unicode="ö" horiz-adv-x="618" d="M96 638q0 40 27.5 63t65.5 23 66.5-23 28.5-63q0-38-28.5-60.5T189 555t-65.5 22.5T96 638zm240 0q0 40 28 63t67 23q37 0 65.5-23t28.5-63q0-38-28.5-60.5T431 555q-39 0-67 22.5T336 638zm-27-130q-75 0-137-25.5t-103.5-86T27 249q0-65 24-116t64-81 89.5-45.5T309-9q115 0 198.5 66T591 249q0 127-81.5 193T309 508zm0-366q-47 0-74.5 31T207 249t27.5 76.5T309 357t74.5-31.5T411 249q0-46-28-76.5T309 142z"/><glyph glyph-name="divide" unicode="÷" horiz-adv-x="541" d="M38 399V254h465v145H38zm139-266q0 43 28.5 66t69.5 23q40 0 69-23.5t29-65.5q0-41-29-64t-69-23-69 23-29 64zm0 388q0 42 28.5 65t69.5 23q40 0 69-23t29-65-29-65-69-23-69 23-29 65z"/><glyph glyph-name="oslash" unicode="ø" horiz-adv-x="619" d="M310 139q47 0 72.5 30t25.5 77-25.5 77.5T310 354t-72.5-30.5T212 246t25.5-77 72.5-30zm0 366q28 0 61-5l33 55h170l-67-110q85-69 85-199 0-67-24-118.5t-65-81-90-44T310-12q-19 0-57 4l-31-52H51l65 107q-88 68-88 199 0 130 81.5 194.5T310 505z"/><glyph glyph-name="ugrave" unicode="ù" d="M48 494h184V221q0-42 20-62t49-20q36 0 60.5 23t24.5 69v263h182V0H405l-8 54q-58-68-156-66-87 1-140 55T48 220v274zm82 207v8h193l77-155v-5H239z"/><glyph glyph-name="uacute" unicode="ú" d="M232 494H48V220q0-123 53-177t140-55q98-2 156 66l8-54h163v494H386V231q0-46-24.5-69T301 139q-29 0-49 20t-20 62v273zm262 219v-8L384 550H222v6l78 157h194z"/><glyph glyph-name="ucircumflex" unicode="û" d="M232 494H48V220q0-123 53-177t140-55q98-2 156 66l8-54h163v494H386V231q0-46-24.5-69T301 139q-29 0-49 20t-20 62v273zm16 219h117l155-150v-8H359l-52 45-52-45H93v8z"/><glyph glyph-name="udieresis" unicode="ü" d="M232 494H48V220q0-123 53-177t140-55q98-2 156 66l8-54h163v494H386V231q0-46-24.5-69T301 139q-29 0-49 20t-20 62v273zM74 629q0 38 27.5 60.5T166 712t65-22.5 28-60.5q0-37-28-58.5T166 549t-64.5 21.5T74 629zm286 0q0 38 27.5 60.5T453 712q37 0 64.5-22.5T545 629q0-37-28-58.5T453 549q-38 0-65.5 21.5T360 629z"/><glyph glyph-name="yacute" unicode="ý" horiz-adv-x="582" d="M591 494H394l-46-117-60-172-54 171-42 118H-3L193 22 93-209h192zM477 711v-8L368 544H207v6l77 161h193z"/><glyph glyph-name="thorn" unicode="þ" horiz-adv-x="640" d="M340 147q39 0 65 27t26 72-26 72-65 27q-36 0-63-29.5T250 246t26.5-69.5T340 147zM237-194H54v882h183V451q57 53 152 53 104 0 164-74.5T613 250q0-108-60-183.5T379-9q-85 0-142 51v-236z"/><glyph glyph-name="ydieresis" unicode="ÿ" horiz-adv-x="582" d="M591 494H394l-46-117-60-172-54 171-42 118H-3L193 22 93-209h192zM61 627q0 40 27.5 63t65.5 23 66.5-23 28.5-63q0-38-28.5-60.5T154 544t-65.5 22.5T61 627zm290 0q0 40 28 63t67 23q37 0 65.5-23t28.5-63q0-38-28.5-60.5T446 544q-39 0-67 22.5T351 627z"/><glyph glyph-name="Amacron" unicode="Ā" horiz-adv-x="797" d="M600 0l-46 115H241L195 0H-15l314 700h200L812 0H600zM487 281l-89 223-90-223h179zM223 744v140h350V744H223z"/><glyph glyph-name="amacron" unicode="ā" horiz-adv-x="648" d="M412 441l9 53h173V0H424l-8 53q-30-34-74-49T253-9Q146-2 86.5 67.5T27 247q0 111 66.5 184.5T267 505q103 0 145-64zm-103-85q-43 0-71-29.5T210 247t28-79 71-29q45 0 73.5 31.5T411 247q0 50-27 79.5T309 356zM169 568v139h335V568H169z"/><glyph glyph-name="Abreve" unicode="Ă" horiz-adv-x="797" d="M600 0l-46 115H241L195 0H-15l314 700h200L812 0H600zM487 281l-89 223-90-223h179zM215 904h140q0-24 14.5-33t28.5-9q9 0 17.5 2.5T433 877t9 27h140q2-75-48.5-118T398 743q-84 0-134.5 43T215 904z"/><glyph glyph-name="abreve" unicode="ă" horiz-adv-x="648" d="M412 441l9 53h173V0H424l-8 53q-30-34-74-49T253-9Q146-2 86.5 67.5T27 247q0 111 66.5 184.5T267 505q103 0 145-64zm-103-85q-43 0-71-29.5T210 247t28-79 71-29q45 0 73.5 31.5T411 247q0 50-27 79.5T309 356zM153 714h138q0-16 9-26t17.5-12 16.5-2 16.5 2 17.5 12 9 26h138q2-72-48-114t-133-42-133 42-48 114z"/><glyph glyph-name="Aogonek" unicode="Ą" horiz-adv-x="797" d="M581 49l-27 66H241L195 0H-15l314 700h200L812 0q-41 4-72 2.5t-47.5-7-27-13.5T655-35t2-18q7-20 41.5-20.5T748-64l70-89q-41-36-109.5-44.5T580-178t-72 87q-10 47 10 85t63 55zm-94 232l-89 223-90-223h179z"/><glyph glyph-name="aogonek" unicode="ą" horiz-adv-x="648" d="M412 441l9 53h173V-39q-24 10-61.5.5T502-78q3-12 20-15.5t34.5-.5 27.5 8l56-77q-38-30-96-36.5T436.5-183 377-110q-8 39 7.5 69.5T434 5l-14 52q-28-37-74-53T253-9Q146-2 86.5 67.5T27 247q0 111 66.5 184.5T267 505q103 0 145-64zm-103-85q-43 0-71-29.5T210 247t28-79 71-29q45 0 73.5 31.5T411 247q0 50-27 79.5T309 356z"/><glyph glyph-name="Cacute" unicode="Ć" horiz-adv-x="707" d="M697 91L581 221q-35-36-80.5-53.5T416 150q-95 0-140.5 57.5T229 344q-1 78 46.5 139.5T416 545q85 0 149-61l122 120Q572 716 416 716q-95 0-170.5-32.5t-120.5-86T56.5 479 33 345q0-74 22-137.5t66-115 119.5-81T416-18q171 0 281 109zM566 919v-8L463 760H310v6l73 153h183z"/><glyph glyph-name="cacute" unicode="ć" horiz-adv-x="519" d="M511 74L406 184q-38-41-92-41-50 0-78.5 29.5T207 245q0 49 28.5 81t79.5 32q50 0 85-36l98 106q-77 77-194 77-54 0-102.5-15.5t-88-46-63-81.5T27 246q0-67 23-117.5t63-80 89-44T307-10q110 0 204 84zm-66 626v-7l-98-144H200v5l70 146h175z"/><glyph glyph-name="Ccircumflex" unicode="Ĉ" horiz-adv-x="707" d="M697 91L581 221q-35-36-80.5-53.5T416 150q-95 0-140.5 57.5T229 344q-1 78 46.5 139.5T416 545q85 0 149-61l122 120Q572 716 416 716q-95 0-170.5-32.5t-120.5-86T56.5 479 33 345q0-74 22-137.5t66-115 119.5-81T416-18q171 0 281 109zM350 940h114l152-157v-8H458l-51 47-51-47H198v8z"/><glyph glyph-name="ccircumflex" unicode="ĉ" horiz-adv-x="519" d="M511 74L406 184q-38-41-92-41-50 0-78.5 29.5T207 245q0 49 28.5 81t79.5 32q50 0 85-36l98 106q-77 77-194 77-54 0-102.5-15.5t-88-46-63-81.5T27 246q0-67 23-117.5t63-80 89-44T307-10q110 0 204 84zM246 703h106l141-146v-7H346l-47 43-47-43H106v7z"/><glyph glyph-name="Cdotaccent" unicode="Ċ" horiz-adv-x="707" d="M697 91L581 221q-35-36-80.5-53.5T416 150q-95 0-140.5 57.5T229 344q-1 78 46.5 139.5T416 545q85 0 149-61l122 120Q572 716 416 716q-95 0-170.5-32.5t-120.5-86T56.5 479 33 345q0-74 22-137.5t66-115 119.5-81T416-18q171 0 281 109zM311 858q0 39 29.5 61t69.5 22 69.5-22 29.5-61-29.5-61-69.5-22-69.5 22-29.5 61z"/><glyph glyph-name="cdotaccent" unicode="ċ" horiz-adv-x="519" d="M511 74L406 184q-38-41-92-41-50 0-78.5 29.5T207 245q0 49 28.5 81t79.5 32q50 0 85-36l98 106q-77 77-194 77-54 0-102.5-15.5t-88-46-63-81.5T27 246q0-67 23-117.5t63-80 89-44T307-10q110 0 204 84zM210 638q0 38 26.5 58.5T300 717t63.5-20.5T390 638q0-37-27-58t-63-21-63 21-27 58z"/><glyph glyph-name="Ccaron" unicode="Č" horiz-adv-x="707" d="M697 91L581 221q-35-36-80.5-53.5T416 150q-95 0-140.5 57.5T229 344q-1 78 46.5 139.5T416 545q85 0 149-61l122 120Q572 716 416 716q-95 0-170.5-32.5t-120.5-86T56.5 479 33 345q0-74 22-137.5t66-115 119.5-81T416-18q171 0 281 109zM469 761H354L202 907v7h158l52-43 51 43h158v-7z"/><glyph glyph-name="ccaron" unicode="č" horiz-adv-x="519" d="M511 74L406 184q-38-41-92-41-50 0-78.5 29.5T207 245q0 49 28.5 81t79.5 32q50 0 85-36l98 106q-77 77-194 77-54 0-102.5-15.5t-88-46-63-81.5T27 246q0-67 23-117.5t63-80 89-44T307-10q110 0 204 84zM348 552H242L100 692v7h147l48-42 47 42h148v-7z"/><glyph glyph-name="Dcaron" unicode="Ď" horiz-adv-x="771" d="M371 700H71V0h300q179 0 272.5 100.5T737 355q0 152-94 248.5T371 700zM267 167v368h104q86 0 128-50t42-128q0-81-41-135.5T371 167H267zm131 597H274L109 909v7h172l55-43 55 43h171v-7z"/><glyph glyph-name="dcaron" unicode="ď" horiz-adv-x="722" d="M405 452v248h184V0H425l-8 53q-30-34-74-49T254-9Q145-2 86.5 64T28 247q0 114 66.5 186T268 505q94 0 137-53zm-95-96q-43 0-71-29.5T211 247t28-79 71-29q44 0 71.5 31t27.5 72q0 48-26 81t-73 33zm304 124l44 221h151l-77-221H614z"/><glyph glyph-name="Dcroat" unicode="Đ" horiz-adv-x="767" d="M17 285v138h59v277h300q89 0 159-29.5t112-80 63.5-111T733 352q1-68-20-130t-63-112-112.5-80T376 0H76v285H17zm252 0V167h107q84 0 124 55t37 132q-3 74-42.5 126.5T376 533H269V423h97V285h-97z"/><glyph glyph-name="dcroat" unicode="đ" horiz-adv-x="643" d="M321 543v110h84v47h184v-47h62V543h-62V0H425l-8 53q-30-34-74-49T254-9Q145-2 86.5 64T28 247q0 114 66.5 186T268 505q94 0 137-53v91h-84zm-11-187q-43 0-71-29.5T211 247t28-79 71-29q44 0 71.5 31t27.5 72q0 48-26 81t-73 33z"/><glyph glyph-name="Emacron" unicode="Ē" horiz-adv-x="672" d="M631 167V0H71v700h546V534H266V434h331V273H266V167h365zM191 757v134h335V757H191z"/><glyph glyph-name="emacron" unicode="ē" horiz-adv-x="590" d="M214 313h179q-2 37-44 52.5t-85.5.5-49.5-53zm88 193q136 0 211.5-84.5T558 195H213q9-30 42-46.5t68-16.5q74 0 127 40l90-101q-88-82-225-82-126 0-207 64.5T27 246q0 126 82 193t193 67zm-148 58v129h312V564H154z"/><glyph glyph-name="Ebreve" unicode="Ĕ" horiz-adv-x="672" d="M631 167V0H71v700h546V534H266V434h331V273H266V167h365zM174 901h135q0-15 9-24.5t17-12 16-2.5 16 2.5 17 12 9 24.5h135q2-70-46.5-110.5T351 750q-81 0-130 40.5T174 901z"/><glyph glyph-name="ebreve" unicode="ĕ" horiz-adv-x="590" d="M214 313h179q-2 37-44 52.5t-85.5.5-49.5-53zm88 193q136 0 211.5-84.5T558 195H213q9-30 42-46.5t68-16.5q74 0 127 40l90-101q-88-82-225-82-126 0-207 64.5T27 246q0 126 82 193t193 67zM138 710h136q0-40 43-40 42 0 42 40h137q2-73-47.5-115T317 553q-83 0-132.5 42T138 710z"/><glyph glyph-name="Edotaccent" unicode="Ė" horiz-adv-x="672" d="M631 0v167H266v106h331v161H266v100h351v166H71V0h560zM257 845q0 40 31 62.5t74 22.5q42 0 73.5-22.5T467 845t-31.5-62.5T362 760q-43 0-74 22.5T257 845z"/><glyph glyph-name="edotaccent" unicode="ė" horiz-adv-x="590" d="M214 313h179q-2 37-44 52.5t-85.5.5-49.5-53zm88 193q136 0 211.5-84.5T558 195H213q9-30 42-46.5t68-16.5q74 0 127 40l90-101q-88-82-225-82-126 0-207 64.5T27 246q0 126 82 193t193 67zm-94 125q0 40 30 63t71 23 71-23 30-63-30-62.5-71-22.5-71 22.5-30 62.5z"/><glyph glyph-name="Eogonek" unicode="Ę" horiz-adv-x="672" d="M631 167V0q-27 3-48.5 1T549-6.5t-19.5-13-7-15.5 3.5-16q6-11 24-13.5t34.5 1T612-54l68-84q-35-30-90-45t-111-5.5-85 46.5q-25 33-16 76t47 66H71v700h546V534H266V434h331V273H266V167h365z"/><glyph glyph-name="eogonek" unicode="ę" horiz-adv-x="591" d="M302 506q136 0 211.5-84.5T558 195H213q9-30 42-46.5t68-16.5q74 0 127 40l90-101Q483 18 406 0q-34-12-28-39 6-21 40.5-22T474-44l63-80q-29-36-86.5-49t-113 3.5T259-112q-14 28-7 56.5T285-10Q170-2 98.5 62T27 246q0 126 82 193t193 67zm-88-193h179q-2 37-44 52.5t-85.5.5-49.5-53z"/><glyph glyph-name="Ecaron" unicode="Ě" horiz-adv-x="672" d="M631 0v167H266v106h331v161H266v100h351v166H71V0h560zM413 750H298L145 893v8h159l52-43 51 43h159v-8z"/><glyph glyph-name="ecaron" unicode="ě" horiz-adv-x="590" d="M214 313h179q-2 37-44 52.5t-85.5.5-49.5-53zm88 193q136 0 211.5-84.5T558 195H213q9-30 42-46.5t68-16.5q74 0 127 40l90-101q-88-82-225-82-126 0-207 64.5T27 246q0 126 82 193t193 67zm63 44H252L100 692v7h158l50-43 51 43h158v-7z"/><glyph glyph-name="Gcircumflex" unicode="Ĝ" horiz-adv-x="756" d="M575 493l115 114q-64 65-129 89t-146 24q-95 0-170-32t-120.5-85.5-69-118T32 349q0-72 21.5-135.5t65-116.5T238 12.5 414-19q104 0 186.5 36T715 118v311H373V274h177v-90q-50-36-135-36-66 0-110.5 32.5t-61 75.5-16.5 93q0 100 50 152.5T415 554q95 0 160-61zM347 924h118l158-150v-7H459l-53 45-53-45H189v7z"/><glyph glyph-name="gcircumflex" unicode="ĝ" horiz-adv-x="610" d="M34-35h173q-2-94 93-94 39 0 65 18.5T391-58q0 66-89 66-125 0-200 67.5T27 257t78.5 183.5T302 510q50 0 102-19l43 58 132-97-53-64q50-56 47-133-2-100-90-164 97-55 97-149 0-58-23.5-101.5t-64-68.5-89-37.5T300-278q-132 0-203 64.5T34-35zm268 394q-42 0-69-27t-27-75q0-43 27.5-70t68.5-27q39 0 66 25t27 72q0 43-26.5 72.5T302 359zm-49 372h123l164-153v-7H370l-56 45-55-45H88v7z"/><glyph glyph-name="Gbreve" unicode="Ğ" horiz-adv-x="756" d="M690 607L575 493q-65 61-160 61-88 0-138-52.5T227 349q0-50 16.5-93t61-75.5T415 148q85 0 135 36v90H373v155h342V118Q683 53 600.5 17T414-19q-100 0-176 31.5T118.5 97t-65 116.5T32 349q0 71 23.5 135.5t69 118T245 688t170 32q81 0 146-24t129-89zM221 927h141q0-24 14.5-33t29.5-9q8 0 16.5 2.5t18 12.5 9.5 27h141q2-75-49-117.5T406 767q-86 0-137 43t-48 117z"/><glyph glyph-name="gbreve" unicode="ğ" horiz-adv-x="615" d="M34-35h173q-2-94 93-94 39 0 65 18.5T391-58q0 66-89 66-125 0-200 67.5T27 257t78.5 183.5T302 510q50 0 102-19 7 9 25.5 32.5T457 559l133-95-64-76q50-56 47-133-2-100-90-164 97-55 97-149 0-58-23.5-101.5t-64-68.5-89-37.5T300-278q-132 0-203 64.5T34-35zm268 394q-42 0-69-27t-27-75q0-43 27.5-70t68.5-27q39 0 66 25t27 72q0 43-26.5 72.5T302 359zM115 720h141q0-16 9-26t18-12.5 17-2.5 16.5 2.5 18 12.5 9.5 26h141q2-74-49-116t-136-42q-86 0-137 42t-48 116z"/><glyph glyph-name="Gdotaccent" unicode="Ġ" horiz-adv-x="756" d="M575 493l115 114q-64 65-129 89t-146 24q-95 0-170-32t-120.5-85.5-69-118T32 349q0-72 21.5-135.5t65-116.5T238 12.5 414-19q104 0 186.5 36T715 118v311H373V274h177v-90q-50-36-135-36-66 0-110.5 32.5t-61 75.5-16.5 93q0 100 50 152.5T415 554q95 0 160-61zM308 858q0 42 31 65.5t74 23.5q42 0 73-23.5t31-65.5-31-65.5-73-23.5q-43 0-74 23.5T308 858z"/><glyph glyph-name="gdotaccent" unicode="ġ" horiz-adv-x="615" d="M34-35h173q-2-94 93-94 39 0 65 18.5T391-58q0 66-89 66-125 0-200 67.5T27 257t78.5 183.5T302 510q50 0 102-19 7 9 25.5 32.5T457 559l133-95-64-76q50-56 47-133-2-100-90-164 97-55 97-149 0-58-23.5-101.5t-64-68.5-89-37.5T300-278q-132 0-203 64.5T34-35zm268 394q-42 0-69-27t-27-75q0-43 27.5-70t68.5-27q39 0 66 25t27 72q0 43-26.5 72.5T302 359zM202 650q0 42 31 65.5t73 23.5 73-23.5 31-65.5-31-65.5-73-23.5-73 23.5-31 65.5z"/><glyph glyph-name="Gcommaaccent" unicode="Ģ" horiz-adv-x="756" d="M690 607L575 493q-65 61-160 61-88 0-138-52.5T227 349q0-50 16.5-93t61-75.5T415 148q85 0 135 36v90H373v155h342V118Q683 53 600.5 17T414-19q-100 0-176 31.5T118.5 97t-65 116.5T32 349q0 71 23.5 135.5t69 118T245 688t170 32q81 0 146-24t129-89zM500-141q0-48-58-164h-97l22 100q-54 10-54 65 0 37 29 58t69 21q37 0 63-21t26-59z"/><glyph glyph-name="gcommaaccent" unicode="ģ" horiz-adv-x="615" d="M209 652q1 17 6.5 38t11.5 34.5 18 38.5 16 35h117l-17-88q50-15 49-56-1-39-30.5-60T310 573t-71 21.5-30 57.5zM34-35h173q-2-94 93-94 39 0 65 18.5T391-58q0 66-89 66-125 0-200 67.5T27 257t78.5 183.5T302 510q50 0 102-19 7 9 25.5 32.5T457 559l133-95-64-76q50-56 47-133-2-100-90-164 97-55 97-149 0-58-23.5-101.5t-64-68.5-89-37.5T300-278q-132 0-203 64.5T34-35zm268 394q-42 0-69-27t-27-75q0-43 27.5-70t68.5-27q39 0 66 25t27 72q0 43-26.5 72.5T302 359z"/><glyph glyph-name="Hcircumflex" unicode="Ĥ" horiz-adv-x="788" d="M521 0h196v700H521V434H269v266H71V0h198v265h252V0zM329 926h120l160-156v-8H443l-54 46-53-46H169v8z"/><glyph glyph-name="hcircumflex" unicode="ĥ" horiz-adv-x="613" d="M240 700H54V0h185v261q1 41 24 63t53 22q64 0 67-73V0h183v274q0 117-55.5 174T372 505q-82 0-132-64v259zm8 211h109l146-152v-7H351l-49 45-49-45H102v7z"/><glyph glyph-name="Hbar" unicode="Ħ" horiz-adv-x="798" d="M722-1H526v260H274V-1H76v502H17v113h59v85h198v-85h252v85h196v-85h62V501h-62V-1zM274 427h252v74H274v-74z"/><glyph glyph-name="hbar" unicode="ħ" horiz-adv-x="613" d="M-1 539v111h55v50h186v-50h81V539h-81v-98q50 64 132 64 83 0 138.5-57T566 274V0H383v273q-3 73-67 73-30 0-53-22t-24-63V0H54v539H-1z"/><glyph glyph-name="Itilde" unicode="Ĩ" horiz-adv-x="339" d="M268 0H71v700h197V0zM167 782q-77 43-102-14l-99 65q24 67 89 88t121-13q70-41 104 17l94-64q-26-70-81.5-92.5T167 782z"/><glyph glyph-name="itilde" unicode="ĩ" horiz-adv-x="292" d="M238 0H54v494h184V0zm-92 569q-62 43-82-14l-79 63q13 44 42 68.5t61.5 24T153 691q57-38 83 17l75-62q-21-68-65-89.5T146 569z"/><glyph glyph-name="Imacron" unicode="Ī" horiz-adv-x="339" d="M268 0H71v700h197V0zM17 761v144h301V761H17z"/><glyph glyph-name="imacron" unicode="ī" horiz-adv-x="292" d="M238 0H54v494h184V0zM16 563v134h263V563H16z"/><glyph glyph-name="Ibreve" unicode="Ĭ" horiz-adv-x="339" d="M268 0H71v700h197V0zM-7 923h134q0-18 9-28.5t17-13 16-2.5 16 2.5 17 13 9 28.5h134q2-79-46.5-124.5T169 753 39.5 798.5-7 923z"/><glyph glyph-name="ibreve" unicode="ĭ" horiz-adv-x="292" d="M238 0H54v494h184V0zM-7 701h118q0-17 7.5-27t15-12 14.5-2 14 2 15 12 8 27h118q1-75-41.5-117.5T148 541q-72 0-114.5 42.5T-7 701z"/><glyph glyph-name="Iogonek" unicode="Į" horiz-adv-x="339" d="M180-45q5-19 36-19t45 9l62-83q-34-31-91-45t-112 1-76 61q-14 33-6 67.5T71 3v697h197V0h-40q-24-2-38.5-14.5T180-45z"/><glyph glyph-name="iogonek" unicode="į" horiz-adv-x="294" d="M44 621q0 44 31 68.5t73 24.5 72.5-24.5T251 621q0-43-31-67.5T148 529q-42 0-73 24.5T44 621zM241-15l-1 15v486H55V10Q7-29 17-92q8-54 61-78t113-15 95 40l-55 82q-18-14-50-13t-37 20q-7 29 27.5 39t69.5 2z"/><glyph glyph-name="Idotaccent" unicode="İ" horiz-adv-x="339" d="M71 0h197v700H71V0zM57 835q0 41 32 64t77 23q44 0 76.5-23t32.5-64q0-42-32.5-65T166 747q-45 0-77 23t-32 65z"/><glyph glyph-name="dotlessi" unicode="ı" horiz-adv-x="292" d="M238 0H54v494h184V0z"/><glyph glyph-name="IJ" unicode="Ĳ" horiz-adv-x="1067" d="M268 0H71v700h197V0zm86 302h193q1-74 37-109.5t92-35.5q63 0 97.5 37.5T808 303v231H622v166h384V302q0-142-87.5-229.5T674-15q-320 0-320 317z"/><glyph glyph-name="ij" unicode="ĳ" horiz-adv-x="585" d="M43 621q0 44 31 68.5t73 24.5 72.5-24.5T250 621q0-43-31-67.5T147 529q-42 0-73 24.5T43 621zM54 0h185v486H54V0zm282 621q0 44 31 68.5t73 24.5 72.5-24.5T543 621q0-43-31-67.5T440 529q-42 0-73 24.5T336 621zM258-72l-35-129q59-29 115-31.5t98.5 19 68.5 71T531-23v509H347V-23q0-46-24.5-59T258-72z"/><glyph glyph-name="Jcircumflex" unicode="Ĵ" horiz-adv-x="728" d="M208 302H15Q15-15 335-15q157 0 244.5 87.5T667 302v398H283V534h186V303q0-71-34.5-108.5T337 157q-56 0-92 35.5T208 302zm167 622h119l158-164v-9H488l-53 49-53-49H217v9z"/><glyph glyph-name="jcircumflex" unicode="ĵ" horiz-adv-x="292" d="M72 723h101l135-172v-9H168l-46 52-45-52H-64v9zM-35-72l-35-129q59-29 115-31.5t98.5 19 68.5 71T238-23v509H54V-23q0-46-24-59t-65 10z"/><glyph glyph-name="Kcommaaccent" unicode="Ķ" horiz-adv-x="703" d="M690 700v-12L406 357Q582 163 714 12V0H469L269 233V0H71v700h198V470q37 46 184 230h237zM449-126q0-46-60-162H288l22 99q-56 10-56 64 0 36 30 57t72 21q39 0 66-20.5t27-58.5z"/><glyph glyph-name="kcommaaccent" unicode="ķ" horiz-adv-x="569" d="M54 700h185V349l103 145h205v-8L374 262 575 11V0H367L239 172V0H54v700zm333-825q0-48-58-164h-96l21 100q-53 10-53 65 0 37 28.5 58T298-45q37 0 63-21t26-59z"/><glyph glyph-name="kgreenlandic" unicode="ĸ" horiz-adv-x="569" d="M54 495h185V349l103 145h205v-8L374 262 575 11V0H367L239 172V0H54v495z"/><glyph glyph-name="Lacute" unicode="Ĺ" horiz-adv-x="620" d="M269 700H71V0h533v168H269v532zm85 210v-7L244 757H81v6l78 147h195z"/><glyph glyph-name="lacute" unicode="ĺ" horiz-adv-x="290" d="M236 701H54V0h182v701zm84 205v-7L216 757H63v5l73 144h184z"/><glyph glyph-name="Lcommaaccent" unicode="Ļ" horiz-adv-x="620" d="M71 700h198V168h335V0H71v700zm359-827q0-50-58-169h-96l21 103q-53 10-53 67 0 38 28.5 59.5T341-45q37 0 63-21.5t26-60.5z"/><glyph glyph-name="lcommaaccent" unicode="ļ" horiz-adv-x="290" d="M54 701h182V0H54v701zm182-833q0-50-58-169H82l21 103q-53 10-53 67 0 38 28.5 59.5T147-50q37 0 63-21.5t26-60.5z"/><glyph glyph-name="Lcaron" unicode="Ľ" d="M71 700h198V168h335V0H71v700zm308-233l47 235h161l-82-235H379z"/><glyph glyph-name="lcaron" unicode="ľ" horiz-adv-x="383" d="M54 702h182V0H54v702zm207-238l47 236h161l-82-236H261z"/><glyph glyph-name="Ldot" unicode="Ŀ" horiz-adv-x="620" d="M71 700h198V168h335V0H71v700zm375-425q-49 0-77 29.5T341 370t28 65.5 77 29.5 77-29.5 28-65.5-28-65.5-77-29.5z"/><glyph glyph-name="ldot" unicode="ŀ" horiz-adv-x="481" d="M54 701h182V0H54v701zm332-456q-49 0-77 29.5T281 340t28 65.5 77 29.5 77-29.5 28-65.5-28-65.5-77-29.5z"/><glyph glyph-name="Lslash" unicode="Ł" horiz-adv-x="628" d="M277 453l99 52V356l-99-50V166h336V0H80v209l-69-35v145l69 35v346h197V453z"/><glyph glyph-name="lslash" unicode="ł" horiz-adv-x="331" d="M317 470V339l-64-32V0H71v215l-58-32v135l58 30v339h182V439z"/><glyph glyph-name="Nacute" unicode="Ń" horiz-adv-x="799" d="M535 317L239 700H71V0h200v224l-3 153L560 0h168v700H529V460q4-112 6-143zm38 602v-8L458 756H288v6l81 157h204z"/><glyph glyph-name="nacute" unicode="ń" d="M390 0h184v274q0 123-53 177t-140 55q-98 2-156-66l-8 54H54V0h182v260q0 46 24.5 70.5T321 355q29 0 49-20t20-62V0zm88 712v-7L375 555H224v6l72 151h182z"/><glyph glyph-name="Ncommaaccent" unicode="Ņ" horiz-adv-x="799" d="M239 700l296-383q-2 31-6 143v240h199V0H560L268 377l3-153V0H71v700h168zm263-815q0-50-58-169h-96l21 103q-53 10-53 67 0 38 28.5 59.5T413-33q37 0 63-21.5t26-60.5z"/><glyph glyph-name="ncommaaccent" unicode="ņ" d="M574 0H390v273q0 42-20 62t-49 20q-36 0-60.5-24.5T236 260V0H54v494h163l8-54q58 68 156 66 87-1 140-55t53-177V0zM405-121q0-50-58-169h-96l21 103q-53 10-53 67 0 38 28.5 59.5T316-39q37 0 63-21.5t26-60.5z"/><glyph glyph-name="Ncaron" unicode="Ň" horiz-adv-x="799" d="M535 317L239 700H71V0h200v224l-3 153L560 0h168v700H529V460q4-112 6-143zm-81 436H341L189 898v7h158l50-43 51 43h158v-7z"/><glyph glyph-name="ncaron" unicode="ň" d="M390 0h184v274q0 123-53 177t-140 55q-98 2-156-66l-8 54H54V0h182v260q0 46 24.5 70.5T321 355q29 0 49-20t20-62V0zm-20 553H261L115 696v8h151l49-43 49 43h151v-8z"/><glyph glyph-name="napostrophe" unicode="ŉ" d="M574 0H390v273q0 42-20 62t-49 20q-36 0-60.5-24.5T236 260V0H54v494h163l8-54q58 68 156 66 87-1 140-55t53-177V0z"/><glyph glyph-name="Eng" unicode="Ŋ" horiz-adv-x="794" d="M526 700h197V-23q0-144-82.5-190.5T415-201l35 129q40-23 66.5-9.5T543-23v50q-91 115-177 220.5T269 366V0H71v700h165l290-369v369z"/><glyph glyph-name="eng" unicode="ŋ" d="M266-198l35 126q41-22 66-7.5T392-23v296q0 42-21 62t-50 20q-36 0-60.5-24.5T236 260V0H54v494h163l8-54q58 68 156 66 87-1 140-55t53-177V-25q0-68-26-116.5T479.5-211 381-229.5 266-198z"/><glyph glyph-name="Omacron" unicode="Ō" horiz-adv-x="842" d="M810 350q0-172-106.5-269.5T421-17q-175 0-282 97.5T32 350q0 170 107.5 268.5T421 717q176 0 282.5-97.5T810 350zm-198 0q0 90-52 144t-139 54q-85 0-138-55.5T230 350q0-88 53.5-143T421 152q86 0 138.5 55T612 350zM245 770v140h350V770H245z"/><glyph glyph-name="omacron" unicode="ō" horiz-adv-x="618" d="M309 505q119 0 200.5-66T591 246q0-126-83.5-192T309-12q-55 0-104.5 15.5T115 49t-64 81-24 116q0 87 41.5 147.5t103.5 86T309 505zm0-366q46 0 74 30.5t28 76.5q0 45-27.5 76.5T309 354t-74.5-31.5T207 246t27.5-76 74.5-31zM156 555v143h305V555H156z"/><glyph glyph-name="Obreve" unicode="Ŏ" horiz-adv-x="842" d="M810 350q0-172-106.5-269.5T421-17q-175 0-282 97.5T32 350q0 170 107.5 268.5T421 717q176 0 282.5-97.5T810 350zm-198 0q0 90-52 144t-139 54q-85 0-138-55.5T230 350q0-88 53.5-143T421 152q86 0 138.5 55T612 350zM237 919h142q0-16 9.5-26t18-12.5T424 878q8 0 16.5 2.5t18 12.5 9.5 26h143q2-74-49.5-116T424 761t-137.5 42T237 919z"/><glyph glyph-name="obreve" unicode="ŏ" horiz-adv-x="618" d="M309 505q119 0 200.5-66T591 246q0-126-83.5-192T309-12q-55 0-104.5 15.5T115 49t-64 81-24 116q0 87 41.5 147.5t103.5 86T309 505zm0-366q46 0 74 30.5t28 76.5q0 45-27.5 76.5T309 354t-74.5-31.5T207 246t27.5-76 74.5-31zM134 707h133q0-40 41-40 42 0 42 40h133q2-72-46.5-113.5T308 552t-128 41.5T134 707z"/><glyph glyph-name="Ohungarumlaut" unicode="Ő" horiz-adv-x="842" d="M810 350q0 172-106.5 269.5T421 717q-174 0-281.5-98.5T32 350q0-172 107-269.5T421-17q176 0 282.5 97.5T810 350zm-198 0q0-88-52.5-143T421 152q-84 0-137.5 55T230 350q0 87 53 142.5T421 548q87 0 139-54t52-144zM321 912h170v-7L388 763H222zm227 0h170v-7L615 763H449z"/><glyph glyph-name="ohungarumlaut" unicode="ő" horiz-adv-x="618" d="M309 505q-75 0-137-25.5t-103.5-86T27 246q0-65 24-116t64-81 89.5-45.5T309-12q115 0 198.5 66T591 246q0 127-81.5 193T309 505zm0-366q-47 0-74.5 31T207 246t27.5 76.5T309 354t74.5-31.5T411 246q0-46-28-76.5T309 139zm-91 557h160v-7l-97-137H125zm214 0h160v-7l-97-137H339z"/><glyph glyph-name="OE" unicode="Œ" horiz-adv-x="1023" d="M979 156V0H531q-56-17-130-17-181 0-274.5 101T33 353q0 165 94.5 264.5T401 717q50 0 126-16h444V549H669V437h284V287H669V156h310zM222 352q0-94 50-159.5T413 127q52 0 88 16v416q-41 16-93 16-81 0-133.5-66T222 352z"/><glyph glyph-name="oe" unicode="œ" horiz-adv-x="948" d="M574 313h177q-2 37-43.5 52.5t-84.5.5-49-53zM309 139q47 0 72.5 30t25.5 77-25.5 77.5T309 354t-72.5-30.5T211 246t25.5-77 72.5-30zm0 366q118 0 182-75 29 34 75.5 55t93.5 21q136 0 211.5-84.5T916 195H573q9-30 41.5-46.5T681 132q74 0 127 40l92-106q-88-76-230-76-119 0-180 74-82-76-193-76-115 0-192.5 67T27 246q0 130 81.5 194.5T309 505z"/><glyph glyph-name="Racute" unicode="Ŕ" horiz-adv-x="737" d="M719 0v12L537 248q83 37 115.5 88.5T685 459q0 101-72 171t-200 70H71V0h198v227h69L501 0h218zM269 542h144q37 0 57-25.5t20-61.5q0-34-19-57.5T415 374H269v168zm248 381v-8L408 763H247v5l77 155h193z"/><glyph glyph-name="racute" unicode="ŕ" horiz-adv-x="472" d="M219 494H54V0h184v257q0 46 24 69.5t61 23.5q45 0 83-30l74 133q-50 53-130 53-83 0-120-66zm180 211v-7L297 559H148v5l71 141h180z"/><glyph glyph-name="Rcommaaccent" unicode="Ŗ" horiz-adv-x="737" d="M719 12V0H501L338 227h-69V0H71v700h342q128 0 200-70t72-171q0-71-32.5-122.5T537 248zM413 542H269V374h146q37 0 56 23.5t19 57.5q0 36-20 61.5T413 542zm53-665q0-50-58-169h-96l21 103q-53 10-53 67 0 38 28.5 59.5T377-41q37 0 63-21.5t26-60.5z"/><glyph glyph-name="rcommaaccent" unicode="ŗ" horiz-adv-x="472" d="M54 494h165l11-54q37 66 120 66 80 0 130-53l-74-133q-38 30-83 30-37 0-61-23.5T238 257V0H54v494zm181-621q0-46-56-164H86l20 100q-51 10-51 65 0 37 27.5 58T149-47q36 0 61-21t25-59z"/><glyph glyph-name="Rcaron" unicode="Ř" horiz-adv-x="737" d="M719 0v12L537 248q83 37 115.5 88.5T685 459q0 101-72 171t-200 70H71V0h198v227h69L501 0h218zM269 542h144q37 0 57-25.5t20-61.5q0-34-19-57.5T415 374H269v168zm130 213H284L130 906v8h160l51-46 52 46h159v-8z"/><glyph glyph-name="rcaron" unicode="ř" horiz-adv-x="472" d="M219 494H54V0h184v257q0 46 24 69.5t61 23.5q45 0 83-30l74 133q-50 53-130 53-83 0-120-66zm94 58H206L64 695v7h148l47-42 48 42h148v-7z"/><glyph glyph-name="Sacute" unicode="Ś" horiz-adv-x="666" d="M502 506l98 125q-106 83-262 83-122 0-207.5-54T45 502q0-63 22-106.5t64.5-67.5 88.5-35.5T330 275q117-11 117-64 0-29-30-45.5T337 149q-124 0-205 79L23 103Q92 30 163 4.5T336-20q82 1 149.5 23.5T598 79t45 129q0 58-24 101.5T552.5 379 463 419.5 359 440q-62 6-89 17.5T243 502q0 26 27.5 39t67.5 13q100 0 164-48zm2 423v-8L396 764H236v6l76 159h192z"/><glyph glyph-name="sacute" unicode="ś" horiz-adv-x="511" d="M19 52l60 134q77-50 175-55 50 0 50 24 0 23-52 27-39 1-74 10t-67.5 27T59 269t-19 75q0 83 65.5 122.5T268 506q122 0 202-60l-78-110q-20 13-57 22t-67 8q-44 0-44-24 0-23 37-24 227-7 227-163 0-58-33.5-97T371 3 258-13q-66 0-132 17.5T19 52zm409 657v-7L328 556H180v5l70 148h178z"/><glyph glyph-name="Scircumflex" unicode="Ŝ" horiz-adv-x="666" d="M502 506l98 125q-106 83-262 83-122 0-207.5-54T45 502q0-63 22-106.5t64.5-67.5 88.5-35.5T330 275q117-11 117-64 0-29-30-45.5T337 149q-124 0-205 79L23 103Q92 30 163 4.5T336-20q82 1 149.5 23.5T598 79t45 129q0 58-24 101.5T552.5 379 463 419.5 359 440q-62 6-89 17.5T243 502q0 26 27.5 39t67.5 13q100 0 164-48zM290 921h114l152-157v-8H398l-51 47-51-47H138v8z"/><glyph glyph-name="scircumflex" unicode="ŝ" horiz-adv-x="511" d="M19 52l60 134q77-50 175-55 50 0 50 24 0 23-52 27-39 1-74 10t-67.5 27T59 269t-19 75q0 83 65.5 122.5T268 506q122 0 202-60l-78-110q-20 13-57 22t-67 8q-44 0-44-24 0-23 37-24 227-7 227-163 0-58-33.5-97T371 3 258-13q-66 0-132 17.5T19 52zm199 656h109l145-153v-8H321l-49 46-48-46H73v8z"/><glyph glyph-name="Scedilla" unicode="Ş" horiz-adv-x="668" d="M601 631l-98-125q-64 48-164 48-40 0-67.5-13T244 502q0-33 27-44.5t89-17.5q57-6 104-20.5t89.5-40.5 66.5-69.5T644 208q0-100-72-156.5T389-17l-10-28q67-7 94-46t11-91q-19-58-81.5-83T272-276t-104 58l67 68q26-23 64-26t50 25q7 25-27.5 36.5T259-120l-29 20 33 83Q126-5 24 103l109 125q81-79 205-79 50 0 80 16.5t30 45.5q0 53-117 64-64 6-110 17.5T132.5 328 68 395.5 46 502q0 104 85.5 158T339 714q156 0 262-83z"/><glyph glyph-name="scedilla" unicode="ş" horiz-adv-x="513" d="M20 52l60 134q77-50 175-55 50 0 50 24 0 23-52 27-39 1-74 10t-67.5 27T60 269t-19 75q0 83 65.5 122.5T269 506q122 0 202-60l-78-110q-20 13-57 22t-67 8q-44 0-44-24 0-23 37-24 227-7 227-163 0-73-49-113.5T313-9l-14-36q61-5 87-42.5t10-85.5q-19-53-76-75t-118.5-8-93.5 54l60 62q22-20 58.5-23.5T273-143q6 23-25.5 34t-56.5-5l-28 19 36 86Q84 5 20 52z"/><glyph glyph-name="Scaron" unicode="Š" horiz-adv-x="666" d="M502 506l98 125q-106 83-262 83-122 0-207.5-54T45 502q0-63 22-106.5t64.5-67.5 88.5-35.5T330 275q117-11 117-64 0-29-30-45.5T337 149q-124 0-205 79L23 103Q92 30 163 4.5T336-20q82 1 149.5 23.5T598 79t45 129q0 58-24 101.5T552.5 379 463 419.5 359 440q-62 6-89 17.5T243 502q0 26 27.5 39t67.5 13q100 0 164-48zM402 762H287L133 912v7h160l51-44 52 44h160v-7z"/><glyph glyph-name="scaron" unicode="š" horiz-adv-x="511" d="M19 52l60 134q77-50 175-55 50 0 50 24 0 23-52 27-39 1-74 10t-67.5 27T59 269t-19 75q0 83 65.5 122.5T268 506q122 0 202-60l-78-110q-20 13-57 22t-67 8q-44 0-44-24 0-23 37-24 227-7 227-163 0-58-33.5-97T371 3 258-13q-66 0-132 17.5T19 52zm305 500H221L82 695v7h144l46-42 47 42h143v-7z"/><glyph glyph-name="Tcommaaccent" unicode="Ţ" horiz-adv-x="636" d="M141-211l63 66q24-24 66.5-27.5T323-147q8 30-30.5 41t-65.5-8l-28 21 21 93-1 537H15v163h606V537H416V0h-56l-9-36q64-7 90.5-48.5T451-179q-19-59-82-84.5t-129.5-10T141-211z"/><glyph glyph-name="tcommaaccent" unicode="ţ" horiz-adv-x="434" d="M99 614l183 20V491h111V350H281V188q1-48 49-48 28 0 54 17l40-136Q370-9 297-12l-13-32q64-7 90.5-44.5T384-174q-21-57-80-79.5T182-261t-99 58l64 60q24-22 60.5-25t47.5 23q7 24-26 35t-59-5l-28 19L185 7Q96 51 99 188v162H20v141h79v123z"/><glyph glyph-name="Tcaron" unicode="Ť" horiz-adv-x="636" d="M219 537V0h197v537h205v163H15V537h204zm159 214H264L112 908v8h158l51-47 51 47h158v-8z"/><glyph glyph-name="tcaron" unicode="ť" horiz-adv-x="528" d="M98 614l183 20V491h86V350h-87V188q1-48 49-48 29 0 54 17l40-136q-58-33-142-33-83 0-134 46T98 188v162H19v141h79v123zm295-197l45 231h158l-80-231H393z"/><glyph glyph-name="Tbar" unicode="Ŧ" horiz-adv-x="645" d="M108 272v141h115v122H19v165h606V535H420V413h120V272H420V0H223v272H108z"/><glyph glyph-name="tbar" unicode="ŧ" horiz-adv-x="431" d="M37 201v102h60v47H18v141h79v123l183 20V491h111V350H279v-47h82V201h-82v-13q1-48 49-48 28 0 54 17l40-136q-58-33-142-33-83 0-134 46T97 188v13H37z"/><glyph glyph-name="Utilde" unicode="Ũ" horiz-adv-x="780" d="M523 699h197V308q1-154-87-238.5T390-15q-156 0-243 83.5T60 310v389h197V310q0-80 35-118t98-38q62 0 97.5 38.5T523 308v391zm-145 76q-76 46-102-15l-97 69q24 71 88 93t119-14q31-21 58-18.5t45 36.5l94-68q-26-74-81-97t-124 14z"/><glyph glyph-name="utilde" unicode="ũ" d="M48 494h184V221q0-42 20-62t49-20q36 0 60.5 23t24.5 69v263h182V0H405l-8 54q-58-68-156-66-87 1-140 55T48 220v274zm261 79q-75 47-100-16l-96 71q24 74 87 96t118-15q69-43 101 19l92-69q-25-77-79-101t-123 15z"/><glyph glyph-name="Umacron" unicode="Ū" horiz-adv-x="780" d="M523 699h197V308q1-154-87-238.5T390-15q-156 0-243 83.5T60 310v389h197V310q0-80 35-118t98-38q62 0 97.5 38.5T523 308v391zm-298 60v147h333V759H225z"/><glyph glyph-name="umacron" unicode="ū" d="M48 494h184V221q0-42 20-62t49-20q36 0 60.5 23t24.5 69v263h182V0H405l-8 54q-58-68-156-66-87 1-140 55T48 220v274zm106 76v139h311V570H154z"/><glyph glyph-name="Ubreve" unicode="Ŭ" horiz-adv-x="780" d="M523 699h197V308q1-154-87-238.5T390-15q-156 0-243 83.5T60 310v389h197V310q0-80 35-118t98-38q62 0 97.5 38.5T523 308v391zM204 918h145q0-24 15.5-33t30.5-9q8 0 17 2.5t18.5 12.5 9.5 27h145q2-76-50.5-120.5T395 753q-88 0-140.5 44.5T204 918z"/><glyph glyph-name="ubreve" unicode="ŭ" d="M48 494h184V221q0-42 20-62t49-20q36 0 60.5 23t24.5 69v263h182V0H405l-8 54q-58-68-156-66-87 1-140 55T48 220v274zm84 214h140q0-24 14.5-33t29.5-9q8 0 16.5 2.5T350 681t9 27h140q2-74-48.5-117T316 548q-85 0-135.5 42.5T132 708z"/><glyph glyph-name="Uring" unicode="Ů" horiz-adv-x="780" d="M523 699h197V308q1-154-87-238.5T390-15q-156 0-243 83.5T60 310v389h197V310q0-80 35-118t98-38q62 0 97.5 38.5T523 308v391zM396 991q69 0 108.5-39t40-86.5-39-86.5T396 740q-46 0-79.5 18.5t-49 46.5-15.5 60.5 15 60.5 49 46.5 80 18.5zm2-90q-26 0-36-17.5t0-35 36-17.5q25 0 35.5 17.5t0 35T398 901z"/><glyph glyph-name="uring" unicode="ů" d="M48 494h184V221q0-42 20-62t49-20q36 0 60.5 23t24.5 69v263h182V0H405l-8 54q-58-68-156-66-87 1-140 55T48 220v274zm266 269q53 0 89-23.5t45-57 .5-67-44.5-57-90-23.5q-64 0-101 35.5T176 649t36.5 78.5T314 763zm2-82q-25 0-35-15.5t0-31.5 35-16q24 0 33.5 16t0 31.5T316 681z"/><glyph glyph-name="Uhungarumlaut" unicode="Ű" horiz-adv-x="780" d="M720 699H523V308q0-77-35.5-115.5T390 154q-63 0-98 38t-35 118v389H60V310q0-158 87-241.5T390-15q155 0 243 84.5T720 308v391zM286 909h166v-8L351 749H189zm222 0h166v-8L573 749H411z"/><glyph glyph-name="uhungarumlaut" unicode="ű" d="M232 494H48V220q0-123 53-177t140-55q98-2 156 66l8-54h163v494H386V231q0-46-24.5-69T301 139q-29 0-49 20t-20 62v273zm-22 206h160v-7l-97-137H117zm214 0h160v-7l-97-137H331z"/><glyph glyph-name="Uogonek" unicode="Ų" horiz-adv-x="784" d="M525 699h197V308q1-116-50-193.5T527 5l-6-2q-2 0-6-2-36-12-29-42 7-23 36-25.5T581-52l74-97q-47-34-109-48t-119 0-81 60q-17 32-10.5 67T368-14Q223-8 142.5 75T62 310v389h197V310q0-80 35-118t98-38q62 0 97.5 38.5T525 308v391z"/><glyph glyph-name="uogonek" unicode="ų" d="M48 494h184V221q0-42 20-62t49-20q36 0 60.5 23t24.5 69v263h182V-36q-43 11-70-4.5T476-79q3-15 23-19t54 9l56-77q-38-30-96.5-37.5T404-189t-60 72q-8 39 9.5 72T406 3l-9 54q-30-35-72-52.5T241-12q-87 1-140 55T48 220v274z"/><glyph glyph-name="Wcircumflex" unicode="Ŵ" horiz-adv-x="1066" d="M817 1l255 699H856l-84-241q-24-86-39-167L600 700H463L334 292q-22 116-37 162l-90 246H-9L252 1h160l120 335L656 1h161zM475 941h124l165-170v-8H592l-55 51-56-51H309v8z"/><glyph glyph-name="wcircumflex" unicode="ŵ" horiz-adv-x="836" d="M474 494H363l-87-275-38 139-47 136H-1L179-3h171l68 187L487-3h169l181 497H644l-46-135-37-140zM360 719h115l155-156v-8H469l-52 47-51-47H205v8z"/><glyph glyph-name="Ycircumflex" unicode="Ŷ" horiz-adv-x="722" d="M362 460L217 700H-6v-8l266-413V0h198v279l278 412v9H513zm-60 458h118l158-155v-7H414l-53 46-52-46H145v7z"/><glyph glyph-name="ycircumflex" unicode="ŷ" horiz-adv-x="582" d="M591 494H394l-46-117-60-172-54 171-42 118H-3L193 22 93-209h192zM227 720h126l170-163v-9H347l-57 49-57-49H58v9z"/><glyph glyph-name="Ydieresis" unicode="Ÿ" horiz-adv-x="722" d="M125 847q0 40 27.5 63t65.5 23 66.5-23 28.5-63q0-38-28.5-60.5T218 764t-65.5 22.5T125 847zm290 0q0 40 28 63t67 23q37 0 65.5-23t28.5-63q0-38-28.5-60.5T510 764q-39 0-67 22.5T415 847zm-53-387L217 700H-6v-8l266-413V0h198v279l278 412v9H513z"/><glyph glyph-name="Zacute" unicode="Ź" horiz-adv-x="643" d="M42 700V540h296L25 62V0h586v171H297l306 473v56H42zm462 228v-8L395 761H234v6l77 161h193z"/><glyph glyph-name="zacute" unicode="ź" horiz-adv-x="495" d="M455 494H42V348h178L23 57V0h441v158H267l188 274v62zm-36 206v-7L317 555H168v5l71 140h180z"/><glyph glyph-name="Zdotaccent" unicode="Ż" horiz-adv-x="643" d="M42 700V540h296L25 62V0h586v171H297l306 473v56H42zm180 150q0 43 32 67t76 24 76-24 32-67-32-67-76-24-76 24-32 67z"/><glyph glyph-name="zdotaccent" unicode="ż" horiz-adv-x="495" d="M455 494H42V348h178L23 57V0h441v158H267l188 274v62zM158 632q0 38 27.5 58.5T252 711q38 0 66-21t28-58-28.5-58-65.5-21q-39 0-66.5 21T158 632z"/><glyph glyph-name="Zcaron" unicode="Ž" horiz-adv-x="643" d="M42 700V540h296L25 62V0h586v171H297l306 473v56H42zm352 60H280L128 917v8h158l51-47 51 47h158v-8z"/><glyph glyph-name="zcaron" unicode="ž" horiz-adv-x="495" d="M455 494H42V348h178L23 57V0h441v158H267l188 274v62zm-143 53H205L62 689v7h148l48-43 48 43h149v-7z"/><glyph glyph-name="longs" unicode="ſ" horiz-adv-x="360" d="M286 0H102v343H18v142h84v24q0 101 63.5 151.5T315 711q93 0 149-54l-56-111q-28 24-67 24-24 0-39.5-15.5T286 509V0z"/><glyph glyph-name="florin" unicode="ƒ" horiz-adv-x="525" d="M464 337H336V-1q0-79-38-131.5T205.5-201 90-205t-107 51L39-43q28-24 58-24 24 0 39.5 16T152-2v339H43v142h109v30q0 101 63.5 151.5T365 711q93 0 149-54l-56-111q-28 24-67 24-24 0-39.5-15.5T336 509v-30h128V337z"/><glyph glyph-name="Aringacute" unicode="Ǻ" horiz-adv-x="797" d="M399 853q-54 0-92.5-21t-53-51.5-9-66T277 650L-15 0h210l46 115h313L600 0h212L522 648q30 28 36 64t-9.5 67-55 52.5T399 853zm-1-323l48-146 41-103H308l41 103zm3 221q28 0 39.5-18.5t0-36.5-39.5-18q-29 0-41 18t0 36.5 41 18.5zm199 239v-6L486 877H318v4l81 109h201z"/><glyph glyph-name="aringacute" unicode="ǻ" horiz-adv-x="648" d="M421 494l-9-53q-42 64-145 64-107 0-173.5-73.5T27 247q0-110 59.5-179.5T253-9q45-2 89 13t74 49l8-53h170v494H421zM309 356q48 0 75-29.5t27-79.5q0-45-28.5-76.5T309 139q-43 0-71 29t-28 79 28 79.5 71 29.5zm15 394q-52 0-87.5-22t-44-53.5 0-63 44-53.5 87.5-22q54 0 90 22t44.5 53.5-.5 63-45 53.5-89 22zm2-77q24 0 33.5-15t0-30-33.5-15q-25 0-35 15t0 30 35 15zm183 218v-6L405 776H252v4l73 111h184z"/><glyph glyph-name="AEacute" unicode="Ǽ" horiz-adv-x="925" d="M-26 11V0h199l63 105h208V0h440v157H626v122h226v153H626v110h243v158H389zm470 267H335l124 240-12-124zm306 629v-7L638 750H472v6l79 151h199z"/><glyph glyph-name="aeacute" unicode="ǽ" horiz-adv-x="946" d="M643 695v-7l-95-146H407v6l68 147h168zM315 356q49 0 76.5-30t27.5-84q0-46-29-74.5T315 139q-43 0-71 29t-28 79 28 79.5 71 29.5zm440-43H573q6 38 50 53t87-.5 45-52.5zM572 195h338q31 140-37.5 223.5T688 503q-85 2-148-50l-3 41H421l-9-53q-42 64-145 64-107 0-173.5-73.5T27 247q0-110 59.5-179.5T253-9q45-2 89 13t74 49l8-53h113l3 45q43-56 137-56 137 0 225 82l-90 101q-53-40-127-40-35 0-69.5 16.5T572 195z"/><glyph glyph-name="Oslashacute" unicode="Ǿ" horiz-adv-x="842" d="M619 943v-8L510 776H349v6l77 161h193zm164-174H610l-47-72q-66 20-142 20-174 0-281.5-98.5T32 350q0-185 124-285L66-74h171l48 74q65-17 136-17 176 0 282.5 97.5T810 350q0 180-118 279zM421 548q16 0 44-4L263 232q-33 50-33 118 0 87 53 142.5T421 548zm191-198q0-88-52.5-143T421 152q-18 0-36 3l199 307q28-48 28-112z"/><glyph glyph-name="oslashacute" unicode="ǿ" horiz-adv-x="619" d="M476 712v-7l-98-129H231v5l70 131h175zM310 139q-47 0-72.5 30T212 246t25.5 77.5T310 354t72.5-30.5T408 246t-25.5-77-72.5-30zm0 366q-119 0-200.5-64.5T28 246q0-131 88-199L51-60h171l31 52q38-4 57-4 54 0 103 14.5t90 44 65 81T592 246q0 130-85 199l67 110H404l-33-55q-33 5-61 5z"/><glyph glyph-name="Scommaaccent" unicode="Ș" horiz-adv-x="666" d="M600 631l-98-125q-64 48-164 48-40 0-67.5-13T243 502q0-33 27-44.5t89-17.5q57-6 104-20.5t89.5-40.5 66.5-69.5T643 208q0-76-45-129T485.5 3.5 336-20Q234-21 163 4.5T23 103l109 125q81-79 205-79 50 0 80 16.5t30 45.5q0 53-117 64-64 6-110 17.5T131.5 328 67 395.5 45 502q0 104 85.5 158T338 714q156 0 262-83zM434-142q0-47-63-163H267l23 99q-57 10-57 65 0 36 30.5 57T337-63q40 0 68.5-20.5T434-142z"/><glyph glyph-name="scommaaccent" unicode="ș" horiz-adv-x="511" d="M19 52l60 134q77-50 175-55 50 0 50 24 0 23-52 27-39 1-74 10t-67.5 27T59 269t-19 75q0 83 65.5 122.5T268 506q122 0 202-60l-78-110q-20 13-57 22t-67 8q-44 0-44-24 0-23 37-24 227-7 227-163 0-58-33.5-97T371 3 258-13q-66 0-132 17.5T19 52zm324-184q0-45-55-149h-90l20 91q-50 9-50 59 0 33 27 52t64 19q35 0 59.5-19t24.5-53z"/><glyph glyph-name="uni021A" unicode="Ț" horiz-adv-x="636" d="M219 0v537H15v163h606V537H416V0H219zm184-125q0-49-57-167h-95l21 102q-53 10-53 66 0 38 28.5 59T315-44q37 0 62.5-21t25.5-60z"/><glyph glyph-name="uni021B" unicode="ț" horiz-adv-x="432" d="M98 614l183 20V491h111V350H280V188q1-48 49-48 29 0 54 17l40-136q-58-33-142-33-83 0-134 46T98 188v162H19v141h79v123zm247-746q0-49-57-167h-95l21 102q-53 10-53 66 0 38 28.5 59T257-51q37 0 62.5-21t25.5-60z"/><glyph glyph-name="dotlessj" unicode="ȷ" horiz-adv-x="292" d="M-70-201l35 129Q6-95 30-82t24 59v509h184V-23q0-70-26-119.5t-68.5-71-98.5-19T-70-201z"/><glyph glyph-name="circumflex" unicode="ˆ" horiz-adv-x="451" d="M157 706h114l152-157v-8H265l-51 47-51-47H5v8z"/><glyph glyph-name="caron" unicode="ˇ" horiz-adv-x="446" d="M283 534H169L17 691v8h158l51-47 51 47h158v-8z"/><glyph glyph-name="breve" unicode="˘" horiz-adv-x="406" d="M29 700h134q0-18 9-28.5t17-13 16-2.5 16 2.5 17 13 9 28.5h134q2-79-46.5-124.5T205 530 75.5 575.5 29 700z"/><glyph glyph-name="dotaccent" unicode="˙" horiz-adv-x="276" d="M36 610q0 42 30 65.5t71 23.5 71-23.5 30-65.5-30-65.5-71-23.5-71 23.5T36 610z"/><glyph glyph-name="ring" unicode="˚" horiz-adv-x="427" d="M208 706q74 0 116-43.5t42.5-96-41.5-96T208 427q-73 0-114 43.5t-41.5 96 41 96T208 706zm2-100q-27 0-38.5-19.5t0-39T210 528t38 19.5-.5 39T210 606z"/><glyph glyph-name="ogonek" unicode="˛" horiz-adv-x="390" d="M251-126l59-75q-34-31-92-38t-108.5 16.5T49-149Q36-87 78-44.5T193-2q31 0 66-6l17-75q-24 6-51 6-25 0-40-11.5T174-117q5-17 34.5-17.5T251-126z"/><glyph glyph-name="tilde" unicode="˜" horiz-adv-x="487" d="M236 571q-79 43-105-14L30 621q25 67 91 87.5T245 695q73-40 107 17l97-63q-27-69-84-91t-129 13z"/><glyph glyph-name="hungarumlaut" unicode="˝" horiz-adv-x="530" d="M113 700h168v-8L179 537H15zm225 0h168v-8L404 537H240z"/><glyph glyph-name="_375" unicode="Δ" horiz-adv-x="794" d="M785 17V0H-19v12l303 688h200zM384 502L244 159h278z"/><glyph glyph-name="_376" unicode="Ω" horiz-adv-x="826" d="M404 555q-83 0-134-58t-51-140q-1-67 31.5-121.5T354 164V0H45v157h93q-52 34-80 97T30 375q0 153 100.5 249T404 720t274-96 101-249q0-63-28.5-125T667 157h97V0H455v164q73 18 106.5 72.5T595 358q0 87-51.5 142T404 555z"/><glyph glyph-name="pi" unicode="π" horiz-adv-x="702" d="M292 0H109v346H16v147h653V346h-93V160q0-56 73-35L665 1q-40-10-76.5-13t-72 4.5-61.5 26T413 72t-16 85v189H292V0z"/><glyph glyph-name="Wgrave" unicode="Ẁ" horiz-adv-x="1066" d="M1072 700L817 1H656L532 336 412 1H252L-9 700h216l90-246q15-46 37-162l129 408h137l133-408q15 81 39 167l84 241h216zM342 911v8h209l83-149v-6H460z"/><glyph glyph-name="wgrave" unicode="ẁ" horiz-adv-x="836" d="M363 494h111l87-275 37 140 46 135h193L656-3H487l-69 187L350-3H179L-1 494h192l47-136 38-139zM247 694v7h189l75-141v-5H354z"/><glyph glyph-name="Wacute" unicode="Ẃ" horiz-adv-x="1066" d="M817 1l255 699H856l-84-241q-24-86-39-167L600 700H463L334 292q-22 116-37 162l-90 246H-9L252 1h160l120 335L656 1h161zm-82 918v-7L619 762H447v6l82 151h206z"/><glyph glyph-name="wacute" unicode="ẃ" horiz-adv-x="836" d="M474 494H363l-87-275-38 139-47 136H-1L179-3h171l68 187L487-3h169l181 497H644l-46-135-37-140zm131 209v-7L496 554H336v5l77 144h192z"/><glyph glyph-name="Wdieresis" unicode="Ẅ" horiz-adv-x="1066" d="M817 1l255 699H856l-84-241q-24-86-39-167L600 700H463L334 292q-22 116-37 162l-90 246H-9L252 1h160l120 335L656 1h161zM294 843q0 40 27.5 63t65.5 23 66.5-23 28.5-63q0-38-28.5-60.5T387 760t-65.5 22.5T294 843zm290 0q0 40 28 63t67 23q37 0 65.5-23t28.5-63q0-38-28.5-60.5T679 760q-39 0-67 22.5T584 843z"/><glyph glyph-name="wdieresis" unicode="ẅ" horiz-adv-x="836" d="M474 494H363l-87-275-38 139-47 136H-1L179-3h171l68 187L487-3h169l181 497H644l-46-135-37-140zM197 626q0 37 26 58.5t61 21.5 61.5-21.5T372 626q0-36-26.5-57T284 548t-61 21-26 57zm269 0q0 37 26.5 58.5T555 706q34 0 60.5-21.5T642 626q0-36-26.5-57T555 548q-36 0-62.5 21T466 626z"/><glyph glyph-name="Ygrave" unicode="Ỳ" horiz-adv-x="722" d="M217 700l145-240 151 240h223v-9L458 279V0H260v279L-6 692v8h223zm-53 211v8h212l85-155v-5H284z"/><glyph glyph-name="ygrave" unicode="ỳ" horiz-adv-x="582" d="M394 494h197L285-209H93L193 22-3 494h195l42-118 54-171 60 172zM133 699v8h190l76-157v-6H240z"/><glyph glyph-name="endash" unicode="–" horiz-adv-x="607" d="M53 210v147h501V210H53z"/><glyph glyph-name="emdash" unicode="—" horiz-adv-x="697" d="M54 213v147h589V213H54z"/><glyph glyph-name="quoteleft" unicode="‘" horiz-adv-x="293" d="M261 701l-51-259H33l90 259h138z"/><glyph glyph-name="quoteright" unicode="’" horiz-adv-x="288" d="M41 441l51 259h177l-90-259H41z"/><glyph glyph-name="quotesinglbase" unicode="‚" horiz-adv-x="300" d="M16-155l52 256h180l-87-256H16z"/><glyph glyph-name="quotedblleft" unicode="“" horiz-adv-x="503" d="M273 700l-70-253H33l106 253h134zm197 0l-49-253H248l87 253h135z"/><glyph glyph-name="quotedblright" unicode="”" horiz-adv-x="494" d="M240 447l70 253h170L374 447H240zm-197 0l49 253h173l-87-253H43z"/><glyph glyph-name="quotedblbase" unicode="„" horiz-adv-x="517" d="M16-155l52 256h176l-83-256H16zm221 0l55 256h173l-85-256H237z"/><glyph glyph-name="dagger" unicode="†" horiz-adv-x="607" d="M395 700V527h179V370H395V-92H211v462H34v157h177v173h184z"/><glyph glyph-name="daggerdbl" unicode="‡" horiz-adv-x="636" d="M409 701V530h179V380H409V216h179V68H409v-170H227V68H48v148h179v164H48v150h179v171h182z"/><glyph glyph-name="bullet" unicode="•" horiz-adv-x="439" d="M220 170q-68 0-111.5 39T65 311t44 103 111 40q66 0 110-40t44-103-44-102-110-39z"/><glyph glyph-name="ellipsis" unicode="…" horiz-adv-x="823" d="M141-8Q95-8 68 20.5t-27 62 26.5 62T141 173q38 0 64-18.5t32-45 0-53.5-32-45.5T141-8zm270 0q-46 0-73 28.5t-27 62 26.5 62T411 173q38 0 64-18.5t32-45 0-53.5-32-45.5T411-8zm270 0q-46 0-73 28.5t-27 62 26.5 62T681 173q38 0 64-18.5t32-45 0-53.5-32-45.5T681-8z"/><glyph glyph-name="perthousand" unicode="‰" horiz-adv-x="1304" d="M212 710q87 0 133-49.5T391 542q0-70-46-118.5T212 375 79.5 423.5 34 542q0 69 45.5 118.5T212 710zm377-11h180L311 0H128zM212 498q23 0 35 13t12 31-12 31-35 13-35-13-12-31 12-31 35-13zm477-171q87 0 133-49.5T868 159q0-70-46-118.5T689-8 556.5 40.5 511 159q0 69 45.5 118.5T689 327zm0-212q23 0 35 13t12 31-12 31-35 13-35-13-12-31 12-31 35-13zm405 212q87 0 133-49.5t46-118.5q0-70-46-118.5T1094-8 961.5 40.5 916 159q0 69 45.5 118.5T1094 327zm0-212q23 0 35 13t12 31-12 31-35 13-35-13-12-31 12-31 35-13z"/><glyph glyph-name="guilsinglleft" unicode="‹" horiz-adv-x="394" d="M29 292l140 224 193 1-139-224q90-149 140-225H169z"/><glyph glyph-name="guilsinglright" unicode="›" horiz-adv-x="392" d="M225 520l139-223L225 74H31l138 222L31 520h194z"/><glyph glyph-name="fraction" unicode="⁄" horiz-adv-x="180" d="M201 696h162L-22-5h-162z"/><glyph glyph-name="zerosuperior" unicode="⁰" horiz-adv-x="407" d="M139 655v-55q0-30 19-46.5t45-16.5 45.5 16.5T268 600v55q0 31-19.5 48T203 720t-45-17-19-48zM33 603v53q0 78 50.5 121T204 820q69 0 119.5-43T374 656v-53q0-79-51-124t-119-45q-70 0-120.5 45T33 603z"/><glyph glyph-name="foursuperior" unicode="⁴" horiz-adv-x="399" d="M186 813h135V594h44v-93h-44v-60H214v60H24l-4 91zm28-219v105l-80-105h80z"/><glyph glyph-name="fivesuperior" unicode="⁵" horiz-adv-x="381" d="M328 814v-94H148v-33h48q156 0 156-125 0-68-45.5-100.5T201 429q-70 0-114.5 32.5T41 561h109q2-18 14.5-28t28.5-10q19 0 34 10.5t15 28.5q0 16-13.5 25t-32.5 9H46v218h282z"/><glyph glyph-name="sixsuperior" unicode="⁶" horiz-adv-x="385" d="M244 565q0 16-14.5 24.5T195 598q-21 0-35.5-8.5T146 565q0-16 14-24.5t34-8.5 35 9 15 24zm101 138H244q-2 14-15 22t-31 8q-21 0-36.5-8T146 703v-32q31 16 70 16 55 0 96.5-31.5T354 565q0-66-46.5-96.5T195 438q-63 0-110 34t-47 94v137q0 57 46 88t110 31q65 0 106.5-29t44.5-90z"/><glyph glyph-name="sevensuperior" unicode="⁷" horiz-adv-x="329" d="M167 441H46l130 272H26v100h287l4-47z"/><glyph glyph-name="eightsuperior" unicode="⁸" horiz-adv-x="392" d="M140 557q-1-12 13.5-24t44.5-12q29 0 43 11t13 25q0 13-16 23t-39 10q-25 0-42-9t-17-24zm-110 1q0 18 13.5 40T79 634q-38 28-38 68 0 57 43 88.5T195 822q67 0 112-31.5t45-87.5q0-44-38-66 22-15 35-37t13-43q1-66-47-97t-120-29q-72 0-119.5 30.5T30 558zm168 113q22 0 33.5 9t11.5 21-12.5 21.5T197 732q-22 0-34.5-9T150 702q0-13 12.5-22t35.5-9z"/><glyph glyph-name="ninesuperior" unicode="⁹" horiz-adv-x="384" d="M142 694q0-33 49-33 20 0 35 8t14 25q0 15-14.5 23.5T192 726q-21 0-35.5-8.5T142 694zM36 556h103q2-15 16-23t32-8q21 0 37 8.5t16 22.5v31q-31-16-70-16-55 0-96.5 32T32 694q0 61 48 93.5T191 820t110-34 47-93V556q0-58-46.5-90T192 434q-69 0-111.5 29.5T36 556z"/><glyph glyph-name="zeroinferior" unicode="₀" horiz-adv-x="407" d="M139 136V81q0-30 19-46.5T203 18t45.5 16.5T268 81v55q0 31-19.5 48T203 201t-45-17-19-48zM33 84v53q0 78 50.5 121T204 301q69 0 119.5-43T374 137V84q0-79-51-124T204-85q-70 0-120.5 45T33 84z"/><glyph glyph-name="oneinferior" unicode="₁" horiz-adv-x="286" d="M33-78v91h61v162q-7-1-25.5-5.5T43 164v92l158 42V13h63v-91H33z"/><glyph glyph-name="twoinferior" unicode="₂" horiz-adv-x="379" d="M142 180H37q1 57 45.5 90.5T187 304q70 0 113.5-32t43.5-93q0-32-12-55t-36.5-36.5T253 68t-49-13q-61-13-66-29h203V-78H35v99q0 31 11 53t34 35 39.5 19 46.5 13q24 5 35.5 8.5t22 11T234 179q0 14-13 21.5t-31 7.5q-17 0-31-7.5T142 180z"/><glyph glyph-name="threeinferior" unicode="₃" horiz-adv-x="382" d="M189 73h-62v83h58q50 0 50 30 0 27-50 29-20 1-36-7t-19-22H34q0 59 46.5 89.5T187 306t108-32 48-89q0-45-39-70 21-11 34-33t13-47q0-35-15-59.5t-40-37-51.5-18T188-85q-61 0-110.5 32T27 40h112q4-28 48-28 21 0 36 8t15 24q0 29-49 29z"/><glyph glyph-name="fourinferior" unicode="₄" horiz-adv-x="399" d="M186 294h135V75h44v-93h-44v-60H214v60H24l-4 91zm28-219v105L134 75h80z"/><glyph glyph-name="fiveinferior" unicode="₅" horiz-adv-x="383" d="M330 301v-94H150v-33h48q156 0 156-125 0-68-45.5-100.5T203-84q-70 0-114.5 32.5T43 48h109q2-18 14.5-28T195 10q19 0 34 10.5T244 49q0 16-13.5 25T198 83H48v218h282z"/><glyph glyph-name="sixinferior" unicode="₆" horiz-adv-x="385" d="M244 44q0 16-14.5 24.5T195 77q-21 0-35.5-8.5T146 44q0-16 14-24.5t34-8.5 35 9 15 24zm101 138H244q-2 14-15 22t-31 8q-21 0-36.5-8T146 182v-32q31 16 70 16 55 0 96.5-31.5T354 44q0-66-46.5-96.5T195-83q-63 0-110 34T38 45v137q0 57 46 88t110 31q65 0 106.5-29t44.5-90z"/><glyph glyph-name="seveninferior" unicode="₇" horiz-adv-x="329" d="M167-78H46l130 272H26v100h287l4-47z"/><glyph glyph-name="eightinferior" unicode="₈" horiz-adv-x="392" d="M140 41q-1-12 13.5-24T198 5q29 0 43 11t13 25q0 13-16 23t-39 10q-25 0-42-9t-17-24zM30 42q0 18 13.5 40T79 118q-38 28-38 68 0 57 43 88.5T195 306q67 0 112-31.5t45-87.5q0-44-38-66 22-15 35-37t13-43q1-66-47-97T195-85q-72 0-119.5 30.5T30 42zm168 113q22 0 33.5 9t11.5 21-12.5 21.5T197 216q-22 0-34.5-9T150 186q0-13 12.5-22t35.5-9z"/><glyph glyph-name="nineinferior" unicode="₉" horiz-adv-x="386" d="M142 177q0-33 49-33 20 0 35 8t14 25q0 15-14.5 23.5T192 209q-21 0-35.5-8.5T142 177zM36 39h103q2-15 16-23t32-8q21 0 37 8.5T240 39v31q-31-16-70-16-55 0-96.5 32T32 177q0 61 48 93.5T191 303t110-34 47-93V39q0-58-46.5-90T192-83q-69 0-111.5 29.5T36 39z"/><glyph glyph-name="Euro" unicode="€" horiz-adv-x="645" d="M43 199v121h55v50H43v117h83q26 73 80.5 124T327 684t138.5 21T602 679l-48-141q-61 27-125 16.5T332 487h181l-29-117H285q-1-25 0-50h188l-26-121H334q38-42 107-56t122 7L611 6q-67-21-140-21-135 0-224.5 56T121 199H43z"/><glyph glyph-name="afii61289" unicode="ℓ" horiz-adv-x="410" d="M231 239v-86q0-25 15.5-39t41.5-14q14 0 65 14V17Q290-4 243-4 102-4 89 139q-37-19-41-20l-22 75q43 18 61 28v308q0 94 37 133t133 39q131 0 131-144 0-28-3-54-16-136-154-265zm-3 291v-98q0-12-.5-28t-.5-21v-13q58 85 64 147 4 26 4 45 0 62-36 62-15 0-23-28t-8-66z"/><glyph glyph-name="uni2117" unicode="℗" horiz-adv-x="801" d="M400 717q168 0 265-105t97-260-97-260T400-13Q233-13 136 92T39 352t97 260 264 105zM148 352q2-117 69-193t183-76q117 0 184 76t67 193q0 116-67 192.5T400 621q-116 0-183-76t-69-193zm226-85h66q39 0 70 14t47 37 23.5 50.5 0 54.5-23 50-46.5 37-70 14H271V168h103v99zm0 163h67q23 0 34-19t2-37.5-35-18.5h-68v75z"/><glyph glyph-name="trademark" unicode="™" horiz-adv-x="847" d="M271 592V396H150v196H60v108h303V592h-92zm253 108l69-87 67 87h119V395H659v69l4 72-57-79h-28l-57 80 4-73v-69H406v305h118z"/><glyph glyph-name="Omega" unicode="Ω" horiz-adv-x="842" d="M421 555q-83 0-134-58t-51-140q-1-67 31.5-121.5T371 164V0H62v157h93q-52 34-80 97T47 375q0 153 100.5 249T421 720t274-96 101-249q0-63-28.5-125T684 157h97V0H472v164q73 18 106.5 72.5T612 358q0 87-51.5 142T421 555z"/><glyph glyph-name="estimated" unicode="℮" horiz-adv-x="633" d="M325-7Q205-7 126.5 70T48 286q0 140 78 217t198 77q56 0 103-14.5t86-45 61-85T596 307q0-31-5-59H216V97q42-34 109-34 124 0 185 92l54-40q-47-67-105-94.5T325-7zm-1 521q-66 0-108-31V321h219v164q-45 29-111 29z"/><glyph glyph-name="onethird" unicode="⅓" horiz-adv-x="852" d="M534 701h111L252-5H144zm122-550h-62v83h58q50 0 50 30 0 27-50 29-20 1-36-7t-19-22h-96q0 59 46.5 89.5T654 384t108-32 48-89q0-45-39-70 21-11 34-33t13-47q0-35-15-59.5t-40-37-51.5-18T655-7q-61 0-110.5 32T494 118h112q4-28 48-28 21 0 36 8t15 24q0 29-49 29zM40 337v91h67v162q-7-1-26.5-5.5T54 579v92l153 42V428h63v-91H40z"/><glyph glyph-name="twothirds" unicode="⅔" horiz-adv-x="916" d="M606 701h111L324-5H216zm115-550h-62v83h58q50 0 50 30 0 27-50 29-20 1-36-7t-19-22h-96q0 59 46.5 89.5T719 384t108-32 48-89q0-45-39-70 21-11 34-33t13-47q0-35-15-59.5t-40-37-51.5-18T720-7q-61 0-110.5 32T559 118h112q4-28 48-28 21 0 36 8t15 24q0 29-49 29zM148 581H43q1 57 45.5 90.5T193 705q70 0 113.5-32t43.5-93q0-25-9-44.5T322 505t-33-20.5-33.5-12.5-37.5-9q-5-1-8-2-32-6-46.5-13T144 424h203V323H41v99q0 25 9 44.5T69.5 497t32 20.5 33.5 13 37 9.5q33 7 50.5 15.5T240 580q0 14-13 21.5t-31 7.5q-17 0-31-7.5T148 581z"/><glyph glyph-name="oneeighth" unicode="⅛" horiz-adv-x="848" d="M534 701h111L252-5H144zM40 337v91h67v162q-7-1-26.5-5.5T54 579v92l153 42V428h63v-91H40zm548-218q-1-13 14.5-26T651 80q32 0 47 12t14 27q0 14-17.5 25T652 155q-27 0-45.5-9.5T588 119zm-105 1q0 18 13.5 40t35.5 36q-38 28-38 68 0 57 43 88.5T648 384q67 0 112-31.5t45-87.5q0-44-38-66 22-15 35-37t13-43q1-66-47-97T648-7q-72 0-119.5 30.5T483 120zm168 112q22 0 34.5 9.5T698 263q0 14-13 23t-35 9q-23 0-35.5-9T602 264t13-22.5 36-9.5z"/><glyph glyph-name="threeeighths" unicode="⅜" horiz-adv-x="910" d="M596 701h111L314-5H206zm54-582q-1-13 14.5-26T713 80q32 0 47 12t14 27q0 14-17.5 25T714 155q-27 0-45.5-9.5T650 119zm-105 1q0 18 13.5 40t35.5 36q-38 28-38 68 0 57 43 88.5T710 384q67 0 112-31.5t45-87.5q0-44-38-66 22-15 35-37t13-43q1-66-47-97T710-7q-72 0-119.5 30.5T545 120zm168 112q22 0 34.5 9.5T760 263q0 14-13 23t-35 9q-23 0-35.5-9T664 264t13-22.5 36-9.5zM196 476h-62v83h58q50 0 50 30 0 27-50 29-20 1-36-7t-19-22H41q0 59 46.5 89.5T194 709t108-32 48-89q0-44-39-70 21-11 34-33t13-47q0-35-15-59.5t-40-37-51.5-18T195 318q-61 0-110.5 32T34 443h112q4-28 48-28 21 0 36 8t15 24q0 29-49 29z"/><glyph glyph-name="fiveeighths" unicode="⅝" horiz-adv-x="900" d="M586 701h111L304-5H196zm54-582q-1-13 14.5-26T703 80q32 0 47 12t14 27q0 14-17.5 25T704 155q-27 0-45.5-9.5T640 119zm-105 1q0 18 13.5 40t35.5 36q-38 28-38 68 0 57 43 88.5T700 384q67 0 112-31.5t45-87.5q0-44-38-66 22-15 35-37t13-43q1-66-47-97T700-7q-72 0-119.5 30.5T535 120zm168 112q22 0 34.5 9.5T750 263q0 14-13 23t-35 9q-23 0-35.5-9T654 264t13-22.5 36-9.5zM325 699v-94H145v-33h48q156 0 156-125 0-68-45.5-100.5T198 314q-70 0-114.5 32.5T38 446h109q2-18 14.5-28t28.5-10q19 0 34 10.5t15 28.5q0 16-13.5 25t-32.5 9H43v218h282z"/><glyph glyph-name="seveneighths" unicode="⅞" horiz-adv-x="850" d="M521 701h111L239-5H131zm69-582q-1-13 14.5-26T653 80q32 0 47 12t14 27q0 14-17.5 25T654 155q-27 0-45.5-9.5T590 119zm-105 1q0 18 13.5 40t35.5 36q-38 28-38 68 0 57 43 88.5T650 384q67 0 112-31.5t45-87.5q0-44-38-66 22-15 35-37t13-43q1-66-47-97T650-7q-72 0-119.5 30.5T485 120zm168 112q22 0 34.5 9.5T700 263q0 14-13 23t-35 9q-23 0-35.5-9T604 264t13-22.5 36-9.5zm-475 96H57l130 272H37v100h287l4-47z"/><glyph glyph-name="arrowleft" unicode="←" horiz-adv-x="631" d="M276 103L30 348l247 244 82-76-102-103h324V280H254l99-107z"/><glyph glyph-name="arrowup" unicode="↑" horiz-adv-x="547" d="M29 390l245 246 244-247-77-82-103 103V85H206v328L99 314z"/><glyph glyph-name="arrowright" unicode="→" horiz-adv-x="631" d="M356 593l245-244-246-244-83 76 102 102H50v134h328q-14 16-31 33.5t-37.5 39T278 523z"/><glyph glyph-name="arrowdown" unicode="↓" horiz-adv-x="547" d="M517 312L273 66 29 313l75 82 103-102v324h133V289q20 18 56.5 52.5T447 389z"/><glyph glyph-name="uni2196" unicode="↖" horiz-adv-x="524" d="M58 193v347l346-2 4-110-144-1 230-230-97-93-230 230-5-145z"/><glyph glyph-name="uni2197" unicode="↗" horiz-adv-x="525" d="M118 435l3 103h346q0-28-.5-87t-.5-86V192l-109-4q0 13-.5 41t-.5 41v63L124 103l-93 97 231 230z"/><glyph glyph-name="uni2198" unicode="↘" horiz-adv-x="556" d="M125 150l-4 103 145 5L35 488l93 97 231-230v64q0 12 .5 40t.5 41l110-4V322q0-27 .5-85.5t.5-86.5H125z"/><glyph glyph-name="uni2199" unicode="↙" horiz-adv-x="557" d="M436 253l-4-103H86v172q0 28 .5 86.5T87 496l111 4V355l231 230 93-97-230-230z"/><glyph glyph-name="partialdiff" unicode="∂" horiz-adv-x="587" d="M382 238q0 40-18 66.5T320 337t-52.5-.5-44.5-33-18-64.5 18-64 44.5-32 52.5.5 44 32 18 62.5zM267 482q36 0 56-8-28 36-88 64.5T131 571l28 130q179-13 288.5-141T557 250q-1-116-71.5-187T293-8Q168-8 98 64.5T28 238q0 106 63 175t176 69z"/><glyph glyph-name="Delta" unicode="∆" horiz-adv-x="855" d="M829 17V0H25v12l303 688h200zM428 502L288 159h278z"/><glyph glyph-name="product" unicode="∏" horiz-adv-x="696" d="M624-181H439v724H261v-724H72v881h552v-881z"/><glyph glyph-name="summation" unicode="∑" horiz-adv-x="621" d="M410 366L270 162h302V0H43v103l177 265Q77 578 52 613v87h514V546H295z"/><glyph glyph-name="minus" unicode="−" horiz-adv-x="540" d="M60 201v152h420V201H60z"/><glyph glyph-name="uni2215" unicode="∕" horiz-adv-x="508" d="M365 696h162L142-5H-20z"/><glyph glyph-name="uni2219" unicode="∙" horiz-adv-x="300" d="M45 312q0 45 31 70.5t74 25.5q42 0 73.5-25.5T255 312t-31.5-70-73.5-25q-43 0-74 25t-31 70z"/><glyph glyph-name="radical" unicode="√" horiz-adv-x="635" d="M634 727L394 0H267L109 296l-70-27-38 93 219 99 115-243 181 544z"/><glyph glyph-name="infinity" unicode="∞" horiz-adv-x="768" d="M382 225q-82-82-151-76-84 3-130.5 51T53 314q0 69 50 119.5T240 484q33 0 74.5-23t67.5-53q33 34 72.5 55t71.5 21q89 0 139-48t50-122q0-67-47.5-115T534 149q-72-4-152 76zm150 46q34 0 48 23t0 46-48 23q-24 0-73-47 45-45 73-45zm-296 0q28 0 73 45-49 47-73 47-34 0-48-23t0-46 48-23z"/><glyph glyph-name="integral" unicode="∫" horiz-adv-x="520" d="M163 13v486q4 76 43.5 128t95 70T419 708t111-39l-63-137q-29 18-55.5 23.5t-46-7.5-19.5-49V13q-3-73-38.5-124T221-181.5 109-192-6-145L53-20q14-11 31.5-18.5T120-47t30.5 14T163 13z"/><glyph glyph-name="approxequal" unicode="≈" horiz-adv-x="566" d="M134 313l-88 51q25 56 69 87t96 20q16-4 52.5-19t61.5-23.5 51.5-2.5 37.5 35l92-38q-34-134-150-115-34 3-108 29-23 9-35 12t-29 4-29-9.5-21-30.5zm12-189l-87 50q24 56 68 87.5t96 20.5q16-4 53-19t62-24 51.5-3 37.5 36l92-39q-17-68-57-95.5T368 119q-36 3-107 29-22 8-35 11.5t-29.5 4-29-9.5-21.5-30z"/><glyph glyph-name="notequal" unicode="≠" horiz-adv-x="582" d="M57 121v149h164q5 8 17 32.5t21 39.5H57v150h286l55 97 94-51-28-46h58V342H382q-5-9-19.5-33T341 270h181V121H256q-10-17-29-52t-26-47l-92 53 27 46H57z"/><glyph glyph-name="lessequal" unicode="≤" horiz-adv-x="466" d="M51 44v122h365V44H51zm-1 382v8l254 216 92-89-143-128 142-126-91-93z"/><glyph glyph-name="greaterequal" unicode="≥" horiz-adv-x="466" d="M415 166V44H50v122h365zm1 268v-8L162 214l-91 93 142 126L70 561l92 89z"/><glyph glyph-name="lozenge" unicode="◊" horiz-adv-x="641" d="M613 350L399-1H245L28 350l217 352h154zm-396 0l106-183 100 182-100 186z"/><glyph glyph-name="fi" unicode="ﬁ" horiz-adv-x="705" d="M456 621q0 44 31 68.5t73 24.5 72.5-24.5T663 621q0-43-31-67.5T560 529q-42 0-73 24.5T456 621zM467 0h185v486H467V0zm-77 562l35 127q-41 22-111 22-86 0-149.5-50.5T101 509v-24H17V345h84V0h184v345h119v140H285v24q0 30 15.5 45.5T340 570q31 0 50-8z"/><glyph glyph-name="fl" unicode="ﬂ" horiz-adv-x="706" d="M652 0H471v696h181V0zM425 689l-35-127q-19 8-50 8-24 0-39.5-15.5T285 509v-24h119V345H285V0H101v345H17v140h84v24q0 101 63.5 151.5T314 711q70 0 111-22z"/><glyph glyph-name="CR" horiz-adv-x="322"/><glyph glyph-name="_0004" horiz-adv-x="0"/><glyph glyph-name="g.alt" horiz-adv-x="649" d="M310 356q-43 0-71-29.5T211 247q0-48 28-76.5t71-28.5q45 0 73.5 30.5T412 246q0 50-27 80t-75 30zM47-38h183q4-30 29.5-45T320-98q45 0 71.5 25.5T418-3v65Q368-7 254-1 146 6 87 72T28 247q0 113 66.5 185.5T268 505q103 0 145-64l9 53h173V2q0-122-76-185t-199-63q-121 0-195 52.5T47-38z"/><glyph glyph-name="gcircumflex.alt" horiz-adv-x="649" d="M310 356q48 0 75-30t27-80q0-43-28.5-73.5T310 142q-43 0-71 28.5T211 247q0 50 28 79.5t71 29.5zM230-38H47q4-103 78-155.5T320-246q123 0 199 63T595 2v492H422l-9-53q-42 64-145 64-107 0-173.5-72.5T28 247q0-109 59-175T254-1q114-6 164 63V-3q0-44-26.5-69.5T320-98q-35 0-60.5 15T230-38zm52 754h114l152-157v-8H390l-51 47-51-47H130v8z"/><glyph glyph-name="gbreve.alt" horiz-adv-x="649" d="M310 356q-43 0-71-29.5T211 247q0-48 28-76.5t71-28.5q45 0 73.5 30.5T412 246q0 50-27 80t-75 30zM47-38h183q4-30 29.5-45T320-98q45 0 71.5 25.5T418-3v65Q368-7 254-1 146 6 87 72T28 247q0 113 66.5 185.5T268 505q103 0 145-64l9 53h173V2q0-122-76-185t-199-63q-121 0-195 52.5T47-38zm108 750h137q0-24 14-33t28-9q8 0 16.5 2.5T368 685t9 27h136q2-76-47.5-120.5T334 547t-131.5 44.5T155 712z"/><glyph glyph-name="gdotaccent.alt" horiz-adv-x="649" d="M227 634q0 41 30 64.5t71 23.5 71-23.5 30-64.5q0-40-30-63t-71-23-71 23-30 63zm83-278q48 0 75-30t27-80q0-43-28.5-73.5T310 142q-43 0-71 28.5T211 247q0 50 28 79.5t71 29.5zM230-38H47q4-103 78-155.5T320-246q123 0 199 63T595 2v492H422l-9-53q-42 64-145 64-107 0-173.5-72.5T28 247q0-109 59-175T254-1q114-6 164 63V-3q0-44-26.5-69.5T320-98q-35 0-60.5 15T230-38z"/><glyph glyph-name="gcommaaccent.alt" horiz-adv-x="649" d="M310 356q48 0 75-30t27-80q0-43-28.5-73.5T310 142q-43 0-71 28.5T211 247q0 50 28 79.5t71 29.5zM230-38H47q4-103 78-155.5T320-246q123 0 199 63T595 2v492H422l-9-53q-42 64-145 64-107 0-173.5-72.5T28 247q0-109 59-175T254-1q114-6 164 63V-3q0-44-26.5-69.5T320-98q-35 0-60.5 15T230-38zm4 671q0 48 58 161h97l-21-98q53-10 53-64 0-36-28.5-56.5T323 555q-37 0-63 20.5T234 633z"/><glyph glyph-name="commaaccent" horiz-adv-x="382" d="M267-120q0-48-58-161h-97l21 98q-53 10-53 64 0 36 28.5 56.5T178-42q37 0 63-20.5t26-57.5z"/><glyph glyph-name="commaaccent.alt" horiz-adv-x="377" d="M93 578q0 48 58 161h97l-21-98q53-10 53-64 0-36-28.5-56.5T182 500q-37 0-63 20.5T93 578z"/><glyph glyph-name="zero.tf" horiz-adv-x="720" d="M237 403V286q0-146 123-146 57 0 90.5 35T484 286v117q0 73-33 108t-88 35q-126 0-126-143zM43 286v115q0 79 25.5 139t70 96.5 101 54.5T363 709q138 0 225.5-78.5T676 401V287q0-102-44-172.5t-112.5-102T364-19q-64 0-120.5 17.5t-102 53-72 95.5T43 286z"/><glyph glyph-name="one.tf" horiz-adv-x="720" d="M107 0v152h169v333l-151-49v154l343 123V152h171V0H107z"/><glyph glyph-name="two.tf" horiz-adv-x="720" d="M265 479H72q1 115 84 173t210 58q130 0 210-56.5T656 489q0-232-293-232-114 0-114-89h402V0H60v163q0 250 303 250 37 0 67.5 17.5T461 486q0 34-27.5 50.5T366 553q-94 0-101-74z"/><glyph glyph-name="three.tf" horiz-adv-x="720" d="M363 287H236v140h118q96 0 98 58 0 27-27 45.5T354 549q-43 0-72.5-17T251 480H61q1 50 18.5 90t46 66 66.5 43.5 78.5 25T354 712q54 0 104-12t94-36.5 71-68.5 27-102q0-41-25.5-79T557 358q109-40 109-154 0-58-29-102.5t-77-68-100-35T353-13q-44 0-85.5 8T186 21.5t-69.5 46T69 137t-18 94h194q1-44 34.5-64t83.5-20q39 0 68 18.5t29 50.5q0 10-2.5 19t-11 22.5-30 21.5-53.5 8z"/><glyph glyph-name="four.tf" horiz-adv-x="720" d="M406 700h183V277h75V121h-75V0H403v121H46L33 285zM237 277h166v183z"/><glyph glyph-name="five.tf" horiz-adv-x="720" d="M608 700V539H271v-84h94q63 0 111.5-10t91.5-34 66-71.5T657 224q0-62-26-108.5t-69-73-92-39T369-9Q234-9 155.5 48.5T76 232h193q0-41 30-61.5t68-20.5q13 0 27.5 3t31.5 10.5 27.5 23T464 224q0 24-9.5 40.5T428 288t-31.5 9.5T365 300H88v400h520z"/><glyph glyph-name="six.tf" horiz-adv-x="720" d="M658 499H469q-3 30-32 45.5T364 560t-77-23-33-61v-66q64 48 162 48 115 0 186.5-59.5T674 231q0-62-25.5-110T579 45.5 482 4 369-10q-80 0-147.5 23.5T107 94 60 233v243q0 79 44.5 134.5t111 79.5T363 714q62 0 113-11t93-35 65.5-67T658 499zM369 152q47 0 77.5 21.5T477 231q0 40-29 62.5T370 316q-55 0-84.5-23.5T256 232q0-33 30-56.5t83-23.5z"/><glyph glyph-name="seven.tf" horiz-adv-x="720" d="M346 0H134l271 537H90v163h556l5-89z"/><glyph glyph-name="eight.tf" horiz-adv-x="720" d="M360 292q-52 0-83-19.5T246 218t32.5-54.5T359 144q47 0 79.5 19t31.5 54q0 34-29 54.5T360 292zM41 218q1 35 24.5 78t68.5 67q-70 50-72 139 0 103 80.5 158T351 715q131 0 219.5-55.5T659 504q1-41-18.5-76.5T585 370q49-27 70-70t22-82q2-121-84.5-177T359-15q-95 0-164.5 21.5T82 81.5 41 218zm314 204q37 0 62 14.5t31 35.5.5 42.5-30.5 36-62 14.5-62-14.5-31-35.5 0-42.5 31-36 61-14.5z"/><glyph glyph-name="nine.tf" horiz-adv-x="720" d="M55 203h189q3-30 32-45.5t73-15.5q46 0 81.5 24t35.5 66v60q-60-48-162-48-115 0-186.5 59.5T46 471q0 62 25.5 110t69.5 75.5 97 41.5 113 14q80 0 147.5-23.5T613 608t47-139V233q0-63-26-112t-71-77-98.5-42T351-12q-49 0-91.5 6.5t-81 22.5-65 40T71 118.5 55 203zm296 347q-47 0-77.5-21.5T243 471q0-40 29-62.5t78-22.5q55 0 84.5 23.5T464 470q0 33-30 56.5T351 550z"/><glyph glyph-name="Euro.tf" horiz-adv-x="720" d="M82 199v121h55v50H82v117h83q26 73 80.5 124T366 684t138.5 21T641 679l-48-141q-61 27-125 16.5T371 487h181l-29-117H324q-1-25 0-50h188l-26-121H373q38-42 107-56t122 7L650 6q-67-21-140-21-135 0-224.5 56T160 199H82z"/><glyph glyph-name="cent.tf" horiz-adv-x="720" d="M503 184L608 74Q541 13 464-3v-76H303V3q-82 23-130.5 83T124 246q0 98 49.5 159.5T303 491v85h161v-78q75-16 131-70l-98-106q-35 36-85 36-51 0-79.5-32T304 245q0-43 28.5-72.5T411 143q54 0 92 41z"/><glyph glyph-name="sterling.tf" horiz-adv-x="720" d="M316 472q0-31 10-69h189V267H349q4-26-5-59.5T318 157h333V0H75v156q44 1 67 36t20 75H75v136h60q-8 35-10 68-5 107 64.5 173T386 710q119 0 187-57.5T636 483H461q-1 36-19.5 54T392 555q-35 0-55.5-21T316 472z"/><glyph glyph-name="florin.tf" horiz-adv-x="720" d="M571 337H443V-1q0-79-38-131.5T312.5-201 197-205 90-154l56 111q28-24 58-24 24 0 39.5 16T259-2v339H150v142h109v30q0 101 63.5 151.5T472 711q97 0 149-51l-56-114q-28 24-67 24-24 0-39.5-15.5T443 509v-30h128V337z"/><glyph glyph-name="yen.tf" horiz-adv-x="720" d="M100 110v119h157v41H100v127h80L-11 692v8h220l74-123 74-140 76 139 78 124h220v-9L531 397h80V270H451v-41h160V110H451V0H257v110H100z"/><glyph glyph-name="dollar.tf" horiz-adv-x="720" d="M277-110v94Q147-1 50 103l109 125q81-79 205-79 50 0 80 16.5t30 45.5q0 53-117 64-64 6-110 17.5T158.5 328 94 395.5 72 502q0 84 57 135.5T277 706v91h168v-89q103-15 182-77l-98-125q-64 48-164 48-40 0-67.5-13T270 502q0-33 27-44.5t89-17.5q57-6 104-20.5t89.5-40.5 66.5-69.5T670 208q0-93-63-148.5T444-13h1v-97H277z"/><glyph glyph-name="zero.denom" horiz-adv-x="407" d="M139 208v-55q0-30 19-46.5T203 90t45.5 16.5T268 153v55q0 31-19.5 48T203 273t-45-17-19-48zM33 156v53q0 78 50.5 121T204 373q69 0 119.5-43T374 209v-53q0-79-51-124T204-13q-70 0-120.5 45T33 156z"/><glyph glyph-name="one.denom" horiz-adv-x="285" d="M32 0v91h61v162q-7-1-25.5-5.5T42 242v92l158 42V91h63V0H32z"/><glyph glyph-name="two.denom" horiz-adv-x="379" d="M142 258H37q1 57 45.5 90.5T187 382q70 0 113.5-32t43.5-93q0-32-12-55t-36.5-36.5T253 146t-49-13q-61-13-66-29h203V0H35v99q0 31 11 53t34 35 39.5 19 46.5 13q24 5 35.5 8.5t22 11T234 257q0 14-13 21.5t-31 7.5q-17 0-31-7.5T142 258z"/><glyph glyph-name="three.denom" horiz-adv-x="382" d="M189 146h-62v83h58q50 0 50 30 0 27-50 29-20 1-36-7t-19-22H34q0 59 46.5 89.5T187 379t108-32 48-89q0-44-39-70 21-11 34-33t13-47q0-35-15-59.5t-40-37-51.5-18T188-12q-61 0-110.5 32T27 113h112q4-28 48-28 21 0 36 8t15 24q0 29-49 29z"/><glyph glyph-name="four.denom" horiz-adv-x="401" d="M187 372h135V153h44V60h-44V0H215v60H25l-4 91zm28-219v105q-20-26-80-105h80z"/><glyph glyph-name="five.denom" horiz-adv-x="381" d="M328 372v-94H148v-33h48q156 0 156-125 0-68-45.5-100.5T201-13q-70 0-114.5 32.5T41 119h109q2-18 14.5-28T193 81q19 0 34 10.5t15 28.5q0 16-13.5 25t-32.5 9H46v218h282z"/><glyph glyph-name="six.denom" horiz-adv-x="385" d="M244 121q0 16-14.5 24.5T195 154q-21 0-35.5-8.5T146 121q0-16 14-24.5t34-8.5 35 9 15 24zm101 138H244q-2 14-15 22t-31 8q-21 0-36.5-8T146 259v-32q31 16 70 16 55 0 96.5-31.5T354 121q0-62-47.5-94.5T195-6Q132-6 85 28t-47 94v137q0 57 46 88t110 31q65 0 106.5-29t44.5-90z"/><glyph glyph-name="seven.denom" horiz-adv-x="328" d="M167 0H46l130 272H26v100h287l4-47z"/><glyph glyph-name="eight.denom" horiz-adv-x="393" d="M140 117q-1-12 13.5-24T198 81q29 0 43 11t13 25q0 13-16 23t-39 10q-25 0-42-9t-17-24zm-110 1q0 18 13.5 40T79 194q-38 28-38 68 0 57 43 88.5T195 382q67 0 112-31.5t45-87.5q0-44-38-66 22-15 35-37t13-43q1-66-47-97T195-9Q123-9 75.5 21.5T30 118zm168 113q22 0 33.5 9t11.5 21-12.5 21.5T197 292q-22 0-34.5-9T150 262q0-13 12.5-22t35.5-9z"/><glyph glyph-name="nine.denom" horiz-adv-x="384" d="M142 251q0-33 49-33 20 0 35 8t14 25q0 15-14.5 23.5T192 283q-21 0-35.5-8.5T142 251zM36 113h103q2-15 16-23t32-8q21 0 37 8.5t16 22.5v31q-31-16-70-16-55 0-96.5 32T32 251q0 61 48 93.5T191 377t110-34 47-93V113q0-58-46.5-90T192-9Q123-9 80.5 20.5T36 113z"/><glyph glyph-name="zero.num" horiz-adv-x="407" d="M139 542v-55q0-30 19-46.5t45-16.5 45.5 16.5T268 487v55q0 31-19.5 48.5T203 608t-45-17.5-19-48.5zM33 490v53q0 78 50.5 121.5T204 708q68 0 119-43.5T374 543v-53q0-79-51-124t-119-45q-70 0-120.5 45T33 490z"/><glyph glyph-name="one.num" horiz-adv-x="286" d="M33 333v91h61v162q-7-1-25.5-5.5T43 575v92l158 43V424h63v-91H33z"/><glyph glyph-name="two.num" horiz-adv-x="378" d="M141 581H36q1 58 45.5 91.5T186 706q70 0 113.5-32.5T343 580q0-32-12-55t-36.5-36-43-19.5T203 457q-61-13-66-30h203V323H34v99q0 32 11 54t34.5 35 39.5 18.5 46 12.5q19 5 27 7t20 7 16.5 10.5T233 580q0 15-13 22.5t-31 7.5-31.5-7.5T141 581z"/><glyph glyph-name="three.num" horiz-adv-x="382" d="M189 474h-62v84h58q50 0 50 29 0 28-50 30-49 0-55-30H34q0 59 46.5 90T187 708t108-32.5 48-89.5q0-45-39-69 21-11 34-33.5t13-47.5q0-45-27-73.5t-61-37-75-8.5q-61 0-110.5 31.5T27 441h112q4-27 48-27 51 0 51 31 0 29-49 29z"/><glyph glyph-name="four.num" horiz-adv-x="399" d="M186 700h135V480h44v-93h-44v-60H214v60H24l-4 91zm28-220v105q-50-64-80-105h80z"/><glyph glyph-name="five.num" horiz-adv-x="383" d="M330 697v-94H150v-34h48q156 0 156-125 0-68-45-100t-106-32q-70 0-114.5 32T43 443h109q2-18 14.5-27.5T195 406q19 0 34 10.5t15 27.5-13.5 25.5T198 478H48v219h282z"/><glyph glyph-name="six.num" horiz-adv-x="382" d="M242 450q0 16-14.5 24.5T193 483q-21 0-35.5-8.5T144 450q0-16 14-24t34-8 35 8.5 15 23.5zm101 138H242q-4 30-46 30-21 0-36.5-8T144 588v-31q29 15 70 15 55 0 96.5-31.5T352 450q0-61-48-94t-111-33-110 34.5T36 451v137q0 57 46 88.5T192 708q65 0 106.5-29.5T343 588z"/><glyph glyph-name="seven.num" horiz-adv-x="329" d="M167 325H46l130 273H26v100h287l4-47z"/><glyph glyph-name="eight.num" horiz-adv-x="392" d="M140 444q-1-12 13.5-23.5T198 409q29 0 43 11t13 24q0 14-16 23.5t-39 9.5q-25 0-42-8.5T140 444zm-110 1q0 18 13.5 40T79 521q-16 12-27 31.5T41 589q0 57 43 89t111 32q67 0 112-32t45-88q0-44-38-66 22-14 35-36.5t13-43.5q1-66-47-96.5T195 319q-72 0-119.5 30.5T30 445zm168 114q22 0 33.5 8.5T243 588q0 13-12.5 22t-33.5 9q-22 0-34.5-9T150 589q0-13 12.5-21.5T198 559z"/><glyph glyph-name="nine.num" horiz-adv-x="384" d="M142 579q0-16 14-24.5t35-8.5q20 0 35 8.5t14 24.5q0 15-14.5 24t-33.5 9q-21 0-35.5-8.5T142 579zM36 441h103q4-30 48-30 21 0 37 8t16 22v31q-32-15-70-15-55 0-96.5 31.5T32 579q0 62 47.5 94.5T191 706q63 0 110-34.5t47-93.5V441q0-57-46.5-89T192 320q-69 0-111.5 29.5T36 441z"/><glyph glyph-name="parenleft.case" horiz-adv-x="387" d="M289 827l84-98q-80-66-127-166.5T199 348q0-107 44.5-210T363-27l-79-106Q160-50 96.5 73.5T33 348q0 144 69.5 270.5T289 827z"/><glyph glyph-name="parenright.case" horiz-adv-x="387" d="M14 729l84 98q117-82 186.5-208.5T354 348q0-151-63.5-274.5T103-133L24-27q75 62 119.5 165T188 348q0 114-47 214.5T14 729z"/><glyph glyph-name="hyphen.case" horiz-adv-x="522" d="M60 258v147h402V258H60z"/><glyph glyph-name="bracketleft.case" horiz-adv-x="386" d="M344-85H73v860h271V630H238V60h106V-85z"/><glyph glyph-name="bracketright.case" horiz-adv-x="386" d="M313-85H42V60h106v570H42v145h271V-85z"/><glyph glyph-name="braceleft.case" horiz-adv-x="398" d="M356 47V-85q-53-10-93-10Q96-95 96 80v141q0 11-2 19t-8 17-19.5 14-33.5 5v128q38 0 50.5 15.5T96 460v133q0 90 39 137t128 47q42 0 93-9V646q-87 18-87-60V446q0-23-.5-33.5T264 386t-14.5-27-27.5-21q29-16 38-40.5t9-63.5V98q0-29 13-42t32.5-12 41.5 3z"/><glyph glyph-name="bar.case" horiz-adv-x="323" d="M250 735V-84H73v819h177z"/><glyph glyph-name="braceright.case" horiz-adv-x="398" d="M42-85V47q22-2 41.5-3T116 56t13 42v136q0 39 9 63.5t38 40.5q-17 10-27.5 21T134 386t-4.5 26.5-.5 33.5v140q0 78-87 60v122q51 9 93 9 89 0 128-47t39-137V460q0-16 3.5-26.5t18-20T365 404V276q-38 0-50.5-15.5T302 221V80q0-175-167-175-40 0-93 10z"/><glyph glyph-name="guilsinglleft.case" horiz-adv-x="411" d="M44 332l139 224h173L217 332l141-223H183z"/><glyph glyph-name="guilsinglright.case" horiz-adv-x="411" d="M228 556l139-224-139-223H53l141 223L55 556h173z"/><glyph glyph-name="guillemotleft.case" horiz-adv-x="643" d="M44 332l139 224h173L217 332l141-223H183zm232 0l139 224h173L449 332l141-223H415z"/><glyph glyph-name="guillemotright.case" horiz-adv-x="643" d="M460 556l139-224-139-223H285l141 223-139 224h173zm-232 0l139-224-139-223H53l141 223L55 556h173z"/><glyph glyph-name="endash.case" horiz-adv-x="621" d="M60 250v146h501V250H60z"/><glyph glyph-name="emdash.case" horiz-adv-x="708" d="M60 251v146h588V251H60z"/><glyph glyph-name="bullet.case" horiz-adv-x="439" d="M221 173q-68 0-112 38.5T65 314q0 63 44.5 103T221 457q65 0 109-40t44-103-43.5-102T221 173z"/><glyph glyph-name="periodcentered.case" horiz-adv-x="318" d="M159 229q-49 0-77 29.5T54 324t28 65.5 77 29.5 77-29.5 28-65.5-28-65.5-77-29.5z"/><glyph glyph-name="a.alt" horiz-adv-x="571" d="M251 507q48 0 86-4.5t74-17.5 59.5-34.5 37.5-57 14-82.5V0H355l-8 51Q293-9 212-9 123-9 74 38.5T25 169q0 80 62 119.5T239 328q47 0 100-16-4 60-94 60-83 0-160-33L61 461q95 46 190 46zm-46-339q0-41 57-41 26 1 50.5 16.5T342 190q-36 20-81 20-56 0-56-42z"/><glyph glyph-name="agrave.alt" horiz-adv-x="571" d="M251 507q48 0 86-4.5t74-17.5 59.5-34.5 37.5-57 14-82.5V0H355l-8 51Q293-9 212-9 123-9 74 38.5T25 169q0 80 62 119.5T239 328q47 0 100-16-4 60-94 60-83 0-160-33L61 461q95 46 190 46zm-46-339q0-41 57-41 26 1 50.5 16.5T342 190q-36 20-81 20-56 0-56-42zm-82 526v7h180l72-141v-5H225z"/><glyph glyph-name="aacute.alt" horiz-adv-x="571" d="M251 507q-95 0-190-46l24-122q77 33 160 33 90 0 94-60-53 16-100 16-90 0-152-39.5T25 169q0-83 49-130.5T212-9q81 0 135 60l8-51h167v311q0 47-14 82.5t-37.5 57T411 485t-74 17.5-86 4.5zm-46-339q0 42 56 42 45 0 81-20-5-31-29.5-46.5T262 127q-57 0-57 41zm249 533v-7L352 555H202v5l72 141h180z"/><glyph glyph-name="acircumflex.alt" horiz-adv-x="571" d="M251 507q-95 0-190-46l24-122q77 33 160 33 90 0 94-60-53 16-100 16-90 0-152-39.5T25 169q0-83 49-130.5T212-9q81 0 135 60l8-51h167v311q0 47-14 82.5t-37.5 57T411 485t-74 17.5-86 4.5zm-46-339q0 42 56 42 45 0 81-20-5-31-29.5-46.5T262 127q-57 0-57 41zm29 541h110l147-147v-8H338l-49 44-49-44H88v8z"/><glyph glyph-name="atilde.alt" horiz-adv-x="571" d="M251 507q48 0 86-4.5t74-17.5 59.5-34.5 37.5-57 14-82.5V0H355l-8 51Q293-9 212-9 123-9 74 38.5T25 169q0 80 62 119.5T239 328q47 0 100-16-4 60-94 60-83 0-160-33L61 461q95 46 190 46zm-46-339q0-41 57-41 26 1 50.5 16.5T342 190q-36 20-81 20-56 0-56-42zm78 407q-72 42-96-14l-93 62q23 65 84 85.5T292 696q66-40 98 16l88-61q-24-68-76.5-89T283 575z"/><glyph glyph-name="adieresis.alt" horiz-adv-x="571" d="M251 507q-95 0-190-46l24-122q77 33 160 33 90 0 94-60-53 16-100 16-90 0-152-39.5T25 169q0-83 49-130.5T212-9q81 0 135 60l8-51h167v311q0 47-14 82.5t-37.5 57T411 485t-74 17.5-86 4.5zm-46-339q0 42 56 42 45 0 81-20-5-31-29.5-46.5T262 127q-57 0-57 41zM73 633q0 38 26.5 60t62.5 22 63-22 27-60q0-37-27-58.5T162 553t-62.5 21.5T73 633zm245 0q0 38 27 60t64 22q36 0 63-22t27-60q0-37-27-58.5T409 553q-37 0-64 21.5T318 633z"/><glyph glyph-name="amacron.alt" horiz-adv-x="571" d="M120 573v125h338V573H120zm131-66q48 0 86-4.5t74-17.5 59.5-34.5 37.5-57 14-82.5V0H355l-8 51Q293-9 212-9 123-9 74 38.5T25 169q0 80 62 119.5T239 328q47 0 100-16-4 60-94 60-83 0-160-33L61 461q95 46 190 46zm-46-339q0-41 57-41 26 1 50.5 16.5T342 190q-36 20-81 20-56 0-56-42z"/><glyph glyph-name="abreve.alt" horiz-adv-x="571" d="M251 507q48 0 86-4.5t74-17.5 59.5-34.5 37.5-57 14-82.5V0H355l-8 51Q293-9 212-9 123-9 74 38.5T25 169q0 78 62 118.5T239 328q47 0 100-16-4 60-94 60-83 0-160-33L61 461q95 46 190 46zm-46-339q0-41 57-41 26 1 50.5 16.5T342 190q-36 20-81 20-56 0-56-42zm-93 538h131q0-17 9-27t16.5-12 15.5-2 16 2 16.5 12 8.5 27h131q2-74-45.5-116.5T284 547t-126.5 42.5T112 706z"/><glyph glyph-name="aring.alt" horiz-adv-x="571" d="M251 507q48 0 86-4.5t74-17.5 59.5-34.5 37.5-57 14-82.5V0H355l-8 51Q293-9 212-9 123-9 74 38.5T25 169q0 78 62 118.5T239 328q47 0 100-16-4 60-94 60-83 0-160-33L61 461q95 46 190 46zm-46-339q0-41 57-41 26 1 50.5 16.5T342 190q-36 20-81 20-56 0-56-42zm82 604q71 0 111-37t40.5-81.5T399 572t-112-37q-47 0-81.5 17.5t-50.5 44-16 57 15.5 57 50.5 44 82 17.5zm2-85q-26 0-37-16.5t0-33.5 37-17q25 0 35.5 17t0 33.5T289 687z"/><glyph glyph-name="aringacute.alt" horiz-adv-x="571" d="M251 507q-95 0-190-46l24-122q77 33 160 33 90 0 94-60-53 16-100 16-90 0-152-40.5T25 169q0-83 49-130.5T212-9q81 0 135 60l8-51h167v311q0 47-14 82.5t-37.5 57T411 485t-74 17.5-86 4.5zm-46-339q0 42 56 42 45 0 81-20-5-31-29.5-46.5T262 127q-57 0-57 41zm81 596q-67 0-104.5-35.5t-37.5-78 38-78T286 537q68 0 106 35.5t37.5 78-38.5 78T286 764zm1-79q26 0 37.5-17.5t.5-34.5-38-17-38.5 17 0 34.5T287 685zm173 223v-6L357 788H205v4l72 116h183z"/><glyph glyph-name="aogonek.alt" horiz-adv-x="571" d="M522 311V-44q-17 3-40 4.5t-40.5-10T430-83q5-17 34.5-17.5T507-92l56-77q-38-30-94.5-36.5t-105 17T305-115q-8 39 8 69.5T363 0l-13 53Q294-9 212-9 123-9 74 38.5T25 169q0 78 62 118.5T239 328q47 0 100-16-4 60-94 60-83 0-160-33L61 461q95 46 190 46 48 0 86-4.5t74-17.5 59.5-34.5 37.5-57 14-82.5zM205 168q0-41 57-41 26 1 50.5 16.5T342 190q-36 20-81 20-56 0-56-42z"/><glyph glyph-name="y.alt" horiz-adv-x="621" d="M229 494V250q0-108 79-108 75 0 75 105v247h184V2q0-125-67-186.5T312-246q-118 0-184 52T58-38h183q9-60 71-60 43 0 60.5 23.5T390-3v65q-22-35-51-49T267-1Q154-1 100.5 66T47 247v247h182z"/><glyph glyph-name="yacute.alt" horiz-adv-x="621" d="M229 250v244H47V247q0-114 53.5-181T267-1q43 0 72 14t51 49V-3q0-48-17.5-71.5T312-98q-62 0-71 60H58q4-104 70-156t184-52q121 0 188 61.5T567 2v492H383V247q0-105-75-105-79 0-79 108zm262 459v-8L382 542H221v6l77 161h193z"/><glyph glyph-name="ycircumflex.alt" horiz-adv-x="621" d="M229 250v244H47V247q0-114 53.5-181T267-1q43 0 72 14t51 49V-3q0-48-17.5-71.5T312-98q-62 0-71 60H58q4-104 70-156t184-52q121 0 188 61.5T567 2v492H383V247q0-105-75-105-79 0-79 108zm20 467h114l152-157v-8H357l-51 47-51-47H97v8z"/><glyph glyph-name="ydieresis.alt" horiz-adv-x="621" d="M229 250v244H47V247q0-114 53.5-181T267-1q43 0 72 14t51 49V-3q0-48-17.5-71.5T312-98q-62 0-71 60H58q4-104 70-156t184-52q121 0 188 61.5T567 2v492H383V247q0-105-75-105-79 0-79 108zM68 628q0 40 27.5 63t65.5 23 66.5-23 28.5-63q0-38-28.5-60.5T161 545t-65.5 22.5T68 628zm290 0q0 40 28 63t67 23q37 0 65.5-23t28.5-63q0-38-28.5-60.5T453 545q-39 0-67 22.5T358 628z"/><glyph glyph-name="ygrave.alt" horiz-adv-x="621" d="M229 494V250q0-108 79-108 75 0 75 105v247h184V2q0-125-67-186.5T312-246q-118 0-184 52T58-38h183q9-60 71-60 43 0 60.5 23.5T390-3v65q-22-35-51-49T267-1Q154-1 100.5 66T47 247v247h182zm-98 207v8h193l77-161v-6H240z"/></font>
</defs>
</svg>
