<?xml version="1.0" encoding="UTF-8"?>
<svg xmlns="http://www.w3.org/2000/svg" width="70" height="44" viewBox="0 0 70 44" fill="none">
  <path fill-rule="evenodd" clip-rule="evenodd" d="M63.4873 4.82774L58.6597 0L53.593 5.06645L51.0598 2.53323L46.2319 7.36111L53.593 14.7221L63.4873 4.82774ZM51.0598 5.4334L53.593 7.96663L58.6597 2.90004L60.5873 4.82761L53.593 11.8219L49.1321 7.36111L51.0598 5.4334ZM62.0471 24.5511L69.1006 31.6043C70.2998 32.8037 70.2998 34.7552 69.1006 35.9547L62.0471 43.008H34.4001V40.9572H39.9733L46.4259 34.5046C46.6181 34.3125 46.7238 34.0551 46.7238 33.7796C46.7238 33.5041 46.618 33.2467 46.426 33.0546L39.9733 26.6019H22.6745L27.6771 31.6044C28.8765 32.8037 28.8765 34.7553 27.6771 35.9546L22.6745 40.9571H28.2479V43.0078H0V31.7287H2.05075V40.9571H19.7743L26.2269 34.5045C26.419 34.3124 26.5247 34.0549 26.5247 33.7794C26.5247 33.504 26.419 33.2465 26.2269 33.0544L19.7743 26.6018H2.05075V29.6779H0V24.5511H11.2791V17.3734H13.3299V24.5511H31.9234V17.3734H33.9741V24.5511H52.5676V17.3734H54.6184V24.5511H62.0471ZM61.1977 40.9571L67.6504 34.5045C68.0501 34.1047 68.0501 33.4542 67.6504 33.0544L61.1977 26.6018H42.8736L47.876 31.6043C48.4553 32.1837 48.7745 32.9561 48.7745 33.7794C48.7745 34.6028 48.4553 35.3752 47.8759 35.9546L42.8736 40.9571H61.1977ZM30.2986 40.9571H32.3494V43.0078H30.2986V40.9571ZM17.3712 0.000546867L22.199 4.82815L12.3045 14.7219L4.94354 7.36138L9.77129 2.53377L12.3045 5.06686L17.3712 0.000546867ZM12.3045 7.9669L9.77129 5.43381L7.84372 7.36124L12.3045 11.8219L19.2988 4.82815L17.3712 2.90072L12.3045 7.9669ZM42.8432 4.82774L38.0155 0L32.9488 5.06645L30.4155 2.53323L25.5876 7.36111L32.9488 14.7221L42.8432 4.82774ZM30.4155 5.4334L32.9488 7.96663L38.0155 2.90004L39.9432 4.82761L32.9488 11.8219L28.488 7.36111L30.4155 5.4334ZM57.5209 28.6524H59.5718V30.7032H57.5209V28.6524ZM55.4701 28.6524H53.4194V30.7032H55.4701V28.6524Z" fill="#E41019"></path>
</svg>
