<?xml version="1.0" encoding="UTF-8"?>
<svg xmlns="http://www.w3.org/2000/svg" width="60" height="70" viewBox="0 0 60 70" fill="none">
  <path fill-rule="evenodd" clip-rule="evenodd" d="M52.4658 0V2.26027H59.0411V15.3425H56.9863V4.31507H54.6575V18.6986H52.6027V13.0822H50.274V26.3699H52.6027V20.8904H54.6575V34.2152L51.4384 40.6536L48.2192 34.2152V2.26027H50.411V0H52.4658ZM52.6027 33.73V28.4247H50.274V33.73L51.4384 36.0588L52.6027 33.73ZM52.6027 11.0274H50.274V4.31507H52.6027V11.0274ZM0 6.57534V24.1096H2.05479V8.63014H30.6849V21.7808H43.8356V46.0274H45.8904V20.3279L32.1378 6.57534H0ZM32.7397 10.083L42.3827 19.726H32.7397V10.083ZM2.05479 67.9452H43.8356V48.2192H45.8904V70H0V26.3014H2.05479V67.9452ZM21.7808 13.1507V28.3562H6.57534V13.1507H21.7808ZM13.0137 19.6575C13.0137 20.2996 13.536 20.8219 14.1781 20.8219C14.8201 20.8219 15.3425 20.2996 15.3425 19.6575C15.3425 19.0155 14.8201 18.4932 14.1781 18.4932C13.536 18.4932 13.0137 19.0155 13.0137 19.6575ZM17.3727 26.3014H10.9833C11.4184 24.9519 12.6856 23.9726 14.1779 23.9726C15.6703 23.9726 16.9378 24.9519 17.3727 26.3014ZM19.726 15.2055H8.63014V26.3014H8.86617C9.22589 24.4379 10.5441 22.9122 12.2862 22.2599C11.4826 21.674 10.9589 20.726 10.9589 19.6575C10.9589 17.8825 12.403 16.4384 14.1781 16.4384C15.9531 16.4384 17.3973 17.8825 17.3973 19.6575C17.3973 20.726 16.8736 21.674 16.07 22.2599C17.8121 22.9122 19.1303 24.4378 19.49 26.3014H19.726V15.2055ZM27.3288 32.8767H15.274V34.9315H27.3288V32.8767ZM15.274 37.2603H38.2877V39.3151H15.274V37.2603ZM6.57534 39.3151H13.0137V32.8767H6.57534V39.3151ZM8.63014 34.9315H10.9589V37.2603H8.63014V34.9315ZM15.274 41.6438H27.3288V43.6986H15.274V41.6438ZM38.2877 46.0274H15.274V48.0822H38.2877V46.0274ZM13.0137 48.0822H6.57534V41.6438H13.0137V48.0822ZM10.9589 43.6986H8.63014V46.0274H10.9589V43.6986ZM27.3288 50.411H15.274V52.4658H27.3288V50.411ZM15.274 54.7945H38.2877V56.8493H15.274V54.7945ZM6.57534 56.8493H13.0137V50.411H6.57534V56.8493ZM8.63014 52.4658H10.9589V54.7945H8.63014V52.4658ZM27.3288 61.3699H29.5205V63.4247H27.3288V61.3699ZM33.9041 61.3699H31.7123V63.4247H33.9041V61.3699ZM36.0959 61.3699H38.2877V63.4247H36.0959V61.3699Z" fill="#E41019"></path>
</svg>
