<?xml version="1.0" encoding="UTF-8"?>
<svg xmlns="http://www.w3.org/2000/svg" width="61" height="70" viewBox="0 0 61 70" fill="none">
  <path fill-rule="evenodd" clip-rule="evenodd" d="M0 6.15234H2.05078V2.05078H49.2188V57.6953H38.9648V67.9492H2.05078V8.20312H0V70H40.4149L51.2695 59.1454V0H0V6.15234ZM47.7687 59.7461L41.0156 66.4992V59.7461H47.7687ZM47.168 8.20312H45.1172V10.2539H47.168V8.20312ZM45.1172 4.10156H47.168V6.15234H45.1172V4.10156ZM18.457 15.005V17.0558H20.611C20.7442 17.7095 21.0027 18.3177 21.3594 18.8557L19.8343 20.3809L21.2844 21.831L22.8095 20.3059C23.3475 20.6626 23.9557 20.9211 24.6094 21.0543V23.2083H26.6602V21.0543C27.3138 20.9211 27.9221 20.6626 28.4601 20.3059L29.9852 21.831L31.4353 20.3809L29.9101 18.8557C30.2668 18.3177 30.5253 17.7095 30.6585 17.0558H32.8126V15.005H30.6585C30.5253 14.3514 30.2668 13.7431 29.9101 13.2053L31.4353 11.6802L29.9852 10.2301L28.4601 11.7551C27.9221 11.3984 27.3138 11.1398 26.6602 11.0067V8.85268H24.6094V11.0067C23.9557 11.1398 23.3475 11.3984 22.8095 11.7551L21.2844 10.23L19.8343 11.68L21.3594 13.2051C21.0027 13.7431 20.7442 14.3514 20.611 15.005H18.457ZM25.6348 12.9542C27.331 12.9542 28.7109 14.3341 28.7109 16.0304C28.7109 17.7267 27.331 19.1066 25.6348 19.1066C23.9385 19.1066 22.5586 17.7265 22.5586 16.0304C22.5586 14.3343 23.9386 12.9542 25.6348 12.9542ZM34.8633 15.005H42.041V17.0558H34.8633V15.005ZM16.4062 15.005H9.22865V17.0558H16.4062V15.005ZM9.22865 27.3097H24.6095V29.3605H9.22865V27.3097ZM42.041 31.4111H9.22865V33.4619H42.041V31.4111ZM9.22865 35.5127H42.041V37.5635H9.22865V35.5127ZM42.041 27.3097H26.6602V29.3605H42.041V27.3097ZM32.2998 39.6143V41.665H18.9697V39.6143H32.2998ZM9.22865 54.995H17.4981C18.0046 59.0357 21.459 62.1727 25.6348 62.1727C29.8106 62.1727 33.265 59.0357 33.7716 54.995H42.041V52.9442H33.7716C33.265 48.9035 29.8106 45.7665 25.6348 45.7665C21.459 45.7665 18.0045 48.9035 17.4981 52.9442H9.22865V54.995ZM25.6348 47.8172C29.0272 47.8172 31.7871 50.5772 31.7871 53.9696C31.7871 57.362 29.0272 60.1219 25.6348 60.1219C22.2424 60.1219 19.4824 57.362 19.4824 53.9696C19.4824 50.5772 22.2424 47.8172 25.6348 47.8172ZM28.8976 53.2446L27.4475 51.7944L25.2722 53.9697L23.8221 52.5196L22.372 53.9697L25.2722 56.8698L28.8976 53.2446ZM60.498 11.3106V59.746H58.4473V39.2383H56.3965V66.9238C56.3965 67.4893 56.8564 67.9494 57.4217 67.9494C57.9872 67.9494 58.4473 67.4893 58.4473 66.9238V61.7969H60.498V66.9237C60.498 68.62 59.118 70 57.4217 70C55.7256 70 54.3457 68.62 54.3457 66.9237V11.3106L57.4219 5.15826L60.498 11.3106ZM58.4473 11.7949L57.4219 9.74408L56.3965 11.7949V13.6035H58.4473V11.7949ZM56.3965 37.1875V15.6543H58.4473V37.1875H56.3965Z" fill="#E63038"></path>
</svg>
