<?xml version="1.0" encoding="UTF-8"?>
<svg xmlns="http://www.w3.org/2000/svg" width="66" height="70" viewBox="0 0 66 70" fill="none">
  <path fill-rule="evenodd" clip-rule="evenodd" d="M56.5332 0V11.2792H65.8984V57.6954H57.6954V55.6447H63.8477V49.4923H2.05078V55.6447H55.6447V57.6954H38.0763V60.5295L39.7354 63.8477H47.3047C49.0008 63.8477 50.3809 65.2276 50.3809 66.9238V70H15.5176V66.9238C15.5176 65.2276 16.8975 63.8477 18.5938 63.8477H26.163L27.8221 60.5295V57.6954H0V21.5331H2.05078V47.4415H54.4824V2.05078H19.6191V10.2539H11.416V45.3909H9.36523V13.3299H2.05078V19.4823H0V11.2792H9.36523V8.80373L18.169 0H56.5332ZM17.5682 3.50096L12.8661 8.20312H17.5682V3.50096ZM48.3301 66.9238V67.9492H17.5684V66.9238C17.5684 66.3584 18.0283 65.8984 18.5938 65.8984H47.3047C47.8702 65.8984 48.3301 66.3584 48.3301 66.9238ZM28.4558 63.8477H37.4426L36.0255 61.0136V57.6954H29.8729V61.0136L28.4558 63.8477ZM56.5332 47.4415V13.3299H63.8477V47.4415H56.5332ZM33.9746 51.5431H31.9238V53.5939H33.9746V51.5431ZM24.0589 13.555L22.6088 12.1049L18.9834 15.7302L16.8082 13.5551L15.358 15.0052L18.9834 18.6304L24.0589 13.555ZM24.0589 25.8595L18.9834 30.9349L15.358 27.3096L16.8082 25.8595L18.9834 28.0347L22.6088 24.4095L24.0589 25.8595ZM27.0927 25.3833H47.7646V27.4341H27.0927V25.3833ZM43.3759 29.4849H27.0927V31.5357H43.3759V29.4849ZM27.0927 37.6879H47.7646V39.7387H27.0927V37.6879ZM43.3759 41.7895H27.0927V43.8402H43.3759V41.7895ZM27.0927 17.1804H43.3759V19.2311H27.0927V17.1804ZM24.0589 38.1641L18.9834 43.2395L15.358 39.6143L16.8082 38.1641L18.9834 40.3393L22.6088 36.7139L24.0589 38.1641ZM27.0927 13.0788H47.7646V15.1296H27.0927V13.0788ZM39.6672 6.15234H29.4133V8.20312H39.6672V6.15234ZM59.7461 15.3807H61.7969V17.4315H59.7461V15.3807ZM61.7969 19.4823H59.7461V25.6346H61.7969V19.4823Z" fill="#E41019"></path>
</svg>
