<?xml version="1.0" encoding="UTF-8"?>
<svg xmlns="http://www.w3.org/2000/svg" width="70" height="70" viewBox="0 0 70 70" fill="none">
  <path fill-rule="evenodd" clip-rule="evenodd" d="M2.05505 13.0139H13.0139V2.05505H39.9128V0H11.5607L0 11.5607V43.9043H2.05505V13.0139ZM10.9589 3.50769V10.9589H3.50769L10.9589 3.50769ZM62.4655 34.1466V0H70V34.1466L66.2328 41.6811L62.4655 34.1466ZM66.2328 37.086L67.9449 33.6617V12.192H64.5206V33.6617L66.2328 37.086ZM67.9449 10.1369H64.5206V8.08243H67.9449V10.1369ZM64.5206 6.02737H67.9449V2.05505H64.5206V6.02737ZM43.4931 38.0137H56.0397L34.5888 50.1886L24.698 44.5746L23.6839 46.3615L34.5888 52.5513L58.9039 38.7507V61.9865H18.8357V64.041H60.9589V35.9592H43.4931V38.0137ZM8.21915 35.9592H41.4386V38.0137H13.1378L22.9111 43.5604L21.8969 45.3474L10.2742 38.7507V61.9865H16.7806V64.041H8.21915V35.9592ZM49.3149 4.72588H51.3699V0H41.9673V2.05505H49.3149V4.72588ZM49.3149 67.9449H2.05505V45.9589H0V70H51.3699V65.9588H49.3149V67.9449ZM51.3699 31.4042H49.3149V34.1439H51.3699V31.4042ZM55.4795 14.8628V6.98654H20.5479V29.5889H55.4795V16.9179H53.4245V27.5344H22.6029V9.04106H53.4245V14.8628H55.4795ZM24.6574 18.2877C24.6574 21.498 27.269 24.1095 30.4792 24.1095C33.69 24.1095 36.3015 21.498 36.3015 18.2877C36.3015 15.0775 33.69 12.466 30.4792 12.466C27.269 12.466 24.6574 15.0775 24.6574 18.2877ZM34.2464 18.2877C34.2464 20.3647 32.5567 22.055 30.4792 22.055C28.4023 22.055 26.7125 20.3647 26.7125 18.2877C26.7125 16.2103 28.4023 14.5205 30.4792 14.5205C32.5567 14.5205 34.2464 16.2103 34.2464 18.2877ZM4.10957 27.7395H6.16463V29.7945H4.10957V27.7395ZM6.16463 16.096H4.10957V21.5754H6.16463V16.096ZM4.10957 23.6299H6.16463V25.685H4.10957V23.6299ZM51.1643 15.2057H46.3701V17.2602H51.1643V15.2057ZM38.8356 15.2057H44.315V17.2602H38.8356V15.2057ZM44.315 19.3153H38.8356V21.3698H44.315V19.3153ZM46.3701 19.3153H48.4246V21.3698H46.3701V19.3153ZM48.0139 57.8769H45.9589V59.9314H48.0139V57.8769ZM50.0684 57.8769H52.1235V59.9314H50.0684V57.8769ZM56.2331 57.8769H54.178V59.9314H56.2331V57.8769Z" fill="#E41019"></path>
</svg>
