<?xml version="1.0" encoding="UTF-8"?>
<svg xmlns="http://www.w3.org/2000/svg" width="64" height="70" viewBox="0 0 64 70" fill="none">
  <path fill-rule="evenodd" clip-rule="evenodd" d="M59.3392 17.9111L57.5985 19.652C61.4786 25.0238 63.5742 31.4568 63.5742 38.2129C63.5742 46.2938 60.5373 53.9963 55.023 59.9011L53.5242 58.5014C58.6826 52.9777 61.5234 45.7723 61.5234 38.2129C61.5234 30.2701 58.4303 22.8026 52.8139 17.1861C47.1974 11.5697 39.7301 8.47656 31.7871 8.47656C23.8443 8.47656 16.3769 11.5697 10.7603 17.1861C5.14391 22.8026 2.05078 30.2701 2.05078 38.2129C2.05078 46.1557 5.14391 53.6231 10.7603 59.2396C16.3769 64.8561 23.8443 67.9492 31.7871 67.9492C39.3462 67.9492 46.5514 65.1083 52.0758 59.9499L53.4755 61.4489C47.5699 66.9632 39.8677 70 31.7871 70C23.2965 70 15.3141 66.6935 9.31027 60.6897C3.30641 54.686 0 46.7035 0 38.2129C0 31.4568 2.09549 25.0238 5.97557 19.6521L4.23473 17.9112C3.65531 17.3318 3.33621 16.5594 3.33621 15.7361C3.33621 14.9127 3.65531 14.1403 4.23473 13.5609L7.13521 10.6605C7.71463 10.0811 8.48723 9.76199 9.31041 9.76199C10.1336 9.76199 10.9061 10.0811 11.4855 10.6605L13.2263 12.4013C17.2188 9.51754 21.7978 7.62084 26.6602 6.83689V2.05078H23.584V0H39.9902V2.05078H36.9141V6.83676C41.7765 7.6207 46.3553 9.51727 50.3479 12.4012L52.0886 10.6604C53.2882 9.46094 55.2398 9.46121 56.439 10.6604L59.3394 13.5607C59.9186 14.1401 60.2379 14.9126 60.2379 15.7359C60.2379 16.5592 59.9186 17.3317 59.3392 17.9111ZM7.23898 18.015C7.88895 17.2281 8.57924 16.4671 9.31027 15.7361C10.0413 15.0049 10.8021 14.3146 11.5892 13.6646L10.0353 12.1107C9.8432 11.9187 9.58576 11.8129 9.31027 11.8129C9.03479 11.8129 8.77734 11.9186 8.58525 12.1107L5.6849 15.0109C5.49281 15.203 5.38713 15.4604 5.38713 15.7359C5.38713 16.0114 5.49281 16.2688 5.6849 16.4609L7.23898 18.015ZM28.7109 6.57262V2.05078H34.8633V6.57262C33.8472 6.47568 32.821 6.42578 31.7871 6.42578C30.7532 6.42578 29.727 6.47568 28.7109 6.57262ZM53.5389 12.1105L51.985 13.6646C52.7721 14.3146 53.5329 15.0049 54.2639 15.7359C54.995 16.467 55.6853 17.2278 56.3352 18.0149L57.8892 16.4609C58.0814 16.2688 58.1871 16.0114 58.1871 15.7359C58.1871 15.4604 58.0813 15.203 57.8893 15.0109L54.989 12.1105C54.5893 11.7109 53.9387 11.7106 53.5389 12.1105ZM11.4488 19.4301C6.71084 24.5581 4.10156 31.2286 4.10156 38.2129C4.10156 53.4788 16.5212 65.8984 31.7871 65.8984C47.053 65.8984 59.4727 53.4788 59.4727 38.2129C59.4727 22.947 47.053 10.5273 31.7871 10.5273C24.8024 10.5273 18.1318 13.1366 13.0043 17.8747L14.3961 19.381C15.5487 18.3158 16.7863 17.3679 18.0912 16.5416L19.6198 19.1893L21.3958 18.1639L19.8662 15.5147C23.2121 13.7547 26.9243 12.7519 30.7616 12.6V15.6543H32.8124V12.6004C36.731 12.7554 40.4258 13.7938 43.7035 15.5221L42.1783 18.1639L43.9543 19.1893L45.4781 16.5499C48.6871 18.5851 51.4147 21.3129 53.4499 24.5217L50.8106 26.0455L51.836 27.8214L54.4776 26.2962C56.206 29.5739 57.2444 33.2687 57.3993 37.1874H54.3457V39.2381H57.3996C57.2445 43.1566 56.2062 46.8516 54.4779 50.1292L51.8362 48.6039L50.8108 50.3799L53.4502 51.9036C51.415 55.1124 48.6872 57.8402 45.4784 59.8754L43.9545 57.2361L42.1786 58.2615L43.7038 60.9033C40.4261 62.6317 36.7313 63.6701 32.8126 63.825V60.7715H30.7619V63.8254C26.8432 63.6703 23.1484 62.632 19.8707 60.9037L21.3959 58.262L19.62 57.2366L18.0961 59.8758C14.8872 57.8406 12.1595 55.1128 10.1243 51.9039L12.7637 50.3802L11.7383 48.6042L9.09631 50.1293C7.36805 46.8516 6.32967 43.1568 6.17463 39.2383H9.22852V37.1875H6.17408C6.32611 33.3502 7.32895 29.6382 9.08893 26.2921L11.738 27.8216L12.7634 26.0456L10.1158 24.5171C10.9421 23.2122 11.89 21.9747 12.9552 20.8219L11.4488 19.4301ZM16.602 35.1657V41.2598L19.2552 41.702C19.5367 42.7156 19.9399 43.6877 20.4596 44.6054L18.8951 46.7955L23.2043 51.1048L25.3946 49.5403C26.3122 50.0598 27.2844 50.4632 28.298 50.7447L28.7402 53.3977H34.8343L35.2764 50.7447C36.2899 50.463 37.262 50.0598 38.1798 49.5403L40.3702 51.1048L44.6794 46.7955L43.1151 44.6054C43.6346 43.6878 44.0379 42.7154 44.3194 41.702L46.9725 41.2598V35.1657L44.3194 34.7236C44.0379 33.7101 43.6346 32.738 43.1149 31.8201L44.6794 29.6297L40.37 25.3206L38.1799 26.8849C37.2621 26.3654 36.2901 25.9621 35.2764 25.6806L34.8343 23.0275H28.7402L28.298 25.6806C27.2844 25.9621 26.3122 26.3654 25.3946 26.8849L23.2045 25.3204L18.8952 29.6296L20.4597 31.8199C19.94 32.7377 19.5368 33.7098 19.2553 34.7233L16.602 35.1657ZM20.9394 36.522L21.0886 35.8452C21.3645 34.5935 21.8557 33.4089 22.5492 32.3241L22.9224 31.7401L21.5735 29.8517L23.4258 27.9995L25.314 29.3483L25.8981 28.9749C26.9827 28.2818 28.1673 27.7903 29.4191 27.5145L30.096 27.3654L30.4772 25.0787H33.0967L33.4779 27.3654L34.1547 27.5145C35.4065 27.7904 36.5911 28.2816 37.6759 28.9749L38.2599 29.3482L40.1481 27.9995L42.0005 29.8517L40.6518 31.7399L41.0249 32.324C41.7182 33.409 42.2097 34.5938 42.4856 35.8453L42.6348 36.5222L44.9214 36.9033V39.5228L42.6348 39.904L42.4856 40.5807C42.2096 41.8327 41.7184 43.0173 41.0251 44.1019L40.6517 44.686L42.0005 46.5742L40.1483 48.4265L38.2599 47.0777L37.6759 47.451C36.5911 48.1443 35.4065 48.6356 34.1548 48.9115L33.478 49.0607L33.0969 51.3473H30.4773L30.0962 49.0607L29.4194 48.9115C28.1676 48.6356 26.9828 48.1443 25.8982 47.451L25.3142 47.0777L23.4258 48.4266L21.5735 46.5743L22.9224 44.6861L22.5492 44.1021C21.8559 43.0173 21.3645 41.8327 21.0887 40.5809L20.9396 39.904L18.6528 39.5228V36.9033L20.9394 36.522ZM40.4369 38.2063C40.4369 42.9796 36.5565 46.8628 31.7871 46.8628C27.0175 46.8628 23.1372 42.9825 23.1372 38.213C23.1372 33.4435 27.0175 29.5631 31.7871 29.5631C36.5526 29.5631 40.4328 33.44 40.4369 38.2055V38.2063ZM38.3861 38.207C38.3831 34.5715 35.4226 31.6137 31.7871 31.6137C28.1483 31.6137 25.188 34.5741 25.188 38.2129C25.188 41.8517 28.1483 44.812 31.7871 44.812C35.4256 44.812 38.3857 41.8491 38.3861 38.207ZM41.0155 19.7559H38.9647V21.8066H41.0155V19.7559ZM34.8633 17.7051H36.9141V19.7559H34.8633V17.7051ZM34.3249 35.6751L35.7751 37.1253L31.4247 41.4755L27.7993 37.8503L29.2493 36.4001L31.4247 38.5753L34.3249 35.6751Z" fill="#E41019"></path>
</svg>
