<?xml version="1.0" encoding="UTF-8"?>
<svg xmlns="http://www.w3.org/2000/svg" width="46" height="57" viewBox="0 0 46 57" fill="none">
  <g id="cold (1)">
    <path id="Path" d="M31.0748 51.6999C32.0825 50.2686 32.6742 48.5233 32.6742 46.6399C32.6742 43.761 31.2915 41.2053 29.1542 39.5998V6.15991H18.5942V39.5998C16.4569 41.2053 15.0742 43.761 15.0742 46.6399C15.0742 51.5 19.0141 55.4399 23.8742 55.4399C26.2232 55.4399 28.357 54.5197 29.9352 53.0199" stroke="#E6B220" stroke-width="2"></path>
    <path id="Path_2" d="M21.2344 46.6436H22.9944" stroke="#E6B220" stroke-width="2"></path>
    <path id="Path_3" d="M24.7539 46.6436H26.5139" stroke="#E6B220" stroke-width="2"></path>
    <path id="Path_4" d="M22.1137 25.5199V41.6616C20.0632 42.3865 18.5938 44.3412 18.5938 46.6399C18.5938 49.556 20.9577 51.9199 23.8738 51.9199C26.7899 51.9199 29.1538 49.556 29.1538 46.6399C29.1538 44.3412 27.6843 42.3866 25.6337 41.6616V9.67993H22.1137V23.7599" stroke="#E6B220" stroke-width="2"></path>
    <path id="Path_5" d="M25.6367 16.7237H29.1567" stroke="#E6B220" stroke-width="2"></path>
    <path id="Path_6" d="M25.6367 22.0037H29.1567" stroke="#E6B220" stroke-width="2"></path>
    <path id="Path_7" d="M25.6367 27.2838H29.1567" stroke="#E6B220" stroke-width="2"></path>
    <path id="Path_8" d="M22.1133 32.5635H29.1533" stroke="#E6B220" stroke-width="2"></path>
    <path id="Path_9" d="M38.8399 8.80005V14.08" stroke="#E6B220" stroke-width="2"></path>
    <path id="Path_10" d="M38.8399 0V5.28" stroke="#E6B220" stroke-width="2"></path>
    <path id="Rectangle" fill-rule="evenodd" clip-rule="evenodd" d="M38.8359 4.39966L41.4759 7.03962L38.8359 9.67959L36.196 7.03962L38.8359 4.39966Z" stroke="#E6B220" stroke-width="2"></path>
    <path id="Path_11" d="M38.8353 4.40001L36.1953 1.76001" stroke="#E6B220" stroke-width="2"></path>
    <path id="Path_12" d="M38.8359 4.40001L41.4759 1.76001" stroke="#E6B220" stroke-width="2"></path>
    <path id="Path_13" d="M38.8359 9.67993L41.4759 12.3199" stroke="#E6B220" stroke-width="2"></path>
    <path id="Path_14" d="M38.8353 9.67993L36.1953 12.3199" stroke="#E6B220" stroke-width="2"></path>
    <path id="Path_15" d="M40.5938 7.04377H45.8738" stroke="#E6B220" stroke-width="2"></path>
    <path id="Path_16" d="M31.7969 7.04377H37.0769" stroke="#E6B220" stroke-width="2"></path>
    <path id="Path_17" d="M36.1947 7.04004L33.5547 9.68004" stroke="#E6B220" stroke-width="2"></path>
    <path id="Path_18" d="M36.1947 7.0399L33.5547 4.3999" stroke="#E6B220" stroke-width="2"></path>
    <path id="Path_19" d="M41.4766 7.0399L44.1166 4.3999" stroke="#E6B220" stroke-width="2"></path>
    <path id="Path_20" d="M41.4766 7.04004L44.1166 9.68004" stroke="#E6B220" stroke-width="2"></path>
    <path id="Path_21" d="M15.0752 17.6001C15.0752 19.5441 13.4992 21.1201 11.5552 21.1201C9.61113 21.1201 8.03516 19.5441 8.03516 17.6001V14.0801C8.03516 12.136 9.61113 10.5601 11.5552 10.5601C13.4992 10.5601 15.0752 12.136 15.0752 14.0801" stroke="#E6B220" stroke-width="2"></path>
    <circle id="Oval" cx="3.635" cy="10.56" r="1.76" stroke="#E6B220" stroke-width="2"></circle>
  </g>
</svg>
