<?xml version="1.0" encoding="UTF-8"?>
<svg xmlns="http://www.w3.org/2000/svg" width="424" height="120" viewBox="0 0 424 120" fill="none">
  <g id="Logo Copy 2">
    <g id="Group 10">
      <g id="Group 7">
        <g id="Group 14">
          <rect id="Rectangle" x="6.10938" y="76.0886" width="6.77941" height="2.26891" fill="#F4BC20"></rect>
          <rect id="Rectangle Copy 3" x="23.5703" y="76.0886" width="6.77941" height="2.26891" fill="#F4BC20"></rect>
          <path id="Rectangle Copy 4" fill-rule="evenodd" clip-rule="evenodd" d="M32.6068 54.7314V47.9247H34.4557V54.7314H32.6068Z" fill="#F4BC20"></path>
          <path id="Rectangle Copy 5" fill-rule="evenodd" clip-rule="evenodd" d="M1.99741 54.7314L1.99741 47.9247H3.84634L3.84634 54.7314H1.99741Z" fill="#F4BC20"></path>
        </g>
        <g id="Group 14 Copy">
          <rect id="Rectangle_2" x="6.10938" y="117.731" width="6.77941" height="2.26891" fill="#F4BC20"></rect>
          <rect id="Rectangle Copy 3_2" x="23.5703" y="117.731" width="6.77941" height="2.26891" fill="#F4BC20"></rect>
          <path id="Rectangle Copy 4_2" fill-rule="evenodd" clip-rule="evenodd" d="M32.6068 96.3739V89.5672H34.4557V96.3739H32.6068Z" fill="#F4BC20"></path>
          <path id="Rectangle Copy 5_2" fill-rule="evenodd" clip-rule="evenodd" d="M1.99741 96.3739L1.99741 89.5672H3.84634L3.84634 96.3739H1.99741Z" fill="#F4BC20"></path>
        </g>
        <g id="Group 14 Copy 2">
          <rect id="Rectangle_3" x="44.8828" y="117.731" width="6.77941" height="2.26891" fill="#F4BC20"></rect>
          <rect id="Rectangle Copy 3_3" x="62.3438" y="117.731" width="6.77941" height="2.26891" fill="#F4BC20"></rect>
          <path id="Rectangle Copy 4_3" fill-rule="evenodd" clip-rule="evenodd" d="M71.3802 96.3739V89.5672H73.2292V96.3739H71.3802Z" fill="#F4BC20"></path>
          <path id="Rectangle Copy 5_3" fill-rule="evenodd" clip-rule="evenodd" d="M40.7708 96.3739V89.5672H42.6198V96.3739H40.7708Z" fill="#F4BC20"></path>
        </g>
        <g id="Group 14 Copy 3">
          <rect id="Rectangle_4" x="83.6484" y="117.731" width="6.77941" height="2.26891" fill="#F4BC20"></rect>
          <rect id="Rectangle Copy 3_4" x="101.109" y="117.731" width="6.77941" height="2.26891" fill="#F4BC20"></rect>
          <path id="Rectangle Copy 4_4" fill-rule="evenodd" clip-rule="evenodd" d="M110.146 96.3739V89.5672H111.995V96.3739H110.146Z" fill="#F4BC20"></path>
          <path id="Rectangle Copy 5_4" fill-rule="evenodd" clip-rule="evenodd" d="M79.5365 96.3739V89.5672H81.3854V96.3739H79.5365Z" fill="#F4BC20"></path>
        </g>
        <g id="Group 14 Copy 7">
          <rect id="Rectangle_5" x="6.10938" y="34.4462" width="6.77941" height="2.26891" fill="#F4BC20"></rect>
          <rect id="Rectangle Copy 3_5" x="23.5703" y="34.4462" width="6.77941" height="2.26891" fill="#F4BC20"></rect>
          <path id="Rectangle Copy 4_5" fill-rule="evenodd" clip-rule="evenodd" d="M32.6068 13.089V6.28227H34.4557V13.089H32.6068Z" fill="#F4BC20"></path>
          <path id="Rectangle Copy 5_5" fill-rule="evenodd" clip-rule="evenodd" d="M1.99741 13.089L1.99741 6.28227H3.84634L3.84634 13.089H1.99741Z" fill="#F4BC20"></path>
        </g>
        <g id="Group 14 Copy 6">
          <rect id="Rectangle_6" x="44.8828" y="34.4462" width="6.77941" height="2.26891" fill="#F4BC20"></rect>
          <rect id="Rectangle Copy 3_6" x="62.3438" y="34.4462" width="6.77941" height="2.26891" fill="#F4BC20"></rect>
          <path id="Rectangle Copy 4_6" fill-rule="evenodd" clip-rule="evenodd" d="M71.3802 13.089V6.28227H73.2292V13.089H71.3802Z" fill="#F4BC20"></path>
          <path id="Rectangle Copy 5_6" fill-rule="evenodd" clip-rule="evenodd" d="M40.7708 13.089V6.28227H42.6198V13.089H40.7708Z" fill="#F4BC20"></path>
        </g>
        <g id="Group 14 Copy 5">
          <rect id="Rectangle_7" x="83.6484" y="34.4462" width="6.77941" height="2.26891" fill="#F4BC20"></rect>
          <rect id="Rectangle Copy 3_7" x="101.109" y="34.4462" width="6.77941" height="2.26891" fill="#F4BC20"></rect>
          <path id="Rectangle Copy 4_7" fill-rule="evenodd" clip-rule="evenodd" d="M110.146 13.089V6.28227H111.995V13.089H110.146Z" fill="#F4BC20"></path>
          <path id="Rectangle Copy 5_7" fill-rule="evenodd" clip-rule="evenodd" d="M79.5365 13.089V6.28227H81.3854V13.089H79.5365Z" fill="#F4BC20"></path>
        </g>
        <g id="Group 14 Copy 4">
          <rect id="Rectangle_8" x="83.6484" y="76.0886" width="6.77941" height="2.26891" fill="#F4BC20"></rect>
          <rect id="Rectangle Copy 3_8" x="101.109" y="76.0886" width="6.77941" height="2.26891" fill="#F4BC20"></rect>
          <path id="Rectangle Copy 4_8" fill-rule="evenodd" clip-rule="evenodd" d="M110.146 54.7314V47.9247H111.995V54.7314H110.146Z" fill="#F4BC20"></path>
          <path id="Rectangle Copy 5_8" fill-rule="evenodd" clip-rule="evenodd" d="M79.5365 54.7314V47.9247H81.3854V54.7314H79.5365Z" fill="#F4BC20"></path>
        </g>
      </g>
      <g id="Group 8">
        <g id="Group 4">
          <g id="Group 14_2">
            <rect id="Rectangle_9" x="42.1953" y="79.2902" width="8.28595" height="2.77311" fill="#E41019"></rect>
            <rect id="Rectangle Copy 3_9" x="63.5391" y="79.2902" width="8.28595" height="2.77311" fill="#E41019"></rect>
            <path id="Rectangle Copy 4_9" fill-rule="evenodd" clip-rule="evenodd" d="M74.5781 53.187V44.8677H76.8379V53.187H74.5781Z" fill="#E41019"></path>
            <path id="Rectangle Copy 5_9" fill-rule="evenodd" clip-rule="evenodd" d="M37.1641 53.187V44.8677H39.4239V53.187H37.1641Z" fill="#E41019"></path>
          </g>
        </g>
        <g id="Group 3">
          <path id="Combined Shape Copy 2" fill-rule="evenodd" clip-rule="evenodd" d="M49.7578 62.5552V67.0138L57 71.5937L64.2422 67.0138V62.5552L57 67.1351L49.7578 62.5552Z" fill="#F4BC20"></path>
          <path id="Combined Shape Copy 3" fill-rule="evenodd" clip-rule="evenodd" d="M49.7578 68.2V69.6763L57 74.2256L64.2422 69.6763V68.2L57 72.7493L49.7578 68.2Z" fill="#F4BC20"></path>
        </g>
      </g>
    </g>
    <g id="Group">
      <path id="path6" fill-rule="evenodd" clip-rule="evenodd" d="M158.728 116.426H169.551C170.734 116.426 171.72 116.38 172.524 116.268C173.313 116.155 174.003 115.986 174.567 115.749C175.131 115.523 175.638 115.208 176.089 114.79C176.54 114.384 176.977 113.854 177.386 113.189C177.808 112.536 178.188 111.701 178.569 110.697C178.935 109.693 179.4 108.194 179.95 106.186H184.121L183.289 119.47H146.172V117.847C147.891 117.497 149.033 117.114 149.611 116.674C150.187 116.245 150.568 115.636 150.738 114.847C150.921 114.057 151.005 112.839 151.005 111.216V82.6301C151.005 81.1191 150.935 80.0027 150.808 79.3155C150.667 78.6156 150.442 78.0863 150.118 77.6909C149.807 77.3082 149.385 77.0036 148.864 76.7671C148.342 76.5411 147.44 76.2814 146.172 76V74.3763H163.561V76C162.35 76.259 161.49 76.4959 160.983 76.7105C160.475 76.9133 160.052 77.1954 159.714 77.5448C159.39 77.8945 159.137 78.4356 158.981 79.1685C158.812 79.8899 158.728 81.052 158.728 82.6301V116.426ZM230.158 74.3763V84.3556H226.115C225.692 83.2734 225.27 82.3263 224.833 81.5145C224.395 80.6908 223.93 80.0145 223.466 79.4616C223.001 78.9095 222.479 78.4694 221.915 78.1425C221.352 77.8155 220.69 77.5895 219.915 77.4662C219.154 77.3416 218.223 77.285 217.152 77.285H204.103V94.595H212.939C214.15 94.595 215.095 94.4594 215.785 94.1773C216.476 93.9069 217.054 93.433 217.505 92.7787C217.955 92.1138 218.392 91.0764 218.801 89.6669H222.691V102.353H218.801C218.421 101.033 217.983 100.041 217.518 99.3648C217.054 98.6991 216.504 98.2142 215.856 97.9328C215.207 97.6389 214.235 97.5037 212.939 97.5037H204.103V116.561H216.941C218.294 116.561 219.393 116.471 220.224 116.279C221.069 116.098 221.788 115.771 222.394 115.321C223.001 114.87 223.536 114.283 224 113.562C224.466 112.828 224.86 112.073 225.184 111.295C225.495 110.517 225.931 109.366 226.481 107.878H230.567L229.779 119.47H191.548V117.847C193.267 117.497 194.409 117.114 194.986 116.674C195.563 116.245 195.944 115.636 196.113 114.847C196.297 114.057 196.381 112.839 196.381 111.216V82.6301C196.381 81.1191 196.31 80.0027 196.184 79.3155C196.042 78.6156 195.818 78.0863 195.494 77.6909C195.183 77.3082 194.76 77.0036 194.239 76.7671C193.718 76.5411 192.816 76.2814 191.548 76V74.3763H230.158V74.3763ZM279.692 119.301L276.479 120L273.463 117.418C271.673 118.297 269.799 118.952 267.84 119.369C265.896 119.786 263.655 120 261.118 120C254.157 120 248.915 118.083 245.392 114.272C241.869 110.449 240.108 104.766 240.108 97.233C240.108 92.5422 241.066 88.4267 242.997 84.8853C244.913 81.3333 247.689 78.605 251.296 76.7105C254.89 74.8046 259.132 73.8462 264.007 73.8462C266.572 73.8462 269.023 73.959 271.392 74.1955C273.759 74.4211 276.394 74.827 279.283 75.4023V84.4794H275.196C274.448 82.5063 273.576 80.9502 272.547 79.8452C271.532 78.7287 270.32 77.9393 268.897 77.4662C267.474 76.9922 265.684 76.7553 263.514 76.7553C260.512 76.7553 257.877 77.5224 255.623 79.0671C253.368 80.6122 251.621 82.8784 250.367 85.8889C249.112 88.8998 248.478 92.5198 248.478 96.7708C248.478 101.089 249.013 104.777 250.071 107.844C251.127 110.9 252.706 113.212 254.806 114.768C256.891 116.312 259.47 117.091 262.528 117.091C265.768 117.091 268.178 116.527 269.742 115.388C271.321 114.26 272.096 112.513 272.096 110.156V108.171C272.096 106.186 271.969 104.754 271.701 103.875C271.448 102.995 270.983 102.319 270.32 101.834C269.658 101.349 268.573 100.943 267.065 100.639V99.0151H283.736V100.639C282.75 100.898 282.003 101.202 281.509 101.552C281.017 101.89 280.636 102.307 280.381 102.815C280.114 103.322 279.932 103.954 279.833 104.687C279.748 105.42 279.692 106.48 279.692 107.844V119.301V119.301ZM304.422 111.216C304.422 112.682 304.479 113.764 304.606 114.452C304.732 115.129 304.944 115.67 305.226 116.065C305.522 116.459 305.945 116.797 306.508 117.057C307.071 117.328 307.987 117.587 309.256 117.847V119.47H291.825V117.847C293.543 117.497 294.685 117.114 295.263 116.674C295.84 116.245 296.221 115.636 296.39 114.847C296.574 114.057 296.657 112.839 296.657 111.216V82.6301C296.657 81.1191 296.586 80.0027 296.46 79.3155C296.319 78.6156 296.094 78.0863 295.77 77.6909C295.46 77.3082 295.037 77.0036 294.516 76.7671C293.995 76.5411 293.093 76.2814 291.825 76V74.3763H309.256V76C308.044 76.2366 307.17 76.4849 306.634 76.7215C306.099 76.958 305.663 77.2626 305.352 77.6351C305.028 77.9955 304.803 78.537 304.647 79.2699C304.493 79.9917 304.422 81.1191 304.422 82.6301V111.216V111.216ZM341.244 120C337.947 120 334.931 119.561 332.226 118.692C329.506 117.824 327.181 116.471 325.25 114.633C323.306 112.795 321.811 110.438 320.74 107.573C319.684 104.709 319.163 101.293 319.163 97.301C319.163 92.396 320.093 88.1783 321.967 84.6487C323.841 81.1309 326.518 78.447 329.999 76.6087C333.48 74.7708 337.51 73.8462 342.118 73.8462C347.008 73.8462 351.137 74.7142 354.476 76.4397C357.816 78.1648 360.339 80.7132 362.03 84.0734C363.72 87.4336 364.566 91.5161 364.566 96.3421C364.566 101.495 363.608 105.848 361.676 109.389C359.761 112.942 357.041 115.591 353.532 117.35C350.023 119.121 345.923 120 341.244 120ZM327.66 96.3763C327.66 103.142 328.9 108.284 331.352 111.802C333.818 115.332 337.426 117.091 342.146 117.091C345.148 117.091 347.698 116.324 349.783 114.79C351.883 113.269 353.448 111.024 354.49 108.07C355.547 105.127 356.069 101.676 356.069 97.7293C356.069 92.9257 355.449 88.9454 354.223 85.7875C352.996 82.6301 351.334 80.3297 349.206 78.8981C347.092 77.4662 344.626 76.7553 341.822 76.7553C339.342 76.7553 337.214 77.2178 335.439 78.1425C333.663 79.0671 332.198 80.3863 331.028 82.089C329.858 83.7921 328.998 85.8555 328.463 88.2797C327.928 90.7043 327.66 93.3996 327.66 96.3763V96.3763ZM407.63 101.598C408.616 102.916 409.449 104.078 410.125 105.071C410.801 106.062 411.491 107.167 412.21 108.408H412.745C412.619 107.055 412.492 104.394 412.379 100.391C412.266 96.3987 412.21 92.7905 412.21 89.5765V82.6301C412.21 81.1191 412.154 80.0027 412.056 79.2922C411.942 78.5932 411.745 78.0521 411.45 77.6803C411.167 77.3082 410.759 77.0036 410.252 76.7671C409.744 76.5411 408.856 76.2814 407.588 76V74.3763H422.454V76C421.215 76.259 420.341 76.4959 419.833 76.7215C419.326 76.9471 418.904 77.2288 418.594 77.579C418.27 77.9283 418.031 78.458 417.875 79.1685C417.706 79.8676 417.622 81.0287 417.622 82.6301V119.674H412.464L389.466 88.8098C388.029 86.8925 387.014 85.4948 386.409 84.6149C385.802 83.7355 385.238 82.8674 384.717 82.01H384.013C384.21 83.7017 384.351 86.7688 384.435 91.2116C384.506 95.6434 384.548 100.063 384.548 104.473V111.216C384.548 112.682 384.618 113.764 384.745 114.452C384.858 115.129 385.069 115.67 385.365 116.065C385.647 116.459 386.07 116.797 386.634 117.057C387.197 117.328 388.114 117.587 389.381 117.847V119.47H374.317V117.847C376.023 117.497 377.164 117.114 377.742 116.674C378.319 116.245 378.7 115.636 378.883 114.847C379.053 114.057 379.151 112.839 379.151 111.216V82.6301C379.151 81.1191 379.08 80.0027 378.939 79.3155C378.798 78.6156 378.573 78.0863 378.263 77.6909C377.939 77.3082 377.516 77.0036 376.995 76.7671C376.473 76.5411 375.586 76.2814 374.317 76V74.3763H387.239L407.63 101.598Z" fill="#E41019"></path>
      <path id="path6-path" fill-rule="evenodd" clip-rule="evenodd" d="M184.709 43.1853H161.277L159.479 47.3031C158.955 48.4585 158.543 49.5842 158.206 50.6655C157.887 51.7471 157.719 52.9021 157.719 54.1174C157.719 56.9466 159.61 58.4726 163.432 58.6799V61.5385H140V58.6799C141.349 58.561 142.528 58.1761 143.559 57.5392C144.589 56.9022 145.506 56.0429 146.35 54.9466C147.192 53.8356 148.091 52.2652 149.047 50.2065L154.622 38.4615H200.17L204.695 50.6068C205.5 52.7694 206.175 54.3096 206.718 55.228C207.261 56.1321 207.973 56.8721 208.853 57.4353C209.734 57.9986 210.97 58.4128 212.543 58.6799V61.5385H182.237V58.6799C184.148 58.5019 185.553 58.087 186.47 57.4207C187.388 56.754 187.838 55.8063 187.838 54.591C187.838 53.7024 187.706 52.6952 187.463 51.5989C187.201 50.5026 186.789 49.1101 186.189 47.4367L184.709 43.1853V43.1853Z" fill="#E41019"></path>
      <path id="path6-path_2" fill-rule="evenodd" clip-rule="evenodd" d="M260.957 12.4381C260.957 10.2736 260.848 8.7606 260.609 7.90074C260.389 7.05515 259.931 6.35838 259.251 5.83978C258.555 5.31995 257.234 4.84538 255.27 4.40138V1.53845H278.916V4.40138C277.632 4.69738 276.605 5.00846 275.853 5.33503C275.101 5.67628 274.532 6.13577 274.128 6.72899C273.743 7.3222 273.486 8.07891 273.376 8.9828C273.267 9.90259 273.211 11.0597 273.211 12.4381V39.5915C273.211 43.1952 272.863 46.1899 272.147 48.6076C271.432 51.0249 270.313 53.0712 268.809 54.7171C267.304 56.3634 265.433 57.6978 263.196 58.7069C260.957 59.7294 258.444 60.4564 255.637 60.8861C252.85 61.3163 249.713 61.5385 246.246 61.5385C241.146 61.5385 236.853 61.1091 233.331 60.2485C229.827 59.4033 226.965 58.1133 224.764 56.3932C222.563 54.658 220.931 52.5672 219.884 50.1051C218.82 47.6437 218.288 44.4706 218.288 40.5994V12.4834C218.288 11.1188 218.251 9.97679 218.161 9.05741C218.068 8.12294 217.83 7.38132 217.463 6.78851C217.078 6.20997 216.509 5.75049 215.738 5.37988C214.968 5.02354 213.904 4.69738 212.547 4.40138V1.53845H240.76V4.40138C239.293 4.72755 238.21 5.06839 237.495 5.42432C236.799 5.79452 236.284 6.22506 235.917 6.75834C235.569 7.27817 235.312 7.95986 235.165 8.79036C235.019 9.63595 234.945 10.8664 234.945 12.4834V41.1632C234.945 43.4468 235.128 45.5375 235.495 47.4211C235.844 49.3043 236.504 50.9209 237.458 52.2557C238.394 53.6049 239.715 54.6433 241.402 55.3694C243.09 56.0964 245.255 56.4523 247.896 56.4523C251.565 56.4523 254.28 55.8595 256.077 54.6726C257.857 53.4866 259.123 51.8256 259.857 49.6904C260.59 47.5695 260.957 44.3959 260.957 40.1546V12.4381V12.4381Z" fill="#E41019"></path>
      <path id="path6-path_3" fill-rule="evenodd" clip-rule="evenodd" d="M304.997 61.5385V58.6431C306.502 58.4332 307.694 58.163 308.575 57.8177C309.456 57.4877 310.116 57.0076 310.538 56.3925C310.978 55.7771 311.235 54.997 311.345 54.0368C311.456 53.0913 311.51 51.9062 311.51 50.5107V6.6852H307.162C304.997 6.6852 303.364 6.88031 302.208 7.29982C301.07 7.70531 300.061 8.35046 299.217 9.23527C298.392 10.1061 297.658 11.2912 297.052 12.7613C296.447 14.2471 295.934 15.6418 295.548 16.9626H288.172V1.53845H351.454V16.9626H344.078C343.4 14.9669 342.867 13.5116 342.463 12.5662C342.078 11.636 341.638 10.8407 341.161 10.1807C340.666 9.52071 340.152 8.9659 339.62 8.53031C339.087 8.09512 338.519 7.73542 337.895 7.46482C337.289 7.21031 336.537 7.0152 335.62 6.88031C334.703 6.74501 333.51 6.6852 332.042 6.6852H328.17V50.5107C328.17 52.0563 328.226 53.2415 328.336 54.0368C328.446 54.8469 328.63 55.5069 328.922 56.0019C329.217 56.4977 329.565 56.9024 329.969 57.2027C330.391 57.5178 330.96 57.788 331.693 58.0425C332.427 58.2979 333.418 58.493 334.685 58.6431V61.5385H304.997V61.5385Z" fill="#E41019"></path>
      <path id="Combined Shape" fill-rule="evenodd" clip-rule="evenodd" d="M365.71 53.9611C371.094 59.0132 379.152 61.5385 389.883 61.5385C395.043 61.5385 399.698 60.9378 403.886 59.7346C408.055 58.5321 411.645 56.6525 414.636 54.0963C417.627 51.5405 419.945 48.2778 421.572 44.2934C423.199 40.309 424.002 35.5429 424.002 29.9952C424.002 20.072 421.273 12.5844 415.796 7.56287C410.317 2.52606 402.109 0 391.191 0C384.18 0 378.142 1.21818 373.075 3.65371C367.99 6.08924 364.158 9.65242 361.54 14.3433C358.923 19.02 357.633 24.6728 357.633 31.2733C357.633 41.347 360.325 48.9094 365.71 53.9611ZM379.02 49.8866C376.366 45.5566 375.038 38.9565 375.038 30.0849C375.038 21.606 376.328 15.3204 378.909 11.2612C381.47 7.18713 385.415 5.15711 390.705 5.15711C394.314 5.15711 397.286 6.16406 399.604 8.1792C401.922 10.1786 403.662 13.171 404.801 17.1103C405.961 21.0641 406.54 25.9658 406.54 31.7991C406.54 35.3929 406.278 38.6704 405.737 41.6777C405.213 44.6692 404.334 47.2551 403.119 49.4505C401.885 51.631 400.296 53.3295 398.314 54.5626C396.351 55.7807 393.958 56.3818 391.154 56.3818C385.714 56.3818 381.656 54.217 379.02 49.8866Z" fill="#E41019"></path>
      <path id="path8" fill-rule="evenodd" clip-rule="evenodd" d="M156.977 33.8461L172.115 1.53845H186.77L198.65 33.8461H181.78L174.532 13.3856L165.457 33.8461H156.977V33.8461Z" fill="#F4BC20"></path>
      <path id="path10" fill-rule="evenodd" clip-rule="evenodd" d="M158.728 116.426H169.551C170.734 116.426 171.72 116.38 172.524 116.268C173.313 116.155 174.003 115.986 174.567 115.749C175.131 115.523 175.638 115.208 176.089 114.79C176.54 114.384 176.977 113.854 177.386 113.189C177.808 112.536 178.188 111.701 178.569 110.697C178.935 109.693 179.4 108.194 179.95 106.186H184.121L183.289 119.47H146.172V117.847C147.891 117.497 149.033 117.114 149.611 116.674C150.187 116.245 150.568 115.636 150.738 114.847C150.921 114.057 151.005 112.839 151.005 111.216V82.6301C151.005 81.1191 150.935 80.0027 150.808 79.3155C150.667 78.6156 150.442 78.0863 150.118 77.6909C149.807 77.3082 149.385 77.0036 148.864 76.7671C148.342 76.5411 147.44 76.2814 146.172 76V74.3763H163.561V76C162.35 76.259 161.49 76.4959 160.983 76.7105C160.475 76.9133 160.052 77.1954 159.714 77.5448C159.39 77.8945 159.137 78.4356 158.981 79.1685C158.812 79.8899 158.728 81.052 158.728 82.6301V116.426ZM230.158 74.3763V84.3556H226.115C225.692 83.2734 225.27 82.3263 224.833 81.5145C224.395 80.6908 223.93 80.0145 223.466 79.4616C223.001 78.9095 222.479 78.4694 221.915 78.1425C221.352 77.8155 220.69 77.5895 219.915 77.4662C219.154 77.3416 218.223 77.285 217.152 77.285H204.103V94.595H212.939C214.15 94.595 215.095 94.4594 215.785 94.1773C216.476 93.9069 217.054 93.433 217.505 92.7787C217.955 92.1138 218.392 91.0764 218.801 89.6669H222.691V102.353H218.801C218.421 101.033 217.983 100.041 217.518 99.3648C217.054 98.6991 216.504 98.2142 215.856 97.9328C215.207 97.6389 214.235 97.5037 212.939 97.5037H204.103V116.561H216.941C218.294 116.561 219.393 116.471 220.224 116.279C221.069 116.098 221.788 115.771 222.394 115.321C223.001 114.87 223.536 114.283 224 113.562C224.466 112.828 224.86 112.073 225.184 111.295C225.495 110.517 225.931 109.366 226.481 107.878H230.567L229.779 119.47H191.548V117.847C193.267 117.497 194.409 117.114 194.986 116.674C195.563 116.245 195.944 115.636 196.113 114.847C196.297 114.057 196.381 112.839 196.381 111.216V82.6301C196.381 81.1191 196.31 80.0027 196.184 79.3155C196.042 78.6156 195.818 78.0863 195.494 77.6909C195.183 77.3082 194.76 77.0036 194.239 76.7671C193.718 76.5411 192.816 76.2814 191.548 76V74.3763H230.158V74.3763ZM279.692 119.301L276.479 120L273.463 117.418C271.673 118.297 269.799 118.952 267.84 119.369C265.896 119.786 263.655 120 261.118 120C254.157 120 248.915 118.083 245.392 114.272C241.869 110.449 240.108 104.766 240.108 97.233C240.108 92.5422 241.066 88.4267 242.997 84.8853C244.913 81.3333 247.689 78.605 251.296 76.7105C254.89 74.8046 259.132 73.8462 264.007 73.8462C266.572 73.8462 269.023 73.959 271.392 74.1955C273.759 74.4211 276.394 74.827 279.283 75.4023V84.4794H275.196C274.448 82.5063 273.576 80.9502 272.547 79.8452C271.532 78.7287 270.32 77.9393 268.897 77.4662C267.474 76.9922 265.684 76.7553 263.514 76.7553C260.512 76.7553 257.877 77.5224 255.623 79.0671C253.368 80.6122 251.621 82.8784 250.367 85.8889C249.112 88.8998 248.478 92.5198 248.478 96.7708C248.478 101.089 249.013 104.777 250.071 107.844C251.127 110.9 252.706 113.212 254.806 114.768C256.891 116.312 259.47 117.091 262.528 117.091C265.768 117.091 268.178 116.527 269.742 115.388C271.321 114.26 272.096 112.513 272.096 110.156V108.171C272.096 106.186 271.969 104.754 271.701 103.875C271.448 102.995 270.983 102.319 270.32 101.834C269.658 101.349 268.573 100.943 267.065 100.639V99.0151H283.736V100.639C282.75 100.898 282.003 101.202 281.509 101.552C281.017 101.89 280.636 102.307 280.381 102.815C280.114 103.322 279.932 103.954 279.833 104.687C279.748 105.42 279.692 106.48 279.692 107.844V119.301V119.301ZM304.422 111.216C304.422 112.682 304.479 113.764 304.606 114.452C304.732 115.129 304.944 115.67 305.226 116.065C305.522 116.459 305.945 116.797 306.508 117.057C307.071 117.328 307.987 117.587 309.256 117.847V119.47H291.825V117.847C293.543 117.497 294.685 117.114 295.263 116.674C295.84 116.245 296.221 115.636 296.39 114.847C296.574 114.057 296.657 112.839 296.657 111.216V82.6301C296.657 81.1191 296.586 80.0027 296.46 79.3155C296.319 78.6156 296.094 78.0863 295.77 77.6909C295.46 77.3082 295.037 77.0036 294.516 76.7671C293.995 76.5411 293.093 76.2814 291.825 76V74.3763H309.256V76C308.044 76.2366 307.17 76.4849 306.634 76.7215C306.099 76.958 305.663 77.2626 305.352 77.6351C305.028 77.9955 304.803 78.537 304.647 79.2699C304.493 79.9917 304.422 81.1191 304.422 82.6301V111.216V111.216ZM341.244 120C337.947 120 334.931 119.561 332.226 118.692C329.506 117.824 327.181 116.471 325.25 114.633C323.306 112.795 321.811 110.438 320.74 107.573C319.684 104.709 319.163 101.293 319.163 97.301C319.163 92.396 320.093 88.1783 321.967 84.6487C323.841 81.1309 326.518 78.447 329.999 76.6087C333.48 74.7708 337.51 73.8462 342.118 73.8462C347.008 73.8462 351.137 74.7142 354.476 76.4397C357.816 78.1648 360.339 80.7132 362.03 84.0734C363.72 87.4336 364.566 91.5161 364.566 96.3421C364.566 101.495 363.608 105.848 361.676 109.389C359.761 112.942 357.041 115.591 353.532 117.35C350.023 119.121 345.923 120 341.244 120ZM327.66 96.3763C327.66 103.142 328.9 108.284 331.352 111.802C333.818 115.332 337.426 117.091 342.146 117.091C345.148 117.091 347.698 116.324 349.783 114.79C351.883 113.269 353.448 111.024 354.49 108.07C355.547 105.127 356.069 101.676 356.069 97.7293C356.069 92.9257 355.449 88.9454 354.223 85.7875C352.996 82.6301 351.334 80.3297 349.206 78.8981C347.092 77.4662 344.626 76.7553 341.822 76.7553C339.342 76.7553 337.214 77.2178 335.439 78.1425C333.663 79.0671 332.198 80.3863 331.028 82.089C329.858 83.7921 328.998 85.8555 328.463 88.2797C327.928 90.7043 327.66 93.3996 327.66 96.3763V96.3763ZM407.63 101.598C408.616 102.916 409.449 104.078 410.125 105.071C410.801 106.062 411.491 107.167 412.21 108.408H412.745C412.619 107.055 412.492 104.394 412.379 100.391C412.266 96.3987 412.21 92.7905 412.21 89.5765V82.6301C412.21 81.1191 412.154 80.0027 412.056 79.2922C411.942 78.5932 411.745 78.0521 411.45 77.6803C411.167 77.3082 410.759 77.0036 410.252 76.7671C409.744 76.5411 408.856 76.2814 407.588 76V74.3763H422.454V76C421.215 76.259 420.341 76.4959 419.833 76.7215C419.326 76.9471 418.904 77.2288 418.594 77.579C418.27 77.9283 418.031 78.458 417.875 79.1685C417.706 79.8676 417.622 81.0287 417.622 82.6301V119.674H412.464L389.466 88.8098C388.029 86.8925 387.014 85.4948 386.409 84.6149C385.802 83.7355 385.238 82.8674 384.717 82.01H384.013C384.21 83.7017 384.351 86.7688 384.435 91.2116C384.506 95.6434 384.548 100.063 384.548 104.473V111.216C384.548 112.682 384.618 113.764 384.745 114.452C384.858 115.129 385.069 115.67 385.365 116.065C385.647 116.459 386.07 116.797 386.634 117.057C387.197 117.328 388.114 117.587 389.381 117.847V119.47H374.317V117.847C376.023 117.497 377.164 117.114 377.742 116.674C378.319 116.245 378.7 115.636 378.883 114.847C379.053 114.057 379.151 112.839 379.151 111.216V82.6301C379.151 81.1191 379.08 80.0027 378.939 79.3155C378.798 78.6156 378.573 78.0863 378.263 77.6909C377.939 77.3082 377.516 77.0036 376.995 76.7671C376.473 76.5411 375.586 76.2814 374.317 76V74.3763H387.239L407.63 101.598Z" fill="#F4BC20"></path>
    </g>
  </g>
</svg>
