<?xml version="1.0" encoding="UTF-8"?>
<svg xmlns="http://www.w3.org/2000/svg" width="129" height="86" viewBox="0 0 129 86" fill="none">
  <path fill-rule="evenodd" clip-rule="evenodd" d="M83 86H101.408L129 43L101.408 0H83L110.592 43L83 86Z" fill="#F8F8F8"></path>
  <path fill-rule="evenodd" clip-rule="evenodd" d="M0 0V86H74.4046L102 43L74.4046 0H0Z" fill="#E41019"></path>
  <path fill-rule="evenodd" clip-rule="evenodd" d="M73 24.0759V30.6523H66.6382V33.8502H73V40.4266H66.6382V43.6245H73V50.2008H66.6382V53.3987H73V59.9752H66.6385V65.7225H60.9497V71.916H54.3733V65.7225H51.1754V71.916H44.5991V65.7225H41.4012V71.916H34.8248V65.7225H31.6269V71.916H25.0505V65.7225H19.1936V59.9752H13V53.3988H19.1936V50.2009H13V43.6246H19.1936V40.4267H13V33.8503H19.1936V30.6524H13V24.076H19.1936V18.2776H25.0503V12.084H31.6267V18.2776H34.8246V12.084H41.4009V18.2776H44.5988V12.084H51.1752V18.2776H54.3731V12.084H60.9495V18.2776H66.6382V24.0759H73ZM71.2456 28.8979V25.8303H66.6382V28.8979H71.2456ZM56.1276 13.8384H59.1952V18.2776H56.1276V13.8384ZM49.4209 13.8384H46.3533V18.2776H49.4209V13.8384ZM36.5791 13.8384H39.6467V18.2776H36.5791V13.8384ZM29.8724 13.8384H26.8048V18.2776H29.8724V13.8384ZM14.7544 28.8979V25.8303H19.1936V28.8979H14.7544ZM14.7544 35.6046V38.6722H19.1936V35.6046H14.7544ZM14.7544 48.4464V45.3788H19.1936V48.4464H14.7544ZM14.7544 55.1531V58.2207H19.1936V55.1531H14.7544ZM29.8724 70.1614H26.8048V65.7222H29.8724V70.1614ZM36.5791 70.1614H39.6467V65.7222H36.5791V70.1614ZM49.4209 70.1614H46.3533V65.7222H49.4209V70.1614ZM56.1276 70.1614H59.1952V65.7222H56.1276V70.1614ZM71.2456 55.1531V58.2207H66.6382V55.1531H71.2456ZM71.2456 48.4464V45.3788H66.6382V48.4464H71.2456ZM71.2456 35.6046V38.6722H66.6382V35.6046H71.2456ZM20.948 63.9678H64.8839H64.884V20.0319H20.948V63.9678ZM41.6933 27.5881H33.5836V25.8337H59.0819V58.1659H54.0807V56.4115H57.3275V51.5885H45.4074L42.3567 54.6393V56.4115H52.3263V58.1659H26.7497V25.8337H31.8292V27.5881H28.5041V32.0255H37.2559L41.6933 27.5881ZM44.6808 49.8342H57.3275V27.5881H44.1744L37.9826 33.7799H28.5041V56.4115H40.6023V53.9126L44.6808 49.8342ZM45.0125 38.8011L47.8391 35.9745C47.0175 35.4392 46.473 34.5129 46.4729 33.4612C46.4729 31.8077 47.818 30.4626 49.4715 30.4626C51.1249 30.4626 52.4701 31.8077 52.4701 33.4612C52.4701 34.9826 51.3309 36.2421 49.8609 36.4337L45.7392 40.5554H38.8345C38.4585 41.7822 37.3154 42.6768 35.9671 42.6768C34.3137 42.6768 32.9685 41.3317 32.9685 39.6783C32.9685 38.0248 34.3137 36.6797 35.9671 36.6797C37.3154 36.6797 38.4585 37.5743 38.8345 38.8011H45.0125ZM34.7228 39.6784C34.7228 40.3645 35.2809 40.9226 35.967 40.9226C36.6531 40.9226 37.2112 40.3645 37.2112 39.6784C37.2112 38.9923 36.6531 38.4342 35.967 38.4342C35.2809 38.4342 34.7228 38.9923 34.7228 39.6784ZM49.4716 32.2171C50.1577 32.2171 50.7158 32.7752 50.7158 33.4613C50.7158 34.1474 50.1577 34.7055 49.4716 34.7055C48.7855 34.7055 48.2274 34.1474 48.2274 33.4613C48.2274 32.7752 48.7855 32.2171 49.4716 32.2171ZM49.8648 41.3228C48.5165 41.3228 47.3735 42.2174 46.9974 43.4442H40.0927L35.971 47.566C34.5011 47.7576 33.3619 49.0171 33.3619 50.5385C33.3619 52.1919 34.707 53.5371 36.3605 53.5371C38.0139 53.5371 39.3591 52.1919 39.3591 50.5385C39.3591 49.4869 38.8145 48.5606 37.993 48.0252L40.8195 45.1986H46.9975C47.3736 46.4254 48.5166 47.32 49.8649 47.32C51.5184 47.32 52.8635 45.9749 52.8635 44.3214C52.8635 42.668 51.5182 41.3228 49.8648 41.3228ZM36.3602 51.7827C35.6742 51.7827 35.116 51.2246 35.116 50.5385C35.116 49.8524 35.6742 49.2943 36.3602 49.2943C37.0463 49.2943 37.6044 49.8524 37.6044 50.5385C37.6044 51.2246 37.0463 51.7827 36.3602 51.7827ZM48.6206 44.3214C48.6206 45.0075 49.1787 45.5656 49.8648 45.5656C50.5509 45.5656 51.109 45.0075 51.109 44.3214C51.109 43.6353 50.5509 43.0772 49.8648 43.0772C49.1787 43.0772 48.6206 43.6353 48.6206 44.3214ZM62.894 33.7676H61.1396V32.0132H62.894V33.7676ZM61.1396 37.2764H62.894V35.522H61.1396V37.2764ZM61.1396 47.0855H62.894V39.0308H61.1396V47.0855Z" fill="white"></path>
</svg>
