<?xml version="1.0" encoding="UTF-8"?>
<svg xmlns="http://www.w3.org/2000/svg" width="129" height="86" viewBox="0 0 129 86" fill="none">
  <path fill-rule="evenodd" clip-rule="evenodd" d="M83 86H101.408L129 43L101.408 0H83L110.592 43L83 86Z" fill="#F8F8F8"></path>
  <path fill-rule="evenodd" clip-rule="evenodd" d="M0 0V86H74.4046L102 43L74.4046 0H0Z" fill="#E41019"></path>
  <path fill-rule="evenodd" clip-rule="evenodd" d="M66.6107 69.2425V23.3189H68.3685V18.05H54.2736C54.3056 17.0962 54.1219 16.1385 53.7152 15.2126L53.1982 14.0357L49.7218 17.5114L48.1015 17.1957L47.7628 15.5449L51.2276 12.0809L50.0481 11.5648C47.5203 10.4585 44.7495 10.9975 42.636 13.0058L42.62 13.0214C41.27 14.3712 40.5718 16.202 40.623 18.05H15.6565V23.3189H17.3937V69.2425H15.6328V70.9999H72V69.2425H66.6107ZM19.1515 35.6352H64.8527V37.3889H19.1515V35.6352ZM64.8529 23.3189H51.5501C49.8502 24.5917 47.6351 25.0087 45.5788 24.4243L39.2725 30.7295C39.2912 31.8843 38.8935 32.9962 38.1484 33.8777H64.8529V23.3189ZM53.9667 19.8075H66.6107V21.5613H53.1387C53.5007 20.994 53.7766 20.4061 53.9667 19.8075ZM48.0241 12.7983C46.5565 12.5962 45.0895 13.1028 43.8552 14.2719C42.2836 15.8237 41.9821 18.2105 42.9062 20.1841L35.2397 27.8494C32.2494 27.23 30.23 30.716 32.3684 32.9334C34.5837 35.07 38.0721 33.056 37.4534 30.0627L45.1199 22.3975C47.0889 23.3189 49.4688 23.0218 51.0213 21.4604C52.408 19.8731 52.627 18.3744 52.4771 17.2419L50.3034 19.4153L46.615 18.6967L45.8508 14.9712L48.0241 12.7983ZM17.4143 19.8075H40.7971L39.043 21.5613H29.6953V23.3188H37.2852L34.5729 26.0306C30.5359 25.9175 28.2095 30.8241 30.8522 33.8776H19.1515V23.3188H27.9375V21.5613H17.4143V19.8075ZM64.8527 39.1465H19.1515V69.2423H26.1995V46.285H24.4021V41.0386H59.5979V46.285H57.8005V58.58H56.0427V53.3075H27.9573V69.2425H31.6504L32.518 65.629H51.4791L52.3617 69.2425H56.0426V60.3377H57.8004V69.2425H64.8527V39.1465ZM50.5523 69.2425H33.4582L33.9039 67.3864H50.0991L50.5523 69.2425ZM26.1599 42.7962V44.5275H57.8401V42.7962H26.1599ZM56.0427 51.5501H27.9573V49.7962H56.0427V51.5501ZM27.9573 48.0388H56.0427V46.2851H27.9573V48.0388ZM12 69.2425H13.875V70.9999H12V69.2425ZM22.6802 25.0701H20.9224V26.8426H22.6802V25.0701ZM24.4021 25.0701H26.1599V26.8426H24.4021V25.0701ZM63.0938 63.8789H59.5781V65.6364H63.0938V63.8789ZM20.9062 63.8789H24.4219V65.6364H20.9062V63.8789ZM35.2991 29.9251H33.5413V31.6826H35.2991V29.9251Z" fill="white"></path>
</svg>
