<?xml version="1.0" encoding="UTF-8"?>
<svg xmlns="http://www.w3.org/2000/svg" width="129" height="86" viewBox="0 0 129 86" fill="none">
  <path fill-rule="evenodd" clip-rule="evenodd" d="M83 86H101.408L129 43L101.408 0H83L110.592 43L83 86Z" fill="#F8F8F8"></path>
  <path fill-rule="evenodd" clip-rule="evenodd" d="M0 0V86H74.4046L102 43L74.4046 0H0Z" fill="#E41019"></path>
  <path fill-rule="evenodd" clip-rule="evenodd" d="M67.7216 25.7671H66.7077H57.3622H56.4775C54.6696 25.7671 53.1987 27.2379 53.1987 29.0458V40.5819H47.367V37.569H34.6332V40.5819H28.8015V29.0458C28.8015 27.2379 27.3307 25.7671 25.5227 25.7671H24.5089H15.1633H14.2787C12.4708 25.7671 11 27.2379 11 29.0458V56.9544C11 58.7623 12.4708 60.2331 14.2786 60.2331H15.1632H24.5088H25.5226C27.3305 60.2331 28.8014 58.7623 28.8014 56.9544V45.4183H34.6331V48.431H47.3668V45.4183H53.1985V56.9544C53.1985 58.7623 54.6693 60.2331 56.4773 60.2331H57.362H66.7074H67.7213C69.5292 60.2331 71 58.7623 71 56.9544V29.0458C71 27.2379 69.5292 25.7671 67.7216 25.7671ZM13.6371 58.3314C13.1186 58.0888 12.7578 57.5637 12.7578 56.9544V29.0458C12.7578 28.4365 13.1186 27.9114 13.6371 27.6688V58.3314ZM24.2771 27.5249H20.7795V28.8617L22.4967 29.7115L24.2771 28.8303V27.5249ZM19.0217 58.4753H15.3949V56.722L17.1784 57.6048L19.0217 56.6924V58.4753ZM17.1784 55.6435L19.0217 54.731V51.5059L17.1784 52.4185L15.3949 51.5357V54.7607L17.1784 55.6435ZM19.0217 49.5447L17.1784 50.4572L15.3949 49.5743V46.3492L17.1784 47.232L19.0217 46.3196V49.5447ZM17.1784 45.2707L19.0217 44.3583V41.1331L17.1784 42.0456L15.3949 41.1628V44.3879L17.1784 45.2707ZM19.0217 39.1717L17.1784 40.0842L15.3949 39.2013V35.9763L17.1784 36.8591L19.0217 35.9467V39.1717ZM17.1784 34.8978L19.0217 33.9853V30.7603L17.1784 31.6728L15.3949 30.79V34.015L17.1784 34.8978ZM19.0217 28.7991L17.1784 29.7115L15.3949 28.8287V27.5249H19.0217V28.7991ZM22.4967 52.4185L20.7795 51.5685V54.7936L22.4967 55.6435L24.2771 54.7622V51.5372L22.4967 52.4185ZM24.2772 58.4753H20.7796V56.755L22.4968 57.6048L24.2772 56.7237V58.4753ZM22.4968 50.4572L24.2772 49.576V46.3508L22.4968 47.232L20.7796 46.3821V49.6072L22.4968 50.4572ZM24.2772 44.3895L22.4968 45.2707L20.7796 44.4209V41.1958L22.4968 42.0457L24.2772 41.1645V44.3895ZM22.4968 40.0844L24.2772 39.2031V35.978L22.4968 36.8591L20.7796 36.0093V39.2344L22.4968 40.0844ZM24.2772 34.0166L22.4968 34.8979L20.7796 34.048V30.8229L22.4968 31.6728L24.2772 30.7916V34.0166ZM27.0436 45.4183V40.5819V29.0458C27.0436 28.3872 26.6219 27.8265 26.035 27.6156V58.3845C26.6219 58.1735 27.0436 57.613 27.0436 56.9543V45.4183ZM34.6331 43.6604H28.8014V42.3397H34.6331V43.6604ZM45.6091 45.4183V40.5819V39.3269H36.3909V40.5819V45.4183V46.6732H45.6091V45.4183ZM53.1986 43.6604H47.3669V42.3397H53.1986V43.6604ZM54.9564 56.9543C54.9564 57.5636 55.3173 58.0887 55.8357 58.3313V27.6688C55.3173 27.9114 54.9564 28.4365 54.9564 29.0456V40.5818V45.4181V56.9543ZM62.9783 27.5249H66.4759V28.8303L64.6954 29.7115L62.9783 28.8617V27.5249ZM57.5935 58.4753H61.2205V56.6924L59.3771 57.6048L57.5935 56.722V58.4753ZM61.2205 54.7312L59.3771 55.6436L57.5935 54.7607V51.5357L59.3771 52.4186L61.2205 51.506V54.7312ZM59.3771 50.4572L61.2205 49.5447V46.3196L59.3771 47.232L57.5935 46.3492V49.5743L59.3771 50.4572ZM61.2205 44.3583L59.3771 45.2707L57.5935 44.3878V41.1627L59.3771 42.0456L61.2205 41.1331V44.3583ZM59.3771 40.0842L61.2205 39.1717V35.9467L59.3771 36.8591L57.5935 35.9763V39.2013L59.3771 40.0842ZM61.2205 33.9854L59.3771 34.8979L57.5935 34.015V30.79L59.3771 31.6728L61.2205 30.7603V33.9854ZM59.3771 29.7116L61.2205 28.7992V27.525H57.5935V28.8287L59.3771 29.7116ZM62.9783 54.7936V51.5685L64.6954 52.4185L66.4759 51.5372V54.7622L64.6954 55.6435L62.9783 54.7936ZM62.9784 58.4753H66.476V56.7237L64.6955 57.6048L62.9784 56.755V58.4753ZM66.476 49.576L64.6955 50.4572L62.9784 49.6072V46.3821L64.6955 47.232L66.476 46.3508V49.576ZM64.6955 45.2707L66.476 44.3895V41.1645L64.6955 42.0457L62.9784 41.1958V44.4209L64.6955 45.2707ZM66.476 39.2031L64.6955 40.0844L62.9784 39.2344V36.0093L64.6955 36.8591L66.476 35.978V39.2031ZM64.6955 34.8979L66.476 34.0166V30.7916L64.6955 31.6728L62.9784 30.8229V34.048L64.6955 34.8979ZM69.2422 56.9543C69.2422 57.613 68.8207 58.1735 68.2338 58.3845V27.6156C68.8207 27.8267 69.2422 28.3872 69.2422 29.0458V56.9543ZM38.9517 44.1448H41.5367V45.9026H37.1939V42.2188H38.9517V44.1448Z" fill="white"></path>
</svg>
