<?xml version="1.0" encoding="UTF-8"?>
<svg xmlns="http://www.w3.org/2000/svg" width="129" height="86" viewBox="0 0 129 86" fill="none">
  <path fill-rule="evenodd" clip-rule="evenodd" d="M83 86H101.408L129 43L101.408 0H83L110.592 43L83 86Z" fill="#F8F8F8"></path>
  <path fill-rule="evenodd" clip-rule="evenodd" d="M0 0V86H74.4046L102 43L74.4046 0H0Z" fill="#E41019"></path>
  <path fill-rule="evenodd" clip-rule="evenodd" d="M67.9088 32.5054C68.2132 31.4328 68.3674 30.3228 68.3674 29.1912C68.3674 22.5014 62.9251 17.0586 56.2353 17.0586C49.5456 17.0586 44.1028 22.5009 44.1028 29.1912C44.1028 30.3228 44.2575 31.4328 44.5619 32.5054H13V56.3288H73V32.5054H67.9088ZM45.8674 29.1912C45.8674 23.4742 50.5188 18.8233 56.2353 18.8233C61.9519 18.8233 66.6028 23.4742 66.6028 29.1912C66.6028 30.3296 66.4196 31.4415 66.0603 32.5054H46.4103C46.051 31.4415 45.8674 30.3296 45.8674 29.1912ZM14.7647 34.2701V54.5641H71.2353V34.2701H14.7647ZM17.4119 36.9168H53.8087V38.682H17.4119V36.9168ZM53.8087 41.3288H17.4119V43.0934H53.8087V41.3288ZM17.4119 45.7407H53.8087V47.5054H17.4119V45.7407ZM53.8087 50.1522H17.4119V51.9168H53.8087V50.1522ZM56.2353 36.9168H58V38.682H56.2353V36.9168ZM61.5294 36.9168H59.7647V38.682H61.5294V36.9168ZM63.294 36.9168H65.0587V38.682H63.294V36.9168ZM68.5881 36.9168H66.8234V38.682H68.5881V36.9168ZM58 41.3288H59.7647V43.0934H58V41.3288ZM63.294 41.3288H61.5294V43.0934H63.294V41.3288ZM65.0587 41.3288H66.8234V43.0934H65.0587V41.3288ZM68.5881 45.7407H56.2353V47.5054H68.5881V45.7407ZM56.2353 50.1522H68.5881V51.9168H56.2353V50.1522ZM50.9413 28.3086H55.87L60.0233 24.1553L61.2707 25.4032L56.6006 30.0733H50.9413V28.3086ZM55.3528 20.3673H57.1174V22.132H55.3528V20.3673ZM49.1766 28.3086H47.4119V30.0733H49.1766V28.3086ZM63.294 28.3086H65.0587V30.0733H63.294V28.3086ZM18.3279 57.6252L20.0248 58.1099L19.5112 59.9066C19.319 60.5796 19.3345 61.2863 19.5556 61.9506C19.9109 63.0158 19.9109 64.1895 19.5556 65.2547L19.1313 66.5287L17.4568 65.9706L17.8816 64.6967C18.1169 63.9913 18.1169 63.214 17.8816 62.5086C17.5474 61.5056 17.5241 60.4386 17.8148 59.4219L18.3279 57.6252ZM26.2014 58.1099L24.5045 57.6252L23.9909 59.4219C23.7007 60.4386 23.724 61.5056 24.0582 62.5086C24.2935 63.214 24.2935 63.9913 24.0582 64.6967L23.6334 65.9706L25.3074 66.5287L25.7322 65.2547C26.0875 64.1895 26.0875 63.0158 25.7322 61.9506C25.5107 61.2863 25.4956 60.5796 25.6878 59.9066L26.2014 58.1099ZM30.6811 57.6252L32.3776 58.1099L31.8644 59.9066C31.6717 60.5796 31.6873 61.2863 31.9088 61.9506C32.2636 63.0158 32.2636 64.1895 31.9088 65.2547L31.484 66.5287L29.81 65.9706L30.2348 64.6967C30.4696 63.9913 30.4696 63.214 30.2348 62.5086C29.9002 61.5056 29.8768 60.4386 30.1675 59.4219L30.6811 57.6252ZM52.4565 62.509C52.7906 61.5061 52.814 60.4386 52.5233 59.4219L52.0102 57.6252L50.3132 58.1099L50.8268 59.9066C51.0191 60.5796 51.0035 61.2863 50.7824 61.9506C50.4272 63.0158 50.4272 64.1895 50.7824 65.2547L51.2068 66.5287L52.8813 65.9706L52.4565 64.6967C52.2212 63.9913 52.2212 63.2144 52.4565 62.509ZM46.3472 59.4219C46.6374 60.4386 46.6145 61.5061 46.2799 62.509C46.045 63.2144 46.045 63.9913 46.2799 64.6967L46.7047 65.9706L45.0306 66.5287L44.6058 65.2547C44.2506 64.1895 44.2506 63.0158 44.6058 61.9506C44.8274 61.2863 44.8425 60.5796 44.6502 59.9066L44.1366 58.1099L45.8336 57.6252L46.3472 59.4219ZM40.1037 62.509C40.4379 61.5061 40.4612 60.4386 40.1706 59.4219L39.657 57.6252L37.9605 58.1099L38.4736 59.9066C38.6659 60.5796 38.6508 61.2863 38.4292 61.9506C38.0745 63.0158 38.0745 64.1895 38.4292 65.2547L38.854 66.5287L40.5281 65.9706L40.1033 64.6967C39.8684 63.9913 39.8684 63.2144 40.1037 62.509ZM32.4119 29.1912H30.6472V30.9558H32.4119V29.1912ZM30.6472 25.6613H32.4119V27.426H30.6472V25.6613ZM35.9413 25.6613H34.1766V27.426H35.9413V25.6613ZM37.706 25.6613H39.4706V27.426H37.706V25.6613ZM43 25.6613H41.2353V27.426H43V25.6613Z" fill="white"></path>
</svg>
