<?xml version="1.0" encoding="UTF-8"?>
<svg xmlns="http://www.w3.org/2000/svg" width="129" height="86" viewBox="0 0 129 86" fill="none">
  <path fill-rule="evenodd" clip-rule="evenodd" d="M83 86H101.408L129 43L101.408 0H83L110.592 43L83 86Z" fill="#F8F8F8"></path>
  <path fill-rule="evenodd" clip-rule="evenodd" d="M0 0V86H74.4046L102 43L74.4046 0H0Z" fill="#E41019"></path>
  <path fill-rule="evenodd" clip-rule="evenodd" d="M35.7715 23.1318H37.5293V21.374H35.7715V23.1318ZM42.8027 23.1318H41.0449V21.374H42.8027V23.1318ZM48.0762 23.1318H46.3184V21.374H48.0762V23.1318ZM15.8998 39.1016H17.6576V40.8594H15.8998V39.1016ZM26.9154 39.1016H25.1576V40.8594H26.9154V39.1016ZM15.8998 57.0313H17.6576V58.7891H15.8998V57.0313ZM26.9154 57.0313H25.1576V58.7891H26.9154V57.0313Z" fill="white"></path>
</svg>
