<?xml version="1.0" encoding="UTF-8"?>
<svg xmlns="http://www.w3.org/2000/svg" width="1035" height="172" viewBox="0 0 1035 172" fill="none">
  <g clip-path="url(#clip0_0_333)">
    <path d="M37.9152 28.34H20.7472V20.2H64.7032V28.34H47.5352V72H37.9152V28.34ZM105.815 72L95.2328 56.83C94.7888 56.8793 94.1228 56.904 93.2348 56.904H81.5428V72H71.9228V20.2H93.2348C97.7241 20.2 101.621 20.94 104.927 22.42C108.281 23.9 110.847 26.0213 112.623 28.784C114.399 31.5467 115.287 34.8273 115.287 38.626C115.287 42.5233 114.325 45.878 112.401 48.69C110.526 51.502 107.813 53.5987 104.261 54.98L116.175 72H105.815ZM105.593 38.626C105.593 35.3207 104.507 32.78 102.337 31.004C100.166 29.228 96.9841 28.34 92.7908 28.34H81.5428V48.986H92.7908C96.9841 48.986 100.166 48.098 102.337 46.322C104.507 44.4967 105.593 41.9313 105.593 38.626ZM159.646 60.012H133.746L128.64 72H118.724L142.034 20.2H151.506L174.89 72H164.826L159.646 60.012ZM156.464 52.464L146.696 29.82L137.002 52.464H156.464ZM227.505 20.2V72H219.587L191.023 36.924V72H181.477V20.2H189.395L217.959 55.276V20.2H227.505ZM257.444 72.74C253.448 72.74 249.575 72.1727 245.826 71.038C242.126 69.9033 239.19 68.3987 237.02 66.524L240.35 59.05C242.471 60.7273 245.061 62.1087 248.12 63.194C251.228 64.23 254.336 64.748 257.444 64.748C261.292 64.748 264.153 64.1313 266.028 62.898C267.952 61.6647 268.914 60.0367 268.914 58.014C268.914 56.534 268.371 55.3253 267.286 54.388C266.25 53.4013 264.918 52.6367 263.29 52.094C261.662 51.5513 259.442 50.9347 256.63 50.244C252.683 49.3067 249.476 48.3693 247.01 47.432C244.592 46.4947 242.496 45.0393 240.72 43.066C238.993 41.0433 238.13 38.33 238.13 34.926C238.13 32.0647 238.894 29.4747 240.424 27.156C242.002 24.788 244.346 22.9133 247.454 21.532C250.611 20.1507 254.459 19.46 258.998 19.46C262.155 19.46 265.263 19.8547 268.322 20.644C271.38 21.4333 274.02 22.568 276.24 24.048L273.206 31.522C270.936 30.19 268.568 29.1787 266.102 28.488C263.635 27.7973 261.242 27.452 258.924 27.452C255.125 27.452 252.288 28.0933 250.414 29.376C248.588 30.6587 247.676 32.3607 247.676 34.482C247.676 35.962 248.194 37.1707 249.23 38.108C250.315 39.0453 251.672 39.7853 253.3 40.328C254.928 40.8707 257.148 41.4873 259.96 42.178C263.808 43.066 266.965 44.0033 269.432 44.99C271.898 45.9273 273.995 47.3827 275.722 49.356C277.498 51.3293 278.386 53.9933 278.386 57.348C278.386 60.2093 277.596 62.7993 276.018 65.118C274.488 67.4367 272.145 69.2867 268.988 70.668C265.83 72.0493 261.982 72.74 257.444 72.74ZM309.237 20.2C313.726 20.2 317.623 20.94 320.929 22.42C324.283 23.9 326.849 26.0213 328.625 28.784C330.401 31.5467 331.289 34.8273 331.289 38.626C331.289 42.3753 330.401 45.656 328.625 48.468C326.849 51.2307 324.283 53.352 320.929 54.832C317.623 56.312 313.726 57.052 309.237 57.052H297.545V72H287.925V20.2H309.237ZM308.793 48.912C312.986 48.912 316.168 48.024 318.339 46.248C320.509 44.472 321.595 41.9313 321.595 38.626C321.595 35.3207 320.509 32.78 318.339 31.004C316.168 29.228 312.986 28.34 308.793 28.34H297.545V48.912H308.793ZM365.816 72.74C360.537 72.74 355.777 71.6053 351.534 69.336C347.291 67.0173 343.961 63.8353 341.544 59.79C339.127 55.6953 337.918 51.132 337.918 46.1C337.918 41.068 339.127 36.5293 341.544 32.484C343.961 28.3893 347.291 25.2073 351.534 22.938C355.777 20.6193 360.537 19.46 365.816 19.46C371.095 19.46 375.855 20.6193 380.098 22.938C384.341 25.2073 387.671 28.3647 390.088 32.41C392.505 36.4553 393.714 41.0187 393.714 46.1C393.714 51.1813 392.505 55.7447 390.088 59.79C387.671 63.8353 384.341 67.0173 380.098 69.336C375.855 71.6053 371.095 72.74 365.816 72.74ZM365.816 64.304C369.269 64.304 372.377 63.5393 375.14 62.01C377.903 60.4313 380.073 58.2607 381.652 55.498C383.231 52.686 384.02 49.5533 384.02 46.1C384.02 42.6467 383.231 39.5387 381.652 36.776C380.073 33.964 377.903 31.7933 375.14 30.264C372.377 28.6853 369.269 27.896 365.816 27.896C362.363 27.896 359.255 28.6853 356.492 30.264C353.729 31.7933 351.559 33.964 349.98 36.776C348.401 39.5387 347.612 42.6467 347.612 46.1C347.612 49.5533 348.401 52.686 349.98 55.498C351.559 58.2607 353.729 60.4313 356.492 62.01C359.255 63.5393 362.363 64.304 365.816 64.304ZM437.803 72L427.221 56.83C426.777 56.8793 426.111 56.904 425.223 56.904H413.531V72H403.911V20.2H425.223C429.712 20.2 433.61 20.94 436.915 22.42C440.27 23.9 442.835 26.0213 444.611 28.784C446.387 31.5467 447.275 34.8273 447.275 38.626C447.275 42.5233 446.313 45.878 444.389 48.69C442.514 51.502 439.801 53.5987 436.249 54.98L448.163 72H437.803ZM437.581 38.626C437.581 35.3207 436.496 32.78 434.325 31.004C432.154 29.228 428.972 28.34 424.779 28.34H413.531V48.986H424.779C428.972 48.986 432.154 48.098 434.325 46.322C436.496 44.4967 437.581 41.9313 437.581 38.626ZM467.823 28.34H450.655V20.2H494.611V28.34H477.443V72H467.823V28.34ZM561.132 72.814L554.62 66.524C549.786 70.668 543.989 72.74 537.23 72.74C533.629 72.74 530.398 72.148 527.536 70.964C524.675 69.78 522.43 68.152 520.802 66.08C519.174 63.9587 518.36 61.566 518.36 58.902C518.36 55.6953 519.298 52.8833 521.172 50.466C523.047 47.9993 526.106 45.582 530.348 43.214C528.276 41.142 526.796 39.218 525.908 37.442C525.02 35.6167 524.576 33.742 524.576 31.818C524.576 28.1673 525.933 25.232 528.646 23.012C531.409 20.7427 535.06 19.608 539.598 19.608C543.792 19.608 547.146 20.644 549.662 22.716C552.178 24.7387 553.436 27.5013 553.436 31.004C553.436 33.668 552.598 36.036 550.92 38.108C549.292 40.18 546.604 42.2767 542.854 44.398L554.028 55.054C555.262 52.6367 556.224 49.726 556.914 46.322L564.388 48.764C563.402 53.352 561.848 57.2987 559.726 60.604L566.238 66.82L561.132 72.814ZM539.598 26.194C537.576 26.194 535.972 26.712 534.788 27.748C533.604 28.7347 533.012 30.042 533.012 31.67C533.012 32.854 533.333 33.9887 533.974 35.074C534.616 36.11 535.849 37.5407 537.674 39.366C540.634 37.738 542.682 36.332 543.816 35.148C545 33.9147 545.592 32.5827 545.592 31.152C545.592 29.6227 545.05 28.414 543.964 27.526C542.928 26.638 541.473 26.194 539.598 26.194ZM537.896 65.192C542.188 65.192 545.938 63.8847 549.144 61.27L535.454 48.172C532.494 49.8 530.398 51.3787 529.164 52.908C527.98 54.388 527.388 56.0653 527.388 57.94C527.388 60.1107 528.35 61.862 530.274 63.194C532.198 64.526 534.739 65.192 537.896 65.192ZM611.039 72.74C607.043 72.74 603.171 72.1727 599.421 71.038C595.721 69.9033 592.786 68.3987 590.615 66.524L593.945 59.05C596.067 60.7273 598.657 62.1087 601.715 63.194C604.823 64.23 607.931 64.748 611.039 64.748C614.887 64.748 617.749 64.1313 619.623 62.898C621.547 61.6647 622.509 60.0367 622.509 58.014C622.509 56.534 621.967 55.3253 620.881 54.388C619.845 53.4013 618.513 52.6367 616.885 52.094C615.257 51.5513 613.037 50.9347 610.225 50.244C606.279 49.3067 603.072 48.3693 600.605 47.432C598.188 46.4947 596.091 45.0393 594.315 43.066C592.589 41.0433 591.725 38.33 591.725 34.926C591.725 32.0647 592.49 29.4747 594.019 27.156C595.598 24.788 597.941 22.9133 601.049 21.532C604.207 20.1507 608.055 19.46 612.593 19.46C615.751 19.46 618.859 19.8547 621.917 20.644C624.976 21.4333 627.615 22.568 629.835 24.048L626.801 31.522C624.532 30.19 622.164 29.1787 619.697 28.488C617.231 27.7973 614.838 27.452 612.519 27.452C608.721 27.452 605.884 28.0933 604.009 29.376C602.184 30.6587 601.271 32.3607 601.271 34.482C601.271 35.962 601.789 37.1707 602.825 38.108C603.911 39.0453 605.267 39.7853 606.895 40.328C608.523 40.8707 610.743 41.4873 613.555 42.178C617.403 43.066 620.561 44.0033 623.027 44.99C625.494 45.9273 627.591 47.3827 629.317 49.356C631.093 51.3293 631.981 53.9933 631.981 57.348C631.981 60.2093 631.192 62.7993 629.613 65.118C628.084 67.4367 625.741 69.2867 622.583 70.668C619.426 72.0493 615.578 72.74 611.039 72.74ZM662.832 20.2C667.322 20.2 671.219 20.94 674.524 22.42C677.879 23.9 680.444 26.0213 682.22 28.784C683.996 31.5467 684.884 34.8273 684.884 38.626C684.884 42.3753 683.996 45.656 682.22 48.468C680.444 51.2307 677.879 53.352 674.524 54.832C671.219 56.312 667.322 57.052 662.832 57.052H651.14V72H641.52V20.2H662.832ZM662.388 48.912C666.582 48.912 669.764 48.024 671.934 46.248C674.105 44.472 675.19 41.9313 675.19 38.626C675.19 35.3207 674.105 32.78 671.934 31.004C669.764 29.228 666.582 28.34 662.388 28.34H651.14V48.912H662.388ZM733.341 63.934V72H694.491V20.2H732.305V28.266H704.111V41.734H729.123V49.652H704.111V63.934H733.341ZM744.065 20.2H766.709C772.235 20.2 777.143 21.2853 781.435 23.456C785.727 25.5773 789.057 28.6113 791.425 32.558C793.793 36.4553 794.977 40.9693 794.977 46.1C794.977 51.2307 793.793 55.7693 791.425 59.716C789.057 63.6133 785.727 66.6473 781.435 68.818C777.143 70.9393 772.235 72 766.709 72H744.065V20.2ZM766.265 63.86C770.064 63.86 773.394 63.1447 776.255 61.714C779.166 60.234 781.386 58.162 782.915 55.498C784.494 52.7847 785.283 49.652 785.283 46.1C785.283 42.548 784.494 39.44 782.915 36.776C781.386 34.0627 779.166 31.9907 776.255 30.56C773.394 29.08 770.064 28.34 766.265 28.34H753.685V63.86H766.265ZM805.202 20.2H814.822V72H805.202V20.2ZM839.341 28.34H822.173V20.2H866.129V28.34H848.961V72H839.341V28.34ZM873.349 20.2H882.969V72H873.349V20.2ZM921.177 72.74C915.899 72.74 911.138 71.6053 906.895 69.336C902.653 67.0173 899.323 63.8353 896.905 59.79C894.488 55.6953 893.279 51.132 893.279 46.1C893.279 41.068 894.488 36.5293 896.905 32.484C899.323 28.3893 902.653 25.2073 906.895 22.938C911.138 20.6193 915.899 19.46 921.177 19.46C926.456 19.46 931.217 20.6193 935.459 22.938C939.702 25.2073 943.032 28.3647 945.449 32.41C947.867 36.4553 949.075 41.0187 949.075 46.1C949.075 51.1813 947.867 55.7447 945.449 59.79C943.032 63.8353 939.702 67.0173 935.459 69.336C931.217 71.6053 926.456 72.74 921.177 72.74ZM921.177 64.304C924.631 64.304 927.739 63.5393 930.501 62.01C933.264 60.4313 935.435 58.2607 937.013 55.498C938.592 52.686 939.381 49.5533 939.381 46.1C939.381 42.6467 938.592 39.5387 937.013 36.776C935.435 33.964 933.264 31.7933 930.501 30.264C927.739 28.6853 924.631 27.896 921.177 27.896C917.724 27.896 914.616 28.6853 911.853 30.264C909.091 31.7933 906.92 33.964 905.341 36.776C903.763 39.5387 902.973 42.6467 902.973 46.1C902.973 49.5533 903.763 52.686 905.341 55.498C906.92 58.2607 909.091 60.4313 911.853 62.01C914.616 63.5393 917.724 64.304 921.177 64.304ZM1005.3 20.2V72H997.382L968.818 36.924V72H959.272V20.2H967.19L995.754 55.276V20.2H1005.3Z" fill="#F4BC20"></path>
    <path fill-rule="evenodd" clip-rule="evenodd" d="M348.352 114L366.82 142.578L348.352 171.156H1012V114H348.352Z" fill="#E41019"></path>
    <path fill-rule="evenodd" clip-rule="evenodd" d="M16 114V171.156H339.577L357.879 142.578L339.577 114H16Z" fill="#93060B"></path>
    <path d="M56.1776 134.816H48.8125V131.258H67.6698V134.816H60.3046V153.897H56.1776V134.816Z" fill="white"></path>
    <path fill-rule="evenodd" clip-rule="evenodd" d="M81.8399 147.267L86.3796 153.897H90.8241L85.7129 146.459C87.2368 145.855 88.4061 144.939 89.2209 143.71C90.0357 142.481 90.4431 141.015 90.4431 139.311C90.4431 137.651 90.0622 136.217 89.3003 135.01C88.5384 133.802 87.4431 132.875 86.0145 132.229C84.586 131.582 82.9087 131.258 80.9828 131.258H71.8398V153.897H75.9669V147.3H80.9828C81.3637 147.3 81.6494 147.289 81.8399 147.267ZM84.8875 135.98C85.8188 136.756 86.2844 137.867 86.2844 139.311C86.2844 140.756 85.8188 141.872 84.8875 142.659C83.9563 143.446 82.5912 143.839 80.7923 143.839H75.9669V134.816H80.7923C82.5912 134.816 83.9563 135.204 84.8875 135.98Z" fill="white"></path>
    <path fill-rule="evenodd" clip-rule="evenodd" d="M97.2149 153.897L99.4054 148.658H110.517L112.739 153.897H117.056L107.025 131.258H102.961L92.9609 153.897H97.2149ZM104.961 135.463L109.152 145.359H100.802L104.961 135.463Z" fill="white"></path>
    <path d="M140.688 131.258V153.897H137.291L125.037 138.567V153.897H120.941V131.258H124.338L136.592 146.588V131.258H140.688Z" fill="white"></path>
    <path d="M154.602 154.221C152.888 154.221 151.231 153.973 149.634 153.477C148.036 152.981 146.771 152.324 145.84 151.504L147.268 148.238C148.178 148.971 149.295 149.569 150.618 150.033C151.94 150.496 153.268 150.728 154.602 150.728C156.253 150.728 157.485 150.459 158.3 149.92C159.115 149.38 159.522 148.669 159.522 147.785C159.522 147.138 159.295 146.605 158.84 146.184C158.385 145.764 157.808 145.435 157.11 145.198C156.411 144.96 155.459 144.691 154.253 144.389C152.559 143.979 151.189 143.57 150.141 143.16C149.094 142.75 148.194 142.109 147.443 141.236C146.692 140.363 146.316 139.182 146.316 137.694C146.316 136.444 146.649 135.307 147.316 134.282C147.983 133.258 148.988 132.444 150.332 131.841C151.676 131.237 153.321 130.935 155.268 130.935C156.623 130.935 157.956 131.108 159.269 131.453C160.581 131.797 161.713 132.293 162.665 132.94L161.364 136.207C160.39 135.625 159.374 135.183 158.316 134.881C157.258 134.579 156.231 134.428 155.237 134.428C153.607 134.428 152.395 134.708 151.602 135.269C150.808 135.829 150.411 136.573 150.411 137.5C150.411 138.147 150.639 138.675 151.094 139.085C151.549 139.495 152.126 139.818 152.824 140.055C153.522 140.293 154.475 140.562 155.681 140.864C157.332 141.252 158.686 141.656 159.745 142.077C160.803 142.497 161.708 143.139 162.459 144.001C163.21 144.863 163.586 146.028 163.586 147.494C163.586 148.744 163.253 149.876 162.586 150.89C161.919 151.903 160.909 152.712 159.554 153.315C158.2 153.919 156.549 154.221 154.602 154.221Z" fill="white"></path>
    <path fill-rule="evenodd" clip-rule="evenodd" d="M182.913 132.229C181.484 131.582 179.807 131.258 177.881 131.258H168.738V153.897H172.865V147.364H177.881C179.807 147.364 181.484 147.041 182.913 146.394C184.342 145.747 185.437 144.815 186.199 143.597C186.961 142.378 187.342 140.95 187.342 139.311C187.342 137.651 186.961 136.217 186.199 135.01C185.437 133.802 184.342 132.875 182.913 132.229ZM181.786 142.643C180.855 143.419 179.49 143.807 177.691 143.807H172.865V134.816H177.691C179.49 134.816 180.855 135.204 181.786 135.98C182.717 136.756 183.183 137.867 183.183 139.311C183.183 140.756 182.717 141.866 181.786 142.643Z" fill="white"></path>
    <path fill-rule="evenodd" clip-rule="evenodd" d="M197.099 152.717C198.919 153.72 200.962 154.221 203.226 154.221C205.491 154.221 207.533 153.72 209.353 152.717C211.173 151.714 212.602 150.329 213.639 148.561C214.676 146.793 215.194 144.799 215.194 142.578C215.194 140.357 214.676 138.363 213.639 136.595C212.602 134.827 211.173 133.442 209.353 132.439C207.533 131.436 205.491 130.935 203.226 130.935C200.962 130.935 198.919 131.436 197.099 132.439C195.279 133.442 193.85 134.832 192.813 136.611C191.776 138.39 191.258 140.379 191.258 142.578C191.258 144.777 191.776 146.766 192.813 148.545C193.85 150.324 195.279 151.714 197.099 152.717ZM207.226 149.515C206.041 150.194 204.708 150.534 203.226 150.534C201.745 150.534 200.411 150.194 199.226 149.515C198.041 148.836 197.11 147.887 196.432 146.669C195.755 145.451 195.417 144.087 195.417 142.578C195.417 141.069 195.755 139.705 196.432 138.487C197.11 137.269 198.041 136.32 199.226 135.641C200.411 134.962 201.745 134.622 203.226 134.622C204.708 134.622 206.041 134.962 207.226 135.641C208.411 136.32 209.343 137.269 210.02 138.487C210.697 139.705 211.036 141.069 211.036 142.578C211.036 144.087 210.697 145.451 210.02 146.669C209.343 147.887 208.411 148.836 207.226 149.515Z" fill="white"></path>
    <path fill-rule="evenodd" clip-rule="evenodd" d="M230.633 147.267L235.173 153.897H239.617L234.506 146.459C236.03 145.855 237.199 144.939 238.014 143.71C238.829 142.481 239.236 141.015 239.236 139.311C239.236 137.651 238.855 136.217 238.093 135.01C237.331 133.802 236.236 132.875 234.808 132.229C233.379 131.582 231.702 131.258 229.776 131.258H220.633V153.897H224.76V147.3H229.776C230.157 147.3 230.442 147.289 230.633 147.267ZM233.681 135.98C234.612 136.756 235.077 137.867 235.077 139.311C235.077 140.756 234.612 141.872 233.681 142.659C232.749 143.446 231.384 143.839 229.585 143.839H224.76V134.816H229.585C231.384 134.816 232.749 135.204 233.681 135.98Z" fill="white"></path>
    <path d="M249.088 134.816H241.723V131.258H260.58V134.816H253.215V153.897H249.088V134.816Z" fill="white"></path>
    <path d="M264.75 131.258H268.877V153.897H264.75V131.258Z" fill="white"></path>
    <path d="M295.684 131.258V153.897H292.287L280.033 138.567V153.897H275.938V131.258H279.334L291.588 146.588V131.258H295.684Z" fill="white"></path>
    <path d="M317.883 142.319H321.788V151.343C320.645 152.27 319.312 152.981 317.788 153.477C316.264 153.973 314.698 154.221 313.089 154.221C310.825 154.221 308.783 153.72 306.962 152.717C305.142 151.714 303.714 150.329 302.677 148.561C301.64 146.793 301.121 144.799 301.121 142.578C301.121 140.357 301.64 138.363 302.677 136.595C303.714 134.827 305.148 133.442 306.978 132.439C308.809 131.436 310.867 130.935 313.153 130.935C315.015 130.935 316.708 131.248 318.232 131.873C319.756 132.498 321.037 133.415 322.074 134.622L319.47 137.209C317.777 135.484 315.735 134.622 313.343 134.622C311.777 134.622 310.386 134.956 309.169 135.625C307.952 136.293 306.999 137.231 306.312 138.438C305.624 139.646 305.28 141.026 305.28 142.578C305.28 144.087 305.624 145.446 306.312 146.653C306.999 147.86 307.952 148.809 309.169 149.499C310.386 150.189 311.767 150.534 313.312 150.534C315.047 150.534 316.571 150.146 317.883 149.37V142.319Z" fill="white"></path>
    <path d="M391.322 134.784V141.672H402.053V145.23H391.322V153.897H387.195V131.258H403.418V134.784H391.322Z" fill="white"></path>
    <path fill-rule="evenodd" clip-rule="evenodd" d="M412.478 152.717C414.298 153.72 416.34 154.221 418.605 154.221C420.87 154.221 422.912 153.72 424.732 152.717C426.552 151.714 427.981 150.329 429.018 148.561C430.055 146.793 430.573 144.799 430.573 142.578C430.573 140.357 430.055 138.363 429.018 136.595C427.981 134.827 426.552 133.442 424.732 132.439C422.912 131.436 420.87 130.935 418.605 130.935C416.34 130.935 414.298 131.436 412.478 132.439C410.658 133.442 409.229 134.832 408.192 136.611C407.155 138.39 406.637 140.379 406.637 142.578C406.637 144.777 407.155 146.766 408.192 148.545C409.229 150.324 410.658 151.714 412.478 152.717ZM422.605 149.515C421.42 150.194 420.087 150.534 418.605 150.534C417.124 150.534 415.79 150.194 414.605 149.515C413.42 148.836 412.489 147.887 411.811 146.669C411.134 145.451 410.795 144.087 410.795 142.578C410.795 141.069 411.134 139.705 411.811 138.487C412.489 137.269 413.42 136.32 414.605 135.641C415.79 134.962 417.124 134.622 418.605 134.622C420.087 134.622 421.42 134.962 422.605 135.641C423.79 136.32 424.721 137.269 425.399 138.487C426.076 139.705 426.415 141.069 426.415 142.578C426.415 144.087 426.076 145.451 425.399 146.669C424.721 147.887 423.79 148.836 422.605 149.515Z" fill="white"></path>
    <path fill-rule="evenodd" clip-rule="evenodd" d="M446.012 147.267L450.551 153.897H454.996L449.885 146.459C451.409 145.855 452.578 144.939 453.393 143.71C454.208 142.481 454.615 141.015 454.615 139.311C454.615 137.651 454.234 136.217 453.472 135.01C452.71 133.802 451.615 132.875 450.186 132.229C448.758 131.582 447.081 131.258 445.155 131.258H436.012V153.897H440.139V147.3H445.155C445.536 147.3 445.821 147.289 446.012 147.267ZM449.059 135.98C449.991 136.756 450.456 137.867 450.456 139.311C450.456 140.756 449.991 141.872 449.059 142.659C448.128 143.446 446.763 143.839 444.964 143.839H440.139V134.816H444.964C446.763 134.816 448.128 135.204 449.059 135.98Z" fill="white"></path>
    <path d="M479.681 145.909V153.897H475.554V145.974L466.824 131.258H471.237L477.745 142.287L484.316 131.258H488.38L479.681 145.909Z" fill="white"></path>
    <path fill-rule="evenodd" clip-rule="evenodd" d="M495.439 152.717C497.259 153.72 499.301 154.221 501.566 154.221C503.831 154.221 505.873 153.72 507.693 152.717C509.513 151.714 510.942 150.329 511.979 148.561C513.016 146.793 513.534 144.799 513.534 142.578C513.534 140.357 513.016 138.363 511.979 136.595C510.942 134.827 509.513 133.442 507.693 132.439C505.873 131.436 503.831 130.935 501.566 130.935C499.301 130.935 497.259 131.436 495.439 132.439C493.619 133.442 492.19 134.832 491.153 136.611C490.116 138.39 489.598 140.379 489.598 142.578C489.598 144.777 490.116 146.766 491.153 148.545C492.19 150.324 493.619 151.714 495.439 152.717ZM505.566 149.515C504.381 150.194 503.047 150.534 501.566 150.534C500.084 150.534 498.751 150.194 497.566 149.515C496.381 148.836 495.45 147.887 494.772 146.669C494.095 145.451 493.756 144.087 493.756 142.578C493.756 141.069 494.095 139.705 494.772 138.487C495.45 137.269 496.381 136.32 497.566 135.641C498.751 134.962 500.084 134.622 501.566 134.622C503.047 134.622 504.381 134.962 505.566 135.641C506.751 136.32 507.682 137.269 508.36 138.487C509.037 139.705 509.376 141.069 509.376 142.578C509.376 144.087 509.037 145.451 508.36 146.669C507.682 147.887 506.751 148.836 505.566 149.515Z" fill="white"></path>
    <path d="M528.531 154.221C525.462 154.221 523.071 153.342 521.357 151.585C519.642 149.828 518.785 147.31 518.785 144.033V131.258H522.912V143.871C522.912 148.313 524.796 150.534 528.563 150.534C532.309 150.534 534.182 148.313 534.182 143.871V131.258H538.246V144.033C538.246 147.31 537.394 149.828 535.69 151.585C533.986 153.342 531.6 154.221 528.531 154.221Z" fill="white"></path>
    <path fill-rule="evenodd" clip-rule="evenodd" d="M555.082 147.267L559.622 153.897H564.066L558.955 146.459C560.479 145.855 561.648 144.939 562.463 143.71C563.278 142.481 563.685 141.015 563.685 139.311C563.685 137.651 563.304 136.217 562.542 135.01C561.781 133.802 560.685 132.875 559.257 132.229C557.828 131.582 556.151 131.258 554.225 131.258H545.082V153.897H549.209V147.3H554.225C554.606 147.3 554.892 147.289 555.082 147.267ZM558.13 135.98C559.061 136.756 559.527 137.867 559.527 139.311C559.527 140.756 559.061 141.872 558.13 142.659C557.199 143.446 555.833 143.839 554.034 143.839H549.209V134.816H554.034C555.833 134.816 557.199 135.204 558.13 135.98Z" fill="white"></path>
    <path fill-rule="evenodd" clip-rule="evenodd" d="M594.91 142.125C596.138 142.535 597.111 143.219 597.831 144.179C598.55 145.138 598.91 146.329 598.91 147.752C598.91 149.715 598.169 151.229 596.688 152.296C595.206 153.364 593.048 153.897 590.212 153.897H579.164V131.258H589.577C592.201 131.258 594.222 131.781 595.64 132.827C597.058 133.873 597.767 135.312 597.767 137.144C597.767 138.266 597.513 139.257 597.005 140.12C596.498 140.982 595.799 141.651 594.91 142.125ZM583.291 134.557V140.799H589.132C590.572 140.799 591.677 140.535 592.45 140.007C593.222 139.478 593.609 138.708 593.609 137.694C593.609 136.659 593.222 135.878 592.45 135.349C591.677 134.821 590.572 134.557 589.132 134.557H583.291ZM594.751 147.332C594.751 149.51 593.154 150.599 589.958 150.599H583.291V144.066H589.958C593.154 144.066 594.751 145.154 594.751 147.332Z" fill="white"></path>
    <path d="M613.938 154.221C610.869 154.221 608.477 153.342 606.763 151.585C605.049 149.828 604.191 147.31 604.191 144.033V131.258H608.318V143.871C608.318 148.313 610.202 150.534 613.969 150.534C617.715 150.534 619.588 148.313 619.588 143.871V131.258H623.652V144.033C623.652 147.31 622.8 149.828 621.096 151.585C619.393 153.342 617.006 154.221 613.938 154.221Z" fill="white"></path>
    <path d="M637.379 154.221C635.665 154.221 634.009 153.973 632.411 153.477C630.813 152.981 629.548 152.324 628.617 151.504L630.046 148.238C630.956 148.971 632.072 149.569 633.395 150.033C634.718 150.496 636.046 150.728 637.379 150.728C639.03 150.728 640.263 150.459 641.078 149.92C641.892 149.38 642.3 148.669 642.3 147.785C642.3 147.138 642.072 146.605 641.617 146.184C641.162 145.764 640.586 145.435 639.887 145.198C639.189 144.96 638.236 144.691 637.03 144.389C635.337 143.979 633.966 143.57 632.919 143.16C631.871 142.75 630.972 142.109 630.22 141.236C629.469 140.363 629.093 139.182 629.093 137.694C629.093 136.444 629.427 135.307 630.093 134.282C630.76 133.258 631.765 132.444 633.109 131.841C634.453 131.237 636.099 130.935 638.046 130.935C639.4 130.935 640.734 131.108 642.046 131.453C643.358 131.797 644.49 132.293 645.443 132.94L644.141 136.207C643.168 135.625 642.152 135.183 641.093 134.881C640.035 134.579 639.009 134.428 638.014 134.428C636.384 134.428 635.173 134.708 634.379 135.269C633.585 135.829 633.189 136.573 633.189 137.5C633.189 138.147 633.416 138.675 633.871 139.085C634.326 139.495 634.903 139.818 635.601 140.055C636.3 140.293 637.252 140.562 638.459 140.864C640.109 141.252 641.464 141.656 642.522 142.077C643.58 142.497 644.485 143.139 645.236 144.001C645.988 144.863 646.363 146.028 646.363 147.494C646.363 148.744 646.03 149.876 645.363 150.89C644.697 151.903 643.686 152.712 642.332 153.315C640.977 153.919 639.326 154.221 637.379 154.221Z" fill="white"></path>
    <path d="M651.516 131.258H655.643V153.897H651.516V131.258Z" fill="white"></path>
    <path d="M682.445 131.258V153.897H679.049L666.794 138.567V153.897H662.699V131.258H666.096L678.35 146.588V131.258H682.445Z" fill="white"></path>
    <path d="M706.139 150.372V153.897H689.473V131.258H705.695V134.784H693.6V140.67H704.33V144.13H693.6V150.372H706.139Z" fill="white"></path>
    <path d="M718.692 154.221C716.977 154.221 715.321 153.973 713.723 153.477C712.125 152.981 710.861 152.324 709.93 151.504L711.358 148.238C712.268 148.971 713.385 149.569 714.707 150.033C716.03 150.496 717.358 150.728 718.692 150.728C720.342 150.728 721.575 150.459 722.39 149.92C723.205 149.38 723.612 148.669 723.612 147.785C723.612 147.138 723.385 146.605 722.93 146.184C722.475 145.764 721.898 145.435 721.2 145.198C720.501 144.96 719.549 144.691 718.342 144.389C716.649 143.979 715.279 143.57 714.231 143.16C713.184 142.75 712.284 142.109 711.533 141.236C710.782 140.363 710.406 139.182 710.406 137.694C710.406 136.444 710.739 135.307 711.406 134.282C712.073 133.258 713.078 132.444 714.422 131.841C715.766 131.237 717.411 130.935 719.358 130.935C720.713 130.935 722.046 131.108 723.358 131.453C724.671 131.797 725.803 132.293 726.755 132.94L725.454 136.207C724.48 135.625 723.464 135.183 722.406 134.881C721.348 134.579 720.321 134.428 719.327 134.428C717.697 134.428 716.485 134.708 715.692 135.269C714.898 135.829 714.501 136.573 714.501 137.5C714.501 138.147 714.729 138.675 715.184 139.085C715.639 139.495 716.215 139.818 716.914 140.055C717.612 140.293 718.565 140.562 719.771 140.864C721.422 141.252 722.776 141.656 723.835 142.077C724.893 142.497 725.798 143.139 726.549 144.001C727.3 144.863 727.676 146.028 727.676 147.494C727.676 148.744 727.342 149.876 726.676 150.89C726.009 151.903 724.999 152.712 723.644 153.315C722.29 153.919 720.639 154.221 718.692 154.221Z" fill="white"></path>
    <path d="M739.715 154.221C738.001 154.221 736.345 153.973 734.747 153.477C733.149 152.981 731.884 152.324 730.953 151.504L732.382 148.238C733.292 148.971 734.408 149.569 735.731 150.033C737.054 150.496 738.382 150.728 739.715 150.728C741.366 150.728 742.599 150.459 743.414 149.92C744.228 149.38 744.636 148.669 744.636 147.785C744.636 147.138 744.408 146.605 743.953 146.184C743.498 145.764 742.921 145.435 742.223 145.198C741.525 144.96 740.572 144.691 739.366 144.389C737.673 143.979 736.302 143.57 735.255 143.16C734.207 142.75 733.308 142.109 732.556 141.236C731.805 140.363 731.429 139.182 731.429 137.694C731.429 136.444 731.763 135.307 732.429 134.282C733.096 133.258 734.101 132.444 735.445 131.841C736.789 131.237 738.435 130.935 740.382 130.935C741.736 130.935 743.07 131.108 744.382 131.453C745.694 131.797 746.826 132.293 747.779 132.94L746.477 136.207C745.503 135.625 744.488 135.183 743.429 134.881C742.371 134.579 741.345 134.428 740.35 134.428C738.72 134.428 737.509 134.708 736.715 135.269C735.921 135.829 735.525 136.573 735.525 137.5C735.525 138.147 735.752 138.675 736.207 139.085C736.662 139.495 737.239 139.818 737.937 140.055C738.636 140.293 739.588 140.562 740.794 140.864C742.445 141.252 743.8 141.656 744.858 142.077C745.916 142.497 746.821 143.139 747.572 144.001C748.324 144.863 748.699 146.028 748.699 147.494C748.699 148.744 748.366 149.876 747.699 150.89C747.033 151.903 746.022 152.712 744.668 153.315C743.313 153.919 741.662 154.221 739.715 154.221Z" fill="white"></path>
    <path fill-rule="evenodd" clip-rule="evenodd" d="M777.85 132.229C776.422 131.582 774.745 131.258 772.819 131.258H763.676V153.897H767.803V147.364H772.819C774.745 147.364 776.422 147.041 777.85 146.394C779.279 145.747 780.374 144.815 781.136 143.597C781.898 142.378 782.279 140.95 782.279 139.311C782.279 137.651 781.898 136.217 781.136 135.01C780.374 133.802 779.279 132.875 777.85 132.229ZM776.723 142.643C775.792 143.419 774.427 143.807 772.628 143.807H767.803V134.816H772.628C774.427 134.816 775.792 135.204 776.723 135.98C777.655 136.756 778.12 137.867 778.12 139.311C778.12 140.756 777.655 141.866 776.723 142.643Z" fill="white"></path>
    <path fill-rule="evenodd" clip-rule="evenodd" d="M797.461 147.267L802.001 153.897H806.445L801.334 146.459C802.858 145.855 804.027 144.939 804.842 143.71C805.657 142.481 806.064 141.015 806.064 139.311C806.064 137.651 805.683 136.217 804.921 135.01C804.159 133.802 803.064 132.875 801.636 132.229C800.207 131.582 798.53 131.258 796.604 131.258H787.461V153.897H791.588V147.3H796.604C796.985 147.3 797.271 147.289 797.461 147.267ZM800.509 135.98C801.44 136.756 801.905 137.867 801.905 139.311C801.905 140.756 801.44 141.872 800.509 142.659C799.577 143.446 798.212 143.839 796.413 143.839H791.588V134.816H796.413C798.212 134.816 799.577 135.204 800.509 135.98Z" fill="white"></path>
    <path fill-rule="evenodd" clip-rule="evenodd" d="M815.982 152.717C817.802 153.72 819.844 154.221 822.109 154.221C824.374 154.221 826.416 153.72 828.236 152.717C830.056 151.714 831.485 150.329 832.522 148.561C833.559 146.793 834.077 144.799 834.077 142.578C834.077 140.357 833.559 138.363 832.522 136.595C831.485 134.827 830.056 133.442 828.236 132.439C826.416 131.436 824.374 130.935 822.109 130.935C819.844 130.935 817.802 131.436 815.982 132.439C814.162 133.442 812.733 134.832 811.696 136.611C810.659 138.39 810.141 140.379 810.141 142.578C810.141 144.777 810.659 146.766 811.696 148.545C812.733 150.324 814.162 151.714 815.982 152.717ZM826.109 149.515C824.924 150.194 823.59 150.534 822.109 150.534C820.627 150.534 819.294 150.194 818.109 149.515C816.924 148.836 815.993 147.887 815.315 146.669C814.638 145.451 814.299 144.087 814.299 142.578C814.299 141.069 814.638 139.705 815.315 138.487C815.993 137.269 816.924 136.32 818.109 135.641C819.294 134.962 820.627 134.622 822.109 134.622C823.59 134.622 824.924 134.962 826.109 135.641C827.294 136.32 828.225 137.269 828.903 138.487C829.58 139.705 829.919 141.069 829.919 142.578C829.919 144.087 829.58 145.451 828.903 146.669C828.225 147.887 827.294 148.836 826.109 149.515Z" fill="white"></path>
    <path d="M846.406 154.221C844.692 154.221 843.036 153.973 841.438 153.477C839.84 152.981 838.576 152.324 837.645 151.504L839.073 148.238C839.983 148.971 841.1 149.569 842.422 150.033C843.745 150.496 845.073 150.728 846.406 150.728C848.057 150.728 849.29 150.459 850.105 149.92C850.92 149.38 851.327 148.669 851.327 147.785C851.327 147.138 851.1 146.605 850.645 146.184C850.19 145.764 849.613 145.435 848.914 145.198C848.216 144.96 847.264 144.691 846.057 144.389C844.364 143.979 842.994 143.57 841.946 143.16C840.899 142.75 839.999 142.109 839.248 141.236C838.496 140.363 838.121 139.182 838.121 137.694C838.121 136.444 838.454 135.307 839.121 134.282C839.787 133.258 840.793 132.444 842.137 131.841C843.481 131.237 845.126 130.935 847.073 130.935C848.428 130.935 849.761 131.108 851.073 131.453C852.385 131.797 853.518 132.293 854.47 132.94L853.168 136.207C852.195 135.625 851.179 135.183 850.121 134.881C849.063 134.579 848.036 134.428 847.041 134.428C845.412 134.428 844.2 134.708 843.406 135.269C842.613 135.829 842.216 136.573 842.216 137.5C842.216 138.147 842.444 138.675 842.899 139.085C843.354 139.495 843.93 139.818 844.629 140.055C845.327 140.293 846.28 140.562 847.486 140.864C849.137 141.252 850.491 141.656 851.549 142.077C852.608 142.497 853.512 143.139 854.264 144.001C855.015 144.863 855.391 146.028 855.391 147.494C855.391 148.744 855.057 149.876 854.391 150.89C853.724 151.903 852.713 152.712 851.359 153.315C850.004 153.919 848.354 154.221 846.406 154.221Z" fill="white"></path>
    <path fill-rule="evenodd" clip-rule="evenodd" d="M874.718 132.229C873.289 131.582 871.612 131.258 869.686 131.258H860.543V153.897H864.67V147.364H869.686C871.612 147.364 873.289 147.041 874.718 146.394C876.146 145.747 877.241 144.815 878.003 143.597C878.765 142.378 879.146 140.95 879.146 139.311C879.146 137.651 878.765 136.217 878.003 135.01C877.241 133.802 876.146 132.875 874.718 132.229ZM873.591 142.643C872.659 143.419 871.294 143.807 869.495 143.807H864.67V134.816H869.495C871.294 134.816 872.659 135.204 873.591 135.98C874.522 136.756 874.988 137.867 874.988 139.311C874.988 140.756 874.522 141.866 873.591 142.643Z" fill="white"></path>
    <path d="M900.999 150.372V153.897H884.332V131.258H900.554V134.784H888.459V140.67H899.189V144.13H888.459V150.372H900.999Z" fill="white"></path>
    <path fill-rule="evenodd" clip-rule="evenodd" d="M916.66 147.267L921.2 153.897H925.644L920.533 146.459C922.057 145.855 923.226 144.939 924.041 143.71C924.856 142.481 925.263 141.015 925.263 139.311C925.263 137.651 924.882 136.217 924.121 135.01C923.359 133.802 922.263 132.875 920.835 132.229C919.406 131.582 917.729 131.258 915.803 131.258H906.66V153.897H910.787V147.3H915.803C916.184 147.3 916.47 147.289 916.66 147.267ZM919.708 135.98C920.639 136.756 921.105 137.867 921.105 139.311C921.105 140.756 920.639 141.872 919.708 142.659C918.777 143.446 917.412 143.839 915.613 143.839H910.787V134.816H915.613C917.412 134.816 918.777 135.204 919.708 135.98Z" fill="white"></path>
    <path d="M930.926 131.258H935.053V153.897H930.926V131.258Z" fill="white"></path>
    <path d="M946.619 134.816H939.254V131.258H958.111V134.816H950.746V153.897H946.619V134.816Z" fill="white"></path>
    <path d="M971.549 145.909V153.897H967.422V145.974L958.691 131.258H963.104L969.612 142.287L976.184 131.258H980.247L971.549 145.909Z" fill="white"></path>
  </g>
  <defs>
    <clipPath id="clip0_0_333">
      <rect width="1035" height="171.156" fill="white"></rect>
    </clipPath>
  </defs>
</svg>
