<?xml version="1.0" encoding="UTF-8"?>
<svg xmlns="http://www.w3.org/2000/svg" width="129" height="86" viewBox="0 0 129 86" fill="none">
  <path fill-rule="evenodd" clip-rule="evenodd" d="M83 86H101.408L129 43L101.408 0H83L110.592 43L83 86Z" fill="#F8F8F8"></path>
  <path fill-rule="evenodd" clip-rule="evenodd" d="M0 0V86H74.4046L102 43L74.4046 0H0Z" fill="#E41019"></path>
  <path fill-rule="evenodd" clip-rule="evenodd" d="M43 13C51.0133 13 58.5469 16.1206 64.2133 21.7867C69.8794 27.4531 73 34.9867 73 43C73 51.0133 69.8794 58.5469 64.2133 64.2133C58.5469 69.8794 51.0133 73 43 73C34.9867 73 27.4531 69.8794 21.7867 64.2133C16.1206 58.5469 13 51.0133 13 43C13 38.9593 13.7912 35.0447 15.3487 31.3544C13.8309 29.3699 13 26.9287 13 24.4192C13 18.1226 18.1226 13 24.4192 13C26.9288 13 29.37 13.831 31.3544 15.3487C35.0446 13.7912 38.9593 13 43 13ZM24.4192 14.7578C19.0919 14.7578 14.7578 19.0919 14.7578 24.4192C14.7578 26.6977 15.5665 28.9101 17.0354 30.6487C18.841 32.7866 21.4786 34.0368 24.2719 34.0786L24.3166 34.0793H24.3168C24.3709 34.0802 24.425 34.0796 24.479 34.0789L24.5398 34.0783L24.5789 34.0778C24.6475 34.077 24.7162 34.0762 24.7846 34.0736L24.8196 34.072C25.4349 34.0469 26.0437 33.9641 26.6395 33.824L26.6521 33.8207C26.7678 33.7933 26.8829 33.764 26.9975 33.7323C27.1182 33.6989 27.2384 33.6633 27.3578 33.6252C28.1753 33.3645 28.9559 32.9942 29.6779 32.5248C30.2423 32.1579 30.7705 31.7283 31.2495 31.2494C31.489 31.01 31.7161 30.7581 31.9293 30.4956C32.1425 30.2331 32.3416 29.96 32.5251 29.6778C32.9944 28.9559 33.3646 28.1753 33.6254 27.3577C33.8897 26.5285 34.0401 25.668 34.0736 24.7943C34.0784 24.6695 34.0807 24.5445 34.0807 24.4192C34.0807 24.3849 34.0802 24.3507 34.0796 24.3164L34.0789 24.2718C34.037 21.4785 32.7869 18.8409 30.6489 17.0352C28.9102 15.5665 26.6977 14.7578 24.4192 14.7578ZM29.4183 55.4935C29.7606 55.8763 30.1236 56.2394 30.5064 56.5816C33.7967 59.6106 38.1857 61.4634 42.9999 61.4634C53.1807 61.4634 61.4634 53.1807 61.4634 42.9999C61.4634 32.8191 53.1808 24.5365 43 24.5365C40.4946 24.5365 38.0131 25.0482 35.7257 26.0275C35.7384 25.9376 35.7498 25.8474 35.7604 25.7571C35.7611 25.7512 35.762 25.7453 35.7626 25.7395C35.7776 25.6098 35.7896 25.4799 35.8001 25.3497L35.8037 25.3041L35.8075 25.2529C35.8165 25.1289 35.824 25.0048 35.8289 24.8804L35.8301 24.858C35.8302 24.8553 35.8305 24.8526 35.8305 24.8499C35.9179 24.8153 36.0057 24.7818 36.0934 24.7485C36.1141 24.7407 36.1347 24.7327 36.1554 24.7248C36.184 24.7137 36.2126 24.7027 36.2413 24.692C36.3882 24.6377 36.5356 24.585 36.6835 24.5344L36.6906 24.5318C36.8413 24.4803 36.9925 24.4308 37.1441 24.383C37.1719 24.3743 37.1997 24.366 37.2275 24.3576L37.2512 24.3506L37.2872 24.3396C37.3913 24.3078 37.4952 24.276 37.5998 24.2459C37.6387 24.2347 37.6778 24.224 37.7169 24.2133L37.7771 24.1967C37.8707 24.1707 37.9645 24.1446 38.0584 24.12C38.11 24.1066 38.1617 24.0937 38.2135 24.0809L38.2502 24.0718C38.34 24.0493 38.4299 24.0268 38.52 24.0055C38.5758 23.9924 38.6318 23.9799 38.6877 23.9674L38.7195 23.9603C38.8077 23.9405 38.896 23.9209 38.9846 23.9024C39.0527 23.8881 39.1207 23.8746 39.1889 23.8612C39.2765 23.8438 39.3641 23.8268 39.452 23.8108C39.5211 23.7981 39.5901 23.7859 39.6593 23.774C39.7469 23.7589 39.8346 23.7443 39.9225 23.7305C39.992 23.7195 40.0616 23.7088 40.1312 23.6985C40.2195 23.6855 40.308 23.6733 40.3966 23.6616C40.4658 23.6523 40.5352 23.6432 40.6047 23.6348C40.6945 23.6237 40.7843 23.6139 40.8743 23.6042L40.9164 23.5996C40.9709 23.5937 41.0254 23.5878 41.08 23.5825C41.1721 23.5736 41.2643 23.5659 41.3567 23.5581L41.4186 23.5529C41.4648 23.549 41.5111 23.5451 41.5574 23.5417C41.6474 23.5352 41.7374 23.5299 41.8276 23.5247L41.8279 23.5247L41.8475 23.5236L41.9143 23.5195C41.955 23.517 41.9957 23.5145 42.0365 23.5125C42.1366 23.5077 42.2371 23.5044 42.3375 23.5012L42.3376 23.5012L42.3376 23.5011L42.3377 23.5011L42.3377 23.5011L42.3378 23.5011L42.3378 23.5011L42.3379 23.5011L42.338 23.5011L42.338 23.5011L42.3582 23.5005L42.4178 23.4983C42.451 23.497 42.4842 23.4958 42.5174 23.495C42.678 23.4911 42.8389 23.489 43 23.489C53.7584 23.489 62.511 32.2416 62.511 43C62.511 53.7584 53.7584 62.511 43 62.511C32.2416 62.511 23.489 53.7584 23.489 43C23.489 42.8389 23.4911 42.678 23.495 42.5174C23.4957 42.4866 23.4969 42.4559 23.4981 42.4252L23.4981 42.4251C23.4989 42.4028 23.4998 42.3805 23.5005 42.3582C23.5039 42.2508 23.5074 42.1435 23.5125 42.0365C23.5145 41.9954 23.517 41.9545 23.5196 41.9136L23.5236 41.8475L23.5247 41.827C23.53 41.737 23.5352 41.6471 23.5417 41.5574C23.5456 41.504 23.5502 41.4508 23.5547 41.3975L23.5581 41.3567C23.5657 41.2643 23.5735 41.1721 23.5825 41.08C23.5879 41.0244 23.5939 40.9688 23.6 40.9134L23.6 40.9133L23.6 40.9133L23.6 40.9133L23.6042 40.8743C23.6139 40.7843 23.6239 40.6945 23.6348 40.6047C23.6421 40.5446 23.65 40.4847 23.6579 40.4248L23.6616 40.3966C23.6734 40.3081 23.6856 40.2196 23.6985 40.1312C23.7087 40.0615 23.7195 39.992 23.7305 39.9225C23.7445 39.8346 23.7589 39.747 23.774 39.6593C23.7859 39.5902 23.7981 39.5211 23.8108 39.452C23.827 39.3641 23.8438 39.2765 23.8612 39.1889C23.8746 39.1207 23.8882 39.0525 23.9024 38.9846C23.9209 38.8961 23.9405 38.8077 23.9603 38.7195L23.9656 38.6958L23.9656 38.6958L23.9656 38.6958L23.9656 38.6958L23.9656 38.6957L23.9656 38.6957L23.9656 38.6957L23.9656 38.6957C23.9787 38.6371 23.9918 38.5785 24.0055 38.52C24.0268 38.4298 24.0493 38.34 24.0718 38.2502L24.086 38.1932C24.0972 38.1482 24.1083 38.1033 24.12 38.0584C24.1446 37.9645 24.1707 37.8707 24.1967 37.7771L24.2133 37.7169C24.224 37.6778 24.2347 37.6387 24.2459 37.5998C24.276 37.4954 24.3078 37.3913 24.3396 37.2872L24.3506 37.2512L24.3576 37.2275C24.366 37.1997 24.3743 37.1719 24.383 37.1441C24.4308 36.9925 24.4803 36.8412 24.5318 36.6906L24.5344 36.6835C24.585 36.5356 24.6378 36.3883 24.692 36.2413C24.7027 36.2126 24.7137 36.184 24.7248 36.1554C24.7327 36.1347 24.7407 36.1141 24.7485 36.0934C24.7818 36.0057 24.8153 35.9179 24.8499 35.8305L24.8526 35.8303L24.858 35.8301L24.8651 35.8298L24.8804 35.8289C25.0048 35.824 25.1289 35.8165 25.2529 35.8075C25.2852 35.8052 25.3175 35.8027 25.3497 35.8001C25.4799 35.7896 25.6098 35.7776 25.7395 35.7626L25.7468 35.7617L25.7571 35.7604C25.8474 35.7498 25.9376 35.7385 26.0275 35.7257C25.0482 38.0131 24.5365 40.4946 24.5365 43C24.5365 47.8142 26.3894 52.2032 29.4183 55.4935ZM33.6989 46.0744H26.579C27.013 48.3977 27.9292 50.5529 29.2197 52.4324L34.2493 47.403C34.5904 47.0617 34.4645 46.6675 34.4179 46.5548C34.3713 46.4421 34.1814 46.0744 33.6989 46.0744ZM33.5676 56.7803L38.597 51.7507C38.7505 51.5972 38.9316 51.5195 39.1354 51.5195C39.4635 51.5195 39.9256 51.762 39.9256 52.3011V59.421C37.6023 58.987 35.4471 58.0708 33.5676 56.7803ZM46.0744 52.3011V59.421C48.3977 58.9871 50.5529 58.0709 52.4324 56.7803L47.403 51.7507C47.2496 51.5973 47.0684 51.5195 46.8646 51.5195C46.5365 51.5195 46.0744 51.762 46.0744 52.3011ZM51.7507 47.403C51.4096 47.0617 51.5354 46.6675 51.5821 46.5548C51.6287 46.4421 51.8186 46.0744 52.3011 46.0744H59.421C58.987 48.3977 58.0708 50.5529 56.7803 52.4324L51.7507 47.403ZM52.3011 39.9256H59.421C58.987 37.6023 58.0708 35.4471 56.7803 33.5676L51.7507 38.597C51.4096 38.9383 51.5355 39.3325 51.5821 39.4452C51.6287 39.5579 51.8186 39.9256 52.3011 39.9256ZM52.4324 29.2197L47.403 34.2493C47.2495 34.4027 47.0684 34.4805 46.8646 34.4805C46.6615 34.4805 46.4595 34.4007 46.3105 34.2614C46.2029 34.1609 46.0744 33.9816 46.0744 33.6989V26.579C48.3977 27.0129 50.5529 27.9291 52.4324 29.2197ZM39.9256 33.6989V26.5807C38.2721 26.8898 36.6706 27.4473 35.1841 28.2353C34.965 28.853 34.6925 29.4508 34.3701 30.0223L38.597 34.2493C38.7504 34.4027 38.9316 34.4805 39.1354 34.4805C39.4635 34.4805 39.9256 34.238 39.9256 33.6989ZM37.354 35.4921C37.8352 35.9733 38.4678 36.2383 39.1354 36.2383C40.5404 36.2383 41.6834 35.0991 41.6834 33.6989V26.3664C42.0041 26.3314 42.3262 26.3093 42.6484 26.3001L42.6492 26.3001L42.6493 26.3001C42.7337 26.2983 42.8181 26.2966 42.9026 26.296C43.3746 26.2922 43.8469 26.3151 44.3166 26.3664V33.6991C44.3166 34.4119 44.5987 35.068 45.1107 35.5463C45.5816 35.9862 46.221 36.2385 46.8646 36.2384C47.5321 36.2384 48.1647 35.9734 48.6459 35.4923L53.8143 30.3238C54.502 30.8751 55.125 31.4982 55.6763 32.1858L50.5079 37.3543C49.7687 38.0934 49.5582 39.1524 49.9581 40.118C50.3581 41.0836 51.2559 41.6835 52.3011 41.6835H59.6337C59.6815 42.1209 59.7057 42.5615 59.7057 43.0001C59.7057 43.4387 59.6815 43.8793 59.6337 44.3167H52.3011C51.2559 44.3167 50.3581 44.9166 49.9581 45.8822C49.558 46.8479 49.7687 47.9069 50.5079 48.646L55.6834 53.8214C55.1322 54.5091 54.5091 55.1322 53.8214 55.6834L48.646 50.5079C48.1648 50.0267 47.5322 49.7617 46.8646 49.7617C45.4596 49.7617 44.3166 50.9009 44.3166 52.3011V59.6337C43.4418 59.7293 42.5582 59.7293 41.6834 59.6337V52.3011C41.6834 50.9009 40.5404 49.7617 39.1354 49.7617C38.4679 49.7617 37.8352 50.0267 37.354 50.5079L32.1704 55.6915C32.0167 55.5684 31.8668 55.441 31.7196 55.3108C31.3615 54.9823 31.0176 54.6385 30.6891 54.2802C30.5588 54.1332 30.4315 53.9832 30.3084 53.8295L35.492 48.6459C36.2311 47.9068 36.4417 46.8477 36.0418 45.8821C35.6418 44.9165 34.744 44.3166 33.6988 44.3166H26.3664C26.3186 43.8793 26.2945 43.4386 26.2945 43C26.2945 42.8991 26.2967 42.7984 26.299 42.6976L26.3002 42.6416C26.3097 42.3218 26.3316 42.0018 26.3664 41.6834H33.6991C34.7443 41.6834 35.642 41.0835 36.042 40.1179C36.4421 39.1523 36.2314 38.0932 35.4923 37.3541L31.5085 33.3704L31.5303 33.3525L31.5521 33.3347C31.5992 33.2968 31.6459 33.2583 31.6925 33.2196L31.7153 33.2007L31.7154 33.2006L31.7155 33.2005C31.7424 33.1782 31.7694 33.1559 31.7961 33.1333C31.8436 33.0929 31.8907 33.0517 31.9377 33.0105L31.9658 32.986C31.9887 32.966 32.0115 32.9461 32.0342 32.9257C32.0819 32.8829 32.1289 32.8393 32.1759 32.7956L32.1843 32.7878L32.2134 32.761L32.2137 32.7607C32.2314 32.7444 32.2492 32.7281 32.2667 32.7115C32.3371 32.6448 32.4066 32.5771 32.4754 32.5087L32.5086 32.4755C32.5771 32.4067 32.6448 32.3371 32.7115 32.2667C32.7278 32.2496 32.7437 32.2322 32.7597 32.2147L32.7879 32.1841L32.7882 32.1837C32.8343 32.1341 32.8804 32.0846 32.9255 32.0343C32.9439 32.0138 32.962 31.993 32.9801 31.9723L32.9805 31.9719L33.0105 31.9376C33.0517 31.8906 33.0929 31.8436 33.1333 31.7959C33.1622 31.7618 33.1907 31.7273 33.2193 31.6927C33.2581 31.6459 33.2966 31.5991 33.3347 31.5517L33.3503 31.5327C33.357 31.5247 33.3637 31.5166 33.3702 31.5084L37.354 35.4921ZM28.2353 35.1841C27.4473 36.6706 26.8898 38.2721 26.5807 39.9256H33.6989C34.1814 39.9256 34.3713 39.5579 34.4179 39.4452C34.4646 39.3325 34.5904 38.9383 34.2493 38.597L30.0223 34.3701C29.4508 34.6925 28.853 34.9652 28.2353 35.1841ZM68.6781 54.7519C67.4041 57.5247 65.6936 60.0565 63.6354 62.2601L60.9911 59.6332L59.7523 60.8804L62.3971 63.5078C60.0891 65.692 57.4139 67.4914 54.475 68.8035L53.0623 65.3404L51.4347 66.0044L52.8482 69.4695C50.0689 70.507 47.0837 71.1179 43.9724 71.2237L43.96 67.4832L42.2022 67.489L42.2146 71.2308C38.9293 71.1407 35.7828 70.4856 32.8676 69.3613L34.318 65.9123L32.6977 65.2309L31.2481 68.6781C28.4753 67.4041 25.9435 65.6936 23.7399 63.6354L26.3668 60.9911L25.1196 59.7523L22.4922 62.3971C20.308 60.0891 18.5086 57.4139 17.1965 54.475L20.6596 53.0623L19.9956 51.4347L16.5305 52.8482C15.493 50.0689 14.8821 47.0838 14.7763 43.9724L18.5168 43.96L18.511 42.2022L14.7695 42.2146C14.8574 38.9628 15.4906 35.8032 16.6589 32.7953C16.6654 32.8013 16.6719 32.807 16.6785 32.8128C16.6839 32.8175 16.6893 32.8222 16.6947 32.8271C16.7929 32.9172 16.8919 33.0063 16.9929 33.0927L16.9932 33.0929C17.0941 33.1792 17.1967 33.263 17.3003 33.3456C17.3263 33.3664 17.3526 33.387 17.3788 33.4076C17.4752 33.4831 17.5723 33.5571 17.6709 33.6293L17.6975 33.6493C17.8045 33.7272 17.913 33.8027 18.0224 33.8767C18.0405 33.889 18.0587 33.901 18.0769 33.9131C18.0851 33.9186 18.0934 33.9241 18.1016 33.9296C18.1977 33.9934 18.2946 34.0559 18.3925 34.1167L18.4153 34.1311L18.4416 34.1477C18.5539 34.2167 18.6674 34.2834 18.7819 34.3484C18.7978 34.3574 18.8137 34.3663 18.8297 34.3751L18.8588 34.3913C18.9569 34.446 19.0555 34.4992 19.1552 34.551L19.1844 34.5664C19.1965 34.5728 19.2085 34.5791 19.2207 34.5854C19.3377 34.6452 19.456 34.7031 19.575 34.7589C19.5906 34.7662 19.6063 34.7734 19.622 34.7805L19.6457 34.7913C19.7474 34.8381 19.8498 34.8834 19.953 34.9272L19.983 34.94C19.9988 34.9469 20.0147 34.9537 20.0307 34.9604C20.1523 35.011 20.2746 35.0597 20.3979 35.1061L20.4107 35.1109L20.4571 35.1277C20.5642 35.1673 20.672 35.2053 20.7804 35.2417L20.8386 35.2614L20.8681 35.2711C20.9935 35.3121 21.1196 35.3515 21.2465 35.3883L21.2564 35.3911L21.2876 35.3997C21.4023 35.4324 21.5178 35.4631 21.6337 35.4923L21.6351 35.4926C21.6664 35.5005 21.6977 35.5083 21.7289 35.5159C21.858 35.5472 21.9873 35.577 22.1175 35.6038L22.1242 35.6051C22.2517 35.6313 22.3799 35.6546 22.5085 35.6764C22.5419 35.682 22.5754 35.6875 22.6089 35.6929C22.7301 35.7123 22.8515 35.7303 22.9735 35.7457L22.9866 35.7477L22.9997 35.7496C22.9777 35.8102 22.9566 35.8711 22.9355 35.932L22.9101 36.0051L22.8922 36.0557C22.881 36.0874 22.8698 36.119 22.859 36.1507C22.8048 36.3098 22.7522 36.4693 22.702 36.6293L22.6948 36.6529L22.6895 36.6705C22.6439 36.8166 22.6 36.9631 22.5576 37.11C22.5471 37.1463 22.5371 37.1827 22.5271 37.219L22.527 37.2193L22.5119 37.2739C22.482 37.381 22.4525 37.4881 22.4242 37.5955C22.4078 37.6581 22.392 37.7208 22.3762 37.7836C22.3507 37.8844 22.3259 37.9853 22.3019 38.0864C22.2865 38.1514 22.2714 38.2164 22.2566 38.2814C22.2337 38.3828 22.2116 38.4843 22.1901 38.586L22.1809 38.6294C22.1705 38.6782 22.1602 38.727 22.1504 38.7759C22.1281 38.8864 22.1071 38.9972 22.0866 39.1082L22.0744 39.173C22.0683 39.2053 22.0621 39.2377 22.0564 39.2702C22.0273 39.4345 21.9999 39.599 21.9747 39.7641C21.9729 39.7758 21.9715 39.7875 21.9698 39.7993C21.9466 39.9534 21.925 40.1077 21.9052 40.2625C21.9005 40.2997 21.8961 40.3369 21.8918 40.3741L21.8852 40.4307C21.8718 40.542 21.8588 40.6533 21.8472 40.765C21.8415 40.8196 21.8364 40.8744 21.8312 40.9292L21.8312 40.9294L21.8284 40.9584C21.8185 41.0629 21.8092 41.1674 21.8008 41.2722C21.7955 41.3387 21.7905 41.4053 21.7858 41.4719C21.7784 41.5772 21.7718 41.6827 21.766 41.7883L21.7644 41.8156L21.7644 41.8157C21.7613 41.8709 21.7582 41.9261 21.7555 41.9814C21.7502 42.0961 21.7462 42.2112 21.7427 42.3262L21.7405 42.3917L21.7405 42.3919C21.7393 42.4247 21.7382 42.4575 21.7374 42.4904C21.7334 42.66 21.7311 42.8298 21.7311 43.0001C21.7311 54.7278 31.2722 64.2689 42.9999 64.2689C54.7275 64.2689 64.2688 54.7277 64.2688 43C64.2688 31.2723 54.7277 21.7312 43 21.7312C42.8297 21.7312 42.6598 21.7335 42.4902 21.7375C42.4573 21.7383 42.4244 21.7394 42.3916 21.7406L42.3261 21.7428C42.211 21.7463 42.096 21.7503 41.9813 21.7557C41.9259 21.7583 41.8706 21.7614 41.8154 21.7646L41.7882 21.7661C41.6826 21.772 41.5771 21.7785 41.4718 21.7859C41.4051 21.7906 41.3385 21.7956 41.272 21.801C41.1674 21.8093 41.0631 21.8187 40.9588 21.8286C40.894 21.8346 40.8292 21.8407 40.7645 21.8474C40.6531 21.859 40.542 21.8719 40.4309 21.8853L40.3632 21.8932C40.3296 21.8971 40.296 21.901 40.2624 21.9053C40.1077 21.9251 39.9532 21.9467 39.7991 21.9699L39.7816 21.9723L39.764 21.9748C39.5989 22 39.4343 22.0274 39.27 22.0565C39.2342 22.0628 39.1985 22.0696 39.1628 22.0764L39.1081 22.0867C38.9971 22.1072 38.8862 22.1282 38.7757 22.1505C38.7269 22.1603 38.6783 22.1706 38.6296 22.1809L38.6296 22.1809L38.5859 22.1902C38.4842 22.2116 38.3827 22.2337 38.2813 22.2568C38.2162 22.2715 38.1512 22.2866 38.0862 22.302C37.9853 22.3259 37.8845 22.3507 37.784 22.3762L37.7589 22.3825C37.7042 22.3963 37.6496 22.4101 37.5951 22.4245C37.4879 22.4526 37.3809 22.4821 37.274 22.512L37.2127 22.529L37.2127 22.529C37.1783 22.5384 37.144 22.5479 37.1098 22.5578C36.9638 22.5999 36.8182 22.6436 36.673 22.6889L36.651 22.6956L36.6289 22.7023C36.4689 22.7526 36.3095 22.8051 36.1506 22.8592C36.1232 22.8686 36.0958 22.8783 36.0683 22.888L36.005 22.9103L35.9324 22.9355C35.8714 22.9567 35.8104 22.9779 35.7495 23C35.7489 22.9951 35.7481 22.9903 35.7474 22.9854C35.7469 22.9825 35.7465 22.9796 35.746 22.9767L35.7456 22.9737C35.73 22.8517 35.7122 22.7303 35.6928 22.6091C35.6874 22.5756 35.6819 22.5422 35.6763 22.5087C35.6545 22.3802 35.6311 22.2518 35.605 22.1245L35.6037 22.1178C35.5769 21.9876 35.5471 21.8581 35.5158 21.7292C35.5088 21.7002 35.5015 21.6714 35.4943 21.6425L35.4942 21.6422L35.4921 21.6339C35.463 21.518 35.4324 21.4027 35.3996 21.2879C35.3957 21.2741 35.3922 21.2603 35.3882 21.2467C35.3515 21.1198 35.3121 20.9938 35.271 20.8684C35.2641 20.8475 35.2571 20.8266 35.25 20.8057L35.2416 20.7807C35.2052 20.6724 35.1673 20.5647 35.1277 20.4576L35.1173 20.429L35.106 20.3982C35.0596 20.2749 35.0109 20.1525 34.9602 20.031L34.9409 19.9855L34.9271 19.9531C34.8832 19.8501 34.838 19.7478 34.7911 19.6461L34.7768 19.6146C34.7708 19.6014 34.7648 19.5883 34.7587 19.5752C34.7029 19.4561 34.6451 19.3381 34.5852 19.221C34.5784 19.2077 34.5715 19.1946 34.5645 19.1814L34.5507 19.155C34.4991 19.0558 34.4459 18.9572 34.3914 18.8594L34.3793 18.8377L34.3482 18.7818C34.2832 18.6674 34.2166 18.5541 34.1477 18.442L34.1309 18.4153L34.1162 18.392C34.0557 18.2945 33.9933 18.198 33.9297 18.1022C33.912 18.0755 33.8943 18.0488 33.8764 18.0223C33.8024 17.9131 33.7272 17.8048 33.6494 17.698L33.6372 17.6817L33.6282 17.6697C33.5564 17.572 33.4829 17.4754 33.408 17.3798C33.3871 17.353 33.366 17.3264 33.3449 17.2998C33.2631 17.1972 33.18 17.0955 33.0945 16.9955L33.0921 16.9927C33.006 16.8921 32.9174 16.7935 32.8275 16.6956C32.8248 16.6926 32.8221 16.6896 32.8194 16.6866C32.8167 16.6835 32.814 16.6804 32.8113 16.6773C32.8059 16.6712 32.8006 16.6651 32.7951 16.6591C35.7452 15.5131 38.8415 14.8829 42.0273 14.7761L42.0398 18.5171L43.7976 18.5112L43.7852 14.7694C47.0705 14.8595 50.217 15.5146 53.1321 16.6389L51.6817 20.088L53.3021 20.7693L54.7517 17.3221C57.5245 18.5962 60.0563 20.3066 62.2599 22.3648L59.633 25.0091L60.8801 26.2479L63.5078 23.6029C65.692 25.9109 67.4914 28.5861 68.8035 31.525L65.3404 32.9377L66.0044 34.5653L69.4695 33.1518C70.507 35.9311 71.1179 38.9163 71.2237 42.0276L67.4832 42.04L67.489 43.7978L71.2308 43.7854C71.1407 47.0707 70.4856 50.2172 69.3613 53.1324L65.9123 51.682L65.2309 53.3023L68.6781 54.7519ZM24.2853 33.2819L24.3167 33.2823C24.3509 33.2829 24.385 33.2834 24.4193 33.2834C25.3382 33.2834 26.2451 33.1428 27.1149 32.8654C27.8659 32.6259 28.5827 32.286 29.2454 31.8551C30.28 31.1823 31.1826 30.2799 31.8552 29.2452C32.2861 28.5827 32.626 27.8658 32.8655 27.1148C33.1429 26.245 33.2835 25.3381 33.2835 24.4192C33.2835 24.3849 33.283 24.3508 33.2825 24.3166L33.282 24.2843C33.2437 21.7213 32.0969 19.3013 30.1356 17.645C28.54 16.2973 26.51 15.555 24.4193 15.555C19.5317 15.555 15.5552 19.5316 15.5552 24.4192C15.5552 26.5098 16.2973 28.5399 17.645 30.1355C19.3013 32.0968 21.7213 33.2436 24.2853 33.2819ZM17.3692 23.5404C17.5307 22.2381 18.0453 21.0445 18.8148 20.0579L19.6262 20.8693L20.8691 19.6261L20.0577 18.8147C21.0443 18.0452 22.238 17.5306 23.5403 17.3691V18.5196H25.2981V17.3685C26.5652 17.5268 27.7721 18.0242 28.7835 18.8119L27.9694 19.626L29.2123 20.8689L30.0258 20.0554C30.8104 21.0633 31.3122 22.2664 31.4706 23.5403H30.3188V25.2981H31.4709C31.4171 25.7336 31.324 26.1626 31.1907 26.5806C30.9989 27.1819 30.7266 27.756 30.3815 28.287C29.8416 29.1173 29.1173 29.8416 28.287 30.3815C27.7561 30.7266 27.182 30.9989 26.5806 31.1907C25.8604 31.4204 25.1044 31.5377 24.3454 31.5248L24.3107 31.5243C22.2562 31.4936 20.3161 30.574 18.9878 29.0014C18.0979 27.9477 17.5384 26.6573 17.3686 25.2982H18.5198V23.5404H17.3692ZM24.4192 27.006C25.3748 27.006 26.1521 26.2287 26.1521 25.2732C26.1521 24.6387 25.8082 24.0843 25.2981 23.7824V19.7871H23.5403V23.7824C23.0302 24.0843 22.6864 24.6387 22.6864 25.2732C22.6864 26.2286 23.4637 27.006 24.4192 27.006ZM24.4192 25.2482C24.433 25.2482 24.4442 25.2595 24.4442 25.2732C24.4443 25.3006 24.3943 25.3007 24.3943 25.2732C24.3943 25.2593 24.4055 25.2482 24.4192 25.2482ZM48.8413 43C48.8413 46.2209 46.2209 48.8413 43 48.8413C39.7791 48.8413 37.1587 46.2209 37.1587 43C37.1587 39.7791 39.7791 37.1587 43 37.1587C46.2209 37.1587 48.8413 39.7791 48.8413 43ZM47.0835 43C47.0835 40.7484 45.2516 38.9165 43 38.9165C40.7484 38.9165 38.9165 40.7484 38.9165 43C38.9165 45.2516 40.7484 47.0835 43 47.0835C45.2516 47.0835 47.0835 45.2516 47.0835 43Z" fill="white"></path>
</svg>
