<?xml version="1.0" encoding="UTF-8"?>
<svg xmlns="http://www.w3.org/2000/svg" width="129" height="86" viewBox="0 0 129 86" fill="none">
  <path fill-rule="evenodd" clip-rule="evenodd" d="M83 86H101.408L129 43L101.408 0H83L110.592 43L83 86Z" fill="#F8F8F8"></path>
  <path fill-rule="evenodd" clip-rule="evenodd" d="M0 0V86H74.4046L102 43L74.4046 0H0Z" fill="#E41019"></path>
  <path d="M58.5953 32.415V36.6167H62.5797V32.415H64.3375V36.6167H69.9823V68.8718L67.2396 71.6145H53.9346L51.1919 68.8718V36.6167H56.8375V32.415H58.5953ZM68.2246 38.3745H52.9498V68.1437L54.6629 69.8567H66.5117L68.2246 68.1437V38.3745ZM66.1068 65.816V67.5738H64.349V65.816H66.1068ZM56.849 65.816V67.5738H55.0912V65.816H56.849ZM17.4039 32.4148V36.6166H21.3883V32.4148H23.146V36.6167H28.7909V60.6685L26.0482 63.4113H12.7432L10.0005 60.6685V36.6166H15.6461V32.4148H17.4039ZM37.9902 32.4148V36.6172H41.9746V32.4148H43.7324V36.6172H49.3773V48.3489H47.6195V38.375H32.3453V59.9403L34.0581 61.6531H45.9066L47.6195 59.9403V50.1068H49.3773V60.6684L46.6347 63.4109H33.33L30.5875 60.6684V36.6172H36.2324V32.4148H37.9902ZM27.0332 38.3745H11.7583V59.9405L13.4713 61.6536H25.3203L27.0332 59.9405V38.3745ZM66.0364 59.682V61.4398H55.1379V59.682H66.0364ZM45.5021 57.8472V59.605H43.7443V57.8472H45.5021ZM36.2443 57.8472V59.605H34.4864V57.8472H36.2443ZM15.6576 57.8472V59.605H13.8998V57.8472H15.6576ZM24.9154 57.8472V59.605H23.1576V57.8472H24.9154ZM66.0364 55.932V57.6898H55.1379V55.932H66.0364ZM24.845 52.182V53.9398H13.9465V52.182H24.845ZM45.4316 52.182V53.9398H34.5332V52.182H45.4316ZM66.0364 52.182V53.9398H55.1379V52.182H66.0364ZM24.845 48.432V50.1898H13.9465V48.432H24.845ZM45.4316 48.432V50.1898H34.5332V48.432H45.4316ZM66.0364 48.432V50.1898H55.1379V48.432H66.0364ZM24.845 44.682V46.4398H13.9465V44.682H24.845ZM45.4316 44.682V46.4398H34.5332V44.682H45.4316ZM66.0364 44.682V46.4398H55.1379V44.682H66.0364ZM66.1068 39.9175V41.6754H64.349V39.9175H66.1068ZM45.5021 39.9175V41.6754H43.7443V39.9175H45.5021ZM15.6576 39.9175V41.6754H13.8998V39.9175H15.6576ZM24.9154 39.9175V41.6754H23.1576V39.9175H24.9154ZM36.2443 39.9175V41.6754H34.4864V39.9175H36.2443ZM56.849 39.9175V41.6754H55.0912V39.9175H56.849ZM24.6508 14V15.7578H11.7578V26.3074L13.4717 28.0203H66.4531L68.166 26.3075V15.7578H26.4086V14H69.9238V27.0356L67.1812 29.7781H12.7438L10 27.0358V14H24.6508ZM46.0762 22.1899V23.9477H44.3184V22.1899H46.0762ZM40.8027 22.1899V23.9477H39.0449V22.1899H40.8027ZM35.5293 22.1899V23.9477H33.7715V22.1899H35.5293Z" fill="white"></path>
</svg>
