<?xml version="1.0" encoding="UTF-8"?>
<svg xmlns="http://www.w3.org/2000/svg" width="129" height="86" viewBox="0 0 129 86" fill="none">
  <path fill-rule="evenodd" clip-rule="evenodd" d="M83 86H101.408L129 43L101.408 0H83L110.592 43L83 86Z" fill="#F8F8F8"></path>
  <path fill-rule="evenodd" clip-rule="evenodd" d="M0 0V86H74.4046L102 43L74.4046 0H0Z" fill="#E41019"></path>
  <path fill-rule="evenodd" clip-rule="evenodd" d="M48.6325 14V27.092H50.3937V15.7613H59.9045V19.5773C59.9045 21.0988 61.1423 22.3366 62.6638 22.3366C63.0157 22.3366 63.3521 22.2697 63.6618 22.1491V23.3346C63.6618 24.8561 64.8996 26.0939 66.4211 26.0939C66.773 26.0939 67.1094 26.027 67.4191 25.9064V29.0294H65.4231V27.092H63.6618V29.0294H61.6657V23.3346H59.9045V29.0294H57.9084V25.2133H56.1471V29.0294H54.151V20.5166H52.3898V29.0294H48.6325V38.3053H56.0439L54.6888 50.501C54.5557 51.6991 54.9404 52.9015 55.7443 53.7997C56.5483 54.6981 57.7008 55.2133 58.9064 55.2133C60.1121 55.2133 61.2645 54.6981 62.0686 53.7997C62.8725 52.9015 63.2572 51.6991 63.124 50.501L61.7689 38.3053H69.1804V14H48.6325ZM61.3736 50.6956C61.4526 51.4068 61.2334 52.092 60.7561 52.6252C60.2788 53.1584 59.6221 53.4521 58.9064 53.4521C58.1908 53.4521 57.5341 53.1584 57.0568 52.6252C56.5795 52.092 56.3602 51.4068 56.4393 50.6956L57.816 38.3053H59.9969L61.3736 50.6956ZM50.3937 36.544H67.4191V30.7906H50.3937V36.544ZM66.4211 24.3327C65.8708 24.3327 65.4231 23.885 65.4231 23.3346V17.6986H63.6618V19.5773C63.6618 20.1276 63.2141 20.5753 62.6638 20.5753C62.1134 20.5753 61.6657 20.1276 61.6657 19.5773V15.7613H67.4191V23.3346C67.4191 23.885 66.9714 24.3327 66.4211 24.3327ZM59.8458 48.7554H57.9671V50.5166H59.8458V48.7554ZM57.9671 32.7867H59.8458V34.5479H57.9671V32.7867ZM63.6031 34.5479V32.7867H61.7244V34.5479H63.6031ZM54.2098 32.7867H56.0884V34.5479H54.2098V32.7867ZM38.6058 25.272L44.7577 31.424V38.4227H46.6364V43.9413H44.7577V55.272H42.9964V43.9413H41.0004V50.5753C41.0004 51.9737 39.9546 53.1315 38.6044 53.31C38.9386 54.2147 39.1217 55.1919 39.1217 56.2113C39.1217 60.8405 35.3555 64.6067 30.7264 64.6067C26.0972 64.6067 22.3311 60.8405 22.3311 56.2113C22.3311 51.5822 26.0972 47.816 30.7264 47.816C31.1415 47.816 31.5492 47.8475 31.9483 47.906C31.8045 47.5719 31.7244 47.2042 31.7244 46.818V43.9413H18.4563V68.4814H42.9964V57.1507H44.7577V74H16.6951V43.9413H14.8164V38.4227H16.6951V31.424L22.847 25.272H24.2098V23.3933H37.243V25.272H38.6058ZM42.9964 72.2387V70.2427H18.4563V72.2387H42.9964ZM25.971 25.1546H35.4818V27.1507H25.971V25.1546ZM23.5764 27.0333L18.4563 32.1533V38.4227H42.9964V32.1533L37.8764 27.0333H37.243V28.9119H24.2098V27.0333H23.5764ZM16.5777 42.18V40.184H31.7244V42.18H16.5777ZM31.607 55.7029L36.8601 58.7358C37.1818 57.9571 37.3604 57.1049 37.3604 56.2113C37.3604 52.8521 34.8499 50.0699 31.607 49.6375V55.7029ZM29.8458 49.6375V55.7029L24.5926 58.7358C24.2709 57.9571 24.0923 57.1049 24.0923 56.2113C24.0923 52.8521 26.6028 50.0699 29.8458 49.6375ZM29.8458 57.7366L25.476 60.2595C26.5204 61.6109 28.0732 62.5489 29.8458 62.7852V57.7366ZM31.607 62.7852V57.7366L35.9768 60.2595C34.9324 61.6109 33.3795 62.5489 31.607 62.7852ZM37.243 50.5753C37.243 51.1257 37.6907 51.5734 38.2411 51.5734C38.7914 51.5734 39.2391 51.1257 39.2391 50.5753V40.184H33.4857V46.818C33.4857 47.3683 33.9334 47.816 34.4837 47.816C35.0341 47.816 35.4818 47.3683 35.4818 46.818V43.0607H37.243V50.5753ZM44.8751 42.18H41.0004V40.184H44.8751V42.18Z" fill="white"></path>
</svg>
