<?xml version="1.0" encoding="UTF-8"?>
<svg xmlns="http://www.w3.org/2000/svg" width="25" height="24" viewBox="0 0 25 24" fill="none">
  <path fill-rule="evenodd" clip-rule="evenodd" d="M7.33467 0.0753867C9.54467 -0.0226134 15.0137 -0.0276133 17.2217 0.0753867C21.7387 0.283387 23.9997 2.83839 24.1977 7.05139C24.2957 9.26139 24.3017 14.7294 24.1977 16.9384C24.0337 20.5074 22.3557 22.4944 20.1327 23.3574C18.5054 23.9874 16.9167 23.9874 12.3428 23.9874H12.3428H12.2777C11.7955 23.9874 11.3288 23.9909 10.877 23.9942H10.8769H10.8768C7.10512 24.0222 4.36776 24.0426 2.29867 21.9744C0.244235 19.92 0.259084 17.2406 0.280936 13.2976C0.283261 12.8781 0.285665 12.4443 0.285665 11.9954C0.285665 11.5158 0.282403 11.0522 0.279249 10.604C0.252406 6.78921 0.233355 4.0817 2.29867 2.01639C3.67967 0.635387 5.39267 0.166387 7.33467 0.0753867ZM13.3497 21.827C17.4329 21.8364 19.3233 21.8408 20.7167 20.4474C22.117 19.0404 22.1153 17.1696 22.1111 12.8289V12.8276C22.1109 12.5594 22.1106 12.2818 22.1107 11.9944C22.1107 8.79239 22.0977 8.41239 22.0407 7.14739C21.8112 2.07843 18.2963 2.11056 13.6225 2.15329C13.1845 2.15729 12.7363 2.16139 12.2797 2.16139L12.2347 2.13139C9.07633 2.13139 8.6647 2.14594 7.43606 2.18936L7.37867 2.19139C2.31761 2.4506 2.34825 5.78799 2.39215 10.5695L2.39215 10.5696C2.39635 11.0268 2.40067 11.4972 2.40067 11.9794C2.40067 12.548 2.39475 13.0896 2.38912 13.6053V13.6053V13.6054C2.35431 16.7928 2.33033 18.9889 3.78067 20.4324C5.17476 21.8303 7.061 21.8289 11.5618 21.8257H11.5619C11.7843 21.8256 12.0132 21.8254 12.2487 21.8254C12.6325 21.8254 12.9992 21.8262 13.3497 21.827ZM6.11967 11.9954C6.11967 8.59539 8.87467 5.83739 12.2777 5.83739C15.6777 5.83739 18.4357 8.59239 18.4357 11.9954C18.4357 15.3954 15.6807 18.1534 12.2777 18.1534C8.87767 18.1534 6.11967 15.3984 6.11967 11.9954ZM8.28067 11.9954C8.28067 14.2034 10.0687 15.9924 12.2777 15.9924C14.4867 15.9924 16.2757 14.2034 16.2747 11.9954C16.2747 9.78739 14.4857 7.99839 12.2777 7.99839C10.0697 7.99839 8.28067 9.78739 8.28067 11.9954ZM18.6797 7.03339C19.4744 7.03339 20.1187 6.38913 20.1187 5.59439C20.1187 4.79965 19.4744 4.15539 18.6797 4.15539C17.8849 4.15539 17.2407 4.79965 17.2407 5.59439C17.2407 6.38913 17.8849 7.03339 18.6797 7.03339Z" fill="white"></path>
</svg>
