<?xml version="1.0" encoding="UTF-8"?>
<svg xmlns="http://www.w3.org/2000/svg" width="24" height="25" viewBox="0 0 24 25" fill="none">
  <path fill-rule="evenodd" clip-rule="evenodd" d="M7.06123 0.257027C9.27123 0.159027 14.7402 0.154027 16.9482 0.257027C21.4652 0.465027 23.7262 3.02003 23.9242 7.23303C24.0222 9.44303 24.0282 14.911 23.9242 17.12C23.7602 20.689 22.0822 22.676 19.8592 23.539C18.2319 24.1691 16.6433 24.169 12.0694 24.169H12.0694H12.0042C11.5221 24.169 11.0554 24.1725 10.6036 24.1759H10.6035H10.6034C6.83169 24.2039 4.09432 24.2242 2.02523 22.156C-0.029203 20.1016 -0.0143539 17.4222 0.00749832 13.4792C0.00982316 13.0597 0.0122273 12.6259 0.0122273 12.177C0.0122273 11.6974 0.00896549 11.2339 0.00581129 10.7856C-0.0210312 6.97085 -0.0400825 4.26334 2.02523 2.19803C3.40623 0.817027 5.11923 0.348027 7.06123 0.257027ZM13.0762 22.0087C17.1594 22.0181 19.0498 22.0224 20.4432 20.629C21.8436 19.2221 21.8418 17.3513 21.8377 13.0105V13.0092C21.8374 12.7411 21.8372 12.4635 21.8372 12.176C21.8372 8.97403 21.8242 8.59403 21.7672 7.32903C21.5377 2.26007 18.0229 2.2922 13.3491 2.33493C12.911 2.33893 12.4629 2.34303 12.0062 2.34303L11.9612 2.31303C8.8029 2.31303 8.39126 2.32758 7.16262 2.371L7.10523 2.37303C2.04417 2.63224 2.07481 5.96963 2.11871 10.7512L2.11871 10.7512C2.12291 11.2084 2.12723 11.6788 2.12723 12.161C2.12723 12.7296 2.12131 13.2713 2.11568 13.787V13.787V13.787C2.08087 16.9744 2.05689 19.1706 3.50723 20.614C4.90132 22.0119 6.78756 22.0106 11.2884 22.0074H11.2884C11.5109 22.0072 11.7397 22.007 11.9752 22.007C12.3591 22.007 12.7258 22.0079 13.0762 22.0087ZM5.84623 12.177C5.84623 8.77703 8.60123 6.01903 12.0042 6.01903C15.4042 6.01903 18.1622 8.77403 18.1622 12.177C18.1622 15.577 15.4072 18.335 12.0042 18.335C8.60423 18.335 5.84623 15.58 5.84623 12.177ZM8.00723 12.177C8.00723 14.385 9.79523 16.174 12.0042 16.174C14.2132 16.174 16.0022 14.385 16.0012 12.177C16.0012 9.96903 14.2122 8.18003 12.0042 8.18003C9.79623 8.18003 8.00723 9.96903 8.00723 12.177ZM18.4062 7.21503C19.201 7.21503 19.8452 6.57077 19.8452 5.77603C19.8452 4.98129 19.201 4.33703 18.4062 4.33703C17.6115 4.33703 16.9672 4.98129 16.9672 5.77603C16.9672 6.57077 17.6115 7.21503 18.4062 7.21503Z" fill="white"></path>
</svg>
