<?xml version="1.0" encoding="UTF-8"?>
<svg xmlns="http://www.w3.org/2000/svg" width="19" height="18" viewBox="0 0 19 18" fill="none">
  <path fill-rule="evenodd" clip-rule="evenodd" d="M4.36369 2.18184C4.36369 3.38684 3.38684 4.36369 2.18184 4.36369C0.976845 4.36369 0 3.38684 0 2.18184C0 0.976845 0.976845 0 2.18184 0C3.38684 0 4.36369 0.976845 4.36369 2.18184ZM0 5.45456H4.36359V17.4546H0V5.45456ZM10.9091 7.39641C10.9091 7.39641 11.3018 5.45456 14.5746 5.45456C17.0618 5.45456 18.5454 7.49456 18.5454 10.9091V17.4546H14.1818V10.9091C14.1818 9.69816 13.8546 8.72728 12.7637 8.72728C10.9091 8.72728 10.9091 10.9091 10.9091 10.9091V17.4546H6.54553V5.45456H10.9091V7.39641Z" fill="#292B2E"></path>
</svg>
