<?xml version="1.0" encoding="UTF-8"?>
<svg xmlns="http://www.w3.org/2000/svg" width="19" height="18" viewBox="0 0 19 18" fill="none">
  <path fill-rule="evenodd" clip-rule="evenodd" d="M4.63713 2.18184C4.63713 3.38684 3.66028 4.36369 2.45528 4.36369C1.25028 4.36369 0.273438 3.38684 0.273438 2.18184C0.273438 0.976845 1.25028 0 2.45528 0C3.66028 0 4.63713 0.976845 4.63713 2.18184ZM0.273438 5.45456H4.63703V17.4546H0.273438V5.45456ZM11.1826 7.39641C11.1826 7.39641 11.5753 5.45456 14.848 5.45456C17.3353 5.45456 18.8189 7.49456 18.8189 10.9091V17.4546H14.4553V10.9091C14.4553 9.69816 14.128 8.72728 13.0371 8.72728C11.1826 8.72728 11.1826 10.9091 11.1826 10.9091V17.4546H6.81897V5.45456H11.1826V7.39641Z" fill="white"></path>
</svg>
