<?xml version="1.0" encoding="UTF-8"?>
<svg xmlns="http://www.w3.org/2000/svg" width="19" height="18" viewBox="0 0 19 18" fill="none">
  <path fill-rule="evenodd" clip-rule="evenodd" d="M4.63713 2.63643C4.63713 3.84143 3.66028 4.81828 2.45528 4.81828C1.25028 4.81828 0.273438 3.84143 0.273438 2.63643C0.273438 1.43143 1.25028 0.45459 2.45528 0.45459C3.66028 0.45459 4.63713 1.43143 4.63713 2.63643ZM0.273438 5.90915H4.63703V17.9092H0.273438V5.90915ZM11.1826 7.851C11.1826 7.851 11.5753 5.90915 14.848 5.90915C17.3353 5.90915 18.8189 7.94915 18.8189 11.3637V17.9092H14.4553V11.3637C14.4553 10.1527 14.128 9.18187 13.0371 9.18187C11.1826 9.18187 11.1826 11.3637 11.1826 11.3637V17.9092H6.81897V5.90915H11.1826V7.851Z" fill="white"></path>
</svg>
