<?xml version="1.0" encoding="UTF-8"?>
<svg xmlns="http://www.w3.org/2000/svg" width="240" height="266" viewBox="0 0 240 266" fill="none">
  <path fill-rule="evenodd" clip-rule="evenodd" d="M0 0L240 0L240 168.585L120 245.376L0 168.585L0 0ZM0 189.214V173.612L120 250.362L240 173.612V189.214L120 265.965L0 189.214Z" fill="#2D3034"></path>
  <rect x="86.707" y="89.6416" width="4.42293" height="1.47431" fill="#F4BC20"></rect>
  <rect x="98.1016" y="89.6416" width="4.42293" height="1.47431" fill="#F4BC20"></rect>
  <path fill-rule="evenodd" clip-rule="evenodd" d="M103.992 75.7637V71.3407H105.198V75.7637H103.992Z" fill="#F4BC20"></path>
  <path fill-rule="evenodd" clip-rule="evenodd" d="M84.0234 75.7637V71.3407H85.2297V75.7637H84.0234Z" fill="#F4BC20"></path>
  <rect x="86.707" y="116.701" width="4.42293" height="1.47431" fill="#F4BC20"></rect>
  <rect x="98.1016" y="116.701" width="4.42293" height="1.47431" fill="#F4BC20"></rect>
  <path fill-rule="evenodd" clip-rule="evenodd" d="M103.992 102.823V98.3998H105.198V102.823H103.992Z" fill="#F4BC20"></path>
  <path fill-rule="evenodd" clip-rule="evenodd" d="M84.0234 102.823V98.3998H85.2297V102.823H84.0234Z" fill="#F4BC20"></path>
  <rect x="112" y="116.701" width="4.42293" height="1.47431" fill="#F4BC20"></rect>
  <rect x="123.395" y="116.701" width="4.42293" height="1.47431" fill="#F4BC20"></rect>
  <path fill-rule="evenodd" clip-rule="evenodd" d="M129.285 102.823V98.3998H130.491V102.823H129.285Z" fill="#F4BC20"></path>
  <path fill-rule="evenodd" clip-rule="evenodd" d="M109.316 102.823V98.3998H110.523V102.823H109.316Z" fill="#F4BC20"></path>
  <rect x="137.297" y="116.701" width="4.42293" height="1.47431" fill="#F4BC20"></rect>
  <rect x="148.691" y="116.701" width="4.42293" height="1.47431" fill="#F4BC20"></rect>
  <path fill-rule="evenodd" clip-rule="evenodd" d="M154.582 102.823V98.3998H155.788V102.823H154.582Z" fill="#F4BC20"></path>
  <path fill-rule="evenodd" clip-rule="evenodd" d="M134.613 102.823V98.3998H135.82V102.823H134.613Z" fill="#F4BC20"></path>
  <rect x="86.707" y="62.583" width="4.42293" height="1.47431" fill="#F4BC20"></rect>
  <rect x="98.1016" y="62.583" width="4.42293" height="1.47431" fill="#F4BC20"></rect>
  <path fill-rule="evenodd" clip-rule="evenodd" d="M103.992 48.7051V44.2821H105.198V48.7051H103.992Z" fill="#F4BC20"></path>
  <path fill-rule="evenodd" clip-rule="evenodd" d="M84.0234 48.7051V44.2821H85.2297V48.7051H84.0234Z" fill="#F4BC20"></path>
  <rect x="112" y="62.583" width="4.42293" height="1.47431" fill="#F4BC20"></rect>
  <rect x="123.395" y="62.583" width="4.42293" height="1.47431" fill="#F4BC20"></rect>
  <path fill-rule="evenodd" clip-rule="evenodd" d="M129.285 48.7051V44.2821H130.491V48.7051H129.285Z" fill="#F4BC20"></path>
  <path fill-rule="evenodd" clip-rule="evenodd" d="M109.316 48.7051V44.2821H110.523V48.7051H109.316Z" fill="#F4BC20"></path>
  <rect x="137.297" y="62.583" width="4.42293" height="1.47431" fill="#F4BC20"></rect>
  <rect x="148.691" y="62.583" width="4.42293" height="1.47431" fill="#F4BC20"></rect>
  <path fill-rule="evenodd" clip-rule="evenodd" d="M154.582 48.7051V44.2821H155.788V48.7051H154.582Z" fill="#F4BC20"></path>
  <path fill-rule="evenodd" clip-rule="evenodd" d="M134.613 48.7051V44.2821H135.82V48.7051H134.613Z" fill="#F4BC20"></path>
  <rect x="137.297" y="89.6416" width="4.42293" height="1.47431" fill="#F4BC20"></rect>
  <rect x="148.691" y="89.6416" width="4.42293" height="1.47431" fill="#F4BC20"></rect>
  <path fill-rule="evenodd" clip-rule="evenodd" d="M154.582 75.7637V71.3407H155.788V75.7637H154.582Z" fill="#F4BC20"></path>
  <path fill-rule="evenodd" clip-rule="evenodd" d="M134.613 75.7637V71.3407H135.82V75.7637H134.613Z" fill="#F4BC20"></path>
  <rect x="110.246" y="91.7217" width="5.40581" height="1.80194" fill="#E41019"></rect>
  <rect x="124.168" y="91.7217" width="5.40581" height="1.80194" fill="#E41019"></rect>
  <path fill-rule="evenodd" clip-rule="evenodd" d="M131.371 74.7603V69.3544H132.845V74.7603H131.371Z" fill="#E41019"></path>
  <path fill-rule="evenodd" clip-rule="evenodd" d="M106.965 74.7603L106.965 69.3544H108.439V74.7603H106.965Z" fill="#E41019"></path>
  <path fill-rule="evenodd" clip-rule="evenodd" d="M115.198 80.8359V83.7448L119.903 86.7327L124.609 83.7448V80.8359L119.903 83.8239L115.198 80.8359Z" fill="#F4BC20"></path>
  <path fill-rule="evenodd" clip-rule="evenodd" d="M115.198 84.5078V85.471L119.903 88.439L124.609 85.471V84.5078L119.903 87.4759L115.198 84.5078Z" fill="#F4BC20"></path>
  <path fill-rule="evenodd" clip-rule="evenodd" d="M63.4164 179.956H68.3643C68.9054 179.956 69.3563 179.935 69.7237 179.883C70.0846 179.83 70.3999 179.752 70.6578 179.643C70.9156 179.538 71.1472 179.392 71.3536 179.199C71.5599 179.011 71.7597 178.766 71.9465 178.458C72.1394 178.155 72.3135 177.769 72.4874 177.305C72.6548 176.84 72.8675 176.146 73.119 175.217H75.0259L74.6454 181.365H57.6758V180.613C58.462 180.451 58.9841 180.274 59.248 180.07C59.5117 179.872 59.6858 179.59 59.7632 179.225C59.8469 178.86 59.8855 178.296 59.8855 177.545V164.316C59.8855 163.616 59.8532 163.1 59.7955 162.782C59.7309 162.458 59.628 162.213 59.48 162.03C59.3379 161.853 59.1449 161.712 58.9066 161.602C58.668 161.498 58.2558 161.377 57.6758 161.247V160.496H65.6261V161.247C65.0721 161.367 64.6789 161.477 64.4471 161.576C64.2151 161.67 64.0218 161.8 63.8673 161.962C63.719 162.124 63.6032 162.374 63.532 162.714C63.4549 163.047 63.4164 163.585 63.4164 164.316V179.956ZM96.0736 160.496V165.114H94.225C94.0315 164.613 93.8385 164.175 93.6387 163.799C93.4386 163.418 93.226 163.105 93.0137 162.849C92.8011 162.594 92.5628 162.39 92.305 162.239C92.0472 162.087 91.7448 161.983 91.3903 161.926C91.0423 161.868 90.6168 161.842 90.1272 161.842H84.1614V169.853H88.201C88.7548 169.853 89.1869 169.79 89.5024 169.659C89.8181 169.534 90.0822 169.315 90.2884 169.012C90.4944 168.705 90.6943 168.224 90.8811 167.572H92.6595V173.443H90.8811C90.7074 172.832 90.5073 172.373 90.2947 172.06C90.0822 171.752 89.831 171.528 89.5347 171.397C89.2379 171.261 88.7937 171.199 88.201 171.199H84.1614V180.018H90.0308C90.6491 180.018 91.1517 179.977 91.5317 179.888C91.9181 179.804 92.2467 179.653 92.5239 179.444C92.8011 179.236 93.046 178.964 93.2583 178.63C93.4709 178.291 93.6515 177.941 93.7995 177.581C93.9414 177.221 94.1411 176.689 94.3925 176H96.2604L95.9001 181.365H78.4212V180.613C79.207 180.451 79.7291 180.274 79.9932 180.07C80.2569 179.872 80.431 179.59 80.5083 179.225C80.5924 178.86 80.6307 178.296 80.6307 177.545V164.316C80.6307 163.616 80.5985 163.1 80.5408 162.782C80.476 162.458 80.3733 162.213 80.2252 162.03C80.0834 161.853 79.8899 161.712 79.6517 161.602C79.4134 161.498 79.001 161.377 78.4212 161.247V160.496H96.0736V160.496ZM118.72 181.286L117.251 181.61L115.872 180.415C115.054 180.822 114.197 181.125 113.301 181.318C112.412 181.511 111.388 181.61 110.228 181.61C107.046 181.61 104.649 180.723 103.038 178.959C101.428 177.19 100.622 174.56 100.622 171.074C100.622 168.903 101.06 166.998 101.943 165.359C102.819 163.715 104.088 162.453 105.738 161.576C107.381 160.694 109.32 160.25 111.549 160.25C112.722 160.25 113.842 160.303 114.925 160.412C116.007 160.517 117.212 160.704 118.533 160.971V165.171H116.664C116.323 164.258 115.924 163.538 115.453 163.027C114.989 162.51 114.435 162.145 113.785 161.926C113.134 161.706 112.316 161.597 111.324 161.597C109.951 161.597 108.746 161.952 107.716 162.667C106.685 163.382 105.886 164.43 105.313 165.824C104.739 167.217 104.449 168.892 104.449 170.86C104.449 172.858 104.694 174.565 105.177 175.984C105.66 177.399 106.382 178.468 107.342 179.188C108.295 179.903 109.475 180.264 110.872 180.264C112.354 180.264 113.456 180.002 114.171 179.475C114.893 178.954 115.247 178.145 115.247 177.054V176.136C115.247 175.217 115.189 174.554 115.067 174.148C114.951 173.74 114.738 173.427 114.435 173.203C114.133 172.979 113.637 172.791 112.947 172.65V171.898H120.569V172.65C120.118 172.77 119.776 172.911 119.551 173.072C119.325 173.229 119.151 173.422 119.035 173.657C118.913 173.892 118.829 174.184 118.784 174.523C118.745 174.862 118.72 175.353 118.72 175.984V181.286V181.286ZM130.026 177.545C130.026 178.223 130.052 178.724 130.11 179.042C130.168 179.356 130.265 179.606 130.394 179.789C130.529 179.971 130.722 180.128 130.98 180.248C131.237 180.373 131.656 180.493 132.236 180.613V181.365H124.267V180.613C125.053 180.451 125.575 180.274 125.839 180.07C126.103 179.872 126.277 179.59 126.354 179.225C126.438 178.86 126.476 178.296 126.476 177.545V164.316C126.476 163.616 126.444 163.1 126.386 162.782C126.322 162.458 126.219 162.213 126.071 162.03C125.929 161.853 125.736 161.712 125.497 161.602C125.259 161.498 124.847 161.377 124.267 161.247V160.496H132.236V161.247C131.682 161.357 131.282 161.472 131.038 161.581C130.793 161.691 130.593 161.832 130.451 162.004C130.303 162.171 130.2 162.421 130.129 162.76C130.058 163.095 130.026 163.616 130.026 164.316V177.545V177.545ZM146.861 181.61C145.353 181.61 143.975 181.407 142.738 181.005C141.494 180.603 140.431 179.977 139.548 179.126C138.66 178.275 137.976 177.185 137.487 175.859C137.004 174.534 136.766 172.953 136.766 171.105C136.766 168.835 137.191 166.883 138.047 165.25C138.904 163.622 140.128 162.38 141.72 161.529C143.311 160.678 145.154 160.25 147.26 160.25C149.496 160.25 151.384 160.652 152.911 161.451C154.437 162.249 155.591 163.428 156.364 164.984C157.137 166.539 157.524 168.428 157.524 170.661C157.524 173.046 157.085 175.061 156.202 176.699C155.327 178.343 154.083 179.57 152.479 180.384C150.875 181.203 149 181.61 146.861 181.61ZM140.65 170.677C140.65 173.808 141.217 176.188 142.338 177.816C143.466 179.449 145.115 180.264 147.273 180.264C148.646 180.264 149.812 179.909 150.765 179.199C151.725 178.495 152.44 177.456 152.917 176.089C153.4 174.727 153.639 173.13 153.639 171.303C153.639 169.08 153.355 167.238 152.795 165.777C152.234 164.316 151.474 163.251 150.501 162.588C149.535 161.926 148.407 161.597 147.125 161.597C145.991 161.597 145.019 161.811 144.207 162.239C143.395 162.667 142.725 163.277 142.19 164.065C141.655 164.853 141.262 165.808 141.018 166.93C140.773 168.052 140.65 169.3 140.65 170.677V170.677ZM177.212 173.093C177.663 173.704 178.043 174.241 178.352 174.701C178.662 175.16 178.977 175.671 179.306 176.245H179.551C179.493 175.619 179.435 174.388 179.383 172.535C179.332 170.687 179.306 169.018 179.306 167.53V164.316C179.306 163.616 179.28 163.1 179.235 162.771C179.183 162.447 179.093 162.197 178.958 162.025C178.829 161.853 178.642 161.712 178.41 161.602C178.178 161.498 177.773 161.377 177.193 161.247V160.496H183.99V161.247C183.423 161.367 183.023 161.477 182.791 161.581C182.559 161.686 182.366 161.816 182.224 161.978C182.076 162.14 181.967 162.385 181.896 162.714C181.818 163.037 181.78 163.574 181.78 164.316V181.459H179.422L168.908 167.175C168.25 166.288 167.786 165.641 167.51 165.234C167.232 164.827 166.975 164.425 166.736 164.029H166.414C166.505 164.811 166.569 166.231 166.608 168.287C166.64 170.338 166.659 172.383 166.659 174.424V177.545C166.659 178.223 166.691 178.724 166.749 179.042C166.801 179.356 166.897 179.606 167.033 179.789C167.161 179.971 167.355 180.128 167.613 180.248C167.87 180.373 168.289 180.493 168.869 180.613V181.365H161.982V180.613C162.761 180.451 163.283 180.274 163.547 180.07C163.811 179.872 163.985 179.59 164.069 179.225C164.147 178.86 164.191 178.296 164.191 177.545V164.316C164.191 163.616 164.159 163.1 164.095 162.782C164.03 162.458 163.927 162.213 163.786 162.03C163.638 161.853 163.444 161.712 163.206 161.602C162.967 161.498 162.562 161.377 161.982 161.247V160.496H167.889L177.212 173.093Z" fill="#E41019"></path>
  <path fill-rule="evenodd" clip-rule="evenodd" d="M75.3954 145.909H64.8107L63.9985 147.814C63.7618 148.348 63.5757 148.869 63.4233 149.369C63.2794 149.87 63.2032 150.404 63.2032 150.967C63.2032 152.276 64.0578 152.982 65.7841 153.077V154.4H55.1992V153.077C55.8085 153.022 56.3412 152.844 56.8069 152.55C57.272 152.255 57.6865 151.857 58.0675 151.35C58.4482 150.836 58.8543 150.11 59.2858 149.157L61.8044 143.723H82.3798L84.4235 149.342C84.7875 150.343 85.0922 151.055 85.3373 151.48C85.5828 151.899 85.9046 152.241 86.3019 152.502C86.6999 152.762 87.2582 152.954 87.969 153.077V154.4H74.2789V153.077C75.142 152.995 75.7767 152.803 76.1909 152.495C76.6056 152.186 76.8087 151.748 76.8087 151.186C76.8087 150.775 76.7495 150.309 76.6393 149.801C76.5211 149.294 76.335 148.65 76.0641 147.876L75.3954 145.909V145.909Z" fill="#E41019"></path>
  <path fill-rule="evenodd" clip-rule="evenodd" d="M110.813 132.03C110.813 131.03 110.763 130.33 110.652 129.933C110.551 129.542 110.34 129.22 110.026 128.981C109.705 128.74 109.096 128.521 108.19 128.316V126.993H119.097V128.316C118.504 128.453 118.03 128.596 117.683 128.747C117.337 128.905 117.074 129.117 116.888 129.392C116.71 129.666 116.592 130.015 116.541 130.433C116.491 130.858 116.465 131.393 116.465 132.03V144.579C116.465 146.245 116.304 147.628 115.974 148.746C115.645 149.863 115.128 150.809 114.434 151.569C113.741 152.33 112.877 152.947 111.846 153.413C110.813 153.886 109.654 154.222 108.359 154.42C107.073 154.619 105.627 154.722 104.027 154.722C101.675 154.722 99.6952 154.523 98.0706 154.126C96.4548 153.735 95.1347 153.139 94.1194 152.344C93.1043 151.542 92.3513 150.576 91.8687 149.438C91.3779 148.3 91.1324 146.834 91.1324 145.045V132.051C91.1324 131.42 91.1154 130.892 91.0736 130.468C91.0311 130.036 90.921 129.693 90.7518 129.419C90.5741 129.152 90.3119 128.939 89.9563 128.768C89.6011 128.603 89.1105 128.453 88.4844 128.316V126.993H101.497V128.316C100.82 128.467 100.321 128.624 99.9912 128.789C99.6701 128.96 99.433 129.159 99.2637 129.405C99.1029 129.645 98.9844 129.96 98.9166 130.344C98.8492 130.735 98.8152 131.304 98.8152 132.051V145.305C98.8152 146.361 98.8997 147.327 99.0691 148.198C99.2299 149.068 99.5344 149.815 99.9745 150.432C100.406 151.055 101.015 151.535 101.793 151.871C102.572 152.207 103.57 152.371 104.789 152.371C106.481 152.371 107.733 152.097 108.562 151.549C109.383 151.001 109.967 150.233 110.305 149.246C110.644 148.266 110.813 146.799 110.813 144.839V132.03V132.03Z" fill="#E41019"></path>
  <path fill-rule="evenodd" clip-rule="evenodd" d="M130.325 154.4V153.077C131.019 152.981 131.569 152.858 131.975 152.7C132.381 152.55 132.686 152.33 132.88 152.049C133.084 151.768 133.202 151.412 133.252 150.973C133.304 150.541 133.329 150 133.329 149.363V129.344H131.324C130.325 129.344 129.572 129.433 129.039 129.624C128.515 129.81 128.049 130.104 127.66 130.508C127.279 130.906 126.941 131.448 126.662 132.119C126.382 132.798 126.146 133.435 125.968 134.038H122.566V126.993H151.749V134.038H148.347C148.034 133.127 147.789 132.462 147.603 132.03C147.425 131.605 147.222 131.242 147.002 130.94C146.774 130.639 146.537 130.385 146.291 130.186C146.046 129.988 145.784 129.823 145.496 129.7C145.217 129.584 144.87 129.494 144.447 129.433C144.024 129.371 143.474 129.344 142.797 129.344H141.011V149.363C141.011 150.069 141.037 150.61 141.088 150.973C141.139 151.343 141.223 151.645 141.358 151.871C141.494 152.097 141.654 152.282 141.841 152.419C142.035 152.563 142.298 152.687 142.636 152.803C142.974 152.92 143.431 153.009 144.015 153.077V154.4H130.325V154.4Z" fill="#E41019"></path>
  <path fill-rule="evenodd" clip-rule="evenodd" d="M158.23 151.268C160.666 153.571 164.313 154.722 169.17 154.722C171.505 154.722 173.612 154.448 175.507 153.9C177.394 153.352 179.019 152.495 180.372 151.33C181.726 150.165 182.775 148.677 183.511 146.861C184.248 145.045 184.611 142.873 184.611 140.344C184.611 135.82 183.376 132.407 180.897 130.118C178.418 127.822 174.703 126.671 169.762 126.671C166.589 126.671 163.856 127.226 161.563 128.336C159.262 129.447 157.527 131.071 156.343 133.209C155.158 135.341 154.574 137.918 154.574 140.926C154.574 145.518 155.793 148.965 158.23 151.268ZM164.254 149.411C163.052 147.437 162.451 144.429 162.451 140.385C162.451 136.52 163.035 133.654 164.203 131.804C165.362 129.947 167.147 129.022 169.542 129.022C171.175 129.022 172.52 129.481 173.569 130.399C174.618 131.311 175.405 132.675 175.921 134.47C176.446 136.273 176.708 138.507 176.708 141.166C176.708 142.804 176.59 144.298 176.345 145.669C176.108 147.033 175.71 148.211 175.16 149.212C174.602 150.206 173.882 150.98 172.985 151.542C172.097 152.098 171.014 152.372 169.745 152.372C167.283 152.372 165.447 151.385 164.254 149.411Z" fill="#E41019"></path>
  <path fill-rule="evenodd" clip-rule="evenodd" d="M62.9531 141.595L69.7877 126.849H76.4044L81.7682 141.595H74.1512L70.8793 132.257L66.7821 141.595H62.9531V141.595Z" fill="#F4BC20"></path>
  <path fill-rule="evenodd" clip-rule="evenodd" d="M63.4164 179.956H68.3643C68.9054 179.956 69.3563 179.935 69.7237 179.883C70.0846 179.83 70.3999 179.752 70.6578 179.643C70.9156 179.538 71.1472 179.392 71.3536 179.199C71.5599 179.011 71.7597 178.766 71.9465 178.458C72.1394 178.155 72.3135 177.769 72.4874 177.305C72.6548 176.84 72.8675 176.146 73.119 175.217H75.0259L74.6454 181.365H57.6758V180.613C58.462 180.451 58.9841 180.274 59.248 180.07C59.5117 179.872 59.6858 179.59 59.7632 179.225C59.8469 178.86 59.8855 178.296 59.8855 177.545V164.316C59.8855 163.616 59.8532 163.1 59.7955 162.782C59.7309 162.458 59.628 162.213 59.48 162.03C59.3379 161.853 59.1449 161.712 58.9066 161.602C58.668 161.498 58.2558 161.377 57.6758 161.247V160.496H65.6261V161.247C65.0721 161.367 64.6789 161.477 64.4471 161.576C64.2151 161.67 64.0218 161.8 63.8673 161.962C63.719 162.124 63.6032 162.374 63.532 162.714C63.4549 163.047 63.4164 163.585 63.4164 164.316V179.956ZM96.0736 160.496V165.114H94.225C94.0315 164.613 93.8385 164.175 93.6387 163.799C93.4386 163.418 93.226 163.105 93.0137 162.849C92.8011 162.594 92.5628 162.39 92.305 162.239C92.0472 162.087 91.7448 161.983 91.3903 161.926C91.0423 161.868 90.6168 161.842 90.1272 161.842H84.1614V169.853H88.201C88.7548 169.853 89.1869 169.79 89.5024 169.659C89.8181 169.534 90.0822 169.315 90.2884 169.012C90.4944 168.705 90.6943 168.224 90.8811 167.572H92.6595V173.443H90.8811C90.7074 172.832 90.5073 172.373 90.2947 172.06C90.0822 171.752 89.831 171.528 89.5347 171.397C89.2379 171.261 88.7937 171.199 88.201 171.199H84.1614V180.018H90.0308C90.6491 180.018 91.1517 179.977 91.5317 179.888C91.9181 179.804 92.2467 179.653 92.5239 179.444C92.8011 179.236 93.046 178.964 93.2583 178.63C93.4709 178.291 93.6515 177.941 93.7995 177.581C93.9414 177.221 94.1411 176.689 94.3925 176H96.2604L95.9001 181.365H78.4212V180.613C79.207 180.451 79.7291 180.274 79.9932 180.07C80.2569 179.872 80.431 179.59 80.5083 179.225C80.5924 178.86 80.6307 178.296 80.6307 177.545V164.316C80.6307 163.616 80.5985 163.1 80.5408 162.782C80.476 162.458 80.3733 162.213 80.2252 162.03C80.0834 161.853 79.8899 161.712 79.6517 161.602C79.4134 161.498 79.001 161.377 78.4212 161.247V160.496H96.0736V160.496ZM118.72 181.286L117.251 181.61L115.872 180.415C115.054 180.822 114.197 181.125 113.301 181.318C112.412 181.511 111.388 181.61 110.228 181.61C107.046 181.61 104.649 180.723 103.038 178.959C101.428 177.19 100.622 174.56 100.622 171.074C100.622 168.903 101.06 166.998 101.943 165.359C102.819 163.715 104.088 162.453 105.738 161.576C107.381 160.694 109.32 160.25 111.549 160.25C112.722 160.25 113.842 160.303 114.925 160.412C116.007 160.517 117.212 160.704 118.533 160.971V165.171H116.664C116.323 164.258 115.924 163.538 115.453 163.027C114.989 162.51 114.435 162.145 113.785 161.926C113.134 161.706 112.316 161.597 111.324 161.597C109.951 161.597 108.746 161.952 107.716 162.667C106.685 163.382 105.886 164.43 105.313 165.824C104.739 167.217 104.449 168.892 104.449 170.86C104.449 172.858 104.694 174.565 105.177 175.984C105.66 177.399 106.382 178.468 107.342 179.188C108.295 179.903 109.475 180.264 110.872 180.264C112.354 180.264 113.456 180.002 114.171 179.475C114.893 178.954 115.247 178.145 115.247 177.054V176.136C115.247 175.217 115.189 174.554 115.067 174.148C114.951 173.74 114.738 173.427 114.435 173.203C114.133 172.979 113.637 172.791 112.947 172.65V171.898H120.569V172.65C120.118 172.77 119.776 172.911 119.551 173.072C119.325 173.229 119.151 173.422 119.035 173.657C118.913 173.892 118.829 174.184 118.784 174.523C118.745 174.862 118.72 175.353 118.72 175.984V181.286V181.286ZM130.026 177.545C130.026 178.223 130.052 178.724 130.11 179.042C130.168 179.356 130.265 179.606 130.394 179.789C130.529 179.971 130.722 180.128 130.98 180.248C131.237 180.373 131.656 180.493 132.236 180.613V181.365H124.267V180.613C125.053 180.451 125.575 180.274 125.839 180.07C126.103 179.872 126.277 179.59 126.354 179.225C126.438 178.86 126.476 178.296 126.476 177.545V164.316C126.476 163.616 126.444 163.1 126.386 162.782C126.322 162.458 126.219 162.213 126.071 162.03C125.929 161.853 125.736 161.712 125.497 161.602C125.259 161.498 124.847 161.377 124.267 161.247V160.496H132.236V161.247C131.682 161.357 131.282 161.472 131.038 161.581C130.793 161.691 130.593 161.832 130.451 162.004C130.303 162.171 130.2 162.421 130.129 162.76C130.058 163.095 130.026 163.616 130.026 164.316V177.545V177.545ZM146.861 181.61C145.353 181.61 143.975 181.407 142.738 181.005C141.494 180.603 140.431 179.977 139.548 179.126C138.66 178.275 137.976 177.185 137.487 175.859C137.004 174.534 136.766 172.953 136.766 171.105C136.766 168.835 137.191 166.883 138.047 165.25C138.904 163.622 140.128 162.38 141.72 161.529C143.311 160.678 145.154 160.25 147.26 160.25C149.496 160.25 151.384 160.652 152.911 161.451C154.437 162.249 155.591 163.428 156.364 164.984C157.137 166.539 157.524 168.428 157.524 170.661C157.524 173.046 157.085 175.061 156.202 176.699C155.327 178.343 154.083 179.57 152.479 180.384C150.875 181.203 149 181.61 146.861 181.61ZM140.65 170.677C140.65 173.808 141.217 176.188 142.338 177.816C143.466 179.449 145.115 180.264 147.273 180.264C148.646 180.264 149.812 179.909 150.765 179.199C151.725 178.495 152.44 177.456 152.917 176.089C153.4 174.727 153.639 173.13 153.639 171.303C153.639 169.08 153.355 167.238 152.795 165.777C152.234 164.316 151.474 163.251 150.501 162.588C149.535 161.926 148.407 161.597 147.125 161.597C145.991 161.597 145.019 161.811 144.207 162.239C143.395 162.667 142.725 163.277 142.19 164.065C141.655 164.853 141.262 165.808 141.018 166.93C140.773 168.052 140.65 169.3 140.65 170.677V170.677ZM177.212 173.093C177.663 173.704 178.043 174.241 178.352 174.701C178.662 175.16 178.977 175.671 179.306 176.245H179.551C179.493 175.619 179.435 174.388 179.383 172.535C179.332 170.687 179.306 169.018 179.306 167.53V164.316C179.306 163.616 179.28 163.1 179.235 162.771C179.183 162.447 179.093 162.197 178.958 162.025C178.829 161.853 178.642 161.712 178.41 161.602C178.178 161.498 177.773 161.377 177.193 161.247V160.496H183.99V161.247C183.423 161.367 183.023 161.477 182.791 161.581C182.559 161.686 182.366 161.816 182.224 161.978C182.076 162.14 181.967 162.385 181.896 162.714C181.818 163.037 181.78 163.574 181.78 164.316V181.459H179.422L168.908 167.175C168.25 166.288 167.786 165.641 167.51 165.234C167.232 164.827 166.975 164.425 166.736 164.029H166.414C166.505 164.811 166.569 166.231 166.608 168.287C166.64 170.338 166.659 172.383 166.659 174.424V177.545C166.659 178.223 166.691 178.724 166.749 179.042C166.801 179.356 166.897 179.606 167.033 179.789C167.161 179.971 167.355 180.128 167.613 180.248C167.87 180.373 168.289 180.493 168.869 180.613V181.365H161.982V180.613C162.761 180.451 163.283 180.274 163.547 180.07C163.811 179.872 163.985 179.59 164.069 179.225C164.147 178.86 164.191 178.296 164.191 177.545V164.316C164.191 163.616 164.159 163.1 164.095 162.782C164.03 162.458 163.927 162.213 163.786 162.03C163.638 161.853 163.444 161.712 163.206 161.602C162.967 161.498 162.562 161.377 161.982 161.247V160.496H167.889L177.212 173.093Z" fill="#F4BC20"></path>
</svg>
