<?xml version="1.0" encoding="UTF-8"?>
<svg xmlns="http://www.w3.org/2000/svg" width="151" height="44" viewBox="0 0 151 44" fill="none">
  <rect x="1.5" y="27.5576" width="2.46524" height="0.821747" fill="#F4BC20"></rect>
  <rect x="7.84375" y="27.5576" width="2.46524" height="0.821747" fill="#F4BC20"></rect>
  <path fill-rule="evenodd" clip-rule="evenodd" d="M11.1326 19.8228V17.3575H11.8049V19.8228H11.1326Z" fill="#F4BC20"></path>
  <path fill-rule="evenodd" clip-rule="evenodd" d="M-0.000231832 19.8228L-0.000231832 17.3575H0.672107L0.672107 19.8228H-0.000231832Z" fill="#F4BC20"></path>
  <rect x="1.5" y="42.6396" width="2.46524" height="0.821747" fill="#F4BC20"></rect>
  <rect x="7.84375" y="42.6396" width="2.46524" height="0.821747" fill="#F4BC20"></rect>
  <path fill-rule="evenodd" clip-rule="evenodd" d="M11.1326 34.9048V32.4395H11.8049V34.9048H11.1326Z" fill="#F4BC20"></path>
  <path fill-rule="evenodd" clip-rule="evenodd" d="M-0.000231832 34.9048L-0.000231832 32.4395H0.672107L0.672107 34.9048H-0.000231832Z" fill="#F4BC20"></path>
  <rect x="15.6016" y="42.6396" width="2.46524" height="0.821747" fill="#F4BC20"></rect>
  <rect x="21.9453" y="42.6396" width="2.46524" height="0.821747" fill="#F4BC20"></rect>
  <path fill-rule="evenodd" clip-rule="evenodd" d="M25.2341 34.9048V32.4395H25.9065V34.9048H25.2341Z" fill="#F4BC20"></path>
  <path fill-rule="evenodd" clip-rule="evenodd" d="M14.1013 34.9048V32.4395H14.7737V34.9048H14.1013Z" fill="#F4BC20"></path>
  <rect x="29.6953" y="42.6396" width="2.46524" height="0.821747" fill="#F4BC20"></rect>
  <rect x="36.0391" y="42.6396" width="2.46524" height="0.821747" fill="#F4BC20"></rect>
  <path fill-rule="evenodd" clip-rule="evenodd" d="M39.3279 34.9048V32.4395H40.0002V34.9048H39.3279Z" fill="#F4BC20"></path>
  <path fill-rule="evenodd" clip-rule="evenodd" d="M28.1951 34.9048V32.4395H28.8674V34.9048H28.1951Z" fill="#F4BC20"></path>
  <rect x="1.5" y="12.4756" width="2.46524" height="0.821747" fill="#F4BC20"></rect>
  <rect x="7.84375" y="12.4756" width="2.46524" height="0.821747" fill="#F4BC20"></rect>
  <path fill-rule="evenodd" clip-rule="evenodd" d="M11.1326 4.74072V2.27548H11.8049V4.74072H11.1326Z" fill="#F4BC20"></path>
  <path fill-rule="evenodd" clip-rule="evenodd" d="M-0.000231832 4.74072L-0.000231832 2.27548H0.672107L0.672107 4.74072H-0.000231832Z" fill="#F4BC20"></path>
  <rect x="15.6016" y="12.4756" width="2.46524" height="0.821747" fill="#F4BC20"></rect>
  <rect x="21.9453" y="12.4756" width="2.46524" height="0.821747" fill="#F4BC20"></rect>
  <path fill-rule="evenodd" clip-rule="evenodd" d="M25.2341 4.74072V2.27548H25.9065V4.74072H25.2341Z" fill="#F4BC20"></path>
  <path fill-rule="evenodd" clip-rule="evenodd" d="M14.1013 4.74072V2.27548H14.7737V4.74072H14.1013Z" fill="#F4BC20"></path>
  <rect x="29.6953" y="12.4756" width="2.46524" height="0.821747" fill="#F4BC20"></rect>
  <rect x="36.0391" y="12.4756" width="2.46524" height="0.821747" fill="#F4BC20"></rect>
  <path fill-rule="evenodd" clip-rule="evenodd" d="M39.3279 4.74072V2.27548H40.0002V4.74072H39.3279Z" fill="#F4BC20"></path>
  <path fill-rule="evenodd" clip-rule="evenodd" d="M28.1951 4.74072V2.27548H28.8674V4.74072H28.1951Z" fill="#F4BC20"></path>
  <rect x="29.6953" y="27.5576" width="2.46524" height="0.821747" fill="#F4BC20"></rect>
  <rect x="36.0391" y="27.5576" width="2.46524" height="0.821747" fill="#F4BC20"></rect>
  <path fill-rule="evenodd" clip-rule="evenodd" d="M39.3279 19.8228V17.3575H40.0002V19.8228H39.3279Z" fill="#F4BC20"></path>
  <path fill-rule="evenodd" clip-rule="evenodd" d="M28.1951 19.8228V17.3575H28.8674V19.8228H28.1951Z" fill="#F4BC20"></path>
  <rect x="14.6172" y="28.7173" width="3.01307" height="1.00436" fill="#E41019"></rect>
  <rect x="22.375" y="28.7173" width="3.01307" height="1.00436" fill="#E41019"></rect>
  <path fill-rule="evenodd" clip-rule="evenodd" d="M26.3938 19.2632V16.2501H27.2156V19.2632H26.3938Z" fill="#E41019"></path>
  <path fill-rule="evenodd" clip-rule="evenodd" d="M12.7923 19.2632V16.2501H13.614V19.2632H12.7923Z" fill="#E41019"></path>
  <path fill-rule="evenodd" clip-rule="evenodd" d="M17.3791 22.6494V24.2707L20.002 25.9361L22.625 24.2707V22.6494L20.002 24.3148L17.3791 22.6494Z" fill="#F4BC20"></path>
  <path fill-rule="evenodd" clip-rule="evenodd" d="M17.3791 24.6958V25.2326L20.002 26.887L22.625 25.2326V24.6958L20.002 26.3501L17.3791 24.6958Z" fill="#F4BC20"></path>
  <path fill-rule="evenodd" clip-rule="evenodd" d="M54.6818 42.6222H58.5959C59.0239 42.6222 59.3806 42.6056 59.6712 42.5643C59.9567 42.523 60.2062 42.461 60.4101 42.3744C60.6141 42.2919 60.7973 42.1763 60.9606 42.0234C61.1238 41.8748 61.2818 41.6809 61.4296 41.4373C61.5822 41.1981 61.7199 40.8924 61.8575 40.525C61.9899 40.1575 62.1582 39.6087 62.3571 38.8736H63.8656L63.5646 43.7368H50.1406V43.1424C50.7625 43.0143 51.1756 42.8741 51.3843 42.7129C51.5929 42.5561 51.7306 42.3331 51.7919 42.0441C51.8581 41.7551 51.8886 41.3093 51.8886 40.7149V30.2499C51.8886 29.6967 51.8631 29.288 51.8174 29.0364C51.7664 28.7802 51.685 28.5864 51.5678 28.4417C51.4555 28.3016 51.3028 28.1901 51.1143 28.1035C50.9255 28.0208 50.5994 27.9257 50.1406 27.8227V27.2282H56.4298V27.8227C55.9915 27.9175 55.6805 28.0042 55.4971 28.0828C55.3136 28.157 55.1607 28.2603 55.0385 28.3882C54.9212 28.5162 54.8296 28.7143 54.7732 28.9826C54.7123 29.2467 54.6818 29.6721 54.6818 30.2499V42.6222ZM80.5156 27.2282V30.8816H79.0532C78.9002 30.4854 78.7475 30.1387 78.5895 29.8415C78.4312 29.5399 78.263 29.2924 78.0951 29.0899C77.9269 28.8878 77.7384 28.7267 77.5344 28.607C77.3305 28.4873 77.0912 28.4046 76.8108 28.3594C76.5355 28.3138 76.199 28.2931 75.8116 28.2931H71.0924V34.6302H74.2879C74.726 34.6302 75.0678 34.5805 75.3174 34.4772C75.5671 34.3782 75.7761 34.2047 75.9392 33.9652C76.1021 33.7218 76.2602 33.342 76.408 32.826H77.8148V37.4702H76.408C76.2706 36.9872 76.1123 36.6239 75.9441 36.3763C75.7761 36.1326 75.5774 35.9551 75.3429 35.8521C75.1082 35.7445 74.7567 35.695 74.2879 35.695H71.0924V42.6716H75.7354C76.2245 42.6716 76.622 42.6387 76.9227 42.5687C77.2283 42.5023 77.4883 42.3826 77.7076 42.2176C77.9269 42.0526 78.1206 41.8378 78.2885 41.5737C78.4567 41.3053 78.5995 41.0288 78.7167 40.7438C78.8289 40.4591 78.9869 40.0379 79.1857 39.4929H80.6634L80.3783 43.7368H66.5515V43.1424C67.1731 43.0143 67.5861 42.8741 67.7951 42.7129C68.0037 42.5561 68.1414 42.3331 68.2025 42.0441C68.269 41.7551 68.2994 41.3093 68.2994 40.7149V30.2499C68.2994 29.6967 68.2738 29.288 68.2282 29.0364C68.177 28.7802 68.0957 28.5864 67.9786 28.4417C67.8664 28.3016 67.7134 28.1901 67.5249 28.1035C67.3364 28.0208 67.0102 27.9257 66.5515 27.8227V27.2282H80.5156V27.2282ZM98.43 43.6748L97.268 43.9307L96.1774 42.9856C95.5299 43.3074 94.8523 43.5469 94.1439 43.6997C93.4405 43.8523 92.6301 43.9307 91.7127 43.9307C89.1951 43.9307 87.2992 43.229 86.025 41.8338C84.751 40.4342 84.1139 38.3537 84.1139 35.5959C84.1139 33.8786 84.4604 32.372 85.1587 31.0755C85.8518 29.7751 86.8557 28.7763 88.1605 28.0828C89.46 27.3851 90.9942 27.0342 92.7574 27.0342C93.6852 27.0342 94.5717 27.0755 95.4282 27.1621C96.2843 27.2446 97.2374 27.3933 98.2821 27.6039V30.9269H96.8039C96.5338 30.2046 96.2181 29.6349 95.8462 29.2304C95.4789 28.8216 95.0408 28.5326 94.5261 28.3594C94.0114 28.1859 93.3641 28.0992 92.5792 28.0992C91.4935 28.0992 90.5405 28.38 89.7251 28.9455C88.9098 29.5112 88.2778 30.3408 87.8244 31.4429C87.3704 32.5452 87.1412 33.8704 87.1412 35.4267C87.1412 37.0077 87.3346 38.3577 87.7171 39.4805C88.0994 40.5993 88.6702 41.4457 89.4297 42.0152C90.1838 42.5807 91.1166 42.8659 92.2224 42.8659C93.3944 42.8659 94.2661 42.6591 94.8317 42.2422C95.4027 41.8295 95.683 41.1896 95.683 40.3269V39.6002C95.683 38.8736 95.6372 38.3494 95.5401 38.0276C95.4485 37.7054 95.2805 37.4579 95.0408 37.2803C94.8014 37.1028 94.4089 36.9542 93.8635 36.8427V36.2483H99.8928V36.8427C99.5361 36.9375 99.2659 37.049 99.0874 37.177C98.9092 37.3009 98.7715 37.4535 98.6795 37.6396C98.5827 37.8251 98.5168 38.0565 98.4811 38.3248C98.4503 38.5931 98.43 38.9812 98.43 39.4805V43.6748V43.6748ZM107.374 40.7149C107.374 41.2516 107.395 41.6478 107.441 41.8997C107.486 42.1474 107.563 42.3455 107.665 42.4899C107.772 42.6345 107.925 42.7582 108.129 42.8533C108.332 42.9525 108.663 43.0473 109.122 43.1424V43.7368H102.818V43.1424C103.44 43.0143 103.853 42.8741 104.062 42.7129C104.27 42.5561 104.408 42.3331 104.469 42.0441C104.536 41.7551 104.566 41.3093 104.566 40.7149V30.2499C104.566 29.6967 104.54 29.288 104.495 29.0364C104.444 28.7802 104.362 28.5864 104.245 28.4417C104.133 28.3016 103.98 28.1901 103.791 28.1035C103.603 28.0208 103.277 27.9257 102.818 27.8227V27.2282H109.122V27.8227C108.684 27.9093 108.368 28.0002 108.174 28.0868C107.981 28.1734 107.823 28.2849 107.711 28.4213C107.593 28.5532 107.512 28.7514 107.456 29.0197C107.4 29.284 107.374 29.6967 107.374 30.2499V40.7149V40.7149ZM120.692 43.9307C119.499 43.9307 118.408 43.7699 117.43 43.4519C116.446 43.1342 115.605 42.6387 114.907 41.9657C114.204 41.2929 113.663 40.4302 113.276 39.3814C112.894 38.333 112.705 37.0822 112.705 35.6208C112.705 33.8251 113.042 32.2811 113.719 30.9889C114.397 29.7011 115.365 28.7185 116.624 28.0455C117.883 27.3727 119.341 27.0342 121.007 27.0342C122.776 27.0342 124.269 27.352 125.477 27.9837C126.685 28.6152 127.597 29.5481 128.209 30.7783C128.82 32.0084 129.126 33.503 129.126 35.2697C129.126 37.1563 128.78 38.7499 128.081 40.0461C127.388 41.3467 126.405 42.3167 125.136 42.9607C123.867 43.6088 122.383 43.9307 120.692 43.9307ZM115.778 35.2823C115.778 37.7593 116.227 39.6415 117.114 40.9296C118.006 42.2217 119.31 42.8659 121.017 42.8659C122.103 42.8659 123.026 42.585 123.78 42.0234C124.539 41.4664 125.105 40.6447 125.482 39.5631C125.864 38.4859 126.053 37.2225 126.053 35.7776C126.053 34.019 125.829 32.5619 125.385 31.4058C124.942 30.2499 124.34 29.4077 123.571 28.8836C122.806 28.3594 121.914 28.0992 120.9 28.0992C120.003 28.0992 119.234 28.2685 118.592 28.607C117.95 28.9455 117.42 29.4284 116.997 30.0518C116.574 30.6753 116.263 31.4307 116.069 32.3182C115.876 33.2058 115.778 34.1925 115.778 35.2823V35.2823ZM144.701 37.1937C145.058 37.6765 145.359 38.1018 145.603 38.4652C145.848 38.8283 146.097 39.2328 146.357 39.6871H146.551C146.505 39.1915 146.459 38.2174 146.418 36.7519C146.378 35.2905 146.357 33.9695 146.357 32.7929V30.2499C146.357 29.6967 146.337 29.288 146.301 29.0279C146.26 28.772 146.189 28.5739 146.082 28.4378C145.98 28.3016 145.833 28.1901 145.649 28.1035C145.465 28.0208 145.144 27.9257 144.686 27.8227V27.2282H150.062V27.8227C149.614 27.9175 149.298 28.0042 149.114 28.0868C148.931 28.1694 148.778 28.2725 148.666 28.4007C148.549 28.5286 148.462 28.7225 148.406 28.9826C148.345 29.2385 148.315 29.6637 148.315 30.2499V43.8112H146.449L138.132 32.5122C137.612 31.8103 137.245 31.2986 137.026 30.9765C136.807 30.6546 136.603 30.3368 136.414 30.0229H136.159C136.231 30.6422 136.282 31.765 136.312 33.3915C136.338 35.014 136.353 36.6321 136.353 38.2464V40.7149C136.353 41.2516 136.378 41.6478 136.424 41.8997C136.465 42.1474 136.541 42.3455 136.649 42.4899C136.75 42.6345 136.903 42.7582 137.107 42.8533C137.311 42.9525 137.642 43.0473 138.101 43.1424V43.7368H132.653V43.1424C133.27 43.0143 133.683 42.8741 133.891 42.7129C134.1 42.5561 134.238 42.3331 134.304 42.0441C134.365 41.7551 134.401 41.3093 134.401 40.7149V30.2499C134.401 29.6967 134.375 29.288 134.324 29.0364C134.273 28.7802 134.192 28.5864 134.08 28.4417C133.963 28.3016 133.81 28.1901 133.621 28.1035C133.433 28.0208 133.112 27.9257 132.653 27.8227V27.2282H137.326L144.701 37.1937Z" fill="#E41019"></path>
  <path fill-rule="evenodd" clip-rule="evenodd" d="M64.1561 15.6888H55.783L55.1405 17.1959C54.9532 17.6188 54.806 18.0308 54.6854 18.4265C54.5716 18.8224 54.5113 19.2451 54.5113 19.6899C54.5113 20.7254 55.1873 21.2839 56.553 21.3598V22.406H48.1797V21.3598C48.6616 21.3163 49.0831 21.1754 49.4515 20.9423C49.8194 20.7092 50.1473 20.3946 50.4487 19.9934C50.7498 19.5868 51.0711 19.012 51.4124 18.2585L53.4048 13.96H69.6811L71.2979 18.4051C71.5858 19.1965 71.8268 19.7603 72.0207 20.0964C72.2149 20.4273 72.4695 20.6981 72.7838 20.9043C73.0986 21.1104 73.5403 21.262 74.1026 21.3598V22.406H63.2729V21.3598C63.9556 21.2946 64.4577 21.1428 64.7854 20.8989C65.1134 20.6549 65.2741 20.308 65.2741 19.8633C65.2741 19.538 65.2272 19.1694 65.1401 18.7682C65.0465 18.3669 64.8994 17.8573 64.685 17.2448L64.1561 15.6888V15.6888Z" fill="#E41019"></path>
  <path fill-rule="evenodd" clip-rule="evenodd" d="M92.1711 4.71041C92.1711 3.91908 92.1312 3.36594 92.0439 3.05158C91.9637 2.74244 91.7965 2.48771 91.5486 2.29811C91.2945 2.10807 90.8125 1.93457 90.0961 1.77225V0.725586H98.7238V1.77225C98.2553 1.88046 97.8805 1.99419 97.606 2.11358C97.3316 2.23834 97.1242 2.40633 96.9767 2.6232C96.8363 2.84007 96.7426 3.11672 96.7023 3.44717C96.6624 3.78344 96.6423 4.20646 96.6423 4.71041V14.6374C96.6423 15.9549 96.5151 17.0497 96.2539 17.9336C95.9932 18.8174 95.5847 19.5655 95.0359 20.1672C94.487 20.7691 93.8042 21.257 92.988 21.6259C92.1711 21.9997 91.2541 22.2655 90.2301 22.4226C89.2129 22.5798 88.0683 22.6611 86.8033 22.6611C84.9427 22.6611 83.3763 22.5041 82.0911 22.1894C80.8129 21.8805 79.7687 21.4089 78.9655 20.78C78.1624 20.1456 77.5668 19.3813 77.185 18.4811C76.7968 17.5813 76.6026 16.4212 76.6026 15.0059V4.72696C76.6026 4.22807 76.5891 3.81057 76.556 3.47445C76.5224 3.13282 76.4353 2.86169 76.3015 2.64496C76.1609 2.43345 75.9535 2.26547 75.6722 2.12998C75.3912 1.9997 75.0031 1.88046 74.5078 1.77225V0.725586H84.802V1.77225C84.2664 1.89149 83.8716 2.0161 83.6104 2.14623C83.3564 2.28157 83.1688 2.43897 83.0349 2.63393C82.9077 2.82398 82.814 3.0732 82.7603 3.37682C82.707 3.68596 82.6801 4.13581 82.6801 4.72696V15.2121C82.6801 16.0469 82.747 16.8113 82.8809 17.4999C83.0081 18.1884 83.249 18.7794 83.5972 19.2674C83.9385 19.7606 84.4206 20.1402 85.0361 20.4057C85.652 20.6715 86.4418 20.8016 87.4056 20.8016C88.7442 20.8016 89.7348 20.5849 90.3907 20.151C91.0401 19.7174 91.502 19.1101 91.7695 18.3295C92.0373 17.5541 92.1711 16.3939 92.1711 14.8433V4.71041V4.71041Z" fill="#E41019"></path>
  <path fill-rule="evenodd" clip-rule="evenodd" d="M107.606 22.4063V21.3601C108.155 21.2842 108.59 21.1866 108.912 21.0619C109.233 20.9426 109.474 20.7691 109.628 20.5469C109.788 20.3245 109.882 20.0426 109.922 19.6956C109.962 19.354 109.982 18.9257 109.982 18.4215V2.58534H108.396C107.606 2.58534 107.011 2.65584 106.589 2.80743C106.174 2.95395 105.806 3.18707 105.498 3.5068C105.197 3.82145 104.929 4.24968 104.708 4.78091C104.487 5.31781 104.3 5.82176 104.159 6.29904H101.469V0.725586H124.554V6.29904H121.863C121.615 5.57791 121.421 5.05204 121.274 4.71041C121.133 4.37429 120.973 4.08692 120.799 3.84843C120.618 3.60994 120.431 3.40946 120.237 3.25206C120.042 3.09481 119.835 2.96483 119.607 2.86705C119.386 2.77509 119.112 2.70458 118.777 2.65584C118.443 2.60695 118.008 2.58534 117.472 2.58534H116.06V18.4215C116.06 18.98 116.08 19.4082 116.12 19.6956C116.16 19.9884 116.227 20.2268 116.334 20.4057C116.442 20.5849 116.569 20.7311 116.716 20.8396C116.87 20.9535 117.078 21.0511 117.345 21.1431C117.613 21.2354 117.974 21.3059 118.436 21.3601V22.4063H107.606V22.4063Z" fill="#E41019"></path>
  <path fill-rule="evenodd" clip-rule="evenodd" d="M129.681 19.9286C131.608 21.7503 134.493 22.6609 138.335 22.6609C140.182 22.6609 141.849 22.4443 143.348 22.0104C144.841 21.5768 146.126 20.8991 147.197 19.9773C148.268 19.0557 149.097 17.8792 149.68 16.4425C150.262 15.0058 150.55 13.2872 150.55 11.2867C150.55 7.7085 149.573 5.00852 147.612 3.19781C145.651 1.38158 142.712 0.470703 138.803 0.470703C136.293 0.470703 134.132 0.909967 132.318 1.7882C130.497 2.66643 129.125 3.95128 128.188 5.64275C127.251 7.32915 126.789 9.36747 126.789 11.7476C126.789 15.38 127.753 18.107 129.681 19.9286ZM134.446 18.4594C133.496 16.898 133.02 14.5181 133.02 11.319C133.02 8.26164 133.482 5.99511 134.406 4.5314C135.323 3.06232 136.735 2.33031 138.629 2.33031C139.921 2.33031 140.985 2.69341 141.815 3.42005C142.645 4.14102 143.268 5.22003 143.676 6.64052C144.091 8.06623 144.298 9.83372 144.298 11.9372C144.298 13.2331 144.205 14.4149 144.011 15.4993C143.823 16.578 143.509 17.5105 143.074 18.3021C142.632 19.0884 142.063 19.7008 141.353 20.1455C140.651 20.5847 139.794 20.8015 138.79 20.8015C136.842 20.8015 135.39 20.0209 134.446 18.4594Z" fill="#E41019"></path>
  <path fill-rule="evenodd" clip-rule="evenodd" d="M54.3125 12.2765L59.719 0.611328H64.9533L69.1963 12.2765H63.1709L60.5826 4.8889L57.3414 12.2765H54.3125V12.2765Z" fill="#F4BC20"></path>
  <path fill-rule="evenodd" clip-rule="evenodd" d="M54.6818 42.6222H58.5959C59.0239 42.6222 59.3806 42.6056 59.6712 42.5643C59.9567 42.523 60.2062 42.461 60.4101 42.3744C60.6141 42.2919 60.7973 42.1763 60.9606 42.0234C61.1238 41.8748 61.2818 41.6809 61.4296 41.4373C61.5822 41.1981 61.7199 40.8924 61.8575 40.525C61.9899 40.1575 62.1582 39.6087 62.3571 38.8736H63.8656L63.5646 43.7368H50.1406V43.1424C50.7625 43.0143 51.1756 42.8741 51.3843 42.7129C51.5929 42.5561 51.7306 42.3331 51.7919 42.0441C51.8581 41.7551 51.8886 41.3093 51.8886 40.7149V30.2499C51.8886 29.6967 51.8631 29.288 51.8174 29.0364C51.7664 28.7802 51.685 28.5864 51.5678 28.4417C51.4555 28.3016 51.3028 28.1901 51.1143 28.1035C50.9255 28.0208 50.5994 27.9257 50.1406 27.8227V27.2282H56.4298V27.8227C55.9915 27.9175 55.6805 28.0042 55.4971 28.0828C55.3136 28.157 55.1607 28.2603 55.0385 28.3882C54.9212 28.5162 54.8296 28.7143 54.7732 28.9826C54.7123 29.2467 54.6818 29.6721 54.6818 30.2499V42.6222ZM80.5156 27.2282V30.8816H79.0532C78.9002 30.4854 78.7475 30.1387 78.5895 29.8415C78.4312 29.5399 78.263 29.2924 78.0951 29.0899C77.9269 28.8878 77.7384 28.7267 77.5344 28.607C77.3305 28.4873 77.0912 28.4046 76.8108 28.3594C76.5355 28.3138 76.199 28.2931 75.8116 28.2931H71.0924V34.6302H74.2879C74.726 34.6302 75.0678 34.5805 75.3174 34.4772C75.5671 34.3782 75.7761 34.2047 75.9392 33.9652C76.1021 33.7218 76.2602 33.342 76.408 32.826H77.8148V37.4702H76.408C76.2706 36.9872 76.1123 36.6239 75.9441 36.3763C75.7761 36.1326 75.5774 35.9551 75.3429 35.8521C75.1082 35.7445 74.7567 35.695 74.2879 35.695H71.0924V42.6716H75.7354C76.2245 42.6716 76.622 42.6387 76.9227 42.5687C77.2283 42.5023 77.4883 42.3826 77.7076 42.2176C77.9269 42.0526 78.1206 41.8378 78.2885 41.5737C78.4567 41.3053 78.5995 41.0288 78.7167 40.7438C78.8289 40.4591 78.9869 40.0379 79.1857 39.4929H80.6634L80.3783 43.7368H66.5515V43.1424C67.1731 43.0143 67.5861 42.8741 67.7951 42.7129C68.0037 42.5561 68.1414 42.3331 68.2025 42.0441C68.269 41.7551 68.2994 41.3093 68.2994 40.7149V30.2499C68.2994 29.6967 68.2738 29.288 68.2282 29.0364C68.177 28.7802 68.0957 28.5864 67.9786 28.4417C67.8664 28.3016 67.7134 28.1901 67.5249 28.1035C67.3364 28.0208 67.0102 27.9257 66.5515 27.8227V27.2282H80.5156V27.2282ZM98.43 43.6748L97.268 43.9307L96.1774 42.9856C95.5299 43.3074 94.8523 43.5469 94.1439 43.6997C93.4405 43.8523 92.6301 43.9307 91.7127 43.9307C89.1951 43.9307 87.2992 43.229 86.025 41.8338C84.751 40.4342 84.1139 38.3537 84.1139 35.5959C84.1139 33.8786 84.4604 32.372 85.1587 31.0755C85.8518 29.7751 86.8557 28.7763 88.1605 28.0828C89.46 27.3851 90.9942 27.0342 92.7574 27.0342C93.6852 27.0342 94.5717 27.0755 95.4282 27.1621C96.2843 27.2446 97.2374 27.3933 98.2821 27.6039V30.9269H96.8039C96.5338 30.2046 96.2181 29.6349 95.8462 29.2304C95.4789 28.8216 95.0408 28.5326 94.5261 28.3594C94.0114 28.1859 93.3641 28.0992 92.5792 28.0992C91.4935 28.0992 90.5405 28.38 89.7251 28.9455C88.9098 29.5112 88.2778 30.3408 87.8244 31.4429C87.3704 32.5452 87.1412 33.8704 87.1412 35.4267C87.1412 37.0077 87.3346 38.3577 87.7171 39.4805C88.0994 40.5993 88.6702 41.4457 89.4297 42.0152C90.1838 42.5807 91.1166 42.8659 92.2224 42.8659C93.3944 42.8659 94.2661 42.6591 94.8317 42.2422C95.4027 41.8295 95.683 41.1896 95.683 40.3269V39.6002C95.683 38.8736 95.6372 38.3494 95.5401 38.0276C95.4485 37.7054 95.2805 37.4579 95.0408 37.2803C94.8014 37.1028 94.4089 36.9542 93.8635 36.8427V36.2483H99.8928V36.8427C99.5361 36.9375 99.2659 37.049 99.0874 37.177C98.9092 37.3009 98.7715 37.4535 98.6795 37.6396C98.5827 37.8251 98.5168 38.0565 98.4811 38.3248C98.4503 38.5931 98.43 38.9812 98.43 39.4805V43.6748V43.6748ZM107.374 40.7149C107.374 41.2516 107.395 41.6478 107.441 41.8997C107.486 42.1474 107.563 42.3455 107.665 42.4899C107.772 42.6345 107.925 42.7582 108.129 42.8533C108.332 42.9525 108.663 43.0473 109.122 43.1424V43.7368H102.818V43.1424C103.44 43.0143 103.853 42.8741 104.062 42.7129C104.27 42.5561 104.408 42.3331 104.469 42.0441C104.536 41.7551 104.566 41.3093 104.566 40.7149V30.2499C104.566 29.6967 104.54 29.288 104.495 29.0364C104.444 28.7802 104.362 28.5864 104.245 28.4417C104.133 28.3016 103.98 28.1901 103.791 28.1035C103.603 28.0208 103.277 27.9257 102.818 27.8227V27.2282H109.122V27.8227C108.684 27.9093 108.368 28.0002 108.174 28.0868C107.981 28.1734 107.823 28.2849 107.711 28.4213C107.593 28.5532 107.512 28.7514 107.456 29.0197C107.4 29.284 107.374 29.6967 107.374 30.2499V40.7149V40.7149ZM120.692 43.9307C119.499 43.9307 118.408 43.7699 117.43 43.4519C116.446 43.1342 115.605 42.6387 114.907 41.9657C114.204 41.2929 113.663 40.4302 113.276 39.3814C112.894 38.333 112.705 37.0822 112.705 35.6208C112.705 33.8251 113.042 32.2811 113.719 30.9889C114.397 29.7011 115.365 28.7185 116.624 28.0455C117.883 27.3727 119.341 27.0342 121.007 27.0342C122.776 27.0342 124.269 27.352 125.477 27.9837C126.685 28.6152 127.597 29.5481 128.209 30.7783C128.82 32.0084 129.126 33.503 129.126 35.2697C129.126 37.1563 128.78 38.7499 128.081 40.0461C127.388 41.3467 126.405 42.3167 125.136 42.9607C123.867 43.6088 122.383 43.9307 120.692 43.9307ZM115.778 35.2823C115.778 37.7593 116.227 39.6415 117.114 40.9296C118.006 42.2217 119.31 42.8659 121.017 42.8659C122.103 42.8659 123.026 42.585 123.78 42.0234C124.539 41.4664 125.105 40.6447 125.482 39.5631C125.864 38.4859 126.053 37.2225 126.053 35.7776C126.053 34.019 125.829 32.5619 125.385 31.4058C124.942 30.2499 124.34 29.4077 123.571 28.8836C122.806 28.3594 121.914 28.0992 120.9 28.0992C120.003 28.0992 119.234 28.2685 118.592 28.607C117.95 28.9455 117.42 29.4284 116.997 30.0518C116.574 30.6753 116.263 31.4307 116.069 32.3182C115.876 33.2058 115.778 34.1925 115.778 35.2823V35.2823ZM144.701 37.1937C145.058 37.6765 145.359 38.1018 145.603 38.4652C145.848 38.8283 146.097 39.2328 146.357 39.6871H146.551C146.505 39.1915 146.459 38.2174 146.418 36.7519C146.378 35.2905 146.357 33.9695 146.357 32.7929V30.2499C146.357 29.6967 146.337 29.288 146.301 29.0279C146.26 28.772 146.189 28.5739 146.082 28.4378C145.98 28.3016 145.833 28.1901 145.649 28.1035C145.465 28.0208 145.144 27.9257 144.686 27.8227V27.2282H150.062V27.8227C149.614 27.9175 149.298 28.0042 149.114 28.0868C148.931 28.1694 148.778 28.2725 148.666 28.4007C148.549 28.5286 148.462 28.7225 148.406 28.9826C148.345 29.2385 148.315 29.6637 148.315 30.2499V43.8112H146.449L138.132 32.5122C137.612 31.8103 137.245 31.2986 137.026 30.9765C136.807 30.6546 136.603 30.3368 136.414 30.0229H136.159C136.231 30.6422 136.282 31.765 136.312 33.3915C136.338 35.014 136.353 36.6321 136.353 38.2464V40.7149C136.353 41.2516 136.378 41.6478 136.424 41.8997C136.465 42.1474 136.541 42.3455 136.649 42.4899C136.75 42.6345 136.903 42.7582 137.107 42.8533C137.311 42.9525 137.642 43.0473 138.101 43.1424V43.7368H132.653V43.1424C133.27 43.0143 133.683 42.8741 133.891 42.7129C134.1 42.5561 134.238 42.3331 134.304 42.0441C134.365 41.7551 134.401 41.3093 134.401 40.7149V30.2499C134.401 29.6967 134.375 29.288 134.324 29.0364C134.273 28.7802 134.192 28.5864 134.08 28.4417C133.963 28.3016 133.81 28.1901 133.621 28.1035C133.433 28.0208 133.112 27.9257 132.653 27.8227V27.2282H137.326L144.701 37.1937Z" fill="#F4BC20"></path>
</svg>
