<?xml version="1.0" encoding="UTF-8"?>
<svg xmlns="http://www.w3.org/2000/svg" width="56" height="55" viewBox="0 0 56 55" fill="none">
  <mask id="mask0_0_1105" style="mask-type:luminance" maskUnits="userSpaceOnUse" x="0" y="0" width="56" height="55">
    <path fill-rule="evenodd" clip-rule="evenodd" d="M0.296875 0L55.2969 0L55.2969 55L0.296875 55L0.296875 0Z" fill="white"></path>
  </mask>
  <g mask="url(#mask0_0_1105)">
    <path d="M9.94281 7.65564C14.6724 3.39786 20.9311 0.805664 27.7959 0.805664C42.5387 0.805664 54.4902 12.7572 54.4902 27.5C54.4902 42.2429 42.5387 54.1943 27.7959 54.1943C13.0531 54.1943 1.10156 42.2429 1.10156 27.5C1.10156 20.2015 4.03182 13.5882 8.77868 8.76928" stroke="#F4BC20" stroke-width="2"></path>
    <path d="M44.9519 43.5169C48.8691 39.323 51.2676 33.6922 51.2676 27.5C51.2676 14.536 40.76 4.02832 27.7959 4.02832C14.8318 4.02832 4.32422 14.536 4.32422 27.5C4.32422 40.4641 14.8318 50.9717 27.7959 50.9717C33.9881 50.9717 39.6189 48.5734 43.8128 44.656" stroke="#F4BC20" stroke-width="2"></path>
    <path d="M20.6401 44.8384L20.2868 45.7739L19.1885 45.3592L19.7727 44.3408L20.6401 44.8384ZM34.9501 44.8384L35.8175 44.3408L36.4017 45.3592L35.3034 45.7739L34.9501 44.8384ZM29.5193 35.371L29.3062 34.394L30.0221 34.2378L30.3867 34.8734L29.5193 35.371ZM26.0709 35.371L25.2035 34.8734L25.5681 34.2378L26.284 34.394L26.0709 35.371ZM9.41797 25.8328L9.41517 26.8328L8.24118 26.8295L8.43115 25.671L9.41797 25.8328ZM19.9052 25.8621L20.8846 26.0643L20.7194 26.8644L19.9024 26.8621L19.9052 25.8621ZM21.689 22.2443L22.5536 21.7419L22.9114 22.3575L22.4466 22.897L21.689 22.2443ZM16.573 13.44L15.9395 12.6663L16.8478 11.9225L17.4376 12.9376L16.573 13.44ZM46.1723 25.8328L47.1591 25.671L47.349 26.8295L46.1751 26.8328L46.1723 25.8328ZM43.72 18.9868L44.586 18.4868L44.5861 18.4868L43.72 18.9868ZM39.0172 13.44L38.1526 12.9376L38.7424 11.9225L39.6507 12.6663L39.0172 13.44ZM33.9012 22.2443L33.1437 22.897L32.6788 22.3576L33.0366 21.7419L33.9012 22.2443ZM35.685 25.8621L35.6878 26.8621L34.8709 26.8644L34.7056 26.0644L35.685 25.8621ZM20.9934 43.9029C23.1562 44.7197 25.454 45.1377 27.7951 45.1377V47.1377C25.2149 47.1377 22.6776 46.6768 20.2868 45.7739L20.9934 43.9029ZM27.7951 45.1377C30.1363 45.1377 32.434 44.7197 34.5968 43.9029L35.3034 45.7739C32.9126 46.6768 30.3753 47.1377 27.7951 47.1377V45.1377ZM34.0827 45.336L28.6519 35.8686L30.3867 34.8734L35.8175 44.3408L34.0827 45.336ZM29.7324 36.348C29.108 36.4842 28.4598 36.5566 27.7951 36.5566V34.5566C28.3141 34.5566 28.8194 34.5001 29.3062 34.394L29.7324 36.348ZM27.7951 36.5566C27.1304 36.5566 26.4823 36.4842 25.8578 36.348L26.284 34.394C26.7708 34.5001 27.2761 34.5566 27.7951 34.5566V36.5566ZM26.9384 35.8686L21.5075 45.336L19.7727 44.3408L25.2035 34.8734L26.9384 35.8686ZM9.42077 24.8328L19.908 24.8621L19.9024 26.8621L9.41517 26.8328L9.42077 24.8328ZM18.9259 25.6599C19.2428 24.1251 19.9476 22.7334 20.9314 21.5916L22.4466 22.897C21.6788 23.7882 21.1308 24.8717 20.8846 26.0643L18.9259 25.6599ZM20.8244 22.7467L15.7084 13.9424L17.4376 12.9376L22.5536 21.7419L20.8244 22.7467ZM17.2066 14.2137C15.4177 15.6784 13.9068 17.4594 12.7362 19.4868L11.0042 18.4868C12.2942 16.2524 13.9621 14.2854 15.9395 12.6663L17.2066 14.2137ZM12.7362 19.4868C11.5657 21.5142 10.7789 23.7132 10.4048 25.9946L8.43115 25.671C8.84467 23.1492 9.7141 20.7213 11.0042 18.4868L12.7362 19.4868ZM45.1854 25.9946C44.8113 23.7132 44.0245 21.5142 42.854 19.4868L44.5861 18.4868C45.8761 20.7213 46.7456 23.1492 47.1591 25.671L45.1854 25.9946ZM42.854 19.4869C41.6834 17.4594 40.1725 15.6784 38.3837 14.2137L39.6507 12.6663C41.6281 14.2854 43.2959 16.2524 44.586 18.4868L42.854 19.4869ZM39.8818 13.9424L34.7659 22.7467L33.0366 21.7419L38.1526 12.9376L39.8818 13.9424ZM34.6588 21.5915C35.6428 22.7335 36.3473 24.1252 36.6643 25.6599L34.7056 26.0644C34.4593 24.8716 33.9115 23.7881 33.1437 22.897L34.6588 21.5915ZM35.6822 24.8621L46.1695 24.8328L46.1751 26.8328L35.6878 26.8621L35.6822 24.8621Z" fill="#F4BC20"></path>
    <path fill-rule="evenodd" clip-rule="evenodd" d="M27.7949 22.666C30.4647 22.666 32.6289 24.8302 32.6289 27.5C32.6289 30.1698 30.4647 32.334 27.7949 32.334C25.1252 32.334 22.9609 30.1698 22.9609 27.5C22.9609 24.8302 25.1252 22.666 27.7949 22.666Z" stroke="#F4BC20" stroke-width="2"></path>
    <path d="M25.3789 6.75098H26.9902V8.75098H25.3789V6.75098ZM28.6016 6.75098L30.2129 6.75098V8.75098H28.6016V6.75098Z" fill="#F4BC20"></path>
  </g>
</svg>
