<?xml version="1.0" encoding="UTF-8"?>
<svg xmlns="http://www.w3.org/2000/svg" width="61" height="60" viewBox="0 0 61 60" fill="none">
  <mask id="mask0_0_1060" style="mask-type:luminance" maskUnits="userSpaceOnUse" x="0" y="0" width="61" height="60">
    <path fill-rule="evenodd" clip-rule="evenodd" d="M0.296875 0L60.2969 0L60.2969 60L0.296875 60L0.296875 0Z" fill="white"></path>
  </mask>
  <g mask="url(#mask0_0_1060)">
    <path d="M10.0078 51.0898C12.5018 51.0898 14.5234 53.1115 14.5234 55.6055H12.5234C12.5234 54.2161 11.3972 53.0898 10.0078 53.0898V51.0898ZM14.5234 55.6055C14.5234 58.0993 12.5018 60.1211 10.0078 60.1211V58.1211C11.3972 58.1211 12.5234 56.9948 12.5234 55.6055H14.5234ZM10.0078 60.1211C7.51383 60.1211 5.49219 58.0993 5.49219 55.6055H7.49219C7.49219 56.9948 8.61844 58.1211 10.0078 58.1211V60.1211ZM5.49219 55.6055C5.49219 53.1115 7.51385 51.0898 10.0078 51.0898V53.0898C8.61842 53.0898 7.49219 54.2161 7.49219 55.6055H5.49219ZM48.8716 51.0898C51.3656 51.0898 53.3873 53.1115 53.3873 55.6055H51.3873C51.3873 54.2161 50.261 53.0898 48.8716 53.0898V51.0898ZM53.3873 55.6055C53.3873 58.0993 51.3656 60.1211 48.8716 60.1211V58.1211C50.261 58.1211 51.3873 56.9948 51.3873 55.6055H53.3873ZM48.8716 60.1211C46.3777 60.1211 44.356 58.0993 44.356 55.6055H46.356C46.356 56.9948 47.4823 58.1211 48.8716 58.1211V60.1211ZM44.356 55.6055C44.356 53.1115 46.3777 51.0898 48.8716 51.0898V53.0898C47.4822 53.0898 46.356 54.2161 46.356 55.6055H44.356ZM20.5547 51.0898C23.0485 51.0898 25.0703 53.1115 25.0703 55.6055H23.0703C23.0703 54.2161 21.944 53.0898 20.5547 53.0898V51.0898ZM25.0703 55.6055C25.0703 58.0993 23.0485 60.1211 20.5547 60.1211V58.1211C21.944 58.1211 23.0703 56.9947 23.0703 55.6055H25.0703ZM20.5547 60.1211C18.0607 60.1211 16.0391 58.0993 16.0391 55.6055H18.0391C18.0391 56.9948 19.1653 58.1211 20.5547 58.1211V60.1211ZM16.0391 55.6055C16.0391 53.1115 18.0607 51.0898 20.5547 51.0898V53.0898C19.1653 53.0898 18.0391 54.2161 18.0391 55.6055H16.0391Z" fill="#F4BC20"></path>
    <path d="M1.17578 48.5742H0.175781V47.5742H1.17578V48.5742ZM1.17578 55.6055L1.17578 56.6055H0.175781L0.175781 55.6055H1.17578ZM26.7064 54.6055L33.4827 54.6055V56.6055L26.7064 56.6055V54.6055ZM13.5229 54.6055H17.0384V56.6055H13.5229V54.6055ZM38.7561 49.5742L1.17578 49.5742L1.17578 47.5742L38.7561 47.5742V49.5742ZM2.17578 48.5742L2.17578 55.6055H0.175781L0.175781 48.5742H2.17578ZM1.17578 54.6055H3.85492V56.6055H1.17578L1.17578 54.6055Z" fill="#F4BC20"></path>
    <path d="M42.7205 55.6055H36.1211V52.0898H41.3944V28.9036L53.6151 28.9036L59.4196 35.0558V55.6055H55.904V52.09H59.4196" stroke="#F4BC20" stroke-width="2"></path>
    <path d="M20.4054 45.0586H28.042C33.4513 45.0586 37.8773 40.6327 37.8773 35.2233C37.8773 29.8138 33.4513 25.388 28.042 25.388L11.0111 25.388C5.60172 25.388 1.17578 29.8138 1.17578 35.2233C1.17578 40.6327 5.60172 45.0586 11.0111 45.0586H18.6476" stroke="#F4BC20" stroke-width="2"></path>
    <path d="M24.5273 27.9036H26.2852V29.9036H24.5273V27.9036ZM33.3627 35.2234C33.3627 32.3067 30.9595 29.9036 28.043 29.9036V27.9036C32.0641 27.9036 35.3627 31.2021 35.3627 35.2234H33.3627Z" fill="#F4BC20"></path>
    <path d="M11.4219 45.0586V48.5742" stroke="#F4BC20" stroke-width="2"></path>
    <path d="M28.4531 45.0586V48.5742" stroke="#F4BC20" stroke-width="2"></path>
    <path d="M23.1641 21.8724V25.3879H21.1641V21.8724H23.1641ZM14.2539 20.8724H24.8008V22.8724H14.2539V20.8724ZM17.8906 21.8724V25.3879H15.8906V21.8724H17.8906Z" fill="#F4BC20"></path>
    <path d="M44.9102 32.4192H43.9102V31.4192H44.9102V32.4192ZM44.9102 44.1079V45.1079H43.9102V44.1079H44.9102ZM49.5283 33.4192H44.9102V31.4192H49.5283V33.4192ZM45.9102 32.4192V44.1079H43.9102V32.4192H45.9102ZM44.9102 43.1079H59.4198V45.1079H44.9102V43.1079ZM56.9322 33.4192H51.2861V31.4192H56.9322V33.4192Z" fill="#F4BC20"></path>
    <path d="M55.9023 52.0898V50.332C55.9023 49.3652 56.6934 48.5742 57.6602 48.5742H59.418" stroke="#F4BC20" stroke-width="2"></path>
    <path d="M4.69141 48.5743V50.3321C4.69141 51.2989 3.90039 52.0898 2.93359 52.0898H1.17578" stroke="#F4BC20" stroke-width="2"></path>
    <path d="M49.5273 36.8845H51.2852V38.8845H49.5273V36.8845ZM53.043 36.8845H54.8008V38.8845H53.043V36.8845Z" fill="#F4BC20"></path>
    <path d="M44.0312 47.2134H47.5469" stroke="#F4BC20" stroke-width="2"></path>
    <path d="M19.6758 54.2266H21.4336V56.2266H19.6758V54.2266ZM9.12891 54.2266H10.8867V56.2266H9.12891V54.2266ZM47.9927 54.2266H49.7505V56.2266H47.9927V54.2266Z" fill="#F4BC20"></path>
    <path d="M11.0117 39.4502V40.4502H10.0117V39.4502H11.0117ZM16.8904 39.4502H17.8904V40.4502H16.8904V39.4502ZM11.0117 34.9346H16.8904V36.9346H11.0117V34.9346ZM11.0117 31.4189H16.8904V33.4189H11.0117L11.0117 31.4189ZM11.0117 27.9034H16.8904V29.9034H11.0117V27.9034ZM12.0117 25.3878L12.0117 39.4502H10.0117L10.0117 25.3878H12.0117ZM11.0117 38.4502H16.8904V40.4502H11.0117V38.4502ZM15.8904 39.4502L15.8904 25.3878H17.8904V39.4502H15.8904Z" fill="#F4BC20"></path>
    <path fill-rule="evenodd" clip-rule="evenodd" d="M38.7374 14.9998C36.6755 14.9998 35.0039 13.4354 35.0039 11.5059C35.0039 9.57632 37.36 7.14292 38.7374 5.11476C40.1148 7.14292 42.4707 9.57632 42.4707 11.5059C42.4707 13.4354 40.7993 14.9998 38.7374 14.9998Z" stroke="#F4BC20" stroke-width="2"></path>
    <path d="M37.8555 11.074H39.6133" stroke="#F4BC20" stroke-width="2"></path>
    <path d="M43.5195 3.98437H45.2773" stroke="#F4BC20" stroke-width="2"></path>
    <path d="M29.5586 20.7227L29.8978 21.6634L28.5586 22.1463V20.7227H29.5586ZM33.6823 19.2357L33.3431 18.295L33.5075 18.2357H33.6823V19.2357ZM46.9153 13.9623V2.63664H48.9153V13.9623L46.9153 13.9623ZM46.9153 2.63664C46.9153 2.22213 46.572 1.87883 46.1575 1.87883V-0.121171C47.6766 -0.121171 48.9153 1.11756 48.9153 2.63664H46.9153ZM46.1575 1.87883L31.3164 1.87883V-0.121171L46.1575 -0.121171V1.87883ZM31.3164 1.87883C30.902 1.87883 30.5586 2.22225 30.5586 2.63664H28.5586C28.5586 1.11768 29.7974 -0.121171 31.3164 -0.121171V1.87883ZM30.5586 2.63664V4.39445H28.5586V2.63664H30.5586ZM30.5586 6.15227V20.7227H28.5586V6.15227H30.5586ZM29.2194 19.7819L33.3431 18.295L34.0215 20.1764L29.8978 21.6634L29.2194 19.7819ZM33.6823 18.2357L46.1575 18.2357V20.2357L33.6823 20.2357V18.2357ZM46.1575 18.2357C46.572 18.2357 46.9153 17.8924 46.9153 17.4779H48.9153C48.9153 18.9969 47.6766 20.2357 46.1575 20.2357V18.2357ZM46.9153 17.4779V15.72L48.9153 15.72V17.4779H46.9153Z" fill="#F4BC20"></path>
  </g>
</svg>
