<?xml version="1.0" encoding="UTF-8"?>
<svg xmlns="http://www.w3.org/2000/svg" width="57" height="58" viewBox="0 0 57 58" fill="none">
  <path d="M56 47.5733H57V46.5733H56V47.5733ZM52.6801 47.5733V46.5733H51.6801V47.5733H52.6801ZM52.6801 51.0357L51.973 51.7428L53.6801 53.4499V51.0357H52.6801ZM47.2975 45.6531L48.0046 44.946L47.2975 44.2389L46.5904 44.946L47.2975 45.6531ZM44.95 48.0006L44.2429 47.2935L43.5358 48.0006L44.2429 48.7077L44.95 48.0006ZM50.3326 53.3832V54.3832H52.7468L51.0397 52.6761L50.3326 53.3832ZM46.8702 53.3832V52.3832H45.8702V53.3832H46.8702ZM46.8702 56.7031H45.8702V57.7031H46.8702V56.7031ZM1 47.5733V46.5733H0V47.5733H1ZM4.31992 47.5733H5.31992V46.5733H4.31992V47.5733ZM4.31992 51.0357H3.31992V53.4499L5.02703 51.7428L4.31992 51.0357ZM9.70251 45.6531L10.4096 44.946L9.70251 44.2389L8.9954 44.946L9.70251 45.6531ZM12.05 48.0006L12.7571 48.7077L13.4642 48.0006L12.7571 47.2935L12.05 48.0006ZM6.66743 53.3832L5.96033 52.6761L4.25322 54.3832H6.66743V53.3832ZM10.1298 53.3832H11.1298V52.3832H10.1298V53.3832ZM10.1298 56.7031V57.7031H11.1298V56.7031H10.1298ZM1 56.7031H0V57.7031H1V56.7031ZM1 10.8329H0V11.8329H1V10.8329ZM4.31992 10.8329V11.8329H5.31992V10.8329H4.31992ZM4.31992 7.37067L5.02703 6.66356L3.31992 4.95646V7.37067H4.31992ZM9.70251 12.7533L8.9954 13.4604L9.70251 14.1675L10.4096 13.4604L9.70251 12.7533ZM12.05 10.4057L12.7571 11.1128L13.4642 10.4058L12.7571 9.69865L12.05 10.4057ZM6.66755 5.02304V4.02304H4.2534L5.96042 5.73014L6.66755 5.02304ZM10.1298 5.02304V6.02304H11.1298V5.02304H10.1298ZM10.1298 1.70312H11.1298V0.703125H10.1298V1.70312ZM1 1.70312V0.703125H0V1.70312H1ZM56 1.70312H57V0.703125H56V1.70312ZM56 10.8329V11.8329H57V10.8329H56ZM52.6801 10.8329H51.6801V11.8329H52.6801V10.8329ZM52.6801 7.37067H53.6801V4.95646L51.973 6.66356L52.6801 7.37067ZM47.2975 12.7533L46.5904 13.4604L47.2975 14.1675L48.0046 13.4604L47.2975 12.7533ZM44.95 10.4057L44.2429 9.69865L43.5358 10.4058L44.2429 11.1128L44.95 10.4057ZM50.3325 5.02304L51.0396 5.73014L52.7466 4.02304H50.3325V5.02304ZM46.8702 5.02304H45.8702V6.02304H46.8702V5.02304ZM46.8702 1.70312V0.703125H45.8702V1.70312H46.8702ZM57 56.7031V47.5733H55V56.7031H57ZM56 46.5733H52.6801V48.5733H56V46.5733ZM51.6801 47.5733V51.0357H53.6801V47.5733H51.6801ZM53.3872 50.3286L48.0046 44.946L46.5904 46.3602L51.973 51.7428L53.3872 50.3286ZM46.5904 44.946L44.2429 47.2935L45.6571 48.7077L48.0046 46.3602L46.5904 44.946ZM44.2429 48.7077L49.6255 54.0903L51.0397 52.6761L45.6571 47.2935L44.2429 48.7077ZM50.3326 52.3832H46.8702V54.3832H50.3326V52.3832ZM45.8702 53.3832V56.7031H47.8702V53.3832H45.8702ZM46.8702 57.7031H56V55.7031H46.8702V57.7031ZM2 56.7031V47.5733H0V56.7031H2ZM1 48.5733H4.31992V46.5733H1V48.5733ZM3.31992 47.5733V51.0357H5.31992V47.5733H3.31992ZM5.02703 51.7428L10.4096 46.3602L8.9954 44.946L3.61281 50.3286L5.02703 51.7428ZM8.9954 46.3602L11.3429 48.7077L12.7571 47.2935L10.4096 44.946L8.9954 46.3602ZM11.3429 47.2935L5.96033 52.6761L7.37454 54.0903L12.7571 48.7077L11.3429 47.2935ZM6.66743 54.3832H10.1298V52.3832H6.66743V54.3832ZM9.12978 53.3832V56.7031H11.1298V53.3832H9.12978ZM10.1298 55.7031H1V57.7031H10.1298V55.7031ZM0 7.09799V10.8329H2V7.09799H0ZM1 11.8329H4.31992V9.8329H1V11.8329ZM5.31992 10.8329V7.37067H3.31992V10.8329H5.31992ZM3.61281 8.07778L8.9954 13.4604L10.4096 12.0461L5.02703 6.66356L3.61281 8.07778ZM10.4096 13.4604L12.7571 11.1128L11.3429 9.69863L8.9954 12.0461L10.4096 13.4604ZM12.7571 9.69865L7.37467 4.31595L5.96042 5.73014L11.3429 11.1128L12.7571 9.69865ZM6.66755 6.02304H10.1298V4.02304H6.66755V6.02304ZM11.1298 5.02304V1.70312H9.12978V5.02304H11.1298ZM10.1298 0.703125H1V2.70312H10.1298V0.703125ZM0 1.70312V5.43803H2V1.70312H0ZM55 1.70312V10.8329H57V1.70312H55ZM56 9.8329H52.6801V11.8329H56V9.8329ZM53.6801 10.8329V7.37067H51.6801V10.8329H53.6801ZM51.973 6.66356L46.5904 12.0461L48.0046 13.4604L53.3872 8.07778L51.973 6.66356ZM48.0046 12.0461L45.6571 9.69863L44.2429 11.1128L46.5904 13.4604L48.0046 12.0461ZM45.6571 11.1128L51.0396 5.73014L49.6253 4.31595L44.2429 9.69865L45.6571 11.1128ZM50.3325 4.02304H46.8702V6.02304H50.3325V4.02304ZM47.8702 5.02304V1.70312H45.8702V5.02304H47.8702ZM46.8702 2.70312H56V0.703125H46.8702V2.70312Z" fill="#F4BC20"></path>
  <path d="M14.8043 36.0129C16.0855 36.0129 17.1242 37.0517 17.1242 38.3329H19.1242C19.1242 35.9471 17.1901 34.0129 14.8043 34.0129V36.0129ZM17.1242 38.3329C17.1242 39.6141 16.0855 40.6528 14.8043 40.6528V42.6528C17.1901 42.6528 19.1242 40.7186 19.1242 38.3329H17.1242ZM14.8043 40.6528C13.5231 40.6528 12.4844 39.6141 12.4844 38.3329H10.4844C10.4844 40.7186 12.4185 42.6528 14.8043 42.6528V40.6528ZM12.4844 38.3329C12.4844 37.0516 13.5231 36.0129 14.8043 36.0129V34.0129C12.4186 34.0129 10.4844 35.947 10.4844 38.3329H12.4844ZM42.1936 36.0129C43.4748 36.0129 44.5135 37.0517 44.5135 38.3329H46.5135C46.5135 35.9471 44.5794 34.0129 42.1936 34.0129V36.0129ZM44.5135 38.3329C44.5135 39.6141 43.4748 40.6528 42.1936 40.6528V42.6528C44.5794 42.6528 46.5135 40.7186 46.5135 38.3329H44.5135ZM42.1936 40.6528C40.9124 40.6528 39.8737 39.6141 39.8737 38.3329H37.8737C37.8737 40.7186 39.8079 42.6528 42.1936 42.6528V40.6528ZM39.8737 38.3329C39.8737 37.0516 40.9124 36.0129 42.1936 36.0129V34.0129C39.8079 34.0129 37.8737 35.947 37.8737 38.3329H39.8737Z" fill="#F4BC20"></path>
  <path d="M8.16406 31.6967H34.7235" stroke="#F4BC20" stroke-width="2"></path>
  <path d="M8.16406 38.3328H7.16406V39.3328H8.16406V38.3328ZM8.16406 16.7534V15.7534H7.16406V16.7534H8.16406ZM43.8532 21.7333L44.6532 21.1333L44.3532 20.7333H43.8532V21.7333ZM48.833 28.3729H49.833V28.0396L49.633 27.7729L48.833 28.3729ZM48.833 38.3329V39.3329H49.833V38.3329H48.833ZM38.8733 37.3365H28.9136V39.3365H38.8733V37.3365ZM27.2537 37.3365H25.5938V39.3365H27.2537V37.3365ZM23.9337 37.3365H18.1238V39.3365H23.9337V37.3365ZM11.484 37.3328H8.16406V39.3328H11.484V37.3328ZM9.16406 38.3328V16.7534H7.16406V38.3328H9.16406ZM8.16406 17.7534H33.0636V15.7534H8.16406V17.7534ZM33.0636 17.7534C33.424 17.7534 33.7235 18.0531 33.7235 18.4134H35.7235C35.7235 16.949 34.5291 15.7534 33.0636 15.7534V17.7534ZM33.7235 18.4134V38.3328H35.7235V18.4134H33.7235ZM34.7235 22.7333H43.8532V20.7333H34.7235V22.7333ZM43.0532 22.3333L48.033 28.9729L49.633 27.7729L44.6532 21.1333L43.0532 22.3333ZM47.833 28.3729V38.3329H49.833V28.3729H47.833ZM48.833 37.3329H45.5132V39.3329H48.833V37.3329Z" fill="#F4BC20"></path>
  <path d="M48.8348 28.373H40.535C39.622 28.373 38.875 27.626 38.875 26.7131V21.7334" stroke="#F4BC20" stroke-width="2"></path>
  <path d="M48.8337 33.3564H46.3438" stroke="#F4BC20" stroke-width="2"></path>
  <path d="M32.9418 20.9034V19.2434H30.9418V20.9034H32.9418ZM32.9418 24.2233V22.5633H30.9418V24.2233H32.9418Z" fill="#F4BC20"></path>
  <rect x="16.4648" y="20.0732" width="9.95976" height="8.2998" stroke="#F4BC20" stroke-width="2"></rect>
  <path d="M19.7852 20.0732V24.2233H23.1052V20.0732" stroke="#F4BC20" stroke-width="2"></path>
</svg>
