<?xml version="1.0" encoding="UTF-8"?>
<svg xmlns="http://www.w3.org/2000/svg" width="80" height="49" viewBox="0 0 80 49" fill="none">
  <path d="M17.4803 34.1797C20.8285 34.1797 23.5427 36.8939 23.5427 40.2421H25.5427C25.5427 35.7893 21.9331 32.1797 17.4803 32.1797V34.1797ZM23.5427 40.2421C23.5427 43.5902 20.8285 46.3044 17.4803 46.3044V48.3044C21.9331 48.3044 25.5427 44.6948 25.5427 40.2421H23.5427ZM17.4803 46.3044C14.1322 46.3044 11.418 43.5902 11.418 40.2421H9.41797C9.41797 44.6948 13.0276 48.3044 17.4803 48.3044V46.3044ZM11.418 40.2421C11.418 36.8939 14.1322 34.1797 17.4803 34.1797V32.1797C13.0276 32.1797 9.41797 35.7893 9.41797 40.2421H11.418ZM60.1688 34.1797C63.517 34.1797 66.2312 36.8939 66.2312 40.2421H68.2312C68.2312 35.7893 64.6215 32.1797 60.1688 32.1797V34.1797ZM66.2312 40.2421C66.2312 43.5902 63.517 46.3044 60.1688 46.3044V48.3044C64.6215 48.3044 68.2312 44.6948 68.2312 40.2421H66.2312ZM60.1688 46.3044C56.8206 46.3044 54.1064 43.5902 54.1064 40.2421H52.1064C52.1064 44.6948 55.716 48.3044 60.1688 48.3044V46.3044ZM54.1064 40.2421C54.1064 36.8939 56.8206 34.1797 60.1688 34.1797V32.1797C55.716 32.1797 52.1064 35.7893 52.1064 40.2421H54.1064Z" fill="#E6B220"></path>
  <path d="M58.4568 15.3668V14.3668H57.4615L57.4568 15.3621L58.4568 15.3668ZM58.4246 22.2554L57.4246 22.2507L57.42 23.2554H58.4246V22.2554ZM72.247 22.2554L72.5054 21.2894L72.3784 21.2554H72.247V22.2554ZM76.6459 23.4325L76.3874 24.3985L76.3874 24.3985L76.6459 23.4325ZM79 40.242V41.242H80V40.242H79ZM1 40.242H0V41.242H1V40.242ZM1 1.24219V0.242188H0V1.24219H1ZM51.3723 1.24219H52.3723V0.242188H51.3723V1.24219ZM69.3845 14.3668H58.4568V16.3668H69.3845V14.3668ZM57.4568 15.3621L57.4246 22.2507L59.4246 22.2601L59.4568 15.3714L57.4568 15.3621ZM58.4246 23.2554H72.247V21.2554H58.4246V23.2554ZM71.9885 23.2214L76.3874 24.3985L76.9044 22.4665L72.5054 21.2894L71.9885 23.2214ZM76.3874 24.3985C76.9075 24.5377 77.3145 24.7503 77.5812 25.0196C77.8244 25.2651 78 25.6039 78 26.1397H80C80 25.0871 79.6235 24.2395 79.0022 23.6122C78.4044 23.0086 77.6343 22.6617 76.9043 22.4665L76.3874 24.3985ZM78 26.1397V40.242H80V26.1397H78ZM79 39.242H74.2918V41.242H79V39.242ZM71.9376 39.2473H67.2294V41.2473H71.9376V39.2473ZM53.1048 39.2473H24.5411V41.2473H53.1048V39.2473ZM58.9901 41.2473H61.3442V39.2473H58.9901V41.2473ZM16.3018 41.2473H18.6559V39.2473H16.3018V41.2473ZM65.4307 36.5392H79V34.5392H65.4307V36.5392ZM1 36.5392H12.2152V34.5392H1V36.5392ZM22.7424 36.5392H54.9035V34.5392H22.7424V36.5392ZM10.4163 39.242H1V41.242H10.4163V39.242ZM2 40.242V9.48162H0V40.242H2ZM2 7.1275V1.24219H0V7.1275H2ZM1 2.24219H51.3723V0.242188H1V2.24219ZM50.3723 1.24219V35.5338H52.3723V1.24219H50.3723Z" fill="#E6B220"></path>
  <path d="M1 31.8392H4.53119V29.8392H1V31.8392ZM75.4688 30.323H79V28.323H75.4688V30.323Z" fill="#E6B220"></path>
  <path d="M51.3711 10.6587H66.0511C67.3452 10.6587 67.9088 11.8183 68.4052 13.0128L72.2457 22.2556" stroke="#E6B220" stroke-width="2"></path>
  <path d="M57.2461 26.969H61.9543" stroke="#E6B220" stroke-width="2"></path>
  <path fill-rule="evenodd" clip-rule="evenodd" d="M16.7695 8.30444H35.6027V24.7835C35.6027 26.0778 34.543 27.1376 33.2486 27.1376H19.1237C17.8294 27.1376 16.7695 26.0782 16.7695 24.7835V8.30444Z" stroke="#E6B220" stroke-width="2"></path>
  <path d="M28.5414 15.3668V16.3668H29.5414V15.3668H28.5414ZM23.8332 15.3668H22.8332V16.3668H23.8332V15.3668ZM27.5414 8.30444V15.3668H29.5414V8.30444H27.5414ZM28.5414 14.3668H23.8332V16.3668H28.5414V14.3668ZM24.8332 15.3668V8.30444H22.8332V15.3668H24.8332ZM22.6562 21.0801H29.7185V19.0801H22.6562V21.0801Z" fill="#E6B220"></path>
  <path d="M48.423 7.12756V4.77344H46.423V7.12756H48.423ZM48.423 11.8358V9.48169H46.423V11.8358H48.423Z" fill="#E6B220"></path>
</svg>
