<?xml version="1.0" encoding="UTF-8"?>
<svg xmlns="http://www.w3.org/2000/svg" width="91" height="48" viewBox="0 0 91 48" fill="none">
  <path d="M9 41.5H8H9ZM30.4421 37C32.8264 37 34.8027 38.9903 34.8027 41.5H36.8027C36.8027 37.9344 33.9791 35 30.4421 35V37ZM34.8027 41.5C34.8027 44.0097 32.8264 46 30.4421 46V48C33.9791 48 36.8027 45.0656 36.8027 41.5H34.8027ZM30.4421 46C28.0578 46 26.0816 44.0097 26.0816 41.5H24.0816C24.0816 45.0656 26.9052 48 30.4421 48V46ZM26.0816 41.5C26.0816 38.9903 28.0578 37 30.4421 37V35C26.9052 35 24.0816 37.9344 24.0816 41.5H26.0816ZM77.6395 37C80.0237 37 82 38.9903 82 41.5H84C84 37.9344 81.1764 35 77.6395 35V37ZM82 41.5C82 44.0097 80.0237 46 77.6395 46V48C81.1764 48 84 45.0656 84 41.5H82ZM77.6395 46C75.2552 46 73.2789 44.0097 73.2789 41.5H71.2789C71.2789 45.0656 74.1025 48 77.6395 48V46ZM73.2789 41.5C73.2789 38.9903 75.2552 37 77.6395 37V35C74.1025 35 71.2789 37.9344 71.2789 41.5H73.2789ZM14.3605 37C16.7448 37 18.7211 38.9903 18.7211 41.5H20.7211C20.7211 37.9344 17.8975 35 14.3605 35V37ZM18.7211 41.5C18.7211 44.0097 16.7448 46 14.3605 46V48C17.8975 48 20.7211 45.0656 20.7211 41.5H18.7211ZM14.3605 46C11.9763 46 10 44.0097 10 41.5H8C8 45.0656 10.8236 48 14.3605 48V46ZM10 41.5C10 38.9903 11.9763 37 14.3605 37V35C10.8236 35 8 37.9344 8 41.5H10Z" fill="#F4BC20"></path>
  <path d="M88.6675 14H72V24H90" stroke="#F4BC20" stroke-width="2"></path>
  <path d="M84 34H89" stroke="#F4BC20" stroke-width="2"></path>
  <path d="M1 36.6931H66.4848V7H79.6078L88.6569 14.6123L90 24.2963V42H83.2847" stroke="#F4BC20" stroke-width="2"></path>
  <path d="M70 29H75" stroke="#F4BC20" stroke-width="2"></path>
  <path d="M26.6181 8V30H28.6181V8H26.6181ZM15.0902 30V8H13.0902V30H15.0902ZM21.8541 30V8H19.8541V30H21.8541ZM48.9098 30V8H46.9098V30H48.9098ZM40.1459 8V30H42.1459V8H40.1459ZM35.3819 30V8H33.3819V30H35.3819Z" fill="#F4BC20"></path>
  <path d="M60.6587 1H61.6587V0H60.6587V1ZM1 1V0H0V1H1ZM1 41.9102H0V42.9102H1V41.9102ZM61.6587 36.5239V1H59.6587V36.5239H61.6587ZM60.6587 0H1V2H60.6587V0ZM0 1V7.73291H2V1H0ZM0 10.4261V41.9102H2V10.4261H0ZM1 42.9102H9.06183V40.9102H1V42.9102ZM19.7252 42.9102H25.0568V40.9102H19.7252V42.9102ZM35.7202 42.9102H62.6698V40.9102H35.7202V42.9102ZM65.3356 42.9102H72V40.9102H65.3356V42.9102Z" fill="#F4BC20"></path>
  <path d="M57 7.66661V5H55V7.66661H57ZM57 13V10.3334H55V13H57Z" fill="#F4BC20"></path>
</svg>
