<?xml version="1.0" encoding="UTF-8"?>
<svg xmlns="http://www.w3.org/2000/svg" width="66" height="60" viewBox="0 0 66 60" fill="none">
  <path fill-rule="evenodd" clip-rule="evenodd" d="M66 35.2008V17.1116L38.1936 0L10.3871 17.1116V24.9427H0V26.8782H16.5806V45.5879H0V47.5234H16.5806V53.8459H0V55.7814H20.803C21.2565 58.1304 23.327 59.9104 25.8065 59.9104C28.2859 59.9104 30.3564 58.1304 30.8099 55.7814H66V37.2653H64.0645V53.8459H59.8064V27.0072H18.5161V24.9427H12.3226V22.7492H25.8065V20.8137H12.3226V18.6201H64.0645V20.8137H27.871V22.7492H64.0645V35.2008H66ZM25.8065 57.975C24.0632 57.975 22.6452 56.5569 22.6452 54.8137C22.6452 53.0705 24.0632 51.6524 25.8065 51.6524C27.5497 51.6524 28.9677 53.0705 28.9677 54.8137C28.9677 56.5569 27.5497 57.975 25.8065 57.975ZM20.803 53.8459C21.2565 51.4969 23.327 49.7169 25.8065 49.7169C28.2859 49.7169 30.3564 51.497 30.8099 53.8459H33.0968V45.4588H18.5161V53.8459H20.803ZM18.5161 43.5234V37.2008H25.4057L31.7283 43.5234H18.5161ZM47.4194 39.2653V42.4266H45.4839V39.2653H43.2903V45.5879H49.6129V39.2653H47.4194ZM53.7419 53.8459H47.4194V47.5234H49.6129V50.6846H51.5484V47.5234H53.7419V53.8459ZM43.2903 47.5234V50.6846H41.3548V47.5234H39.1613V53.8459H45.4839V47.5234H43.2903ZM55.6774 53.8459V45.5879H51.5484V37.3298H41.3548V45.5879H37.2258V53.8459H35.0323V44.0903L26.2072 35.2653H18.5161V33.0717H57.871V53.8459H55.6774ZM57.871 31.1363V28.9427H18.5161V31.1363H57.871ZM61.613 16.6846H14.7739L38.1936 2.27264L61.613 16.6846ZM33.0323 12.5556H35.0968V14.4911H33.0323V12.5556ZM37.1613 12.5556H39.2258V14.4911H37.1613V12.5556ZM43.3548 12.5556H41.2903V14.4911H43.3548V12.5556ZM24.7742 53.8459H26.8387V55.7814H24.7742V53.8459ZM14.4516 49.7169H4.12903V51.6524H14.4516V49.7169ZM19.6129 46.6201H23.7419V48.5556H19.6129V46.6201Z" fill="#F4BC20"></path>
</svg>
