<?xml version="1.0" encoding="UTF-8"?>
<svg xmlns="http://www.w3.org/2000/svg" width="90" height="36" viewBox="0 0 90 36" fill="none">
  <path fill-rule="evenodd" clip-rule="evenodd" d="M90 22.6178H87.1817V10.1481L80.1756 0.193604H60.82V22.6335H29.1785V25.27H60.82V27.9016H21.1198C20.9217 26.9299 20.5088 26.0356 19.9331 25.27H26.5417V22.6335H6.83244V17.343H4.1959V23.4059L0 27.5098V30.5382H8.21197C8.82439 33.5405 11.4854 35.8065 14.666 35.8065C17.8465 35.8065 20.5075 33.5404 21.1199 30.5382H60.9353C61.5477 33.5405 64.2087 35.8065 67.3893 35.8065C70.5755 35.8065 73.24 33.5323 73.8461 30.522H90V22.6178ZM84.5452 13.3765H74.0099V8.10323H82.5184L84.5452 10.9829V13.3765ZM66.0705 9.43302V2.83015H63.4565V23.9394C64.2182 23.3707 65.1064 22.9627 66.0705 22.766V12.0696H68.7071V22.6178H84.545V16.013H71.3732V5.46669H80.6627L78.8071 2.83015H68.7071V9.43302H66.0705ZM6.06023 25.27H9.39867C8.82316 26.0356 8.41025 26.9299 8.21197 27.9016H3.42861L6.06023 25.27ZM10.716 29.2198C10.716 31.3979 12.4879 33.17 14.666 33.17C16.8439 33.17 18.6159 31.3979 18.6159 29.2198C18.6159 27.0419 16.8439 25.2699 14.666 25.2699C12.488 25.2699 10.716 27.0419 10.716 29.2198ZM67.3889 33.17C65.2337 33.17 63.4772 31.4347 63.4407 29.2879H63.4565C63.3649 27.1189 65.1953 25.2595 67.3889 25.27C69.567 25.27 71.3389 27.0421 71.3389 29.22C71.3389 31.3979 69.567 33.17 67.3889 33.17ZM73.8396 27.8855H87.3635V25.2546H72.6441C73.2227 26.0194 73.6386 26.9134 73.8396 27.8855ZM13.3476 27.9016H15.9841V30.5382H13.3476V27.9016ZM68.7071 27.9016H66.0705V30.5382H68.7071V27.9016Z" fill="#F4BC20"></path>
</svg>
