<?xml version="1.0" encoding="UTF-8"?>
<svg xmlns="http://www.w3.org/2000/svg" width="70" height="70" viewBox="0 0 70 70" fill="none">
  <path fill-rule="evenodd" clip-rule="evenodd" d="M43.7385 51.2771C49.5511 48.1473 53.5112 42.0033 53.5112 34.9512C53.5112 27.7826 49.4193 21.5522 43.4492 18.4725H62.8551L56.7098 9.1957L62.8663 0H55.4788V2.04969H59.0278L54.2477 9.18982L59.039 16.4229H12.1082L15.7013 9.19037L12.1162 2.04969H53.4294V0H8.79375L13.4106 9.19516L8.80154 18.4725H26.5217C20.5516 21.5522 16.4597 27.7826 16.4597 34.9512C16.4597 42.0033 20.4198 48.1471 26.2324 51.2771H0V70H31.9097V67.9503H2.04928V53.3266H67.9506V67.9503H38.0577V70H70V51.2771H43.7385ZM18.5091 34.9512C18.5091 25.6484 26.2566 18.1214 35.6372 18.4852C44.3812 18.8243 51.3838 26.053 51.4611 34.8031C51.6816 43.8125 43.9533 51.4088 35.0223 51.2769C26.123 51.4604 18.3745 43.9537 18.5091 34.9512ZM41.0601 6.10955H37.9822C36.2823 6.10955 34.8994 7.4926 34.8995 9.1927C34.8995 10.0172 35.2209 10.7923 35.8045 11.3749C36.3865 11.9561 37.1597 12.276 37.9821 12.276H37.988L39.0098 12.2741L39.008 10.2292H36.9731V8.17947H41.0601V14.3201L37.9917 14.3257H37.982C36.6129 14.3257 35.3259 13.7933 34.3566 12.8256C33.3851 11.8558 32.8501 10.5656 32.8501 9.19283C32.8501 6.36248 35.1524 4.06 37.9822 4.06H41.0601V6.10955ZM26.7939 14.3168V4.06861H24.7445V8.16785H20.6414V4.06861H18.5921V14.3168H20.6414V10.2175H24.7445V14.3168H26.7939ZM49.3295 14.3168H51.3788V4.06861H49.3295V8.16785H45.2264V4.06861H43.177V14.3168H45.2264V10.2175H49.3295V14.3168ZM28.8818 4.07025H30.9311V14.3151H28.8818V4.07025ZM34.8994 32.9012H32.8501V34.9511H34.8994V32.9012ZM34.9854 20.5033C42.9507 20.5033 49.4311 26.9846 49.4311 34.9512C49.4311 42.9177 42.9509 49.3991 34.9855 49.3991C27.0201 49.3991 20.5398 42.9178 20.5398 34.9512C20.5398 30.548 22.5106 26.4398 25.9473 23.68L27.2303 25.2782C25.4182 26.7334 24.0818 28.626 23.3198 30.7452L31.3231 29.5821L34.7903 22.5561C32.7324 22.5885 30.708 23.1312 28.9239 24.1335L27.9203 22.3464C30.0665 21.1407 32.5097 20.5033 34.9854 20.5033ZM34.9837 40.8496L27.5652 44.877C29.6354 46.429 32.2049 47.3494 34.9855 47.3493C37.7398 47.3493 40.2869 46.4458 42.3469 44.9202L34.9837 40.8496ZM42.4218 44.8645L40.9065 36.5457L46.7005 30.8972C47.1414 32.1681 47.3818 33.5321 47.3818 34.9512C47.3818 38.9994 45.4316 42.6005 42.4218 44.8645ZM38.6442 29.582L46.6468 30.745C44.9414 26.0297 40.4538 22.6357 35.1769 22.5553L38.6442 29.582ZM32.684 31.4554L34.9837 26.7951L37.2833 31.4554L42.4255 32.2027L38.7045 35.8303L39.8564 41.2259L34.9837 38.5342L30.1109 41.2259L31.2628 35.8303L27.5419 32.2027L32.684 31.4554ZM23.266 30.8964C22.8225 32.1825 22.5891 33.5494 22.5891 34.9512C22.5891 38.945 24.4876 42.5033 27.4289 44.7722L29.0608 36.5457L23.266 30.8964ZM28.8374 55.4548C26.5774 55.4548 24.7387 57.2938 24.7387 59.554V65.6869H26.788V63.6446H30.8867V65.6869H32.936V59.554C32.9361 57.2938 31.0975 55.4548 28.8374 55.4548ZM26.7881 61.5949V59.554C26.7881 58.4239 27.7074 57.5043 28.8374 57.5043C29.9675 57.5043 30.8867 58.4237 30.8867 59.554V61.5949H26.7881ZM62.6515 65.6849V59.8884L65.9858 55.4421H63.4241L61.6268 57.8387L59.8298 55.4421L57.2776 55.4548L60.6021 59.8883V65.6849H62.6515ZM14.4957 61.5805V55.4475H16.5453V61.5805C16.5453 62.7107 17.4646 63.6301 18.5946 63.6301C19.7246 63.6301 20.6438 62.7106 20.6438 61.5805V55.4475H22.6931V61.5805C22.6931 63.8407 20.8544 65.6797 18.5944 65.6797C16.3345 65.6797 14.4957 63.8408 14.4957 61.5805ZM8.34408 55.4393C10.604 55.4393 12.4428 57.2782 12.4428 59.5386V61.6019C12.4428 62.239 12.2966 62.8426 12.0362 63.381L13.0439 64.3889L11.5947 65.8381L10.7058 64.9491C10.0376 65.422 9.22305 65.7011 8.34408 65.7011C6.08412 65.7011 4.24539 63.8623 4.24539 61.6019V59.5386C4.24539 57.2782 6.08412 55.4393 8.34408 55.4393ZM6.2948 59.5386V61.6019C6.2948 62.7322 7.2141 63.6516 8.34408 63.6516C9.47406 63.6516 10.3934 62.732 10.3934 61.6019V59.5386C10.3934 58.4084 9.47406 57.489 8.34408 57.489C7.2141 57.489 6.2948 58.4084 6.2948 59.5386ZM52.405 57.4917V65.6994H50.3556V57.4917H47.2816V55.4421H55.479V57.4917H52.405ZM43.254 55.4478H45.3033V65.6928H43.254V55.4478ZM35.0217 65.6797V55.4475H37.071V63.63H41.1335V65.6797H35.0217ZM33.9737 67.9503H36.0084V70H33.9737V67.9503ZM60.6021 38.0256V35.976H62.6515V33.9263H60.6021V31.8767H58.5528V33.9263H56.5035V35.976H58.5528V38.0256H60.6021ZM66.7501 27.7774H64.7008V29.8271H66.7501V27.7774ZM64.7008 40.0753H66.7501V42.125H64.7008V40.0753ZM11.4181 38.0256H9.36879V35.976H7.31938V33.9263H9.36879V31.8767H11.4181V33.9263H13.4675V35.976H11.4181V38.0256ZM3.22082 27.7774H5.2701V29.8271H3.22082V27.7774ZM5.2701 40.0753H3.22082V42.125H5.2701V40.0753Z" fill="#F4BC20"></path>
</svg>
