<?xml version="1.0" encoding="UTF-8"?>
<svg xmlns="http://www.w3.org/2000/svg" width="70" height="70" viewBox="0 0 70 70" fill="none">
  <path fill-rule="evenodd" clip-rule="evenodd" d="M63.2014 3.49016C63.2014 5.41461 61.6358 6.98031 59.7114 6.98031C57.9519 6.98031 54.8935 4.56403 53.8154 3.71224L53.8152 3.71204L53.8147 3.71171C53.694 3.61634 53.5982 3.54062 53.5318 3.49016C53.6382 3.40922 53.7663 3.30968 53.9124 3.19604L53.9133 3.19532L53.9141 3.19471C55.2329 2.16926 58.0228 0 59.7114 0C61.6358 0 63.2014 1.5657 63.2014 3.49016ZM61.1506 3.49016C61.1506 2.6965 60.505 2.05092 59.7114 2.05092C59.2687 2.05092 58.0794 2.71223 56.9384 3.49016C58.0794 4.26795 59.2687 4.92939 59.7114 4.92939C60.505 4.92939 61.1506 4.28381 61.1506 3.49016ZM66.9272 61.2259C68.5586 59.0157 67.839 55.8204 65.3101 54.5627C67.1975 52.3387 66.4822 48.9524 63.8835 47.6599C65.7707 45.4361 65.0558 42.0498 62.4568 40.7571C64.9012 37.877 62.8693 33.3878 59.0438 33.3878H52.6489V35.4387H59.0438C60.3814 35.4387 61.4697 36.527 61.4697 37.8647C61.4697 39.2023 60.3814 40.2906 59.0438 40.2906H12.2642C10.9266 40.2906 9.83828 39.2023 9.83828 37.8647C9.83828 36.527 10.9266 35.4387 12.2642 35.4387H50.5533V33.3878H21.4766V15.1858C21.4766 14.9641 21.6569 14.7838 21.8786 14.7838H24.9918V15.9404H43.0067L50.958 19.8174V0.602246L43.0071 4.47904H41.4408L39.6274 0.000136719H27.4847V4.47904H24.9918V5.83133H20.6823C16.1837 5.83133 12.524 9.49115 12.524 13.9896V18.2213H14.5749V13.9896C14.5749 10.622 17.3147 7.88211 20.6824 7.88211H24.9919V12.733H21.8787C20.5263 12.733 19.4258 13.8333 19.4258 15.1859V33.388H14.5749V20.5674H12.5238V33.388H12.2642C8.44238 33.388 6.40514 37.8752 8.85117 40.7572C6.24928 42.0513 5.53902 45.4383 7.42451 47.66C4.82221 48.9542 4.1125 52.3415 5.99785 54.5628C3.58723 55.7617 2.77908 58.7759 4.22926 61.0064C1.87551 61.1352 0 63.0905 0 65.4758C0 67.9443 2.00826 69.9526 4.47672 69.9526H65.523C67.9915 69.9526 69.9999 67.9443 69.9999 65.4758C70 63.4978 68.7098 61.8164 66.9272 61.2259ZM48.907 16.5359L44.2684 14.2741V6.14551L48.907 3.88377V16.5359ZM38.2452 2.05092H29.5356V4.47904H39.2283L38.2452 2.05092ZM42.217 6.53051V13.8897H27.0426V6.52982H27.4847V6.53051H42.217ZM60.4704 42.3417H10.8376C9.4999 42.3417 8.41162 43.4299 8.41162 44.7676C8.41162 46.1053 9.4999 47.1935 10.8376 47.1935H60.4704C61.8081 47.1935 62.8964 46.1053 62.8964 44.7676C62.8964 43.4299 61.8081 42.3417 60.4704 42.3417ZM9.4109 49.2443H61.8971C63.2347 49.2443 64.323 50.3326 64.323 51.6703C64.323 53.0079 63.2347 54.0962 61.8971 54.0962H9.4109C8.07324 54.0962 6.98496 53.0079 6.98496 51.6703C6.98496 50.3326 8.07324 49.2443 9.4109 49.2443ZM63.3237 56.1471H7.9841C6.64645 56.1471 5.55816 57.2354 5.55816 58.573C5.55816 59.9107 6.64645 60.999 7.9841 60.999H63.3237C64.6615 60.999 65.7498 59.9107 65.7498 58.573C65.7498 57.2354 64.6615 56.1471 63.3237 56.1471ZM65.5231 67.9018H4.47672C3.13906 67.9018 2.05078 66.8135 2.05078 65.4758C2.05078 64.1382 3.13906 63.0499 4.47672 63.0499H65.523C66.8608 63.0499 67.9491 64.1382 67.9491 65.4758C67.9491 66.8135 66.8608 67.9018 65.5231 67.9018ZM60.438 10.2099C60.5205 10.2726 60.6329 10.3614 60.7704 10.4699C61.9166 11.3745 64.8021 13.6519 66.5297 13.6519C68.4276 13.6519 69.9718 12.1078 69.9718 10.2099C69.9718 8.31195 68.4277 6.76771 66.5297 6.76771C64.8649 6.76771 62.12 8.90316 60.8184 9.91578C60.6722 10.0295 60.5442 10.1291 60.438 10.2099ZM66.5295 8.81863C67.2968 8.81863 67.9208 9.44275 67.9208 10.2099C67.9208 10.977 67.2967 11.6011 66.5295 11.6011C66.1017 11.6011 64.9537 10.9636 63.8457 10.2099C64.9537 9.45602 66.1017 8.81863 66.5295 8.81863ZM59.7114 20.4198C61.6358 20.4198 63.2014 18.8541 63.2014 16.9296C63.2014 15.0052 61.6357 13.4395 59.7114 13.4395C58.0228 13.4395 55.2329 15.6087 53.9141 16.6342L53.9132 16.6349L53.9117 16.636L53.9106 16.6369C53.7652 16.75 53.6378 16.849 53.5318 16.9296C53.5979 16.9799 53.6932 17.0551 53.8132 17.1499L53.8134 17.1501L53.815 17.1514L53.8154 17.1517C54.8935 18.0035 57.9519 20.4198 59.7114 20.4198ZM59.7114 15.4904C60.505 15.4904 61.1506 16.136 61.1506 16.9296C61.1506 17.7233 60.505 18.3688 59.7114 18.3688C59.2687 18.3688 58.0794 17.7074 56.9384 16.9296C58.0794 16.1517 59.2687 15.4904 59.7114 15.4904ZM31.5587 9.79535H33.5772V11.8463H31.5587V9.79535ZM37.7017 9.79549H35.5824V11.8464H37.7017V9.79549Z" fill="#F4BC20"></path>
</svg>
