<?xml version="1.0" encoding="UTF-8"?>
<svg xmlns="http://www.w3.org/2000/svg" width="80" height="59" viewBox="0 0 80 59" fill="none">
  <path fill-rule="evenodd" clip-rule="evenodd" d="M69.2783 28.3513C72.0756 28.8257 74.6403 30.2096 76.5863 32.319C78.7877 34.7051 80 37.808 80 41.0568C80 48.1648 74.2173 53.9474 67.1094 53.9474C64.2861 53.9474 61.5623 53.0241 59.3305 51.3326C54.1681 55.8751 47.4008 58.6348 40 58.6348C32.5992 58.6348 25.8319 55.8751 20.6695 51.3324C18.4377 53.024 15.7139 53.9473 12.8906 53.9473C5.78281 53.9473 0 48.1646 0 41.0566C0 37.808 1.21234 34.7051 3.41359 32.3188C5.35953 30.2095 7.92422 28.8255 10.7216 28.3512C10.955 21.3565 13.6641 14.7076 18.413 9.53383L20.1397 11.1188C15.5658 16.102 13.0469 22.5723 13.0469 29.3379C13.0469 44.1999 25.138 56.291 40 56.291C54.862 56.291 66.9531 44.1999 66.9531 29.3379C66.9531 14.4759 54.862 2.38477 40 2.38477C33.2341 2.38477 26.7638 4.90383 21.7811 9.47758L20.1961 7.75102C25.6123 2.77914 32.6455 0.0410156 40 0.0410156C55.8239 0.0410156 68.7559 12.6521 69.2783 28.3513ZM6.26141 36.0846L4.65234 34.4755C3.40438 36.0351 2.63094 37.9052 2.41109 39.8846H4.6875V42.2284H2.41047C2.63609 44.2595 3.44094 46.1173 4.65547 47.6346L6.26156 46.0285L7.91859 47.6857L6.3125 49.2918C7.83 50.5063 9.68766 51.3112 11.7188 51.5368V49.2598H14.0623V51.536C15.8217 51.3399 17.4991 50.7054 18.9461 49.6887C16.7572 47.4248 14.9284 44.8107 13.5545 41.9388L8.95547 43.8548L8.05406 41.6912L12.6298 39.7849C11.5447 36.9512 10.8867 33.9079 10.737 30.7335C9.11625 31.0698 7.60203 31.7827 6.30891 32.8177L7.91859 34.4274L6.26141 36.0846ZM77.5889 39.8848H75.3125V42.2285H77.5895C77.3639 44.2596 76.5591 46.1173 75.3445 47.6348L73.7384 46.0287L72.0813 47.6859L73.6873 49.292C72.17 50.5065 70.3122 51.3113 68.2811 51.537V49.2598H65.9373V51.5359C64.178 51.3398 62.5006 50.7052 61.0536 49.6885C63.2427 47.4246 65.0713 44.8105 66.4452 41.9387L71.0442 43.8546L71.9456 41.691L67.3698 39.7848C68.4552 36.951 69.1131 33.9079 69.2627 30.7334C70.8834 31.0696 72.3977 31.7827 73.6908 32.8176L72.0811 34.4273L73.7383 36.0845L75.3473 34.4754C76.5956 36.0351 77.3691 37.9052 77.5889 39.8848ZM40 53.9473C53.5697 53.9473 64.6094 42.9076 64.6094 29.3379C64.6094 15.7682 53.5697 4.72852 40 4.72852C26.4303 4.72852 15.3906 15.7682 15.3906 29.3379C15.3906 42.9076 26.4303 53.9473 40 53.9473ZM59.8864 28.166C59.6175 23.554 57.7727 19.3588 54.8836 16.1113L56.543 14.452C59.8539 18.1277 61.9608 22.908 62.2347 28.1659H59.8864V28.166ZM41.1719 9.45148C45.7839 9.72023 49.9791 11.5651 53.2266 14.4541L54.8858 12.7948C51.21 9.48398 46.4297 7.37695 41.1719 7.10305V9.45148ZM38.8281 9.45148C34.2161 9.72039 30.0209 11.5651 26.7734 14.4541L25.1141 12.7948C28.7898 9.48383 33.5702 7.37695 38.828 7.10305V9.45148H38.8281ZM20.1134 28.166C20.3823 23.554 22.2272 19.3588 25.1162 16.1113L23.4569 14.4521C20.1461 18.1279 18.0391 22.9082 17.7652 28.166H20.1134ZM20.1131 30.5098C20.372 35.0021 22.115 39.2138 25.1078 42.5729L23.457 44.2238C20.1462 40.548 18.0392 35.7677 17.7653 30.5099H20.1131V30.5098ZM27.2267 43.7685L25.1142 45.881C29.0612 49.4363 34.282 51.6035 40 51.6035C45.6839 51.6035 50.8762 49.4616 54.815 45.9438L52.7545 43.7685H43.5156V41.4248H52.7639C55.872 38.147 57.5781 33.874 57.5781 29.3379C57.5781 19.6452 49.6927 11.7598 40 11.7598C30.3073 11.7598 22.4219 19.6452 22.4219 29.3379C22.4219 33.874 24.128 38.147 27.2362 41.4248H36.4845V43.7685H27.2267ZM56.4806 44.294L54.8719 42.5955C57.8772 39.2327 59.6273 35.0123 59.8869 30.5098H62.2348C61.9591 35.8009 59.8278 40.6091 56.4806 44.294ZM45.6211 33.653C45.817 32.1002 45.3964 30.5641 44.437 29.3276C43.3034 27.8666 41.5402 27.0357 39.7134 27.0627L35.4016 21.5055C34.8277 20.7659 33.9973 20.2935 33.0639 20.1757C32.1298 20.0577 31.2086 20.309 30.4689 20.8832C28.9373 22.0715 28.6581 24.2845 29.8464 25.816L34.1583 31.3732C33.6784 33.136 34.045 35.0504 35.1784 36.5115C36.3319 37.998 38.0641 38.7768 39.8142 38.7766C41.0692 38.7766 42.3337 38.376 43.3997 37.549C44.6362 36.5893 45.4252 35.2059 45.6211 33.653ZM31.9056 22.7351C32.1109 22.5757 32.3597 22.4916 32.6186 22.4916C32.6689 22.4916 32.7195 22.4948 32.7703 22.5012C33.0828 22.5405 33.3595 22.6974 33.5497 22.9426L39.2969 30.3496C39.487 30.5948 39.5702 30.9018 39.5308 31.2143C39.4914 31.5268 39.3345 31.8035 39.0894 31.9938C38.8441 32.184 38.5366 32.2671 38.2247 32.2277C37.9123 32.1884 37.6355 32.0316 37.4453 31.7863L31.6981 24.3793C31.302 23.8688 31.395 23.1312 31.9056 22.7351ZM37.0303 35.0748C38.2186 36.6062 40.4316 36.8854 41.963 35.6971C43.4944 34.5087 43.7736 32.296 42.5855 30.7646C42.337 30.4445 42.0377 30.1755 41.7048 29.9627C41.8672 30.4535 41.9231 30.978 41.8563 31.5076C41.7384 32.4412 41.2661 33.2715 40.5263 33.8455C39.9056 34.3271 39.157 34.5815 38.3811 34.5815C38.2319 34.5815 38.0817 34.5721 37.9313 34.553C37.4016 34.4862 36.9075 34.3016 36.4722 34.0224C36.5958 34.3976 36.7819 34.7545 37.0303 35.0748ZM41.1719 43.7685V41.4248H38.8281V43.7685H41.1719ZM49.1691 18.791H51.5128V21.1348H49.1691V18.791ZM53.8567 23.4784H51.513V25.8221H53.8567V23.4784Z" fill="#F4BC20"></path>
</svg>
