<?xml version="1.0" encoding="UTF-8"?>
<svg xmlns="http://www.w3.org/2000/svg" width="70" height="69" viewBox="0 0 70 69" fill="none">
  <path fill-rule="evenodd" clip-rule="evenodd" d="M23.1396 2.36938H29.873V12.6233H40.127V2.36938H46.8604V24.0393H48.9111V0.318604H21.0889V8.52173H23.1396V2.36938ZM38.0762 10.5725H31.9238V2.36938H38.0762V10.5725ZM21.0889 10.5724H23.1396V24.0393H21.0889V10.5724ZM16.9873 28.1407H10.2539V34.2931H8.20312V26.09H36.0254V49.8107H33.9746V28.1407H27.2412V38.3946H16.9873V28.1407ZM19.0381 36.344H25.1904V28.1409H19.0381V36.344ZM10.2539 36.3439H8.20312V49.8107H10.2539V36.3439ZM70 58.0138V51.8614H48.9111V53.9122H67.9492V55.963H2.05078V53.9122H21.0889V51.8614H0V58.0138H4.10156V62.1153H0V68.2677H60.7715V66.2169H2.05078V64.1661H8.20312V62.1153H6.15234V58.0138H12.3047V62.1153H10.2539V64.1661H67.9492V66.2169H62.8223V68.2677H70V62.1153H65.8984V58.0138H70ZM39.5265 58.0138H55.6445V62.1153H39.5265V58.0138ZM31.3234 62.1153H37.4757V58.0138H31.3234V62.1153ZM14.3555 58.0138H29.2726V62.1153H14.3555V58.0138ZM57.6953 62.1153H63.8477V58.0138H57.6953V62.1153ZM23.1396 51.8614H46.8602V53.9122H23.1396V51.8614ZM61.7969 49.8107V26.09H38.0762V28.1407H42.7588V38.3946H53.0127V28.1407H59.7461V49.8107H61.7969ZM50.9619 36.344H44.8096V28.1409H50.9619V36.344ZM55.6445 30.1915H57.6953V32.2423H55.6445V30.1915ZM57.6953 34.2931H55.6445V40.4454H57.6953V34.2931ZM38.0762 47.7599H40.127V49.8107H38.0762V47.7599ZM31.9238 30.1915H29.873V32.2423H31.9238V30.1915ZM29.873 34.2931H31.9238V40.4454H29.873V34.2931ZM23.1396 30.1915H21.0889V32.2423H23.1396V30.1915ZM33.9746 4.42003H36.0254V6.47081H33.9746V4.42003ZM27.2412 21.9885H25.1904V24.0393H27.2412V21.9885ZM12.3047 47.7599H14.3555V49.8107H12.3047V47.7599ZM48.9111 30.1915H46.8604V32.2423H48.9111V30.1915ZM42.7588 4.42003H44.8096V6.47081H42.7588V4.42003ZM44.8096 8.52159H42.7588V14.6739H44.8096V8.52159ZM19.0381 47.7599H25.1904V49.8107H19.0381V47.7599ZM50.9619 43.6584H44.8096V45.7092H50.9619V43.6584ZM44.8096 47.7599H50.9619V49.8107H44.8096V47.7599ZM38.0762 17.887H31.9238V19.9377H38.0762V17.887ZM31.9238 21.9885H38.0762V24.0393H31.9238V21.9885ZM25.1904 43.6584H19.0381V45.7092H25.1904V43.6584Z" fill="#F4BC20"></path>
</svg>
