<?xml version="1.0" encoding="UTF-8"?>
<svg xmlns="http://www.w3.org/2000/svg" width="59" height="75" viewBox="0 0 59 75" fill="none">
  <path fill-rule="evenodd" clip-rule="evenodd" d="M53.7294 1.46599L50.4404 0.369644L47.1514 1.46599L43.8629 0.369644L40.5739 1.46599L37.2854 0.369644L33.9523 1.48029L28.5027 0.118446V16.8858H30.7199V2.95773L34.041 3.78799L37.2854 2.70653L40.5745 3.80287L43.8629 2.70653L47.1519 3.80287L50.4404 2.70653L53.7294 3.80287L55.9095 3.07617V62.6055L52.589 61.7752L49.3441 62.8567L46.0556 61.7603L42.7666 62.8567L39.4781 61.7603L37.2974 62.487V37.7146H35.0807V72.7827H32.9126V21.2831H35.0807V26.7523H37.2974V19.0659H0V75H37.2974V64.8239L39.4781 64.0972L42.7666 65.1936L46.0556 64.0972L49.3441 65.1936L52.6772 64.0829L58.1268 65.4448V0L53.7294 1.46599ZM30.6953 64.0125H2.21729V26.7643H30.6953V64.0125ZM30.6953 24.547V21.2831H2.21729V24.547H30.6953ZM2.21729 72.7827V66.2298H30.6953V72.7827H2.21729ZM37.2974 28.9444H35.0807V31.1371H37.2974V28.9444ZM37.2974 33.0557H35.0807V35.5219H37.2974V33.0557ZM13.1676 45.8599L26.0101 33.0173L24.4429 31.4495L13.1676 42.7248L9.56612 39.1233L7.99885 40.6912L13.1676 45.8599ZM18.6487 35.5345H12.0838V37.7146H9.86652V33.3172H18.6487V35.5345ZM23.0215 47.5685H12.0838V46.4848H9.86652V49.7858H25.2388V37.7146H23.0215V47.5685ZM25.2262 53.0502H9.87854V55.2675H25.2262V53.0502ZM14.2639 57.435V59.6523H12.0712V57.435H14.2639ZM18.6487 57.435H16.456V59.6523H18.6487V57.435ZM20.8414 57.435H23.0341V59.6523H20.8414V57.435ZM4.39739 68.3979H6.59008V70.6152H4.39739V68.3979ZM28.5152 68.3979H26.3226V70.6152H28.5152V68.3979ZM35.0927 10.2957H37.2854V12.513H35.0927V10.2957ZM51.5368 10.2957H39.4775V12.513H51.5368V10.2957ZM35.0927 14.6811H37.2854V16.8983H35.0927V14.6811ZM51.5368 14.6811H39.4775V16.8983H51.5368V14.6811ZM39.4775 19.0659H51.5368V21.2831H39.4775V19.0659ZM51.5368 23.4512H39.4775V25.668H51.5368V23.4512ZM44.9593 47.5685H52.6331V49.7858H44.9593V47.5685ZM52.6331 54.1712V51.9539H50.4404V54.1712H52.6331ZM46.0556 51.9539H48.2477V54.1712H46.0556V51.9539ZM43.8629 51.9539H41.6702V54.1712H43.8629V51.9539Z" fill="#F4BC20"></path>
</svg>
