<?xml version="1.0" encoding="UTF-8"?>
<svg xmlns="http://www.w3.org/2000/svg" width="70" height="70" viewBox="0 0 70 70" fill="none">
  <path fill-rule="evenodd" clip-rule="evenodd" d="M51.9765 33.685V46.2514H70V69.2308H63.8477V67.2025H67.9492V52.3362H2.05078V67.2025H57.6953V69.2308H0V46.2513H18.0235V37.7413H20.0743V46.2513H33.9745V33.7962L30.9354 36.2157L26.6528 29.8635L23.642 30.4188C23.0461 30.5286 20.0743 31.2025 20.0743 33.685V35.7132H18.0235V33.685C18.0235 30.5162 20.8477 28.871 23.266 28.4249L30.1409 27.157V24.8314C29.6738 24.4765 29.2309 24.0693 28.8187 23.6109C27.4596 22.0999 26.5964 20.1916 26.3694 18.2541H23.231C21.5348 18.2541 20.1548 16.8892 20.1548 15.2117V13.1836C20.1548 11.8482 21.0295 10.712 22.2418 10.3035C22.6837 4.54935 27.5555 0 33.4849 0H36.5151C42.4445 0 47.3163 4.54935 47.7582 10.3035C48.9705 10.712 49.8452 11.8483 49.8452 13.1836V15.2117C49.8452 16.5337 48.9878 17.661 47.7944 18.0796V19.2682C47.7944 20.9457 46.4144 22.3106 44.7182 22.3106H42.1667C41.8752 22.7676 41.5471 23.2041 41.1813 23.6108C40.7691 24.0692 40.3261 24.4763 39.8591 24.8313V27.157L46.7342 28.4249C49.1526 28.8709 51.9765 30.516 51.9765 33.685ZM38.5822 33.2278L41.0133 29.4329L39.1672 29.0925L36.5464 31.6072L38.5822 33.2278ZM44.7182 20.2823H43.1573C43.391 19.6206 43.5503 18.9393 43.6305 18.2541H45.7435V19.2682C45.7436 19.8274 45.2837 20.2823 44.7182 20.2823ZM31.8715 11.5584C34.2178 13.7569 36.0764 14.1563 41.6421 14.1942V11.1553C41.6421 8.35934 39.3422 6.08474 36.5151 6.08474H33.4849C30.6578 6.08474 28.3579 8.35934 28.3579 11.1553V12.6585C29.0958 12.1198 29.9534 11.6501 30.8172 11.3409L31.4122 11.128L31.8715 11.5584ZM47.7944 15.2117C47.7944 15.771 47.3345 16.2258 46.769 16.2258H43.6929V12.1695H46.769C47.3345 12.1695 47.7944 12.6243 47.7944 13.1836V15.2117ZM36.5151 2.02825H33.4849C28.7429 2.02825 24.8266 5.58416 24.3146 10.1412H26.3815C26.8808 6.70578 29.8754 4.05649 33.4849 4.05649H36.5151C40.1248 4.05649 43.1192 6.70578 43.6185 10.1412H45.6853C45.1734 5.58416 41.2571 2.02825 36.5151 2.02825ZM22.2056 15.2117V13.1836C22.2056 12.6243 22.6655 12.1695 23.231 12.1695H26.3071V16.2258H23.231C22.6655 16.2258 22.2056 15.771 22.2056 15.2117ZM28.3579 15.472V17.2399C28.3579 21.0353 31.5238 24.4919 35 24.492C36.7287 24.492 38.3801 23.6368 39.6041 22.3107H36.413V20.2825H40.9587C41.3932 19.3407 41.6421 18.3037 41.6421 17.2401V16.2231C36.1968 16.1915 33.7076 15.8472 30.9559 13.4761C29.702 14.0487 28.7171 14.9183 28.3579 15.472ZM35 26.5201C35.9646 26.5201 36.9101 26.336 37.8083 25.9861V27.5703L35 30.2651L32.1917 27.5703V25.9863C33.0898 26.336 34.0354 26.5201 35 26.5201ZM30.833 29.0925L28.8452 29.459L31.3972 33.2443L33.4537 31.6072L30.833 29.0925ZM36.0254 33.7962L39.0853 36.2322L43.1845 29.8335L46.3582 30.4188C46.9539 30.5287 49.9257 31.2025 49.9257 33.685V46.2514H36.0254V33.7962ZM2.05078 48.2797V50.3079H67.9492V48.2797H2.05078ZM59.7461 67.2025H61.7969V69.2308H59.7461V67.2025ZM11.2124 57.7333C11.1691 57.6995 10.2914 57.0284 9.35881 57.3062C8.96984 57.4219 8.89383 57.6691 8.87906 57.77C8.86744 57.851 8.86936 57.9946 8.99568 58.1038C9.26406 58.2197 10.0651 58.5604 10.9237 58.8736C12.8078 59.561 13.2784 60.9169 13.0907 61.9564C12.8425 63.3313 11.5201 64.3292 9.94643 64.3292C8.6815 64.3292 7.49396 63.8247 6.68787 62.9448L5.99936 62.1932L7.51912 60.8314L8.2075 61.5829C8.61943 62.0327 9.26953 62.3011 9.94643 62.3011C10.5633 62.3011 11.0109 61.9371 11.0718 61.6C11.152 61.1558 10.4356 60.8575 10.2141 60.7766C9.09822 60.3696 8.10701 59.9333 8.06531 59.9149C8.01596 59.8931 7.96838 59.8676 7.92312 59.8384C7.12455 59.3233 6.71303 58.4205 6.8492 57.482C6.99385 56.485 7.72885 55.6734 8.76736 55.3641C10.7924 54.7609 12.4569 56.1183 12.5269 56.1764L13.3118 56.8289L11.9923 58.3815L11.2124 57.7333ZM15.2548 55.2095V61.1033C15.2548 62.8797 16.8118 64.3267 18.7253 64.3292H18.7305C19.7226 64.3292 20.682 63.9434 21.3635 63.2704C21.9595 62.6817 22.2879 61.9102 22.2879 61.0982V55.2095H20.2371V61.0982C20.2371 61.3759 20.1286 61.6239 19.9145 61.8352C19.6235 62.1226 19.17 62.3009 18.7305 62.3009H18.7281C18.0554 62.3 17.3057 61.8079 17.3057 61.1033V55.2095H15.2548ZM64.5416 55.2096V57.2379H62.5537V64.1027H60.503V57.2379H58.5311V55.2096H64.5416ZM53.8363 55.2095C55.4873 55.2095 56.8306 56.4912 56.8306 58.0666C56.8306 59.291 56.019 60.3376 54.8826 60.7435L56.8753 62.9827L55.3358 64.3227L52.9543 61.6465L52.9539 64.3293L50.9031 64.329L50.9045 55.2095H53.8363ZM53.8362 57.2378H52.9549L52.9545 58.8993L53.8315 58.8955C54.3476 58.8955 54.7796 58.5158 54.7796 58.0666C54.7796 57.6174 54.3476 57.2378 53.8362 57.2378ZM24.0767 55.2095V64.3292H26.1275V61.2445L27.0986 61.2402C28.8016 61.2402 30.1871 59.8875 30.1871 58.2248C30.1871 56.5621 28.8016 55.2094 27.0986 55.2094H24.0767V55.2095ZM28.1362 58.2248C28.1362 58.7599 27.6609 59.2119 27.0938 59.2119L26.1275 59.2162V57.2376H27.0986C27.6609 57.2378 28.1362 57.6898 28.1362 58.2248ZM44.5195 64.3292C41.9773 64.3292 39.909 62.2836 39.909 59.7693C39.909 57.2551 41.9773 55.2095 44.5195 55.2094C47.0617 55.2094 49.13 57.2549 49.13 59.7693C49.13 62.2836 47.0617 64.3292 44.5195 64.3292ZM44.5195 62.3009C45.9309 62.3009 47.0792 61.1651 47.0792 59.7693C47.0792 58.3734 45.9309 57.2376 44.5195 57.2376C43.108 57.2376 41.9598 58.3733 41.9598 59.7693C41.9598 61.1652 43.108 62.3009 44.5195 62.3009ZM31.9756 55.2095V64.3292H34.0264V61.2445L34.9977 61.2402C36.7005 61.2402 38.086 59.8875 38.086 58.2248C38.086 56.5621 36.7005 55.2094 34.9977 55.2094H31.9756V55.2095ZM36.0351 58.2248C36.0351 58.7599 35.5599 59.2119 34.9929 59.2119L34.0264 59.2162V57.2376H34.9977C35.56 57.2378 36.0351 57.6898 36.0351 58.2248ZM45.8243 37.7415H47.8751V39.7697H45.8243V37.7415ZM47.8751 33.685H45.8243V35.7132H47.8751V33.685Z" fill="#F4BC20"></path>
</svg>
