<?xml version="1.0" encoding="UTF-8"?>
<svg xmlns="http://www.w3.org/2000/svg" width="78" height="78" viewBox="0 0 78 78" fill="none">
  <g filter="url(#filter0_d_0_13361)">
    <path fill-rule="evenodd" clip-rule="evenodd" d="M62.7106 9.25522C66.2327 12.5007 69.0076 16.3539 70.9575 20.707C72.9762 25.2139 74 30.0231 74 35C74 44.3481 70.3593 53.1377 63.7488 59.7482C57.1377 66.3593 48.3487 70 39 70C29.6519 70 20.8623 66.3593 14.2518 59.7482C7.64067 53.1377 4 44.3481 4 35C4 25.6519 7.64067 16.8623 14.2518 10.2518C20.8623 3.64067 29.6519 0 39 0C47.06 0 54.9277 2.80701 61.1543 7.90298L59.8432 9.50462C53.9857 4.71039 46.5831 2.07001 39 2.07001C30.2046 2.07001 21.9353 5.49545 15.7151 11.7151C9.49545 17.9353 6.07001 26.2046 6.07001 35C6.07001 43.7954 9.49545 52.0647 15.7151 58.2849C21.9353 64.5045 30.2046 67.93 39 67.93C47.7954 67.93 56.0647 64.5045 62.2849 58.2849C68.5045 52.0647 71.93 43.7954 71.93 35C71.93 30.3163 70.9671 25.7923 69.0685 21.5535C67.2335 17.4573 64.6225 13.8316 61.3076 10.7773L62.7106 9.25522ZM33.5216 17.5304H35.7129V19.6004H33.5216V17.5304ZM42.2871 17.5304H44.4784V19.6004H42.2871V17.5304ZM35.7129 50.3996H33.5216V52.4696H35.7129V50.3996ZM42.2871 50.3996H44.4784V52.4696H42.2871V50.3996ZM17.0871 29.5825H14.8958V31.6525H17.0871V29.5825ZM14.8958 38.3475H17.0871V40.4175H14.8958V38.3475ZM63.1042 29.5825H60.9129V31.6525H63.1042V29.5825ZM60.9129 38.3475H63.1042V40.4175H60.9129V38.3475ZM23.0808 58.5551C27.7875 61.7419 33.292 63.4263 39 63.4263C46.5943 63.4263 53.733 60.4697 59.1014 55.1014C64.4697 49.733 67.4263 42.5943 67.4263 35C67.4263 27.4057 64.4697 20.267 59.1014 14.8986C53.733 9.53026 46.5943 6.57372 39 6.57372C31.4057 6.57372 24.267 9.53026 18.8986 14.8986C13.5303 20.267 10.5737 27.4057 10.5737 35C10.5737 43.4611 14.3036 51.4228 20.8068 56.8446L22.1323 55.2547C16.1023 50.2276 12.6437 42.8453 12.6437 35C12.6437 27.9585 15.385 21.3393 20.3625 16.3625C25.0947 11.6296 31.3122 8.9209 37.965 8.66562V14.183H40.035V8.66562C46.6883 8.92036 52.9053 11.6296 57.6381 16.3619C62.615 21.3393 65.3563 27.9585 65.3563 35C65.3563 42.0415 62.6155 48.6607 57.6381 53.6375C52.9053 58.3704 46.6883 61.0791 40.035 61.3344V55.817H37.965V61.336C33.0437 61.1459 28.3188 59.6019 24.2413 56.8414L23.0808 58.5551ZM40.0954 17.5304H37.9041V19.6004H40.0954V17.5304ZM37.9041 50.3996H40.0954V52.4696H37.9041V50.3996ZM17.0871 33.965H14.8958V36.035H17.0871V33.965ZM60.9129 33.965H63.1042V36.035H60.9129V33.965ZM32.0316 46.5324L50.5324 28.0316L45.9684 23.4676L27.4676 41.9684L32.0316 46.5324ZM47.6053 28.0316L32.0316 43.6053L30.3947 41.9684L45.9684 26.3947L47.6053 28.0316ZM31.8783 24.1042C33.959 24.1042 35.6525 25.7971 35.6525 27.8783C35.6525 29.959 33.959 31.6525 31.8783 31.6525C29.7971 31.6525 28.1042 29.959 28.1042 27.8783C28.1042 25.7971 29.7971 24.1042 31.8783 24.1042ZM31.8783 26.1742C30.9384 26.1742 30.1742 26.9384 30.1742 27.8783C30.1742 28.8177 30.9384 29.5825 31.8783 29.5825C32.8183 29.5825 33.5825 28.8177 33.5825 27.8783C33.5825 26.9384 32.8183 26.1742 31.8783 26.1742ZM42.3475 42.1217C42.3475 44.2029 44.041 45.8958 46.1217 45.8958C48.2029 45.8958 49.8958 44.2029 49.8958 42.1217C49.8958 40.041 48.2029 38.3475 46.1217 38.3475C44.041 38.3475 42.3475 40.041 42.3475 42.1217ZM47.8258 42.1217C47.8258 43.0616 47.0616 43.8258 46.1217 43.8258C45.1817 43.8258 44.4175 43.0616 44.4175 42.1217C44.4175 41.1823 45.1817 40.4175 46.1217 40.4175C47.0616 40.4175 47.8258 41.1823 47.8258 42.1217Z" fill="#F4BC20"></path>
  </g>
  <defs>
    <filter id="filter0_d_0_13361" x="0" y="0" width="78" height="78" color-interpolation-filters="sRGB">
      <feFlood flood-opacity="0" result="BackgroundImageFix"></feFlood>
      <feColorMatrix in="SourceAlpha" type="matrix" values="0 0 0 0 0 0 0 0 0 0 0 0 0 0 0 0 0 0 127 0" result="hardAlpha"></feColorMatrix>
      <feOffset dy="4"></feOffset>
      <feGaussianBlur stdDeviation="2"></feGaussianBlur>
      <feComposite in2="hardAlpha" operator="out"></feComposite>
      <feColorMatrix type="matrix" values="0 0 0 0 0 0 0 0 0 0 0 0 0 0 0 0 0 0 0.25 0"></feColorMatrix>
      <feBlend mode="normal" in2="BackgroundImageFix" result="effect1_dropShadow_0_13361"></feBlend>
      <feBlend mode="normal" in="SourceGraphic" in2="effect1_dropShadow_0_13361" result="shape"></feBlend>
    </filter>
  </defs>
</svg>
