<?xml version="1.0" encoding="UTF-8"?>
<svg xmlns="http://www.w3.org/2000/svg" width="65" height="71" viewBox="0 0 65 71" fill="none">
  <path fill-rule="evenodd" clip-rule="evenodd" d="M64.3188 12.3387C64.3188 10.4184 63.8266 8.52209 62.8957 6.85508L61.1052 7.8549C61.8658 9.21703 62.268 10.7676 62.268 12.3387C62.268 17.418 58.1357 21.5502 53.0566 21.5502C47.9775 21.5502 43.8452 17.418 43.8452 12.3387C43.8452 7.25949 47.9775 3.1273 53.0566 3.1273C55.7499 3.1273 58.3006 4.30158 60.0549 6.34895L61.6123 5.01457C59.4679 2.51193 56.3495 1.07652 53.0566 1.07652C49.7018 1.07652 46.6867 2.55281 44.6217 4.8877L29.3368 0L0 9.3748V39.4799C0 48.7504 5.06926 57.2421 13.2296 61.6412L29.0202 70.1537L45.2282 61.6007C48.2784 59.9912 50.9209 57.8145 53.0826 55.1312L51.4854 53.8446C49.5001 56.3093 47.0728 58.3085 44.271 59.787L29.0304 67.8296L14.2025 59.8361C6.70701 55.7953 2.05064 47.9954 2.05064 39.48V10.8724L29.3364 2.15305L43.3513 6.63455C42.7752 7.61113 42.3432 8.68164 42.0823 9.81723L29.3362 5.74137L5.46875 13.3685V28.8817H7.51953V14.8661L29.336 7.89441L41.8059 11.8818C41.7998 12.0336 41.7942 12.1855 41.7942 12.3386C41.7942 17.8933 45.8376 22.5185 51.1349 23.4335V39.3344C51.1349 45.9017 47.5267 51.8853 41.7188 54.9501L29.0581 61.6313L16.7977 55.022C11.0748 51.937 7.51953 45.9815 7.51953 39.4799V30.941H5.46875V39.4799C5.46875 46.7366 9.43688 53.3838 15.8246 56.8273L29.0477 63.9555L42.6759 56.7638C49.1587 53.3429 53.1858 46.6643 53.1858 39.3343V23.5977C54.3785 23.5841 55.5267 23.3838 56.6037 23.0254V39.3345C56.6037 43.9619 55.2352 48.4356 52.6462 52.2721L54.3461 53.4193C57.1647 49.2428 58.6547 44.3723 58.6547 39.3345V22.1048C62.0356 20.1592 64.3188 16.5118 64.3188 12.3387ZM11.161 20.1712L11.7547 18.7708L17.5546 24.5708L20.5047 21.6206L14.7048 15.8207L16.1052 15.2271C19.6241 13.7353 23.6433 14.5171 26.3447 17.2184C28.8795 19.7533 29.724 23.4484 28.5861 26.8017L35.3721 33.5877C38.7264 32.4498 42.421 33.2946 44.9556 35.8292C47.6567 38.5305 48.4384 42.5497 46.9468 46.0687L46.3531 47.4692L40.5532 41.6693L37.6031 44.6194L43.403 50.4193L42.0026 51.0129C40.8172 51.5154 39.5746 51.7599 38.3452 51.7599C35.9249 51.7601 33.5546 50.813 31.763 49.0216C29.2283 46.4867 28.3838 42.7916 29.5217 39.4383L22.7356 32.6523C19.3817 33.7903 15.6868 32.9455 13.1522 30.4108C10.4511 27.7095 9.66943 23.6902 11.161 20.1712ZM24.8946 18.6687C23.1715 16.9455 20.7605 16.2237 18.4382 16.6538L23.4049 21.6207L17.5546 27.4712L12.5878 22.5043C12.1574 24.827 12.8793 27.2377 14.6025 28.9607C16.7098 31.0681 19.8457 31.6779 22.5915 30.514L23.228 30.2442L31.9297 38.946L31.6598 39.5824C30.4959 42.3281 31.1056 45.4639 33.2131 47.5714C34.936 49.2945 37.3468 50.0162 39.6695 49.5863L34.7028 44.6194L40.5531 38.7691L45.5198 43.7359C45.9502 41.4131 45.2283 39.0024 43.5051 37.2794C41.3978 35.172 38.2618 34.5622 35.5161 35.7261L34.8797 35.9959L26.1779 27.2941L26.4478 26.6577C27.6117 23.912 27.0021 20.7762 24.8946 18.6687ZM47.3156 12.1431L48.7659 10.693L51.9984 13.9256L57.0737 8.85008L58.524 10.3003L51.9984 16.8258L47.3156 12.1431Z" fill="#F4BC20"></path>
</svg>
