<?xml version="1.0" encoding="UTF-8"?>
<svg xmlns="http://www.w3.org/2000/svg" width="70" height="46" viewBox="0 0 70 46" fill="none">
  <path fill-rule="evenodd" clip-rule="evenodd" d="M0 45.8157H11.9704V43.7495H2.06627V2.06627H27.2829V0H0V45.8157ZM65.3938 32.1198L63.5459 31.1959L67.6897 22.9079L57.2691 2.06627H30.5641V0H58.5461L70 22.9079L65.3938 32.1198ZM58.5461 45.8157H15.2516V43.7495H57.2691L61.9053 34.4772L63.7531 35.4011L58.5461 45.8157ZM54.687 22.9079C54.687 25.2871 56.6224 27.2225 59.0011 27.2225C61.3803 27.2225 63.3157 25.2871 63.3157 22.9079C63.3157 20.5292 61.3803 18.5938 59.0011 18.5938C56.6224 18.5938 54.687 20.5292 54.687 22.9079ZM56.7532 22.9079C56.7532 21.6683 57.7615 20.66 59.0011 20.66C60.2406 20.66 61.2495 21.6683 61.2495 22.9079C61.2495 24.1474 60.2406 25.1562 59.0011 25.1562C57.7615 25.1562 56.7532 24.1474 56.7532 22.9079ZM4.375 14.1579H6.44127V6.44127H10.8766V4.375H4.375V14.1579ZM4.375 16.3454H6.44127V18.5329H4.375V16.3454ZM6.44127 20.7204H4.375V22.9079H6.44127V20.7204ZM19.0514 29.864L23.608 34.4205L42.0763 15.9518L37.5202 11.3952L19.0514 29.864ZM23.608 31.4982L21.9738 29.864L37.5202 14.3176L39.1544 15.9518L23.608 31.4982ZM23.4547 19.5663C21.3773 19.5663 19.6875 17.876 19.6875 15.7985C19.6875 13.721 21.3773 12.0312 23.4547 12.0312C25.5322 12.0312 27.2225 13.721 27.2225 15.7985C27.2225 17.876 25.5322 19.5663 23.4547 19.5663ZM23.4547 14.0975C22.5169 14.0975 21.7538 14.8607 21.7538 15.7985C21.7538 16.7368 22.5169 17.5 23.4547 17.5C24.3931 17.5 25.1562 16.7368 25.1562 15.7985C25.1562 14.8607 24.3931 14.0975 23.4547 14.0975ZM33.9057 30.0172C33.9057 32.0947 35.596 33.7845 37.6735 33.7845C39.751 33.7845 41.4407 32.0947 41.4407 30.0172C41.4407 27.9398 39.751 26.2495 37.6735 26.2495C35.596 26.2495 33.9057 27.9398 33.9057 30.0172ZM35.972 30.0172C35.972 29.0794 36.7352 28.3163 37.6735 28.3163C38.6113 28.3163 39.3745 29.0794 39.3745 30.0172C39.3745 30.9556 38.6113 31.7188 37.6735 31.7188C36.7352 31.7188 35.972 30.9556 35.972 30.0172ZM54.6261 39.3745H52.4386V41.4407H54.6261V39.3745ZM48.0636 39.3745H50.2511V41.4407H48.0636V39.3745ZM45.8766 39.3745H43.6891V41.4407H45.8766V39.3745Z" fill="#F4BC20"></path>
</svg>
