<?xml version="1.0" encoding="UTF-8"?>
<svg xmlns="http://www.w3.org/2000/svg" width="65" height="70" viewBox="0 0 65 70" fill="none">
  <path fill-rule="evenodd" clip-rule="evenodd" d="M29.9482 0V2.16494H62.062V17.3195H59.897V11.9072C59.897 10.5146 58.7639 9.3815 57.3713 9.3815H35.7217C34.3291 9.3815 33.196 10.5146 33.196 11.9072V17.3197H31.0311V11.9072C31.0311 10.5146 29.8979 9.3815 28.5053 9.3815H6.85576C5.46314 9.3815 4.33002 10.5146 4.33002 11.9072V17.3197H2.16494V2.16494H26.3408V0H0V70H7.93816V62.7834H56.2887V70H64.2269V0H29.9482ZM35.3609 11.9072C35.3609 11.7117 35.5262 11.5464 35.7217 11.5464H57.3713C57.5668 11.5464 57.7321 11.7117 57.7321 11.9072V24.8969C57.7321 25.0924 57.5668 25.2577 57.3713 25.2577H35.7217C35.5262 25.2577 35.3609 25.0924 35.3609 24.8969V11.9072ZM6.85576 11.5464C6.66025 11.5464 6.49496 11.7117 6.49496 11.9072V24.8969C6.49496 25.0924 6.66025 25.2577 6.85576 25.2577H28.5053C28.7008 25.2577 28.8661 25.0924 28.8661 24.8969V11.9072C28.8661 11.7117 28.7008 11.5464 28.5053 11.5464H6.85576ZM5.77322 67.8351H2.16494V62.7836H5.77322V67.8351ZM58.4537 67.8351H62.062V62.7836H58.4537V67.8351ZM62.0618 34.6392H6.13402V36.8041H62.0618V51.9587H57.3714V54.1237H62.0618V60.6185H2.16494V58.4536H53.0413V56.2886H2.16494V54.1237H53.7627V51.9587H2.16494V32.4743H62.0618V34.6392ZM2.16494 30.3093H62.0618V19.4846H59.8969V24.897C59.8969 26.2896 58.7638 27.4228 57.3712 27.4228H35.7216C34.329 27.4228 33.1959 26.2896 33.1959 24.897V19.4846H31.0309V24.897C31.0309 26.2896 29.8978 27.4228 28.5052 27.4228H6.85562C5.46301 27.4228 4.32988 26.2896 4.32988 24.897V19.4846H2.16494V30.3093ZM24.1753 4.32988H40.0516V6.49482H24.1753V4.32988ZM45.8248 4.32988H42.2166V6.49482H45.8248V4.32988ZM18.4021 4.32988H22.0104V6.49482H18.4021V4.32988ZM8.6599 19.8454V13.7114H14.0722V15.8763H10.8248V19.8454H8.6599ZM37.5259 13.7114V19.8454H39.6908V15.8763H42.9382V13.7114H37.5259ZM59.5361 56.2886H55.2062V58.4536H59.5361V56.2886ZM7.21656 46.9072V43.6598H5.05162V49.0722H15.5155V46.9072H7.21656ZM21.2886 46.9072H18.4021V49.0722H21.2886V46.9072Z" fill="#F4BC20"></path>
</svg>
