<?xml version="1.0" encoding="UTF-8"?>
<svg xmlns="http://www.w3.org/2000/svg" width="60" height="70" viewBox="0 0 60 70" fill="none">
  <path fill-rule="evenodd" clip-rule="evenodd" d="M10.8544 0H48.6179L59.4724 10.8545V35.4237C59.4724 41.7829 57.5691 47.3437 53.6538 52.4241C50.4894 56.5299 46.0361 60.3058 39.6383 64.3072L38.551 62.5684C44.7356 58.7003 49.0186 55.0791 52.0293 51.1723C55.6577 46.4643 57.4215 41.3129 57.4215 35.4238V11.7038L47.7684 2.05078H11.7038L2.05078 11.7038V35.4237C2.05078 42.7194 4.81893 49 10.5133 54.6243C13.3045 57.3811 17.3239 60.8855 29.7363 67.6437C31.0868 66.9096 32.2278 66.2789 33.2946 65.6768L34.3026 67.4628C33.0989 68.1423 31.8031 68.8569 30.2246 69.7121L29.7362 69.9768L29.2478 69.7121C25.9018 67.8996 21.997 65.7318 18.4048 63.397C14.611 60.9312 11.5583 58.5389 9.07225 56.0835C2.96762 50.0541 0 43.2962 0 35.4238V10.8545L10.8544 0ZM36.094 66.4379L35.0647 64.6643C35.6928 64.2998 36.2663 63.9615 36.8182 63.6301L37.874 65.3882C37.3131 65.7249 36.7309 66.0684 36.094 66.4379ZM6.15221 13.4028V35.4238C6.15221 39.3686 7.07424 42.8679 8.97094 46.1218C13.0412 53.1036 21.5011 58.4194 29.24 62.6985L29.7362 62.9729L30.2323 62.6985C37.9712 58.4195 46.4309 53.1037 50.5013 46.1218C52.3981 42.868 53.3202 39.3686 53.3202 35.4237V13.4028L46.0696 6.15234H22.0304V8.20312H45.22L51.2693 14.2524V35.4238C51.2693 38.9959 50.4386 42.1574 48.7294 45.089C44.9943 51.4963 37.0921 56.5339 29.7361 60.6286C22.3799 56.5337 14.4777 51.4962 10.7425 45.089C9.03355 42.1574 8.20285 38.9957 8.20285 35.4238V14.2522L14.2521 8.20312H19.9798V6.15234H13.4028L6.15221 13.4028ZM26.836 31.9238L21.0354 26.1233L15.235 31.9238L26.836 43.5248L44.2373 26.1234L38.4368 20.323L26.836 31.9238ZM26.836 40.6246L18.1352 31.9238L21.0354 29.0236L26.836 34.8242L38.437 23.2232L41.3372 26.1234L26.836 40.6246ZM43.1642 11.9588L44.6141 10.5089L46.064 11.9588L44.6141 13.4087L43.1642 11.9588ZM47.5119 13.4061L46.062 14.856L47.5119 16.3059L48.9618 14.856L47.5119 13.4061Z" fill="#F4BC20"></path>
</svg>
