<?xml version="1.0" encoding="UTF-8"?>
<svg xmlns="http://www.w3.org/2000/svg" width="216" height="92" viewBox="0 0 216 92" fill="none">
  <path fill-rule="evenodd" clip-rule="evenodd" d="M30.569 50.9981H35.8058L30.1475 42.8089C32.2601 41.7133 33.5275 39.5044 33.3896 37.1586C33.393 36.2799 33.1942 35.4119 32.8079 34.6197C32.4218 33.9831 31.9133 33.4266 31.3109 32.9814C30.7328 32.5936 30.0859 32.3161 29.4038 32.1633C28.5755 32.0626 27.742 32.0081 26.9074 32H20V50.9981H24.2451V44.038H25.8261L30.569 50.9981ZM28.5704 36.5881C28.7493 36.9733 28.8348 37.3941 28.8202 37.8173L28.8183 37.8154C28.8648 38.2932 28.7785 38.7745 28.5685 39.2078C28.4532 39.5272 28.2522 39.8099 27.9868 40.026C27.6703 40.2707 27.3 40.439 26.9055 40.5176C26.4102 40.5907 25.909 40.6183 25.4085 40.6002H24.1593V35.4416H25.5744C25.8493 35.4416 26.0989 35.4666 26.3233 35.4891C26.5067 35.5074 26.6734 35.5241 26.8235 35.5241C27.1463 35.5177 27.4642 35.6031 27.7389 35.77C28.0933 35.9543 28.3831 36.2394 28.5704 36.5881ZM49.4586 51H35.8955V47.4759L43.8003 35.6837H36.3112V32.0807H49.0428V35.6837L41.138 47.3877H49.4605V50.9906L49.4586 51ZM51.7051 32V51L63.2734 50.9906V47.3877H55.9502V42.5631H62.6898V38.9601H55.9483V35.603H63.2715V32H51.7051ZM69.4313 51V35.6123H64.4348V32H78.8313V35.603H73.7585V50.9906L69.4313 51ZM80.582 32V51L92.1503 50.9906V47.3877H84.8271V42.5631H91.5667V38.9601H84.8252V35.603H92.1484V32H80.582ZM106.463 51H95.0624V32H99.3896V47.3877H106.547V50.9906L106.463 51ZM119.029 51H123.19V50.9981V32H119.278V42.884L113.786 32H108.544V50.9981H112.455V37.7328L119.029 51ZM124.855 51L130.597 32H135.258L141 50.9981H136.589L135.508 47.1493H130.181L129.1 50.9981L124.855 51ZM132.927 37.3256L134.674 43.6308L131.182 43.6346L132.927 37.3256Z" fill="#FB3333"></path>
  <path fill-rule="evenodd" clip-rule="evenodd" d="M164.405 34.4908H168.703V31H164.405V34.4908ZM162.549 35.473H155.298V39.0515H161.957V42.6299H155.298V50.7559H151V31.8946H162.634V35.473H162.549ZM168.618 50.7559H164.571V36.5298H168.618V50.7559ZM180.505 40.6711H180.501L180.416 36.4478H179.574C179.196 36.4597 178.824 36.5427 178.479 36.6919C178.133 36.8383 177.795 37.0013 177.466 37.1803C177.132 37.3621 176.821 37.5804 176.539 37.8307L175.78 38.5632V36.5298H171.733V50.6814H175.78V41.1594L175.893 41.1162C176.28 40.9682 176.671 40.8189 177.132 40.6711C177.566 40.5184 178.023 40.4359 178.484 40.4269C178.723 40.4269 178.934 40.453 179.118 40.4758L179.118 40.4758C179.26 40.4933 179.386 40.5089 179.497 40.5089C179.611 40.5453 179.726 40.5651 179.833 40.5836C179.962 40.6059 180.079 40.6262 180.171 40.6711H180.501L180.501 40.6767L180.505 40.6711ZM197.699 41.8974V50.7559H201.755V41.5079C201.772 40.6879 201.687 39.8688 201.502 39.0682C201.325 38.4815 201.04 37.9304 200.66 37.4412C200.341 37.0078 199.903 36.6694 199.395 36.4646C198.899 36.2241 198.347 36.1117 197.793 36.1384C197.042 36.1664 196.314 36.3913 195.686 36.7889C194.891 37.3372 194.157 37.9616 193.493 38.6526C193.064 37.1554 191.647 36.1219 190.037 36.131C189.33 36.1186 188.632 36.287 188.014 36.6193C187.332 37.0268 186.709 37.5186 186.16 38.0823V36.5298H182.103V50.6814H186.146V40.5947C186.315 40.5136 186.462 40.412 186.61 40.3105C186.757 40.2089 186.904 40.1073 187.073 40.0262C187.386 39.8693 187.733 39.7856 188.086 39.7821C188.441 39.7652 188.793 39.8501 189.098 40.0262C189.331 40.189 189.507 40.4157 189.604 40.6767C189.785 41.0592 189.872 41.4771 189.857 41.8974V50.7559H193.987V40.6767C194.298 40.4226 194.637 40.2043 195 40.0262C195.282 39.8703 195.602 39.7863 195.927 39.7821C196.282 39.7652 196.634 39.8501 196.939 40.0262C197.172 40.189 197.348 40.4157 197.445 40.6767C197.627 41.0592 197.713 41.4771 197.699 41.8974ZM212.029 47.0154V44.0128C211.47 44.0954 210.907 44.1495 210.343 44.175C209.911 44.2454 209.487 44.3546 209.077 44.5011C208.743 44.645 208.453 44.8689 208.235 45.1516C208.011 45.4921 207.894 45.8874 207.897 46.2903C207.837 46.8018 208.023 47.3116 208.403 47.6733C208.824 47.9517 209.326 48.094 209.836 48.0796C210.216 48.0764 210.589 47.9931 210.932 47.8354C211.331 47.6108 211.699 47.3377 212.027 47.0228L212.029 47.0154ZM212.021 49.2189C211.792 49.4549 211.54 49.6699 211.27 49.8613C210.986 50.0872 210.675 50.2782 210.343 50.4298C209.992 50.6003 209.625 50.7364 209.247 50.8361C208.778 50.9451 208.297 50.9995 207.814 50.9982C206.696 51.0333 205.63 50.5478 204.947 49.6936C204.151 48.8201 203.729 47.6875 203.766 46.5252C203.711 45.6197 203.915 44.717 204.356 43.9159C204.765 43.2646 205.347 42.7311 206.042 42.3708C206.858 41.9556 207.742 41.6806 208.656 41.5582C209.668 41.3961 210.764 41.3141 211.94 41.2321V41.1501C212.014 40.5146 211.723 39.8908 211.181 39.523C210.455 39.1542 209.639 38.9852 208.82 39.0347C208.242 39.0398 207.67 39.1505 207.134 39.3609C206.483 39.5198 205.859 39.7664 205.279 40.0933H204.941V36.6938C205.159 36.61 205.444 36.5476 205.784 36.4732C206.103 36.4036 206.469 36.3235 206.873 36.2055C207.765 36.0433 208.67 35.9615 209.577 35.9613C211.304 35.8153 213.031 36.2463 214.467 37.1821C215.546 38.1352 216.106 39.5166 215.983 40.9227V50.6012H211.936L212.021 49.2189Z" fill="white"></path>
  <path d="M6.03353 45C5.32856 44.9818 4.71774 44.5078 4.52695 43.8311C4.4425 43.7469 4.4425 43.6647 4.35998 43.5805C3.61781 42.7246 3.45363 41.5122 3.94159 40.4909C3.9501 40.2652 3.92157 40.0397 3.85714 39.8232C3.80446 38.7605 3.69233 37.7015 3.52128 36.6513C3.3633 36.4317 3.27565 36.1696 3.26987 35.8994C3.26987 35.2318 3.18542 35.1476 2.934 34.897C2.53011 34.5251 2.21527 34.0674 2.01278 33.5578C1.87254 33.4114 1.75889 33.2418 1.67692 33.0566C1.52686 32.992 1.38615 32.9078 1.25853 32.806C0.634712 32.6326 0.173877 32.1064 0.0858971 31.4668L0.00337106 28.3045C-0.0249792 27.874 0.126437 27.451 0.421759 27.1356C0.572873 26.9017 0.772464 26.7027 1.00712 26.5521C1.17048 26.3927 1.37196 26.2774 1.59248 26.2173L1.67692 26.1331C1.73725 25.9133 1.85285 25.7125 2.01278 25.5496V25.3832C2.08649 25.1116 2.11501 24.8299 2.09723 24.5491C2.06657 24.1832 2.188 23.8208 2.43309 23.5466V23.1296C2.44445 23.0376 2.4134 22.9455 2.34864 22.879L2.2642 22.3777C2.02672 22.0663 1.90589 21.6819 1.92258 21.2911C1.90284 20.8694 1.84698 20.4502 1.75561 20.038C1.47715 19.1179 1.41995 18.1453 1.58864 17.199C1.58864 17.0326 1.67308 16.9484 1.75561 16.782C1.54671 16.2165 1.40625 15.6282 1.33722 15.0296C1.16654 14.754 1.07925 14.4351 1.08581 14.1113V13.8607C1.08276 13.122 1.61327 12.4882 2.34289 12.3589L3.51552 12.1925H4.60947C5.31517 11.6853 6.16751 11.4214 7.03727 11.4406C7.45566 11.4406 7.54011 11.4406 7.54011 11.3564C7.75529 11.1769 8.01654 11.061 8.29436 11.0216C8.3788 10.9375 8.54577 10.9375 8.63022 10.8552C8.86105 10.6359 9.15251 10.4907 9.46699 10.4382C9.80775 10.4236 10.1455 10.3677 10.4727 10.2717C10.7241 10.1875 10.9755 10.1875 11.3094 10.1053C11.5297 9.9478 11.7927 9.86043 12.0637 9.85466H12.1481C12.4171 9.65814 12.7366 9.54201 13.0693 9.51987C13.8236 9.51987 14.5759 9.43569 15.2477 9.43569C15.833 9.43569 16.5047 9.35152 17.0901 9.35152C17.3417 9.16358 17.6251 9.02231 17.9269 8.93447C19.1676 8.7206 20.3258 8.17211 21.2759 7.34852L21.4429 7.18208C21.6098 7.01564 21.6943 6.84729 21.9457 6.76502L22.0301 6.68085C22.2816 6.26379 22.6155 5.929 22.7844 5.67839C22.8688 5.59421 23.0358 5.51195 23.0358 5.42778C23.2684 4.92647 23.7433 4.5796 24.2929 4.50949H24.3773C24.6119 4.36349 24.8658 4.25081 25.1316 4.1747C25.389 4.15071 25.6423 4.0948 25.8858 4.00826C26.0528 4.00826 26.2217 3.92409 26.3887 3.92409C26.6528 3.65425 27.0161 3.50361 27.3943 3.50704C27.6761 3.53006 27.9597 3.50154 28.2311 3.42286L28.3155 3.33868C28.5368 3.15132 28.7932 3.00957 29.0698 2.92163C29.2472 2.6641 29.5173 2.48459 29.824 2.4204C30.033 2.21599 30.2937 2.07186 30.5783 2.00335C30.8237 1.83388 31.1166 1.74615 31.4151 1.75273H32.0849C32.3052 1.59525 32.5681 1.50789 32.8391 1.50212L34.5971 1.33568C34.8379 1.08231 35.1685 0.932666 35.5183 0.918627H36.524C36.8009 0.55089 37.2354 0.334683 37.6966 0.335135L40.4603 0.250959C40.7057 0.0814896 40.9986 -0.00623523 41.2971 0.00034488C44.156 0.468162 46.762 1.91449 48.6668 4.09053C48.7513 4.1747 48.8338 4.34114 48.9183 4.42532C49.2256 5.03429 49.1937 5.75869 48.8338 6.33841C48.4791 6.85762 47.8706 7.14519 47.2428 7.09025C46.9955 7.0959 46.7555 7.00611 46.573 6.83963C46.3642 6.72077 46.1681 6.58103 45.9876 6.42258V6.50867C46.4442 6.73612 46.8018 7.12181 46.9933 7.59339C47.1197 7.65572 47.2335 7.74067 47.3292 7.84401C48.7552 8.17575 50.2236 8.28865 51.6838 8.1788H52.6051C53.086 8.19602 53.5394 8.4065 53.8621 8.76229C54.0291 8.76229 54.1136 8.67811 54.2805 8.67811L55.0348 7.75983C55.324 7.40722 55.7508 7.19485 56.2074 7.17634C56.8246 7.19035 57.4402 7.24596 58.0499 7.34278C58.465 7.41241 58.8861 7.44061 59.3069 7.42695C59.6397 7.4491 59.9592 7.56522 60.2282 7.76174C60.7341 7.77594 61.238 7.83161 61.7347 7.92818C62.4004 8.02504 63.0715 8.08062 63.7442 8.09462C64.084 8.07754 64.4163 8.1983 64.6654 8.42941C65.0798 8.35383 65.5016 8.32559 65.9225 8.34523C66.2623 8.32815 66.5946 8.44892 66.8437 8.68003L67.9319 8.84646H68.0163C68.6045 8.81129 69.1893 8.95686 69.6918 9.26352L70.1102 9.17934H70.1946C71.7856 9.09517 73.5436 9.0129 75.1366 9.0129C78.2747 9.0072 81.4087 8.78411 84.5158 8.34523C85.138 7.46797 86.2964 7.15284 87.2794 7.59339C87.7506 7.69182 88.1512 7.99885 88.3676 8.4275C88.5346 8.76229 88.619 9.01099 88.7035 9.17934C89.7466 9.29782 90.7064 9.80485 91.3904 10.5989C91.648 10.8823 91.9616 11.1097 92.3116 11.2665C92.5841 11.3556 92.8195 11.5318 92.9814 11.7677C93.929 12.7205 94.1337 14.1816 93.4842 15.3567V15.4409C94.5592 17.6183 95.0768 20.0271 94.9908 22.4523C94.9908 23.2823 94.3159 23.9551 93.4833 23.9551C92.6507 23.9551 91.9757 23.2823 91.9757 22.4523C92.061 20.6448 91.7165 18.8428 90.9701 17.1933C90.546 16.9177 90.2932 16.4447 90.3003 15.9402C90.3063 15.3585 90.4497 14.7863 90.7186 14.2701C90.7334 14.1826 90.7619 14.098 90.8031 14.0195V14.0195C90.2594 13.7189 89.7536 13.3548 89.2965 12.9347C88.6267 12.3512 88.5423 12.2671 88.1239 12.3512C87.6347 12.437 87.1342 12.2816 86.7804 11.9342C86.537 11.6728 86.3132 11.394 86.1106 11.1001L85.6078 11.3507C82.1486 11.9286 78.6458 12.2077 75.1385 12.1848C73.463 12.1848 71.8758 12.269 70.3654 12.3512L69.2772 12.5177C68.7708 12.6117 68.2538 12.4188 67.9338 12.0164H67.431L65.673 11.7658C65.4949 11.7487 65.3231 11.6918 65.1701 11.5994C65.0254 11.5867 64.8802 11.6159 64.7517 11.6836C64.5003 11.6836 64.2489 11.7677 63.9975 11.7677C63.5356 11.8374 63.0683 11.6823 62.7404 11.3507C62.2345 11.3365 61.7306 11.2808 61.2338 11.1843C60.5983 11.0877 59.9573 11.0321 59.3146 11.0178C58.9397 11.0051 58.5823 10.8569 58.309 10.6008C58.0575 10.6008 57.8906 10.5166 57.6391 10.5166C57.3877 10.5166 57.1363 10.4324 56.8849 10.4324L56.2151 11.2665C55.9684 11.5836 55.6079 11.7928 55.2094 11.85C54.4552 11.9342 54.3727 11.9342 53.7854 12.7683C53.4961 13.1209 53.0693 13.3333 52.6127 13.3518C52.1334 13.3477 51.656 13.2919 51.1887 13.1853L50.9373 13.1012C50.2437 12.9331 49.7578 12.3108 49.7646 11.5994V11.5152C48.3985 11.6344 47.0277 11.344 45.8283 10.6811L45.5769 10.5969C45.1044 10.4858 44.7237 10.1381 44.5713 9.67866C44.5713 9.59448 44.4868 9.51222 44.4868 9.34387C43.9541 9.1731 43.5247 8.77589 43.3142 8.25915C43.0628 7.42504 42.9783 6.6732 42.8113 5.92135C42.3969 5.36012 42.1369 4.70061 42.0571 4.00826L41.9726 3.75765V3.3406H41.8057C41.6202 3.41524 41.4194 3.44412 41.2203 3.42477L38.4566 3.50895C37.8328 3.98161 37.0609 4.21821 36.2783 4.17662C36.1939 4.17662 36.1114 4.26079 36.0269 4.26079L35.5241 4.42723C35.3957 4.49486 35.2504 4.52409 35.1057 4.51141L33.6817 4.59558C33.4253 4.75664 33.1418 4.87007 32.8449 4.93037H32.0906L31.5878 5.18099C31.4609 5.32867 31.2796 5.41904 31.085 5.4316C30.9381 5.5714 30.7679 5.68468 30.5821 5.76639C30.4065 5.83283 30.238 5.9168 30.0793 6.01701C29.5441 6.41481 28.9034 6.64699 28.2369 6.68467C28.0023 6.83068 27.7484 6.94336 27.4826 7.01946C27.1982 7.04247 26.9174 7.09833 26.6458 7.1859C26.5614 7.1859 26.3944 7.27008 26.31 7.27008C26.0725 7.46529 25.7802 7.58226 25.4732 7.60487H25.3888C25.2218 7.77131 25.1373 7.93966 24.9704 8.02192C25.1373 8.02192 25.1373 8.1061 25.0548 8.18836C24.9955 8.56197 24.7836 8.89439 24.4695 9.10664L24.218 9.35726C24.0597 9.54147 23.8588 9.68459 23.6327 9.77431L23.3813 9.85849C22.2241 10.7735 20.8808 11.4263 19.445 11.7716C19.1813 12.0996 18.7783 12.2852 18.3568 12.2728C17.4356 12.357 16.5988 12.357 15.6699 12.357C15.1662 12.3434 14.6623 12.3716 14.1633 12.4412C13.9287 12.5872 13.6749 12.6998 13.409 12.7759H13.2421C13.0218 12.9334 12.7589 13.0208 12.4878 13.0266C12.0922 13.041 11.6991 13.0968 11.3152 13.193C11.0638 13.193 10.8968 13.2772 10.6454 13.2772C10.4251 13.4347 10.1622 13.522 9.89114 13.5278C9.70287 13.6264 9.50715 13.7102 9.30578 13.7784C8.70516 14.1511 8.0023 14.3264 7.29637 14.2796C6.79353 14.2796 6.62656 14.2796 6.37515 14.6144C6.07832 14.8855 5.68952 15.0345 5.28695 15.0315H4.53271L4.61715 15.1157C4.94627 15.3785 5.13247 15.7802 5.11998 16.2004L5.20443 17.2028C5.24334 17.694 5.0212 18.1695 4.61907 18.4559C4.63441 18.7138 4.69077 18.9675 4.78604 19.2077C4.91749 19.6713 5.00173 20.1469 5.03746 20.6273C5.19544 20.8468 5.28309 21.1089 5.28887 21.3791L5.37332 21.8803C5.57047 22.1484 5.68697 22.4669 5.70918 22.7986V23.2157C5.71578 23.5132 5.62778 23.8052 5.45776 24.0498V24.4668C5.43555 24.7985 5.31905 25.117 5.1219 25.3851C5.13462 25.5293 5.1053 25.6741 5.03746 25.8022C5.03746 25.9686 4.95301 26.137 4.95301 26.3857C4.98518 26.7018 4.85965 27.0135 4.61715 27.2198C4.53887 27.8359 4.11731 28.3547 3.52896 28.5589C3.41128 28.6952 3.26945 28.8086 3.11057 28.8937L3.19502 30.0626C3.27946 30.1468 3.44643 30.229 3.53088 30.3974L3.69785 30.4816C4.18507 30.6418 4.54098 31.0608 4.61907 31.5663C4.76554 31.8001 4.87858 32.0532 4.95493 32.3181V32.4023C4.95493 32.4865 5.03938 32.4865 5.1219 32.5688C5.9593 33.2778 6.44898 34.3127 6.46535 35.4078C6.83798 36.767 7.00741 38.1736 6.96818 39.5821C6.96818 40.0834 7.05263 40.4162 7.05263 40.5846C7.0998 40.9644 7.01075 41.3486 6.80121 41.6693L6.88566 41.7535C7.22381 42.133 7.45493 42.5951 7.55546 43.0927C7.64336 43.481 7.56767 43.8883 7.34605 44.2195C7.12443 44.5506 6.77628 44.7768 6.38282 44.845C6.28494 45 6.2005 45 6.03353 45Z" fill="white"></path>
  <path d="M91.0083 91.9921C89.1393 91.7005 87.4467 90.7 86.2685 89.1904C84.6886 87.663 82.1938 88.0872 79.6152 88.5113C76.6211 89.0211 72.878 89.7001 70.8826 86.303C70.7394 86.1773 70.5678 86.0897 70.3833 86.0482C69.9901 85.9207 69.6236 85.7194 69.3027 85.4548C69.2581 85.4084 69.1998 85.3783 69.1369 85.3691C68.9224 85.522 68.7004 85.6636 68.4717 85.7933C65.6434 87.6611 62.3177 89.7838 59.5733 88.6806C57.9057 87.8753 56.7266 86.2913 56.4134 84.4352C56.3747 84.1944 56.2898 83.9636 56.1638 83.7562C55.5687 83.9856 55.0085 84.3 54.5 84.6901C53.2516 85.5384 50.8407 87.1513 49.2608 84.945L45.0203 78.8318C44.8285 78.6222 44.711 78.353 44.6868 78.0672C43.211 77.8856 41.8496 77.1648 40.8541 76.0379C40.1462 76.0883 39.4474 76.2309 38.7748 76.462C38.12 76.6831 37.3992 76.4822 36.9452 75.9523L36.6956 75.4425C35.8259 75.8043 34.8312 75.6407 34.1169 75.0184C33.3132 74.1926 33.0535 72.965 33.4518 71.8742C32.6296 71.8669 31.8248 71.6322 31.1229 71.1952C31.0133 71.6031 30.8146 71.9803 30.5416 72.2984C29.5192 73.4777 28.0008 74.0788 26.4669 73.9113V73.9113C24.6373 73.9113 23.6386 72.1291 22.8077 70.7691C22.4741 70.2594 22.0587 69.4072 21.727 69.2418C20.7304 69.0916 19.8488 68.5018 19.3161 67.6289C18.8735 66.888 18.643 66.0354 18.651 65.1676C17.0856 64.8605 15.59 64.2581 14.2409 63.3913C12.8709 62.5808 11.3319 62.114 9.7507 62.0293C8.73422 61.925 7.84799 61.2786 7.42176 60.3308C6.6535 58.1719 6.86655 55.7759 8.00304 53.7935C8.33402 53.1704 8.61203 52.5194 8.83399 51.8478C7.32419 50.5733 6.36585 48.7437 6.16581 46.7542V46.1607C6.08195 45.4817 6.08195 44.3785 6 43.5283C6 42.6842 6.67025 42 7.49704 42C8.32384 42 8.99408 42.6842 8.99408 43.5283C9.00213 44.3513 9.05749 45.1731 9.15989 45.9895V46.6588C9.2599 47.5742 9.63773 48.4347 10.2405 49.12C10.871 49.2625 11.3967 49.7044 11.6546 50.3088C12.3198 51.8361 11.2392 54.0444 10.574 55.3188C9.92828 56.4155 9.74798 57.7335 10.0747 58.9688C12.1369 59.0905 14.1374 59.7322 15.8971 60.8366C17.3208 61.6892 18.9112 62.2107 20.5549 62.364C20.9805 62.3986 21.3583 62.6554 21.5536 63.043C21.8422 63.4346 21.9054 63.9532 21.7194 64.4049C21.4697 65.5081 21.6356 65.9323 21.7194 66.0179C21.7194 66.1035 21.8033 66.1871 22.2187 66.2727C23.6329 66.5276 24.5477 67.9713 25.2967 69.2437C25.6248 69.8505 26.0151 70.4198 26.4612 70.9423C27.7095 70.9423 28.0411 70.6018 28.125 70.5181C28.3746 70.1776 28.125 69.1562 28.0411 68.9052C27.7287 68.0846 28.0918 67.1573 28.8721 66.7825C29.5269 66.5615 30.2476 66.7623 30.7017 67.2923C33.1964 69.5842 33.9416 68.8196 34.277 68.5667C34.8027 67.9484 35.7022 67.8381 36.3563 68.3118C37.4369 68.9908 37.1053 70.1796 36.7718 71.1991C36.6385 71.5885 36.5272 71.9854 36.4383 72.3879V72.3879C37.3212 71.9673 38.3724 72.2534 38.933 73.0669C39.036 73.1638 39.1206 73.2792 39.1827 73.4074C40.8465 73.0669 42.3426 72.9832 43.0077 74.2557C43.419 74.6529 43.8984 74.9695 44.4219 75.1896C44.756 74.9254 45.1639 74.7769 45.5863 74.7654C46.585 74.851 46.8347 75.6993 47.2501 76.8025C47.3432 76.9872 47.3996 77.1889 47.4159 77.3959L51.4087 83.1686C51.8426 82.9453 52.2598 82.6898 52.657 82.404C53.8457 81.2903 55.481 80.8175 57.0652 81.1296C58.1492 81.6803 58.9186 82.7169 59.1445 83.9313C59.3942 84.7796 59.7258 85.8769 60.4786 86.1396C61.8127 86.6494 64.6372 84.8652 66.6326 83.5072C66.9661 83.2523 67.2977 83.083 67.6312 82.8281C68.642 82.2712 69.8786 82.371 70.7911 83.083C70.8716 83.1879 70.9942 83.2501 71.1247 83.2523C72.0318 83.5117 72.8243 84.0811 73.3697 84.8652C74.2007 86.2272 75.6987 86.1396 78.9424 85.5442C81.9365 85.0345 85.5957 84.3555 88.2563 87.0716C88.9438 87.7779 89.7283 88.3782 90.5853 88.8538C90.5264 87.8228 90.0415 86.8659 89.2512 86.2213C88.0867 85.373 88.5022 83.7601 89.0015 81.8923C89.0961 81.648 89.1521 81.3899 89.1673 81.1277C89.5439 80.1135 90.0773 79.1676 90.7472 78.3259C92.2941 76.3413 93.5028 74.105 94.3226 71.7108C94.5723 70.522 95.7368 69.7652 97.3167 68.7398C97.8342 68.4296 98.3337 68.0892 98.8128 67.7203C98.7289 67.551 98.647 67.2962 98.5631 67.1269C98.0502 66.2777 97.7371 65.3187 97.6483 64.3252C97.6483 63.8154 97.7322 63.3057 97.7322 62.7978C97.8581 62.1557 97.8581 61.4944 97.7322 60.8522C97.334 60.772 96.9884 60.5222 96.782 60.1654C96.5756 59.8087 96.5282 59.3791 96.6516 58.9844C96.7456 58.5872 96.9932 58.2457 97.3379 58.0379C97.6826 57.8301 98.095 57.7735 98.4812 57.8812C101.226 58.5603 100.892 61.5312 100.726 63.0605C100.66 63.453 100.632 63.8512 100.642 64.2493C100.759 64.7337 100.956 65.1943 101.224 65.6112C101.579 66.212 101.832 66.8699 101.973 67.5569C102.222 69.1698 100.724 70.1037 98.9786 71.2925C98.4027 71.6568 97.8473 72.0537 97.3148 72.4813C96.4297 75.2204 95.0781 77.7786 93.322 80.0381C92.8845 80.597 92.4949 81.1932 92.1576 81.8203C92.1303 82.1172 92.0454 82.4055 91.9079 82.6686C91.824 83.0091 91.6582 83.6881 91.5744 84.1123C93.0163 85.4464 93.7561 87.3976 93.5698 89.3752C93.4752 90.441 92.7996 91.3611 91.8241 91.7528C91.5949 91.9415 91.3007 92.0278 91.0083 91.9921Z" fill="#FB3333"></path>
</svg>
