<?xml version="1.0" encoding="UTF-8"?>
<svg xmlns="http://www.w3.org/2000/svg" width="129" height="86" viewBox="0 0 129 86" fill="none">
  <path fill-rule="evenodd" clip-rule="evenodd" d="M83 86H101.408L129 43L101.408 0H83L110.592 43L83 86Z" fill="#F8F8F8"></path>
  <path fill-rule="evenodd" clip-rule="evenodd" d="M0 0V86H74.4046L102 43L74.4046 0H0Z" fill="#292B2E"></path>
  <path fill-rule="evenodd" clip-rule="evenodd" d="M33.906 30.7246V22.657L35.6703 20.8928H37.6867L36.9195 20.1255V17.08C36.9195 14.8306 38.7501 13 40.9995 13C43.2495 13 45.08 14.8306 45.0796 17.08V20.1255L44.3124 20.8928H46.3288L48.093 22.657V30.7246H33.906ZM38.6773 17.08V19.3972L40.1728 20.8928H41.8267L43.3222 19.3972V17.08C43.3222 15.7997 42.2804 14.7578 40.9995 14.7578C39.7192 14.7578 38.6773 15.7997 38.6773 17.08ZM45.601 22.6506L46.3352 23.3853V28.9668H35.6638V23.3853L36.3986 22.6506H45.601ZM34.0049 32.9113L33.002 31.4676C29.2231 34.0933 26.9668 38.4045 26.9668 43C26.9668 46.0341 27.9199 48.9225 29.7225 51.3528C31.4895 53.7346 33.9092 55.469 36.7204 56.3685L37.256 54.694C32.1533 53.0616 28.7246 48.3622 28.7246 43C28.7246 38.9799 30.6985 35.2084 34.0049 32.9113ZM55.0332 43C55.0332 46.0345 54.0801 48.9225 52.2775 51.3528C50.5105 53.735 48.0903 55.4695 45.2792 56.3685L44.7436 54.694C49.8467 53.0621 53.2754 48.3627 53.2754 43C53.2754 38.9799 51.3015 35.2084 47.9951 32.9113L48.998 31.4676C52.7769 34.0933 55.0332 38.4045 55.0332 43ZM50.4377 48.4488V37.5512L41 32.1025L31.5623 37.5512V48.4488L41 53.8975L50.4377 48.4488ZM33.3201 38.5661L41 34.1322L48.6799 38.5661V47.4339L41 51.8678L33.3201 47.4339V38.5661ZM41.8789 43.5072V50.1764H40.1211V43.5072L34.3459 40.1729L35.2253 38.6508L41 41.9851L46.7751 38.6508L47.6541 40.1729L41.8789 43.5072ZM44.3124 63.1682L45.08 62.4009V59.3559C45.08 57.106 43.2495 55.2754 40.9995 55.2754C38.7496 55.2754 36.9195 57.106 36.9195 59.3559V62.4009L37.6867 63.1686H35.6703L33.906 64.9324V73H48.093V64.9324L46.3288 63.1682H44.3124ZM38.6773 61.6726V59.3554C38.6773 58.0751 39.7192 57.0332 40.9995 57.0332C42.2804 57.0332 43.3222 58.0751 43.3222 59.3554V61.6726L41.8267 63.1682H40.1728L38.6773 61.6726ZM35.6638 65.6607V71.2422H46.3352V65.6607L45.601 64.926H36.3986L35.6638 65.6607ZM69.2358 42.0305H67.2193L67.9865 41.2632V38.2182C67.9865 35.9683 66.1564 34.1377 63.9065 34.1377C61.6566 34.1377 59.826 35.9683 59.826 38.2182V41.2632L60.5937 42.0309H58.5772L56.813 43.7947V51.8623H71V43.7947L69.2358 42.0305ZM61.5838 40.5349V38.2177C61.5838 36.9374 62.6257 35.8955 63.9065 35.8955C65.1869 35.8955 66.2287 36.9374 66.2287 38.2177V40.5349L64.7332 42.0305H63.0793L61.5838 40.5349ZM58.5708 44.523V50.1045H69.2422V44.523L68.5075 43.7883H59.3051L58.5708 44.523ZM35.2555 18.4039L35.6538 20.1159C28.6839 21.7373 22.7151 26.5915 19.6865 33.1009L18.093 32.3593C19.6888 28.9293 22.0857 25.8453 25.025 23.442C27.9963 21.0118 31.5339 19.2695 35.2555 18.4039ZM62.3135 33.1009L63.9074 32.3593C62.3112 28.9288 59.9143 25.8453 56.975 23.4416C54.0037 21.0118 50.4656 19.2695 46.744 18.4039L46.3458 20.1159C53.3157 21.7373 59.2849 26.5915 62.3135 33.1009ZM49.8669 66.6517L49.2494 65.0061C54.9494 62.8683 59.7019 58.4756 62.2888 52.9545L63.8804 53.7002C62.4911 56.6656 60.5634 59.3019 58.1506 61.5353C55.729 63.777 52.9421 65.4986 49.8669 66.6517ZM19.7112 52.9541L18.1196 53.6998C19.5089 56.6656 21.4366 59.3019 23.849 61.5349C26.2705 63.7765 29.0574 65.4982 32.1327 66.6517L32.7497 65.0056C27.0501 62.8679 22.2976 58.4752 19.7112 52.9541ZM23.4228 42.0305L25.187 43.7947V51.8623H11V43.7947L12.7642 42.0305H14.7807L14.0135 41.2632V38.2177C14.0135 35.9683 15.8441 34.1377 18.0935 34.1377C20.3434 34.1377 22.174 35.9678 22.174 38.2177V41.2632L21.4063 42.0305H23.4228ZM15.7713 38.2177V40.5349L17.2668 42.0305H18.9202L20.4157 40.5349V38.2177C20.4157 36.9374 19.3743 35.8955 18.0935 35.8955C16.8127 35.8955 15.7713 36.9374 15.7713 38.2177ZM12.7578 50.1045V44.523L13.4925 43.7883H22.6949L23.4292 44.523V50.1045H12.7578ZM17.5273 46.6868L16.5399 45.4628L15.1716 46.566L17.411 49.3428L20.9646 45.6491L19.698 44.4305L17.5273 46.6868ZM62.4833 45.4628L63.4707 46.6868L65.6414 44.4305L66.9085 45.6491L63.3549 49.3428L61.1151 46.566L62.4833 45.4628ZM40.4154 67.9371L39.4285 66.7131L38.0598 67.8167L40.2996 70.5931L43.8532 66.8994L42.5866 65.6808L40.4154 67.9371ZM42.6045 23.2663L43.8711 24.4853L40.3175 28.1785L38.0781 25.4022L39.4464 24.2985L40.4337 25.5226L42.6045 23.2663ZM21.8618 54.4844C23.285 56.8469 25.111 58.9073 27.2895 60.607L28.3708 59.2213C26.3625 57.6544 24.6794 55.7551 23.3679 53.5775L21.8618 54.4844ZM29.8132 62.314C29.2881 62.0091 28.7695 61.6781 28.271 61.3307L29.2753 59.8883C29.7349 60.2083 30.2128 60.5131 30.6967 60.7942L29.8132 62.314ZM32.5465 63.6621C31.9848 63.4318 31.4259 63.1746 30.8843 62.8981L31.6831 61.3325C32.1821 61.587 32.6971 61.8237 33.2144 62.0361L32.5465 63.6621ZM59.7198 55.1518L58.2467 54.1928C58.5525 53.7231 58.8423 53.2356 59.1082 52.744L60.6545 53.5798C60.3661 54.1131 60.0517 54.6423 59.7198 55.1518ZM56.558 56.4363L57.8874 57.5862C58.2847 57.127 58.6678 56.6455 59.0263 56.1557L57.6077 55.1175C57.2772 55.5693 56.9242 56.0128 56.558 56.4363ZM49.5075 61.7234L50.2372 63.3224C52.8021 62.1524 55.0991 60.5255 57.0652 58.4866L55.7995 57.2662C53.9872 59.1458 51.8705 60.645 49.5075 61.7234ZM50.2999 24.6588C50.798 24.9124 51.2924 25.1902 51.7693 25.4846L52.6922 23.9886C52.1745 23.6696 51.638 23.3679 51.0974 23.0923L50.2999 24.6588ZM54.0531 27.1183C53.621 26.7627 53.1687 26.4203 52.7091 26.1007L53.7126 24.6574C54.2111 25.0039 54.7018 25.3756 55.1705 25.7615L54.0531 27.1183ZM59.1078 33.2551C58.0155 31.2336 56.6001 29.4172 54.9014 27.8563L56.0906 26.5622C57.9331 28.255 59.4689 30.2256 60.6541 32.4197L59.1078 33.2551ZM25.6237 29.3559L24.3099 28.1886C26.39 25.8471 28.8812 24.0005 31.7143 22.6996L32.4476 24.2971C29.837 25.496 27.5413 27.198 25.6237 29.3559ZM22.4455 30.5978L23.9053 31.577C24.217 31.1119 24.5521 30.6541 24.9005 30.216L23.5249 29.1215C23.1468 29.5967 22.7838 30.0934 22.4455 30.5978ZM20.9248 33.2391L22.5045 34.01C22.7494 33.5078 23.019 33.0089 23.3051 32.5273L21.7941 31.6292C21.4837 32.1519 21.1907 32.6935 20.9248 33.2391Z" fill="#F4BC20"></path>
</svg>
