<?xml version="1.0" encoding="UTF-8"?>
<svg xmlns="http://www.w3.org/2000/svg" width="129" height="86" viewBox="0 0 129 86" fill="none">
  <path fill-rule="evenodd" clip-rule="evenodd" d="M83 86H101.408L129 43L101.408 0H83L110.592 43L83 86Z" fill="#F8F8F8"></path>
  <path fill-rule="evenodd" clip-rule="evenodd" d="M0 0V86H74.4046L102 43L74.4046 0H0Z" fill="#292B2E"></path>
  <path fill-rule="evenodd" clip-rule="evenodd" d="M55.6657 43.0223C51.1241 43.0223 47.0482 45.053 44.2971 48.2539H26.6189V50.011H42.9959C41.6879 52.0751 40.8706 54.479 40.708 57.0579H26.6189V58.815H40.6992C40.7927 60.5644 41.189 62.2452 41.8414 63.7998L40.15 64.8611L37.1629 62.9869L34.1758 64.8611L31.1887 62.987L28.2016 64.8612L25.2139 62.987L23.1049 64.3101V14.7571H51.2183V41.9252L52.9754 41.4563V13H21.3477V67.4866L25.2138 65.0611L28.2015 66.9353L31.1886 65.0612L34.1757 66.9354L37.1628 65.0612L40.1499 66.9354L42.6198 65.3855C44.7259 69.1063 48.3854 71.8737 52.8085 72.7277L53.1417 71.0024C46.9372 69.8046 42.4339 64.3409 42.4339 58.011C42.4339 50.7149 48.3696 44.7793 55.6657 44.7793C62.9618 44.7793 68.8974 50.715 68.8974 58.011C68.8974 64.3922 64.3509 69.8642 58.0868 71.022L58.4061 72.7498C65.5033 71.438 70.6544 65.2395 70.6544 58.0111C70.6545 49.7462 63.9307 43.0223 55.6657 43.0223ZM54.7898 71.2143L54.6747 72.9678C55.0014 72.9892 55.3347 73 55.6657 73C55.9565 73 56.2503 72.9916 56.5386 72.9749L56.4375 71.2209C55.8932 71.2523 55.3325 71.2502 54.7898 71.2143ZM67.1778 58.0112C67.1778 51.6634 62.0135 46.4991 55.6657 46.4991C49.318 46.4991 44.1536 51.6634 44.1536 58.0112C44.1536 64.3589 49.318 69.5233 55.6657 69.5233C62.0135 69.5233 67.1778 64.3589 67.1778 58.0112ZM45.9107 58.0112C45.9107 52.6323 50.2868 48.2562 55.6657 48.2562C61.0446 48.2562 65.4207 52.6323 65.4207 58.0112C65.4207 63.3902 61.0446 67.7662 55.6657 67.7662C50.2868 67.7662 45.9107 63.3902 45.9107 58.0112ZM61.1221 63.0252L59.8796 61.7827L58.3798 63.2825H55.5935L54.3511 62.04V60.6435H57.8067V58.8864H54.3511V57.1327H57.8067V55.3756H54.3511V53.9823L55.5935 52.7399H58.3798L59.8796 54.2398L61.1221 52.9973L59.1077 50.9828H54.8657L52.5939 53.2546V55.3756H50.8306V57.1327H52.5939V58.8864H50.8306V60.6435H52.5939V62.7678L54.8657 65.0396H59.1077L61.1221 63.0252ZM26.6189 18.3646H47.7039V23.6358H33.6473V21.8788H45.9468V20.1217H28.376V21.8788H31.8902V23.6358H26.6189V18.3646ZM30.1331 27.15V28.9071H26.6189V27.15H30.1331ZM47.7039 30.668H26.6189V32.4251H47.7039V30.668ZM30.1331 35.9554V37.7125H26.6189V35.9554H30.1331ZM47.7039 39.4497H26.6189V41.2068H47.7039V39.4497ZM30.1331 44.7098V46.4669H26.6189V44.7098H30.1331ZM30.1331 55.2711V53.5139H26.6189V55.2711H30.1331Z" fill="#F4BC20"></path>
</svg>
