<?xml version="1.0" encoding="UTF-8"?>
<svg xmlns="http://www.w3.org/2000/svg" width="129" height="86" viewBox="0 0 129 86" fill="none">
  <path fill-rule="evenodd" clip-rule="evenodd" d="M83 86H101.408L129 43L101.408 0H83L110.592 43L83 86Z" fill="#F8F8F8"></path>
  <path fill-rule="evenodd" clip-rule="evenodd" d="M0 0V86H74.4046L102 43L74.4046 0H0Z" fill="#292B2E"></path>
  <path fill-rule="evenodd" clip-rule="evenodd" d="M67.353 20.5884H12.647V54.5884H10V64.5884H70V54.5884H67.353V20.5884ZM14.4118 22.5884H65.5882V54.5884H44.853C43.6366 54.5884 42.647 55.7099 42.647 57.0885C42.647 57.3642 42.4491 57.5885 42.2058 57.5885H37.7941C37.5508 57.5885 37.3529 57.3642 37.3529 57.0885C37.3529 55.7099 36.3633 54.5884 35.1469 54.5884H14.4118V22.5884ZM11.7647 62.5884H68.2353H68.2354V56.5884H44.8531C44.6098 56.5884 44.4119 56.8127 44.4119 57.0885C44.4119 58.4669 43.4223 59.5884 42.2059 59.5884H37.7942C36.5778 59.5884 35.5882 58.467 35.5882 57.0885C35.5882 56.8127 35.3903 56.5884 35.147 56.5884H11.7647V62.5884ZM13.5295 58.5884H15.2942V60.5885H13.5295V58.5884ZM18.8235 58.5884H17.0588V60.5885H18.8235V58.5884ZM61.1765 58.5884H62.9412V60.5885H61.1765V58.5884ZM66.4707 58.5884H64.7059V60.5885H66.4707V58.5884ZM38.2353 24.5884H40V26.5885H38.2353V24.5884ZM46.7794 31.5882H31.4559C30.3288 31.5882 29.4118 32.6274 29.4118 33.9048V43.2717C29.4118 44.5491 30.3288 45.5883 31.4559 45.5883H46.7795C47.9066 45.5883 48.8235 44.5491 48.8235 43.2717V33.9048C48.8235 32.6276 47.9066 31.5882 46.7794 31.5882ZM47.0589 43.2717C47.0589 43.4462 46.9336 43.5883 46.7795 43.5883H31.4559C31.3018 43.5883 31.1765 43.4463 31.1765 43.2717V33.9048C31.1765 33.7303 31.3018 33.5882 31.4559 33.5882H46.7795C46.9335 33.5882 47.0589 33.7302 47.0589 33.9048V43.2717ZM32.9412 35.5884H37.353V37.5884H32.9412V35.5884ZM34.7059 39.5884H32.9412V41.5884H34.7059V39.5884ZM36.4705 39.5884H38.2353V41.5884H36.4705V39.5884ZM41.7647 39.5884H40V41.5884H41.7647V39.5884ZM43.5295 39.5884H45.2942V41.5884H43.5295V39.5884ZM17.9412 40.5884V50.5883H19.7059V52.5884H16.1765V40.5884H17.9412ZM16.1765 33.5883H17.9412V38.5883H16.1765V33.5883ZM17.9412 29.5884H16.1765V31.5884H17.9412V29.5884ZM42.647 26.5883V29.5884H44.4118V28.5883H60.2942V48.5885H44.4118V47.5884H42.647V50.5883H62.0588V26.5883H42.647ZM58.5295 30.5884H50.5882V32.5884H58.5295V30.5884ZM56.7647 34.5884H58.5294V36.5884H56.7647V34.5884ZM55 39.5884H53.2353V41.5884H55V39.5884ZM56.7647 39.5884H58.5294V41.5884H56.7647V39.5884ZM58.5295 44.5884H50.5882V46.5884H58.5295V44.5884Z" fill="#F4BC20"></path>
</svg>
