<?xml version="1.0" encoding="UTF-8"?>
<svg xmlns="http://www.w3.org/2000/svg" width="129" height="86" viewBox="0 0 129 86" fill="none">
  <path fill-rule="evenodd" clip-rule="evenodd" d="M83 86H101.408L129 43L101.408 0H83L110.592 43L83 86Z" fill="#F8F8F8"></path>
  <path fill-rule="evenodd" clip-rule="evenodd" d="M0 0V86H74.4046L102 43L74.4046 0H0Z" fill="#292B2E"></path>
  <path fill-rule="evenodd" clip-rule="evenodd" d="M66.2307 15.7578H23.146V22.3747H21.3882V14H67.9885V49.6841H66.2307V15.7578ZM55.0306 27.7045V21.646H48.9721L44.6882 17.3621L40.4043 21.646H34.3459V27.7045L30.062 31.9884L34.3459 36.2723V42.3308H40.4043L44.6882 46.6147L48.9721 42.3308H55.0306V36.2723L59.3145 31.9884L55.0306 27.7045ZM53.2728 35.5442V40.573H48.244L44.6882 44.1288L41.1324 40.573H36.1037V35.5442L32.5479 31.9884L36.1037 28.4326V23.4038H41.1324L44.6882 19.848L48.244 23.4038H53.2728V28.4326L56.8286 31.9884L53.2728 35.5442ZM66.2308 61.9391V51.5011H67.9887V63.5612L57.5707 74H10.0586V70.255H8.00781V64.155C8.00781 62.3779 9.45344 60.9323 11.2305 60.9323H14.8866V57.1875H17.3678C17.3527 52.8209 16.62 48.1313 15.1839 43.2378C13.89 38.8291 16.9135 34.3603 21.3883 33.8345V24.16H23.1461V33.8364C27.7417 34.3927 30.7039 38.9995 29.2918 43.409C27.3351 49.5189 27.2045 54.9301 27.175 57.1876H29.6417V60.9324H33.2978C35.0748 60.9324 36.5205 62.378 36.5205 64.1551V70.2552H34.4697V72.2422H55.9264V61.9391H66.2308ZM17.6515 37.9585C16.6748 39.362 16.3901 41.1058 16.8706 42.7429C18.3541 47.7971 19.1127 52.6538 19.128 57.1877H25.417C25.4468 54.8698 25.5752 49.2512 27.6177 42.8729C28.1945 41.072 27.8548 39.1843 26.6857 37.6939C24.336 34.6984 19.8093 34.8576 17.6515 37.9585ZM16.6444 58.9454H27.8839V60.9324H16.6444V58.9454ZM9.76562 64.1551V68.4973H34.4697H34.7627V64.1551C34.7627 63.3473 34.1056 62.6902 33.2978 62.6902H11.2305C10.4227 62.6902 9.76562 63.3473 9.76562 64.1551ZM11.8164 72.2422V70.2552H32.7119V72.2422H11.8164ZM65.3696 63.6969H57.6842V71.3979L65.3696 63.6969ZM52.5412 49.2687H36.8351V51.0266H52.5412V49.2687ZM55.4444 53.3873V55.1451H33.932V53.3873H55.4444ZM53.9406 57.5057H35.4357V59.2636H53.9406V57.5057ZM41.723 61.6243H46.5277V63.3821H41.723V61.6243ZM50.042 61.6243H48.2855V63.3821H50.042V61.6243ZM37.1507 31.9884C37.1507 27.8322 40.532 24.4509 44.6882 24.4509C48.8444 24.4509 52.2257 27.8322 52.2257 31.9884C52.2257 36.1446 48.8444 39.5259 44.6882 39.5259C40.532 39.5259 37.1507 36.1446 37.1507 31.9884ZM38.9085 31.9884C38.9085 35.1753 41.5013 37.7681 44.6882 37.7681C47.8751 37.7681 50.468 35.1753 50.4679 31.9884C50.4679 28.8015 47.8751 26.2087 44.6882 26.2087C41.5013 26.2087 38.9085 28.8015 38.9085 31.9884ZM42.1557 30.9623L43.9067 32.7133L47.2207 29.3991L48.4637 30.6421L43.9067 35.1991L40.9127 32.2052L42.1557 30.9623ZM23.1696 65.0584H24.8998V66.8162H23.1696V65.0584ZM21.4509 65.0584H19.6345V66.8162H21.4509V65.0584Z" fill="#F4BC20"></path>
</svg>
