<?xml version="1.0" encoding="UTF-8"?>
<svg xmlns="http://www.w3.org/2000/svg" width="129" height="86" viewBox="0 0 129 86" fill="none">
  <path fill-rule="evenodd" clip-rule="evenodd" d="M83 86H101.408L129 43L101.408 0H83L110.592 43L83 86Z" fill="#F8F8F8"></path>
  <path fill-rule="evenodd" clip-rule="evenodd" d="M0 0V86H74.4046L102 43L74.4046 0H0Z" fill="#292B2E"></path>
  <path fill-rule="evenodd" clip-rule="evenodd" d="M65.668 27.7111V14.0801H38.9279V23.5121C37.6702 23.1001 36.358 22.892 35.0115 22.892H31.3283C28.0595 22.892 24.9612 24.1384 22.6041 26.4018L23.8216 27.6696C25.8498 25.7222 28.5158 24.6497 31.3284 24.6497H35.0116C36.3675 24.6497 37.6822 24.8947 38.928 25.3785V34.8154H44.5742V39.7424L45.8513 38.7667V54.7309L38.2999 54.7V50.7868C38.8171 50.4463 39.3054 50.0524 39.7572 49.6066C41.5646 47.8233 42.56 45.452 42.56 42.9294V36.4136H38.4522C34.9875 36.4136 32.2999 32.597 32.2999 29.3138H30.5421C30.5421 31.9396 29.303 36.3836 24.6593 36.3836H23.7804L23.78 42.8177C23.78 46.1232 25.48 49.0554 28.04 50.7599V54.7L20.568 54.7256L20.4886 35.4895C20.4886 33.0865 21.2584 30.8105 22.7148 28.9077L21.3188 27.8393C19.6257 30.0514 18.7307 32.6968 18.7307 35.493L18.8105 54.8364C16.779 55.1823 14.9169 56.1873 13.5004 57.7168C11.888 59.4579 11 61.7244 11 64.0989V73.8829H55.3398V68.5437H53.582V72.125H42.6944V56.4647L46.6786 56.4953C48.5554 56.6749 50.293 57.5408 51.5736 58.9366C52.8687 60.3482 53.582 62.1814 53.582 64.0989V66.7931H55.3398V64.0989C55.3398 61.7403 54.4623 59.485 52.8689 57.7484C51.4688 56.2223 49.6242 55.2108 47.6091 54.8495V37.4239L51.0239 34.8154H52.3086V43.8761H58.8668L65.3164 48.8031V43.8761H70.9627L70.9629 27.7111H65.668ZM25.4032 64.323C27.7865 65.1259 30.4441 65.5482 33.1699 65.5482C35.8958 65.5482 38.5532 65.126 40.9365 64.323V72.0964H25.4032V64.323ZM25.5382 38.0967L25.5378 42.8179C25.5378 47.0317 28.915 50.5052 33.0665 50.5608C35.1125 50.5915 37.0535 49.8052 38.5228 48.3554C39.9928 46.905 40.8023 44.978 40.8023 42.9294V38.1714H38.4523C35.3959 38.1714 32.861 36.0398 31.5365 33.3683C30.5498 35.8155 28.5873 37.7801 25.5382 38.0967ZM29.7977 56.4577V51.6798C30.8082 52.0773 31.9014 52.3034 33.0427 52.3186C33.0856 52.3192 33.1284 52.3194 33.1714 52.3194C34.3414 52.3194 35.4791 52.1023 36.5421 51.6909V56.4578H40.9366V62.4591C38.5957 63.3307 35.9247 63.7902 33.17 63.7902C30.4153 63.7902 27.7442 63.3306 25.4033 62.4589V56.4577H29.7977ZM12.7578 64.0989V72.125H23.6454V56.4635L19.739 56.4889C17.8443 56.651 16.0877 57.5101 14.7902 58.9112C13.4796 60.3264 12.7578 62.1687 12.7578 64.0989ZM69.2049 42.1182H63.5586V45.2482L59.4614 42.1182H54.0664V29.4689H56.8203V27.7111H52.3086V33.0577H50.4293L46.332 36.1875V33.0575H40.6857V15.8379H63.9102V27.7111H58.5781V29.4689H69.205L69.2049 42.1182ZM47.7205 17.5744C45.0164 17.5744 42.8164 19.7743 42.8164 22.4784C42.8164 23.9937 43.502 25.3915 44.6723 26.3177V30.8593H50.7685V26.3176C51.9389 25.3914 52.6244 23.9936 52.6244 22.4783C52.6244 19.7743 50.4246 17.5744 47.7205 17.5744ZM49.0107 29.1015H46.4301V26.772H49.0107V29.1015ZM48.6234 25.014H49.5823C50.3908 24.4214 50.8666 23.49 50.8666 22.4783C50.8666 20.7435 49.4552 19.3321 47.7204 19.3321C45.9855 19.3321 44.5741 20.7435 44.5741 22.4783C44.5741 23.49 45.05 24.4213 45.8584 25.014H46.8656V23.0066H48.6234V25.014ZM30.3025 39.5993H28.5301V41.3571H30.3025V39.5993ZM37.3191 39.5993H35.5467V41.3571H37.3191V39.5993ZM62.0938 18.9293H55.0625V20.6871H62.0938V18.9293ZM55.0625 22.948H62.0938V24.7058H55.0625V22.948ZM60.7088 39.7228H62.4666V41.4734H60.7088V39.7228ZM60.2846 34.2377H58.5268C58.5268 34.0957 58.5368 33.9526 58.5562 33.8123C58.7675 32.2997 60.0649 31.177 61.5879 31.177C61.6087 31.177 61.6295 31.1773 61.6504 31.1776C63.2465 31.2097 64.5616 32.483 64.6443 34.0763C64.6884 34.9242 64.391 35.7299 63.8074 36.3448C63.4382 36.7336 62.973 37.016 62.4665 37.1686V38.0236H60.7087V35.5407H61.5876C61.9482 35.5407 62.2838 35.3965 62.5325 35.1345C62.7811 34.8727 62.9076 34.5292 62.8888 34.1673C62.8536 33.4898 62.2941 32.9487 61.615 32.935C60.9575 32.9207 60.3881 33.4031 60.2971 34.0549C60.2888 34.115 60.2846 34.1766 60.2846 34.2377Z" fill="#F4BC20"></path>
</svg>
