<?xml version="1.0" encoding="UTF-8"?>
<svg xmlns="http://www.w3.org/2000/svg" width="996" height="58" viewBox="0 0 996 58" fill="none">
  <path fill-rule="evenodd" clip-rule="evenodd" d="M332.352 0L350.82 28.5781L332.352 57.1562H995.999V0H332.352Z" fill="#E41019"></path>
  <path fill-rule="evenodd" clip-rule="evenodd" d="M0 0V57.1562H323.577L341.879 28.5781L323.577 0H0Z" fill="#93060B"></path>
  <path d="M40.1776 20.8161H32.8125V17.2585H51.6698V20.8161H44.3046V39.8976H40.1776V20.8161Z" fill="white"></path>
  <path fill-rule="evenodd" clip-rule="evenodd" d="M65.836 33.2676L70.3757 39.8976H74.8202L69.709 32.459C71.2329 31.8553 72.4022 30.939 73.217 29.71C74.0318 28.481 74.4392 27.0149 74.4392 25.3116C74.4392 23.6514 74.0583 22.2176 73.2964 21.0102C72.5345 19.8027 71.4392 18.8756 70.0106 18.2288C68.5821 17.582 66.9048 17.2585 64.9789 17.2585H55.8359V39.8976H59.9629V33.2999H64.9789C65.3598 33.2999 65.6455 33.2891 65.836 33.2676ZM68.8836 21.9804C69.8149 22.7566 70.2805 23.867 70.2805 25.3116C70.2805 26.7562 69.8149 27.8719 68.8836 28.6589C67.9524 29.4459 66.5873 29.8394 64.7884 29.8394H59.9629V20.8161H64.7884C66.5873 20.8161 67.9524 21.2042 68.8836 21.9804Z" fill="white"></path>
  <path fill-rule="evenodd" clip-rule="evenodd" d="M81.2149 39.8976L83.4054 34.6583H94.5166L96.7388 39.8976H101.056L91.0245 17.2585H86.961L76.9609 39.8976H81.2149ZM88.961 21.4629L93.1515 31.3594H84.8023L88.961 21.4629Z" fill="white"></path>
  <path d="M124.684 17.2585V39.8976H121.287L109.033 24.5677V39.8976H104.938V17.2585H108.334L120.588 32.5884V17.2585H124.684Z" fill="white"></path>
  <path d="M138.598 40.221C136.884 40.221 135.228 39.9731 133.63 39.4772C132.032 38.9813 130.767 38.3237 129.836 37.5044L131.265 34.2379C132.175 34.9709 133.291 35.5693 134.614 36.0328C135.937 36.4964 137.265 36.7282 138.598 36.7282C140.249 36.7282 141.482 36.4587 142.296 35.9196C143.111 35.3806 143.519 34.6691 143.519 33.7851C143.519 33.1383 143.291 32.6046 142.836 32.1842C142.381 31.7637 141.804 31.4349 141.106 31.1978C140.407 30.9606 139.455 30.6911 138.249 30.3892C136.556 29.9796 135.185 29.5699 134.138 29.1603C133.09 28.7506 132.19 28.1092 131.439 27.2359C130.688 26.3627 130.312 25.1823 130.312 23.6946C130.312 22.444 130.645 21.3067 131.312 20.2825C131.979 19.2584 132.984 18.4444 134.328 17.8407C135.672 17.237 137.317 16.9352 139.265 16.9352C140.619 16.9352 141.952 17.1077 143.265 17.4526C144.577 17.7976 145.709 18.2935 146.661 18.9404L145.36 22.2068C144.386 21.6247 143.37 21.1827 142.312 20.8808C141.254 20.579 140.228 20.4281 139.233 20.4281C137.603 20.4281 136.392 20.7084 135.598 21.2689C134.804 21.8295 134.407 22.5734 134.407 23.5005C134.407 24.1473 134.635 24.6756 135.09 25.0852C135.545 25.4949 136.122 25.8183 136.82 26.0555C137.519 26.2926 138.471 26.5622 139.677 26.864C141.328 27.2521 142.683 27.6564 143.741 28.0768C144.799 28.4973 145.704 29.1387 146.455 30.0011C147.206 30.8636 147.582 32.0279 147.582 33.494C147.582 34.7446 147.249 35.8765 146.582 36.8899C145.915 37.9032 144.905 38.7118 143.55 39.3155C142.196 39.9192 140.545 40.221 138.598 40.221Z" fill="white"></path>
  <path fill-rule="evenodd" clip-rule="evenodd" d="M166.917 18.2288C165.488 17.582 163.811 17.2585 161.885 17.2585H152.742V39.8976H156.869V33.3646H161.885C163.811 33.3646 165.488 33.0412 166.917 32.3944C168.345 31.7475 169.441 30.815 170.203 29.5968C170.965 28.3786 171.345 26.9502 171.345 25.3116C171.345 23.6514 170.965 22.2176 170.203 21.0102C169.441 19.8027 168.345 18.8756 166.917 18.2288ZM165.79 28.6427C164.859 29.4189 163.494 29.807 161.695 29.807H156.869V20.8161H161.695C163.494 20.8161 164.859 21.2042 165.79 21.9804C166.721 22.7566 167.187 23.867 167.187 25.3116C167.187 26.7562 166.721 27.8666 165.79 28.6427Z" fill="white"></path>
  <path fill-rule="evenodd" clip-rule="evenodd" d="M181.099 38.7172C182.919 39.7198 184.962 40.221 187.226 40.221C189.491 40.221 191.533 39.7198 193.353 38.7172C195.173 37.7146 196.602 36.3293 197.639 34.5613C198.676 32.7933 199.194 30.7989 199.194 28.5781C199.194 26.3573 198.676 24.3629 197.639 22.5949C196.602 20.8269 195.173 19.4416 193.353 18.4391C191.533 17.4365 189.491 16.9352 187.226 16.9352C184.962 16.9352 182.919 17.4365 181.099 18.4391C179.279 19.4416 177.85 20.8323 176.813 22.6111C175.776 24.3899 175.258 26.3789 175.258 28.5781C175.258 30.7773 175.776 32.7663 176.813 34.5451C177.85 36.3239 179.279 37.7146 181.099 38.7172ZM191.226 35.5154C190.041 36.1945 188.708 36.5341 187.226 36.5341C185.745 36.5341 184.411 36.1945 183.226 35.5154C182.041 34.8362 181.11 33.8875 180.432 32.6693C179.755 31.4511 179.417 30.0874 179.417 28.5781C179.417 27.0688 179.755 25.7051 180.432 24.4869C181.11 23.2687 182.041 22.32 183.226 21.6409C184.411 20.9617 185.745 20.6221 187.226 20.6221C188.708 20.6221 190.041 20.9617 191.226 21.6409C192.411 22.32 193.343 23.2687 194.02 24.4869C194.697 25.7051 195.036 27.0688 195.036 28.5781C195.036 30.0874 194.697 31.4511 194.02 32.6693C193.343 33.8875 192.411 34.8362 191.226 35.5154Z" fill="white"></path>
  <path fill-rule="evenodd" clip-rule="evenodd" d="M214.633 33.2676L219.173 39.8976H223.617L218.506 32.459C220.03 31.8553 221.199 30.939 222.014 29.71C222.829 28.481 223.236 27.0149 223.236 25.3116C223.236 23.6514 222.855 22.2176 222.093 21.0102C221.331 19.8027 220.236 18.8756 218.808 18.2288C217.379 17.582 215.702 17.2585 213.776 17.2585H204.633V39.8976H208.76V33.2999H213.776C214.157 33.2999 214.442 33.2891 214.633 33.2676ZM217.681 21.9804C218.612 22.7566 219.077 23.867 219.077 25.3116C219.077 26.7562 218.612 27.8719 217.681 28.6589C216.749 29.4459 215.384 29.8394 213.585 29.8394H208.76V20.8161H213.585C215.384 20.8161 216.749 21.2042 217.681 21.9804Z" fill="white"></path>
  <path d="M233.092 20.8161H225.727V17.2585H244.584V20.8161H237.219V39.8976H233.092V20.8161Z" fill="white"></path>
  <path d="M248.75 17.2585H252.877V39.8976H248.75V17.2585Z" fill="white"></path>
  <path d="M279.684 17.2585V39.8976H276.287L264.033 24.5677V39.8976H259.938V17.2585H263.334L275.588 32.5884V17.2585H279.684Z" fill="white"></path>
  <path d="M301.879 28.3194H305.784V37.3427C304.641 38.2698 303.308 38.9813 301.784 39.4772C300.26 39.9731 298.694 40.221 297.086 40.221C294.821 40.221 292.779 39.7198 290.958 38.7172C289.138 37.7146 287.71 36.3293 286.673 34.5613C285.636 32.7933 285.117 30.7989 285.117 28.5781C285.117 26.3573 285.636 24.3629 286.673 22.5949C287.71 20.8269 289.144 19.4416 290.974 18.4391C292.805 17.4365 294.863 16.9352 297.149 16.9352C299.011 16.9352 300.705 17.2478 302.228 17.8731C303.752 18.4984 305.033 19.4147 306.07 20.6221L303.467 23.2094C301.773 21.4845 299.731 20.6221 297.339 20.6221C295.773 20.6221 294.382 20.9563 293.165 21.6247C291.948 22.2931 290.996 23.231 290.308 24.4384C289.62 25.6458 289.276 27.0257 289.276 28.5781C289.276 30.0874 289.62 31.4457 290.308 32.6531C290.996 33.8606 291.948 34.8092 293.165 35.4992C294.382 36.1891 295.763 36.5341 297.308 36.5341C299.043 36.5341 300.567 36.146 301.879 35.3698V28.3194Z" fill="white"></path>
  <path d="M375.322 20.7838V27.6725H386.053V31.2301H375.322V39.8976H371.195V17.2585H387.418V20.7838H375.322Z" fill="white"></path>
  <path fill-rule="evenodd" clip-rule="evenodd" d="M396.474 38.7172C398.294 39.7198 400.337 40.221 402.601 40.221C404.866 40.221 406.908 39.7198 408.728 38.7172C410.548 37.7146 411.977 36.3293 413.014 34.5613C414.051 32.7933 414.569 30.7989 414.569 28.5781C414.569 26.3573 414.051 24.3629 413.014 22.5949C411.977 20.8269 410.548 19.4416 408.728 18.4391C406.908 17.4365 404.866 16.9352 402.601 16.9352C400.337 16.9352 398.294 17.4365 396.474 18.4391C394.654 19.4416 393.225 20.8323 392.188 22.6111C391.151 24.3899 390.633 26.3789 390.633 28.5781C390.633 30.7773 391.151 32.7663 392.188 34.5451C393.225 36.3239 394.654 37.7146 396.474 38.7172ZM406.601 35.5154C405.416 36.1945 404.083 36.5341 402.601 36.5341C401.12 36.5341 399.786 36.1945 398.601 35.5154C397.416 34.8362 396.485 33.8875 395.807 32.6693C395.13 31.4511 394.792 30.0874 394.792 28.5781C394.792 27.0688 395.13 25.7051 395.807 24.4869C396.485 23.2687 397.416 22.32 398.601 21.6409C399.786 20.9617 401.12 20.6221 402.601 20.6221C404.083 20.6221 405.416 20.9617 406.601 21.6409C407.786 22.32 408.718 23.2687 409.395 24.4869C410.072 25.7051 410.411 27.0688 410.411 28.5781C410.411 30.0874 410.072 31.4511 409.395 32.6693C408.718 33.8875 407.786 34.8362 406.601 35.5154Z" fill="white"></path>
  <path fill-rule="evenodd" clip-rule="evenodd" d="M430.008 33.2676L434.548 39.8976H438.992L433.881 32.459C435.405 31.8553 436.574 30.939 437.389 29.71C438.204 28.481 438.611 27.0149 438.611 25.3116C438.611 23.6514 438.23 22.2176 437.468 21.0102C436.706 19.8027 435.611 18.8756 434.183 18.2288C432.754 17.582 431.077 17.2585 429.151 17.2585H420.008V39.8976H424.135V33.2999H429.151C429.532 33.2999 429.817 33.2891 430.008 33.2676ZM433.056 21.9804C433.987 22.7566 434.452 23.867 434.452 25.3116C434.452 26.7562 433.987 27.8719 433.056 28.6589C432.124 29.4459 430.759 29.8394 428.96 29.8394H424.135V20.8161H428.96C430.759 20.8161 432.124 21.2042 433.056 21.9804Z" fill="white"></path>
  <path d="M463.685 31.9092V39.8976H459.558V31.9739L450.828 17.2585H455.241L461.749 28.287L468.32 17.2585H472.384L463.685 31.9092Z" fill="white"></path>
  <path fill-rule="evenodd" clip-rule="evenodd" d="M479.443 38.7172C481.263 39.7198 483.305 40.221 485.57 40.221C487.834 40.221 489.877 39.7198 491.697 38.7172C493.517 37.7146 494.946 36.3293 495.983 34.5613C497.02 32.7933 497.538 30.7989 497.538 28.5781C497.538 26.3573 497.02 24.3629 495.983 22.5949C494.946 20.8269 493.517 19.4416 491.697 18.4391C489.877 17.4365 487.834 16.9352 485.57 16.9352C483.305 16.9352 481.263 17.4365 479.443 18.4391C477.623 19.4416 476.194 20.8323 475.157 22.6111C474.12 24.3899 473.602 26.3789 473.602 28.5781C473.602 30.7773 474.12 32.7663 475.157 34.5451C476.194 36.3239 477.623 37.7146 479.443 38.7172ZM489.57 35.5154C488.385 36.1945 487.051 36.5341 485.57 36.5341C484.088 36.5341 482.755 36.1945 481.57 35.5154C480.385 34.8362 479.453 33.8875 478.776 32.6693C478.099 31.4511 477.76 30.0874 477.76 28.5781C477.76 27.0688 478.099 25.7051 478.776 24.4869C479.453 23.2687 480.385 22.32 481.57 21.6409C482.755 20.9617 484.088 20.6221 485.57 20.6221C487.051 20.6221 488.385 20.9617 489.57 21.6409C490.755 22.32 491.686 23.2687 492.364 24.4869C493.041 25.7051 493.379 27.0688 493.379 28.5781C493.379 30.0874 493.041 31.4511 492.364 32.6693C491.686 33.8875 490.755 34.8362 489.57 35.5154Z" fill="white"></path>
  <path d="M512.527 40.221C509.459 40.221 507.067 39.3424 505.353 37.5852C503.638 35.8279 502.781 33.3107 502.781 30.0334V17.2585H506.908V29.8717C506.908 34.3133 508.792 36.5341 512.559 36.5341C516.305 36.5341 518.178 34.3133 518.178 29.8717V17.2585H522.242V30.0334C522.242 33.3107 521.39 35.8279 519.686 37.5852C517.982 39.3424 515.596 40.221 512.527 40.221Z" fill="white"></path>
  <path fill-rule="evenodd" clip-rule="evenodd" d="M539.078 33.2676L543.618 39.8976H548.062L542.951 32.459C544.475 31.8553 545.644 30.939 546.459 29.71C547.274 28.481 547.681 27.0149 547.681 25.3116C547.681 23.6514 547.3 22.2176 546.539 21.0102C545.777 19.8027 544.681 18.8756 543.253 18.2288C541.824 17.582 540.147 17.2585 538.221 17.2585H529.078V39.8976H533.205V33.2999H538.221C538.602 33.2999 538.888 33.2891 539.078 33.2676ZM542.126 21.9804C543.057 22.7566 543.523 23.867 543.523 25.3116C543.523 26.7562 543.057 27.8719 542.126 28.6589C541.195 29.4459 539.83 29.8394 538.031 29.8394H533.205V20.8161H538.031C539.83 20.8161 541.195 21.2042 542.126 21.9804Z" fill="white"></path>
  <path fill-rule="evenodd" clip-rule="evenodd" d="M578.91 28.1253C580.138 28.5349 581.111 29.2195 581.831 30.179C582.55 31.1384 582.91 32.3297 582.91 33.7527C582.91 35.7148 582.169 37.2294 580.688 38.2967C579.206 39.3639 577.048 39.8976 574.212 39.8976H563.164V17.2585H573.577C576.201 17.2585 578.222 17.7814 579.64 18.8271C581.058 19.8728 581.767 21.312 581.767 23.1447C581.767 24.2659 581.513 25.2577 581.005 26.1201C580.498 26.9825 579.799 27.6509 578.91 28.1253ZM567.291 20.5574V26.7993H573.132C574.572 26.7993 575.677 26.5352 576.45 26.0069C577.222 25.4787 577.609 24.7079 577.609 23.6945C577.609 22.6596 577.222 21.878 576.45 21.3497C575.677 20.8215 574.572 20.5574 573.132 20.5574H567.291ZM578.751 33.3323C578.751 35.5099 577.154 36.5988 573.958 36.5988H567.291V30.0658H573.958C577.154 30.0658 578.751 31.1546 578.751 33.3323Z" fill="white"></path>
  <path d="M597.941 40.221C594.873 40.221 592.481 39.3424 590.767 37.5852C589.052 35.8279 588.195 33.3107 588.195 30.0334V17.2585H592.322V29.8717C592.322 34.3133 594.206 36.5341 597.973 36.5341C601.719 36.5341 603.592 34.3133 603.592 29.8717V17.2585H607.656V30.0334C607.656 33.3107 606.804 35.8279 605.1 37.5852C603.396 39.3424 601.01 40.221 597.941 40.221Z" fill="white"></path>
  <path d="M621.379 40.221C619.665 40.221 618.009 39.9731 616.411 39.4772C614.813 38.9813 613.548 38.3237 612.617 37.5044L614.046 34.2379C614.956 34.9709 616.072 35.5693 617.395 36.0328C618.718 36.4964 620.046 36.7282 621.379 36.7282C623.03 36.7282 624.263 36.4587 625.078 35.9196C625.892 35.3806 626.3 34.6691 626.3 33.7851C626.3 33.1383 626.072 32.6046 625.617 32.1842C625.162 31.7637 624.586 31.4349 623.887 31.1978C623.189 30.9606 622.236 30.6911 621.03 30.3892C619.337 29.9796 617.966 29.5699 616.919 29.1603C615.871 28.7506 614.972 28.1092 614.22 27.2359C613.469 26.3627 613.093 25.1823 613.093 23.6946C613.093 22.444 613.427 21.3067 614.093 20.2825C614.76 19.2584 615.765 18.4444 617.109 17.8407C618.453 17.237 620.099 16.9352 622.046 16.9352C623.4 16.9352 624.734 17.1077 626.046 17.4526C627.358 17.7976 628.49 18.2935 629.443 18.9404L628.141 22.2068C627.168 21.6247 626.152 21.1827 625.093 20.8808C624.035 20.579 623.009 20.4281 622.014 20.4281C620.384 20.4281 619.173 20.7084 618.379 21.2689C617.585 21.8295 617.189 22.5734 617.189 23.5005C617.189 24.1473 617.416 24.6756 617.871 25.0852C618.326 25.4949 618.903 25.8183 619.601 26.0555C620.3 26.2926 621.252 26.5622 622.459 26.864C624.109 27.2521 625.464 27.6564 626.522 28.0768C627.58 28.4973 628.485 29.1387 629.236 30.0011C629.988 30.8636 630.363 32.0279 630.363 33.494C630.363 34.7446 630.03 35.8765 629.363 36.8899C628.697 37.9032 627.686 38.7118 626.332 39.3155C624.977 39.9192 623.326 40.221 621.379 40.221Z" fill="white"></path>
  <path d="M635.516 17.2585H639.643V39.8976H635.516V17.2585Z" fill="white"></path>
  <path d="M666.449 17.2585V39.8976H663.052L650.798 24.5677V39.8976H646.703V17.2585H650.1L662.354 32.5884V17.2585H666.449Z" fill="white"></path>
  <path d="M690.143 36.3724V39.8976H673.477V17.2585H689.699V20.7838H677.604V26.6699H688.334V30.1305H677.604V36.3724H690.143Z" fill="white"></path>
  <path d="M702.692 40.221C700.977 40.221 699.321 39.9731 697.723 39.4772C696.125 38.9813 694.861 38.3237 693.93 37.5044L695.358 34.2379C696.268 34.9709 697.385 35.5693 698.707 36.0328C700.03 36.4964 701.358 36.7282 702.692 36.7282C704.342 36.7282 705.575 36.4587 706.39 35.9196C707.205 35.3806 707.612 34.6691 707.612 33.7851C707.612 33.1383 707.385 32.6046 706.93 32.1842C706.475 31.7637 705.898 31.4349 705.2 31.1978C704.501 30.9606 703.549 30.6911 702.342 30.3892C700.649 29.9796 699.279 29.5699 698.231 29.1603C697.184 28.7506 696.284 28.1092 695.533 27.2359C694.782 26.3627 694.406 25.1823 694.406 23.6946C694.406 22.444 694.739 21.3067 695.406 20.2825C696.073 19.2584 697.078 18.4444 698.422 17.8407C699.766 17.237 701.411 16.9352 703.358 16.9352C704.713 16.9352 706.046 17.1077 707.358 17.4526C708.671 17.7976 709.803 18.2935 710.755 18.9404L709.454 22.2068C708.48 21.6247 707.464 21.1827 706.406 20.8808C705.348 20.579 704.321 20.4281 703.327 20.4281C701.697 20.4281 700.485 20.7084 699.692 21.2689C698.898 21.8295 698.501 22.5734 698.501 23.5005C698.501 24.1473 698.729 24.6756 699.184 25.0852C699.639 25.4949 700.215 25.8183 700.914 26.0555C701.612 26.2926 702.565 26.5622 703.771 26.864C705.422 27.2521 706.776 27.6564 707.835 28.0768C708.893 28.4973 709.798 29.1387 710.549 30.0011C711.3 30.8636 711.676 32.0279 711.676 33.494C711.676 34.7446 711.342 35.8765 710.676 36.8899C710.009 37.9032 708.999 38.7118 707.644 39.3155C706.29 39.9192 704.639 40.221 702.692 40.221Z" fill="white"></path>
  <path d="M723.715 40.221C722.001 40.221 720.345 39.9731 718.747 39.4772C717.149 38.9813 715.884 38.3237 714.953 37.5044L716.382 34.2379C717.292 34.9709 718.408 35.5693 719.731 36.0328C721.054 36.4964 722.382 36.7282 723.715 36.7282C725.366 36.7282 726.599 36.4587 727.414 35.9196C728.228 35.3806 728.636 34.6691 728.636 33.7851C728.636 33.1383 728.408 32.6046 727.953 32.1842C727.498 31.7637 726.921 31.4349 726.223 31.1978C725.525 30.9606 724.572 30.6911 723.366 30.3892C721.673 29.9796 720.302 29.5699 719.255 29.1603C718.207 28.7506 717.308 28.1092 716.556 27.2359C715.805 26.3627 715.429 25.1823 715.429 23.6946C715.429 22.444 715.763 21.3067 716.429 20.2825C717.096 19.2584 718.101 18.4444 719.445 17.8407C720.789 17.237 722.435 16.9352 724.382 16.9352C725.736 16.9352 727.07 17.1077 728.382 17.4526C729.694 17.7976 730.826 18.2935 731.779 18.9404L730.477 22.2068C729.503 21.6247 728.488 21.1827 727.429 20.8808C726.371 20.579 725.345 20.4281 724.35 20.4281C722.72 20.4281 721.509 20.7084 720.715 21.2689C719.921 21.8295 719.525 22.5734 719.525 23.5005C719.525 24.1473 719.752 24.6756 720.207 25.0852C720.662 25.4949 721.239 25.8183 721.937 26.0555C722.636 26.2926 723.588 26.5622 724.794 26.864C726.445 27.2521 727.8 27.6564 728.858 28.0768C729.916 28.4973 730.821 29.1387 731.572 30.0011C732.324 30.8636 732.699 32.0279 732.699 33.494C732.699 34.7446 732.366 35.8765 731.699 36.8899C731.033 37.9032 730.022 38.7118 728.668 39.3155C727.313 39.9192 725.662 40.221 723.715 40.221Z" fill="white"></path>
  <path fill-rule="evenodd" clip-rule="evenodd" d="M761.847 18.2288C760.418 17.582 758.741 17.2585 756.815 17.2585H747.672V39.8976H751.799V33.3646H756.815C758.741 33.3646 760.418 33.0412 761.847 32.3944C763.275 31.7475 764.37 30.815 765.132 29.5968C765.894 28.3786 766.275 26.9502 766.275 25.3116C766.275 23.6514 765.894 22.2176 765.132 21.0102C764.37 19.8027 763.275 18.8756 761.847 18.2288ZM760.72 28.6427C759.788 29.4189 758.423 29.807 756.624 29.807H751.799V20.8161H756.624C758.423 20.8161 759.788 21.2042 760.72 21.9804C761.651 22.7566 762.116 23.867 762.116 25.3116C762.116 26.7562 761.651 27.8666 760.72 28.6427Z" fill="white"></path>
  <path fill-rule="evenodd" clip-rule="evenodd" d="M781.461 33.2676L786.001 39.8976H790.445L785.334 32.459C786.858 31.8553 788.027 30.939 788.842 29.71C789.657 28.481 790.064 27.0149 790.064 25.3116C790.064 23.6514 789.683 22.2176 788.921 21.0102C788.159 19.8027 787.064 18.8756 785.636 18.2288C784.207 17.582 782.53 17.2585 780.604 17.2585H771.461V39.8976H775.588V33.2999H780.604C780.985 33.2999 781.271 33.2891 781.461 33.2676ZM784.509 21.9804C785.44 22.7566 785.905 23.867 785.905 25.3116C785.905 26.7562 785.44 27.8719 784.509 28.6589C783.577 29.4459 782.212 29.8394 780.413 29.8394H775.588V20.8161H780.413C782.212 20.8161 783.577 21.2042 784.509 21.9804Z" fill="white"></path>
  <path fill-rule="evenodd" clip-rule="evenodd" d="M799.982 38.7172C801.802 39.7198 803.844 40.221 806.109 40.221C808.374 40.221 810.416 39.7198 812.236 38.7172C814.056 37.7146 815.485 36.3293 816.522 34.5613C817.559 32.7933 818.077 30.7989 818.077 28.5781C818.077 26.3573 817.559 24.3629 816.522 22.5949C815.485 20.8269 814.056 19.4416 812.236 18.4391C810.416 17.4365 808.374 16.9352 806.109 16.9352C803.844 16.9352 801.802 17.4365 799.982 18.4391C798.162 19.4416 796.733 20.8323 795.696 22.6111C794.659 24.3899 794.141 26.3789 794.141 28.5781C794.141 30.7773 794.659 32.7663 795.696 34.5451C796.733 36.3239 798.162 37.7146 799.982 38.7172ZM810.109 35.5154C808.924 36.1945 807.59 36.5341 806.109 36.5341C804.627 36.5341 803.294 36.1945 802.109 35.5154C800.924 34.8362 799.993 33.8875 799.315 32.6693C798.638 31.4511 798.299 30.0874 798.299 28.5781C798.299 27.0688 798.638 25.7051 799.315 24.4869C799.993 23.2687 800.924 22.32 802.109 21.6409C803.294 20.9617 804.627 20.6221 806.109 20.6221C807.59 20.6221 808.924 20.9617 810.109 21.6409C811.294 22.32 812.225 23.2687 812.903 24.4869C813.58 25.7051 813.919 27.0688 813.919 28.5781C813.919 30.0874 813.58 31.4511 812.903 32.6693C812.225 33.8875 811.294 34.8362 810.109 35.5154Z" fill="white"></path>
  <path d="M830.403 40.221C828.688 40.221 827.032 39.9731 825.434 39.4772C823.836 38.9813 822.572 38.3237 821.641 37.5044L823.069 34.2379C823.979 34.9709 825.096 35.5693 826.418 36.0328C827.741 36.4964 829.069 36.7282 830.403 36.7282C832.053 36.7282 833.286 36.4587 834.101 35.9196C834.916 35.3806 835.323 34.6691 835.323 33.7851C835.323 33.1383 835.096 32.6046 834.641 32.1842C834.186 31.7637 833.609 31.4349 832.911 31.1978C832.212 30.9606 831.26 30.6911 830.053 30.3892C828.36 29.9796 826.99 29.5699 825.942 29.1603C824.895 28.7506 823.995 28.1092 823.244 27.2359C822.492 26.3627 822.117 25.1823 822.117 23.6946C822.117 22.444 822.45 21.3067 823.117 20.2825C823.783 19.2584 824.789 18.4444 826.133 17.8407C827.477 17.237 829.122 16.9352 831.069 16.9352C832.424 16.9352 833.757 17.1077 835.069 17.4526C836.381 17.7976 837.514 18.2935 838.466 18.9404L837.165 22.2068C836.191 21.6247 835.175 21.1827 834.117 20.8808C833.059 20.579 832.032 20.4281 831.038 20.4281C829.408 20.4281 828.196 20.7084 827.403 21.2689C826.609 21.8295 826.212 22.5734 826.212 23.5005C826.212 24.1473 826.44 24.6756 826.895 25.0852C827.35 25.4949 827.926 25.8183 828.625 26.0555C829.323 26.2926 830.276 26.5622 831.482 26.864C833.133 27.2521 834.487 27.6564 835.545 28.0768C836.604 28.4973 837.508 29.1387 838.26 30.0011C839.011 30.8636 839.387 32.0279 839.387 33.494C839.387 34.7446 839.053 35.8765 838.387 36.8899C837.72 37.9032 836.71 38.7118 835.355 39.3155C834 39.9192 832.35 40.221 830.403 40.221Z" fill="white"></path>
  <path fill-rule="evenodd" clip-rule="evenodd" d="M858.714 18.2288C857.285 17.582 855.608 17.2585 853.682 17.2585H844.539V39.8976H848.666V33.3646H853.682C855.608 33.3646 857.285 33.0412 858.714 32.3944C860.142 31.7475 861.238 30.815 861.999 29.5968C862.761 28.3786 863.142 26.9502 863.142 25.3116C863.142 23.6514 862.761 22.2176 861.999 21.0102C861.238 19.8027 860.142 18.8756 858.714 18.2288ZM857.587 28.6427C856.656 29.4189 855.29 29.807 853.492 29.807H848.666V20.8161H853.492C855.29 20.8161 856.656 21.2042 857.587 21.9804C858.518 22.7566 858.984 23.867 858.984 25.3116C858.984 26.7562 858.518 27.8666 857.587 28.6427Z" fill="white"></path>
  <path d="M884.995 36.3724V39.8976H868.328V17.2585H884.55V20.7838H872.455V26.6699H883.185V30.1305H872.455V36.3724H884.995Z" fill="white"></path>
  <path fill-rule="evenodd" clip-rule="evenodd" d="M900.656 33.2676L905.196 39.8976H909.641L904.529 32.459C906.053 31.8553 907.222 30.939 908.037 29.71C908.852 28.481 909.26 27.0149 909.26 25.3116C909.26 23.6514 908.879 22.2176 908.117 21.0102C907.355 19.8027 906.26 18.8756 904.831 18.2288C903.402 17.582 901.725 17.2585 899.799 17.2585H890.656V39.8976H894.783V33.2999H899.799C900.18 33.2999 900.466 33.2891 900.656 33.2676ZM903.704 21.9804C904.635 22.7566 905.101 23.867 905.101 25.3116C905.101 26.7562 904.635 27.8719 903.704 28.6589C902.773 29.4459 901.408 29.8394 899.609 29.8394H894.783V20.8161H899.609C901.408 20.8161 902.773 21.2042 903.704 21.9804Z" fill="white"></path>
  <path d="M914.922 17.2585H919.049V39.8976H914.922V17.2585Z" fill="white"></path>
  <path d="M930.615 20.8161H923.25V17.2585H942.107V20.8161H934.742V39.8976H930.615V20.8161Z" fill="white"></path>
  <path d="M955.553 31.9092V39.8976H951.426V31.9739L942.695 17.2585H947.108L953.616 28.287L960.187 17.2585H964.251L955.553 31.9092Z" fill="white"></path>
</svg>
