<?xml version="1.0" encoding="UTF-8"?>
<svg xmlns="http://www.w3.org/2000/svg" width="104" height="99" viewBox="0 0 104 99" fill="none">
  <path d="M0.855469 34.8019H8.05413L10.3254 57.0586L13.2125 34.853H18.8457L21.874 56.9179L24.1966 34.8019H31.2926L26.6988 73H19.3076L16.0612 49.938L12.9815 73H5.50059L0.855469 34.8019Z" fill="white"></path>
  <path d="M38.2969 34.8019H46.7659V73H38.2969V34.8019Z" fill="white"></path>
  <path d="M58.8056 41.0659H53.0312V34.7891H73.0489V41.0659H67.3259V72.9872H58.8056V41.0659Z" fill="white"></path>
  <path d="M79.3867 34.8019H87.8557V50.2703H93.7712V34.8019H102.292V73H93.7712V56.3043H87.8557V73H79.3867V34.8019Z" fill="white"></path>
  <path d="M2.27343 29.0365C0.860566 27.4914 0.102754 25.0448 0 21.684L5.74139 20.8213C5.76707 22.7528 5.99827 24.1435 6.43498 24.9804C6.87168 25.8174 7.52674 26.2423 8.41299 26.2423C9.54329 26.2423 10.0956 25.5084 10.0956 24.0276C10.0956 22.8429 9.82586 21.8386 9.2864 20.9758C8.74694 20.126 7.89922 19.2118 6.75608 18.2331L4.12301 15.9154C2.82574 14.808 1.81104 13.6362 1.10461 12.4001C0.385328 11.1639 0.0385328 9.68314 0.0385328 7.98344C0.0385328 5.42101 0.796344 3.45091 2.31197 2.07312C3.82759 0.695332 5.90836 0 8.56712 0C11.4442 0 13.4094 0.836974 14.437 2.5238C15.4773 4.21062 16.0296 6.24511 16.1067 8.65302L10.3268 9.3741C10.2754 7.79029 10.1341 6.65716 9.89008 5.96183C9.64604 5.26649 9.13227 4.9317 8.33593 4.9317C7.75794 4.9317 7.32123 5.17636 7.00012 5.66567C6.69186 6.15497 6.52489 6.69579 6.52489 7.30098C6.52489 8.3311 6.75608 9.19383 7.21848 9.90204C7.68087 10.6102 8.42584 11.4086 9.45338 12.3099L11.9709 14.5247C13.4736 15.7995 14.6425 17.1644 15.4645 18.5937C16.2865 20.023 16.6975 21.7227 16.6975 23.6799C16.6975 25.1092 16.3636 26.4097 15.7085 27.5815C15.0406 28.7533 14.1158 29.6675 12.9085 30.3499C11.7011 31.0324 10.3139 31.3672 8.74694 31.3672C5.84414 31.3414 3.6863 30.5688 2.27343 29.0365Z" fill="white"></path>
  <path d="M24.9682 5.40813H20.3828V0.39917H36.2583V5.40813H31.7115V30.8908H24.9554V5.40813H24.9682Z" fill="white"></path>
  <path fill-rule="evenodd" clip-rule="evenodd" d="M51.7766 0.412109H44.1214L38.3672 30.9037H44.7123L45.7655 24.4654H50.2353L51.25 30.9037H57.4409L51.7766 0.412109ZM47.9747 8.53719L49.5931 20.4351H46.3563L47.9747 8.53719Z" fill="white"></path>
  <path d="M62.7695 0.412109H67.4962L73.7257 15.0913V0.412109H79.2873V30.9037H74.7404L68.5109 15.0913V30.9037H62.7695V0.412109H62.7695Z" fill="white"></path>
  <path fill-rule="evenodd" clip-rule="evenodd" d="M93.7886 0.412109H86.0949H86.082V30.8908H93.8528C96.4602 30.8908 98.4896 30.556 99.9538 29.8736C101.418 29.1911 102.458 28.1481 103.075 26.7446C103.692 25.341 104 23.4611 104 21.1047V10.0437C104 7.71309 103.692 5.846 103.075 4.45533C102.458 3.06467 101.418 2.04743 99.941 1.39072C98.4639 0.734022 96.4217 0.412109 93.7886 0.412109ZM96.0235 25.7917C95.5611 26.0879 94.8418 26.2295 93.8657 26.2295H92.8253V5.11204H93.84C94.8161 5.11204 95.5354 5.2408 95.9978 5.48546C96.4602 5.73011 96.7556 6.1164 96.8969 6.63147C97.0382 7.14653 97.1024 7.89336 97.1024 8.87198V22.1605C97.1024 23.2164 97.0382 24.0148 96.9097 24.5556C96.7813 25.0835 96.4859 25.5084 96.0235 25.7917Z" fill="white"></path>
  <path fill-rule="evenodd" clip-rule="evenodd" d="M4.48768 98.2091C3.56915 97.6818 2.93128 96.9041 2.56132 95.876C2.19136 94.8478 2 93.5428 2 91.9611V77H6.57988V92.6729C6.57988 93.5428 6.68194 94.2415 6.89881 94.7555C7.11569 95.2696 7.54944 95.5333 8.21282 95.5333C8.86344 95.5333 9.29719 95.2696 9.50131 94.7555C9.70542 94.2415 9.80748 93.5428 9.80748 92.6729V77H14.4129V91.9611C14.4129 93.5428 14.2215 94.861 13.8388 95.876C13.4561 96.9041 12.8182 97.6818 11.9124 98.2091C11.0067 98.7364 9.76921 99 8.20006 99C6.63091 99 5.39345 98.7364 4.48768 98.2091ZM18.929 77.0132H23.5599V85.8712L27.0809 77.0132H31.6097L27.7315 86.8071L31.8011 98.6836H27.0937L24.0574 89.1007L23.5599 89.9575V98.6836H18.929V77.0132ZM35.169 77.0132H40.9481C43.2444 77.0132 44.9794 77.435 46.1531 78.2654C47.3268 79.109 47.9136 80.5986 47.9136 82.734C47.9136 84.1839 47.735 85.3307 47.365 86.1875C47.0078 87.0443 46.3317 87.7166 45.3494 88.1911L48.2198 98.6836H43.423L41.1139 88.9688H39.7872V98.6836H35.1563V77.0132H35.169ZM41.1012 86.2139C42.0325 86.2139 42.6831 85.9635 43.0531 85.4494C43.423 84.9353 43.6144 84.1839 43.6144 83.1558C43.6144 82.1803 43.4358 81.4422 43.0913 80.9545C42.7469 80.4667 42.1473 80.2163 41.3053 80.2163H39.7999V86.2139H41.1012ZM60.4923 77.0132H55.2108L51.2433 98.6836H55.619L56.3462 94.1096H59.4335L60.1351 98.6836H64.4088L60.4923 77.0132ZM57.8771 82.7867L58.987 91.2361H56.7672L57.8771 82.7867ZM72.7393 77.0132H68.1084V98.6836H72.7393V77.0132ZM77.434 77.0132H80.6999L84.9991 87.453V77.0132H88.8263V98.6836H85.688L81.3888 87.4398V98.6836H77.4213V77.0132H77.434ZM102.936 77.0132H93.521V98.6968H103V95.4542H98.1519V88.982H101.801V85.6603H98.1519V80.2822H102.936V77.0132Z" fill="#F4BC20"></path>
  <path fill-rule="evenodd" clip-rule="evenodd" d="M27.8893 87.2667H18.9293V77.0132H23.5602V85.8712L27.0812 77.0132H31.61L27.7318 86.8071L27.8893 87.2667ZM46.6567 87.2667H35.1566V77.0132H35.1693H40.9484C43.2447 77.0132 44.9797 77.435 46.1534 78.2654C47.327 79.109 47.9139 80.5986 47.9139 82.734C47.9139 84.1839 47.7353 85.3307 47.3653 86.1875C47.1984 86.588 46.9617 86.9482 46.6567 87.2667ZM62.3457 87.2667L60.4926 77.0132H55.2111L53.3338 87.2667H57.2889L57.8774 82.7867L58.4658 87.2667H62.3457ZM72.7396 87.2667H68.1087V77.0132H72.7396V87.2667ZM2.00028 87.2667H6.58016V77H2.00028V87.2667ZM9.80776 87.2667V77H14.4132V87.2667H9.80776ZM101.801 87.2667H93.5213V77.0132H102.936V80.2822H98.1522V85.6603H101.801V87.2667ZM88.8266 87.2667H84.9994V77.0132H88.8266V87.2667ZM84.9227 87.2667H77.4216V77.0132H77.4343H80.7002L84.9227 87.2667ZM43.0533 85.4494C42.6834 85.9635 42.0328 86.2139 41.1015 86.2139H39.8002V80.2163H41.3056C42.1476 80.2163 42.7472 80.4667 43.0916 80.9545C43.4361 81.4422 43.6147 82.1803 43.6147 83.1558C43.6147 84.1839 43.4233 84.9353 43.0533 85.4494Z" fill="#245A99"></path>
</svg>
