<?xml version="1.0" encoding="UTF-8"?>
<svg xmlns="http://www.w3.org/2000/svg" width="42" height="54" viewBox="0 0 42 54" fill="none">
  <g id="ambition (1)">
    <path id="Combined Shape" fill-rule="evenodd" clip-rule="evenodd" d="M39.2226 26.8042L41.4201 33.1769C41.8328 34.3733 42.2227 35.5034 41.7138 36.5038C41.3986 37.123 40.8005 37.5602 39.8852 37.8403L37.2311 38.6527L37.091 45.065C37.067 46.1673 36.5637 47.2425 35.7449 47.9411C35.0539 48.5305 34.2035 48.7904 33.3503 48.6737L28.952 48.0706V54H8.83032L9.42411 50.0539C9.77553 47.7187 9.72459 44.6054 6.18251 41.23C2.19566 37.4308 0 32.355 0 26.9377C0 22.8177 0.9854 19.1552 2.92878 16.0524L4.26951 16.8922C2.48612 19.7394 1.58194 23.1192 1.58194 26.9377C1.58194 31.9179 3.60326 36.5869 7.27369 40.0846C11.3896 44.0067 11.365 47.787 10.9884 50.2893L10.6681 52.418H12.9882V21.5682C12.9882 20.2596 14.0527 19.1951 15.3613 19.1951C16.6699 19.1951 17.7344 20.2596 17.7344 21.5682V23.9415H20.8984V21.5683C20.8984 20.2597 21.9629 19.1952 23.2715 19.1952C24.5801 19.1952 25.6446 20.2597 25.6446 21.5683V47.6719H24.0625V21.5683C24.0625 21.1321 23.7076 20.7773 23.2715 20.7773C22.8353 20.7773 22.4805 21.1321 22.4805 21.5683V52.4181H24.0625V49.254H25.6446V52.4181H27.3699V46.2569L33.5651 47.1063C34.0787 47.177 34.4753 46.9446 34.718 46.7376C35.1919 46.3332 35.4951 45.679 35.5092 45.0304L35.6743 37.4747L39.422 36.3276C39.8984 36.1817 40.195 35.9995 40.3036 35.7861C40.5081 35.3845 40.2248 34.563 39.9248 33.6933L39.9246 33.6928L37.6409 27.0703V26.9377C37.6409 18.2668 33.1483 11.8859 25.5965 9.77701L24.2327 11.1685L25.0952 17.3757L19.3163 14.6589L13.5373 17.3757L14.3998 11.1685L13.2844 10.0302C9.96506 11.0988 7.16221 13.0212 5.15935 15.6148L3.90722 14.6479C5.95522 11.9959 8.7548 9.98415 12.0567 8.77748L9.94386 6.62137L16.2849 5.49917L19.3164 0L22.3478 5.49917L28.6888 6.62137L26.8449 8.50315C30.3876 9.66173 33.3551 11.7539 35.4818 14.6087C37.9064 17.8635 39.1986 22.0781 39.2226 26.8042ZM19.3164 12.9107L23.1266 14.7019L22.5589 10.6162L25.4595 7.65644L21.3276 6.92522L19.3165 3.27704L17.3054 6.92522L13.1734 7.65644L16.074 10.6162L15.5062 14.7019L19.3164 12.9107ZM20.8984 31.8516H17.7344V29.4786H20.8984V31.8516ZM20.8984 35.8067V33.4337H17.7344V35.8067H20.8984ZM20.8984 37.3888V39.7618H17.7344V37.3888H20.8984ZM20.8984 43.7168V41.3438H17.7344V43.7168H20.8984ZM20.8984 45.2989V47.6719H17.7344V45.2989H20.8984ZM20.8984 52.418V49.2539H17.7344V52.418H20.8984ZM20.8984 25.5236V27.8966H17.7344V25.5236H20.8984ZM15.3614 20.7771C14.9253 20.7771 14.5704 21.1319 14.5704 21.5682V52.418H16.1524V21.5682C16.1524 21.1319 15.7975 20.7771 15.3614 20.7771ZM9.03324 35.5168V25.8512L10.056 26.8739L11.1746 25.7552L8.24222 22.8228L5.30986 25.7552L6.42846 26.8739L7.4512 25.8512V35.5168H9.03324ZM28.5768 26.8739L27.4582 25.7552L30.3906 22.8228L33.3229 25.7552L32.2043 26.8739L31.1816 25.8512V35.5168H29.5996V25.8512L28.5768 26.8739ZM31.1815 15.9432H32.7635V17.5252H31.1815V15.9432ZM34.3457 19.1073H32.7636V20.6893H34.3457V19.1073Z" fill="#F4BC20"></path>
  </g>
</svg>
