<?xml version="1.0" encoding="UTF-8"?>
<svg xmlns="http://www.w3.org/2000/svg" width="60" height="60" viewBox="0 0 60 60" fill="none">
  <g id="peace">
    <path id="Combined Shape" fill-rule="evenodd" clip-rule="evenodd" d="M52.4853 26.3661C53.2766 25.7384 54.2759 25.362 55.362 25.362C57.9194 25.362 60 27.4427 60 30C60 32.5573 57.9194 34.638 55.362 34.638C54.2759 34.638 53.2766 34.2616 52.4853 33.6339V35.636C52.4853 37.1575 51.2475 38.3953 49.726 38.3953H38.7786C37.6188 39.6075 36.211 40.5801 34.638 41.2321V44.09H32.8767V41.8078C31.9541 42.0325 30.9909 42.1526 30 42.1526C29.0091 42.1526 28.0459 42.0326 27.1233 41.8078V47.8474H25.362V41.2321C24.6614 40.9417 23.9937 40.5877 23.3659 40.1771V49.726C23.3659 50.2764 23.8137 50.7241 24.364 50.7241H35.636C36.1863 50.7241 36.6341 50.2764 36.6341 49.726V41.272H38.3953V49.726C38.3953 51.2475 37.1575 52.4853 35.636 52.4853H33.6339C34.2616 53.2766 34.638 54.2759 34.638 55.362C34.638 57.9194 32.5573 60 30 60C27.4427 60 25.362 57.9194 25.362 55.362C25.362 54.2759 25.7384 53.2766 26.3661 52.4853H24.364C22.8425 52.4853 21.6047 51.2475 21.6047 49.726V38.7786C21.4741 38.6536 21.3464 38.5259 21.2214 38.3953H10.274C8.75249 38.3953 7.51468 37.1575 7.51468 35.636V33.6339C6.7234 34.2616 5.72407 34.638 4.63796 34.638C2.08063 34.638 0 32.5573 0 30C0 27.4427 2.08063 25.362 4.63796 25.362C5.72407 25.362 6.7234 25.7384 7.51468 26.3661V24.364C7.51468 22.8425 8.75249 21.6047 10.274 21.6047H18.728V23.3659H10.274C9.72364 23.3659 9.27593 23.8137 9.27593 24.364V35.636C9.27593 36.1863 9.72364 36.6341 10.274 36.6341H19.8229C19.4124 36.0063 19.0583 35.3386 18.7679 34.638H12.1526V32.8767H18.1922C17.9675 31.9541 17.8474 30.9909 17.8474 30C17.8474 29.0091 17.9674 28.0459 18.1922 27.1233H12.1526V25.362H18.7679C19.4199 23.7889 20.3926 22.3812 21.6047 21.2214V10.274C21.6047 8.75249 22.8425 7.51468 24.364 7.51468H26.3661C25.7384 6.7234 25.362 5.72407 25.362 4.63796C25.362 2.08063 27.4427 0 30 0C32.5573 0 34.638 2.08063 34.638 4.63796C34.638 5.72407 34.2616 6.7234 33.6339 7.51468H35.636C37.1575 7.51468 38.3953 8.75249 38.3953 10.274V14.0313H36.6341V10.274C36.6341 9.72364 36.1863 9.27593 35.636 9.27593H24.364C23.8137 9.27593 23.3659 9.72364 23.3659 10.274V19.8229C23.9937 19.4124 24.6614 19.0583 25.362 18.7679V15.91H27.1233V18.1922C28.0459 17.9675 29.0091 17.8474 30 17.8474C30.9909 17.8474 31.9541 17.9674 32.8767 18.1922V12.1526H34.638V18.7679C35.3386 19.0583 36.0063 19.4123 36.6341 19.8229V15.91H38.3953V21.2214C38.5259 21.3464 38.6536 21.4741 38.7786 21.6047H49.726C51.2475 21.6047 52.4853 22.8425 52.4853 24.364V26.3661ZM30 1.76125C28.4137 1.76125 27.1233 3.05178 27.1233 4.63796C27.1233 6.22415 28.4137 7.51468 30 7.51468C31.5863 7.51468 32.8767 6.22415 32.8767 4.63796C32.8767 3.05178 31.5863 1.76125 30 1.76125ZM4.63796 32.8767C3.05166 32.8767 1.76125 31.5862 1.76125 30C1.76125 28.4138 3.05166 27.1233 4.63796 27.1233C6.22427 27.1233 7.51468 28.4138 7.51468 30C7.51468 31.5862 6.22427 32.8767 4.63796 32.8767ZM30 58.2387C31.5863 58.2387 32.8767 56.9482 32.8767 55.362C32.8767 53.7758 31.5863 52.4853 30 52.4853C28.4137 52.4853 27.1233 53.7758 27.1233 55.362C27.1233 56.9482 28.4137 58.2387 30 58.2387ZM30 40.3914C24.2702 40.3914 19.6086 35.7298 19.6086 30C19.6086 24.2702 24.2702 19.6086 30 19.6086C35.7298 19.6086 40.3914 24.2702 40.3914 30C40.3914 35.7298 35.7298 40.3914 30 40.3914ZM49.726 36.6341C50.2764 36.6341 50.7241 36.1863 50.7241 35.636V24.364C50.7241 23.8137 50.2764 23.3659 49.726 23.3659H40.1771C40.5876 23.9937 40.9417 24.6614 41.2321 25.362H47.8474V27.1233H41.8078C42.0325 28.0459 42.1526 29.0091 42.1526 30C42.1526 30.9909 42.0326 31.9541 41.8078 32.8767H47.8474V34.638H41.2321C40.9417 35.3386 40.5877 36.0063 40.1771 36.6341H49.726ZM55.362 32.8767C53.7757 32.8767 52.4853 31.5862 52.4853 30C52.4853 28.4138 53.7757 27.1233 55.362 27.1233C56.9483 27.1233 58.2387 28.4138 58.2387 30C58.2387 31.5862 56.9483 32.8767 55.362 32.8767ZM25.362 12.1526H27.1233V14.0313H25.362V12.1526ZM32.8767 45.9687H34.638V47.8474H32.8767V45.9687ZM32.818 27.2407H34.6967V29.002H32.818V27.2407ZM21.6047 30C21.6047 25.3708 25.3708 21.6047 30 21.6047C34.6292 21.6047 38.3953 25.3708 38.3953 30C38.3953 34.6292 34.6292 38.3953 30 38.3953C25.3708 38.3953 21.6047 34.6292 21.6047 30ZM35.9582 32.9138C36.3904 32.0337 36.634 31.0449 36.634 30C36.634 26.6407 34.1236 23.8585 30.8806 23.4262V29.5287L35.9582 32.9138ZM29.1194 23.4262V29.5287L24.0418 32.9138C23.6096 32.0337 23.3659 31.0449 23.3659 30C23.3659 26.6407 25.8764 23.8585 29.1194 23.4262ZM29.1194 31.6455L25.0214 34.3774C26.0547 35.5512 27.4947 36.3573 29.1194 36.5738V31.6455ZM30.8806 36.5738V31.6455L34.9786 34.3775C33.9453 35.5512 32.5053 36.3573 30.8806 36.5738Z" fill="#F4BC20"></path>
  </g>
</svg>
