<?xml version="1.0" encoding="UTF-8"?>
<svg xmlns="http://www.w3.org/2000/svg" width="45" height="54" viewBox="0 0 45 54" fill="none">
  <g id="brain">
    <path id="Combined Shape" fill-rule="evenodd" clip-rule="evenodd" d="M39.562 21.1716L43.9943 32.2149C44.305 32.9891 44.2116 33.8639 43.7442 34.5549C43.277 35.2459 42.5 35.6585 41.6659 35.6585H37.8524V40.5703C37.8524 43.3794 35.567 45.6647 32.7581 45.6647H30.783C29.7151 45.6647 28.8462 46.5336 28.8462 47.6014V54H4.50447V43.6894C4.50447 41.9139 4.29891 40.1371 3.89317 38.4082L0.959138 25.9032C0.310083 23.8967 -0.0123349 21.8029 0.000743207 19.6797C0.0678213 8.82826 8.95188 0 19.8047 0C30.7292 0.00537891 39.6089 8.88943 39.6089 19.8041C39.6089 20.2565 39.5931 20.7156 39.562 21.1716ZM41.666 34.0521C41.9705 34.0521 42.2429 33.9074 42.4134 33.6553C42.584 33.403 42.6168 33.0962 42.5033 32.8136L37.9318 21.4238L37.9464 21.2366C37.9834 20.7599 38.0022 20.2782 38.0022 19.8045C38.0022 9.77516 29.8428 1.61177 19.8136 1.60682C9.83201 1.60682 1.66873 9.71884 1.60714 19.6899C1.5949 21.6521 1.89454 23.5864 2.49719 25.439L2.51543 25.5039L5.45717 38.0417C5.89096 39.8906 6.11097 41.7908 6.11097 43.6897V52.3935H6.11108H27.2397V47.6016C27.2397 45.6478 28.8293 44.0583 30.7831 44.0583H32.7582C34.6815 44.0583 36.246 42.4937 36.246 40.5705V34.0521H41.666ZM16.6091 50.1424H25.5876V51.7489H16.6091V50.1424ZM15.2382 50.1424H11.1554V51.7489H15.2382V50.1424ZM35.1858 12.0006L33.7487 12.7189C34.1533 13.5282 34.4884 14.3778 34.745 15.2442L36.2855 14.788C36.0022 13.8317 35.6322 12.8938 35.1858 12.0006ZM27.8624 6.33667L28.6948 4.96273C30.9378 6.32169 32.8713 8.20779 34.2865 10.4175L32.9336 11.2838C31.6502 9.27988 29.8966 7.56907 27.8624 6.33667Z" fill="#F4BC20"></path>
  </g>
</svg>
