<?xml version="1.0" encoding="UTF-8"?>
<svg xmlns="http://www.w3.org/2000/svg" width="54" height="54" viewBox="0 0 54 54" fill="none">
  <g id="entrepreneurship">
    <path id="Combined Shape" fill-rule="evenodd" clip-rule="evenodd" d="M41.9537 1.83318C44.42 3.36578 46.2618 5.7118 47.1644 8.48463L48.6698 7.99459C47.5978 4.70153 45.3521 1.942 42.3462 0.224385L41.9535 0L41.5608 0.224385C37.3279 2.64312 34.6444 7.17231 34.5575 12.0442L36.1405 12.0725C36.2147 7.90815 38.43 4.02637 41.9537 1.83318ZM30.9636 34.1165L23.3251 32.2684V29.8363C24.8169 28.5155 25.8011 26.6294 25.9436 24.5138C27.9327 22.4816 29.0244 19.8098 29.0244 16.9542V15.8292C29.0244 13.0102 27.8964 10.3611 25.8479 8.37001C24.5725 7.1303 22.9894 6.21397 21.2694 5.72003L21.0636 5.66092L20.1568 5.89133L19.6287 5.37965L19.3564 5.35126C18.9769 5.31168 18.5899 5.29173 18.2062 5.29173C12.241 5.29173 7.38804 10.0189 7.38804 15.8293V16.9543C7.38804 19.8099 8.47978 22.4816 10.4688 24.5139C10.6113 26.6295 11.5954 28.5155 13.0874 29.8364V32.2685L5.44889 34.1166C2.24069 34.8926 0 37.7401 0 41.0409V43.7442H1.58315V41.0409C1.58315 38.4735 3.32588 36.2589 5.82124 35.6552L13.1831 33.8741C13.6429 36.228 15.7198 38.0102 18.2063 38.0102C20.6928 38.0102 22.7698 36.228 23.2296 33.8741L30.5914 35.6552C33.0868 36.2589 34.8295 38.4735 34.8295 41.0409V43.7442H36.4127V41.0409C36.4125 37.7401 34.1718 34.8926 30.9636 34.1165ZM10.4488 17.3104V21.967C9.48803 20.4885 8.97119 18.7653 8.97119 16.9543V15.8293C8.97119 10.8919 13.114 6.87488 18.2062 6.87488C18.4455 6.87488 18.6861 6.88396 18.9247 6.9019L19.6899 7.64335L21.0337 7.30191C22.4261 7.73612 23.7053 8.49508 24.7445 9.50524C26.4837 11.1957 27.4414 13.4415 27.4414 15.8292V16.9542C27.4414 18.7652 26.9245 20.4883 25.9638 21.9668V16.3383L25.363 16.1891C23.9449 15.837 22.6754 15.0157 21.6914 13.8141L20.8724 12.814L20.3538 13.9981C19.2857 16.437 16.9758 17.8359 14.0164 17.8359C12.962 17.8359 12.1432 17.7507 11.4396 17.5678L10.4488 17.3104ZM18.2062 36.427C20.1558 36.427 21.7419 34.8409 21.7419 32.8913V30.9221C20.6808 31.4711 19.4794 31.7831 18.2062 31.7831C16.9331 31.7831 15.7317 31.471 14.6705 30.9221V32.8913C14.6705 34.8409 16.2566 36.427 18.2062 36.427ZM18.2062 30.2C14.8017 30.2 12.0319 27.4106 12.0319 23.9819V19.2961C12.6192 19.3792 13.2692 19.419 14.0163 19.419C17.1995 19.419 19.7795 18.0682 21.2607 15.6713C22.1697 16.531 23.227 17.169 24.3806 17.5517V23.9819C24.3805 27.4106 21.6107 30.2 18.2062 30.2ZM1.58315 45.3274H0V54H1.58315V45.3274ZM34.8293 45.3274H36.4125V54H34.8293V45.3274ZM29.4466 42.3902H27.8635V54H29.4466V42.3902ZM6.96586 42.3902H8.54901V54H6.96586V42.3902ZM16.8869 25.7144C16.8869 26.4419 17.4787 27.0337 18.2062 27.0337C18.9337 27.0337 19.5255 26.4419 19.5255 25.7144H21.1087C21.1087 27.3148 19.8067 28.6168 18.2062 28.6168C16.6058 28.6168 15.3038 27.3148 15.3038 25.7144H16.8869ZM49.2824 13.6791L48.7804 18.7002L53.9326 23.2462V27.0337H29.9742V23.2462L35.1265 18.7002L34.6284 13.7185L36.2037 13.5611L37.3926 25.4505H46.5142L47.7071 13.5216C47.7478 13.1142 47.7685 12.7006 47.7685 12.2922C47.7686 11.4987 47.691 10.7017 47.5382 9.92319L49.0917 9.61806C49.2643 10.4969 49.3517 11.3966 49.3517 12.2922C49.3517 12.7529 49.3283 13.2195 49.2824 13.6791ZM31.5575 23.9607V25.4505H35.8017L35.3206 20.6403L31.5575 23.9607ZM52.3495 25.4505H48.1054L48.5864 20.6403L52.3495 23.9607V25.4505ZM44.3282 28.7751H45.9114V33.419H44.3282V28.7751ZM42.7451 28.7751H41.1619V35.5299H42.7451V28.7751ZM41.1619 37.1131H42.7451V38.6962H41.1619V37.1131ZM39.5788 28.7751H37.9956V33.419H39.5788V28.7751ZM31.663 39.8572H33.2462V41.4403H31.663V39.8572ZM33.2462 43.0235H31.663V44.6066H33.2462V43.0235Z" fill="#F4BC20"></path>
  </g>
</svg>
