<?xml version="1.0" encoding="UTF-8"?>
<svg xmlns="http://www.w3.org/2000/svg" width="43" height="54" viewBox="0 0 43 54" fill="none">
  <g id="innovate">
    <path id="Combined Shape" fill-rule="evenodd" clip-rule="evenodd" d="M17.0097 23.2567V22.3627C12.5158 20.6731 9.53545 16.3996 9.53545 11.5517C9.53545 5.18198 14.7178 0 21.0872 0C27.4569 0 32.6389 5.18198 32.6389 11.5517C32.6389 16.3996 29.659 20.6731 25.1646 22.3627V23.2567H26.5064V25.6557H27.1079V27.2377H15.0656V25.6557H15.6671V23.2567H17.0097ZM17.2491 24.8387V25.6553H24.9244V24.8387H17.2491ZM21.0872 1.58203C26.5843 1.58203 31.0568 6.05457 31.0568 11.5517C31.0568 15.9044 28.2739 19.7202 24.1322 21.0472L23.5826 21.2231V23.2567H21.8782V17.9523C23.7931 17.582 25.2433 15.8932 25.2433 13.872H23.6613C23.6613 15.2913 22.5065 16.4461 21.0872 16.4461C19.6679 16.4461 18.5131 15.2913 18.5131 13.872H16.931C16.931 15.8932 18.3816 17.582 20.2961 17.9523V23.2567H18.5918V21.2231L18.0422 21.0472C13.9005 19.7202 11.1175 15.9039 11.1175 11.5517C11.1175 6.05457 15.59 1.58203 21.0872 1.58203ZM37.6297 28.0543H4.5434L0 32.5977V54H42.1735V32.5977L37.6297 28.0543ZM28.3204 29.6363L24.3262 38.7956L23.7391 33.7574H23.9377V29.6363H28.3204ZM21.6479 44.9388L23.0696 41.6779L22.1464 33.7574H20.0263L19.103 41.6779L20.5248 44.9388H21.6479ZM22.3557 29.6363V32.1754H19.8166V29.6363H22.3557ZM18.2346 33.7574V29.6363H13.8518L17.8461 38.7956L18.4331 33.7574H18.2346ZM40.5915 52.418H35.683V41.715H34.101V52.418H8.07207V41.715H6.49004V52.418H1.58203V33.2531L5.19887 29.6363H12.126L19.4886 46.5208H22.6836L30.0466 29.6363H36.9746L40.5915 33.2531V52.418ZM10.5086 36.0732H13.4497V42.6366L16.6847 45.8715L15.5661 46.99L11.8677 43.2916V37.6552H8.92653V31.1034H10.5086V36.0732ZM31.6637 36.0732H28.7229V42.6366L25.4876 45.8715L26.6066 46.99L30.305 43.2916V37.6552H33.2457V31.1034H31.6637V36.0732ZM35.9653 10.8946H40.6178V12.4766H35.9653V10.8946ZM6.20947 10.8946H1.5569V12.4766H6.20947V10.8946ZM33.5753 3.56163L37.6046 1.23514L38.3956 2.60541L34.3663 4.93149L33.5753 3.56163ZM7.80675 18.4389L3.77751 20.7654L4.56853 22.1353L8.59776 19.8092L7.80675 18.4389ZM3.77751 2.60541L4.56853 1.23555L8.59818 3.56204L7.80716 4.9319L3.77751 2.60541ZM34.3667 18.4406L33.5757 19.8104L37.605 22.1369L38.396 20.7666L34.3667 18.4406ZM21.0872 4.40456C21.5634 4.40456 22.0393 4.45193 22.5019 4.54504L22.8146 2.99432C22.2494 2.8802 21.6681 2.82253 21.0872 2.82253V4.40456ZM24.7069 5.39085C24.2982 5.14943 23.864 4.94879 23.4169 4.7943L23.934 3.29919C24.4807 3.4883 25.0109 3.73343 25.5111 4.02841L24.7069 5.39085ZM26.7347 18.2168L25.713 17.0089C27.3152 15.6539 28.2343 13.6648 28.2343 11.5517C28.2343 9.34511 27.2344 7.29465 25.4909 5.92644L26.4673 4.68182C28.5956 6.35161 29.8163 8.85567 29.8163 11.5517C29.8163 14.1312 28.6933 16.5607 26.7347 18.2168ZM39.351 35.5607H37.7689V33.9787H39.351V35.5607ZM37.7689 38.1974H39.351V36.6154H37.7689V38.1974ZM37.7689 50.3486H39.351V39.2521H37.7689V50.3486Z" fill="#F4BC20"></path>
  </g>
</svg>
