<?xml version="1.0" encoding="UTF-8"?>
<svg xmlns="http://www.w3.org/2000/svg" width="60" height="60" viewBox="0 0 60 60" fill="none">
  <g id="teamwork">
    <path id="Combined Shape" fill-rule="evenodd" clip-rule="evenodd" d="M39.2433 53.7262C37.475 53.7886 37.4768 56.3515 39.2456 56.4053H51.4757L55.0704 60L52.575 59.9905L50.7476 58.1631H39.2456C35.1428 57.9979 35.1328 52.1582 39.2368 51.9684L40.7945 51.9614L38.9197 50.0866C36.1089 51.3384 33.1113 51.9727 30 51.9727C26.916 51.9727 23.9426 51.3491 21.1521 50.1183L19.309 51.9614L20.868 51.9684C24.967 52.1571 24.9636 57.9966 20.8579 58.1631H9.3559L7.51898 60H5.03309L8.62781 56.4052H20.8577C22.6248 56.352 22.6294 53.7898 20.8615 53.7261L15.084 53.7002L26.4486 42.3356C27.6098 41.1082 25.9276 39.3359 24.6431 40.4252L17.4702 47.5975L16.2272 46.3546L25.8638 36.7188C27.0514 35.4493 25.262 33.6575 23.9909 34.8459L14.3544 44.4817L13.1114 43.2388L21.5068 34.8423C22.6924 33.5791 20.9176 31.8027 19.6532 32.9886L11.2573 41.3845L10.0144 40.1416L15.9286 34.2274C17.1182 32.9602 15.3261 31.1637 14.0541 32.3529L7.16074 39.2462L5.91785 38.0033L8.66356 35.2576C8.24309 33.5452 8.02734 31.7791 8.02734 30C8.02734 26.0743 9.07535 22.2214 11.0582 18.8578C12.8959 15.74 15.4888 13.1133 18.575 11.2304C18.5913 7.92445 19.8349 4.80621 22.0898 2.40316V0H23.8477V3.11977C21.6027 5.26453 20.3251 8.18695 20.332 11.2963V16.7839H18.5742V13.3249C13.1177 17.0748 9.78516 23.328 9.78516 30C9.78516 31.2737 9.90562 32.5398 10.14 33.7808L12.8109 31.1099C14.3425 29.5036 17.196 30.185 17.8902 32.2656C17.8902 32.2656 18.4102 31.7456 18.4102 31.7457C19.9744 30.097 22.9341 30.865 23.5206 33.0405C25.4933 31.9889 28.0389 33.5127 28.0055 35.7922C28.0105 36.9949 27.3927 37.7389 26.5547 38.514C28.633 39.2149 29.2842 42.0598 27.6916 43.5788L22.4951 48.7753C24.8761 49.7303 27.3947 50.2148 30 50.2148C32.633 50.2148 35.1763 49.7203 37.5788 48.7459L32.4118 43.5789C30.8166 42.0304 31.4572 39.2362 33.549 38.5144C32.71 37.7378 32.094 36.9981 32.0979 35.7925C32.0648 33.5127 34.6092 31.9894 36.5828 33.0407C37.1688 30.8654 40.1292 30.0967 41.6932 31.7459L42.2118 32.2644C42.9475 30.1621 45.7214 29.5056 47.2924 31.1101L49.8757 33.6933C50.0994 32.4802 50.2148 31.2437 50.2148 30C50.2148 23.8262 47.3416 17.9314 42.501 14.1134C41.3587 14.6366 39.9572 14.4313 39.0193 13.4987L37.9131 12.4023V24.2571C37.9636 26.4636 35.4906 28.0077 33.5278 27.0341C33.5719 28.1766 33.4846 29.1352 32.6292 29.9849C31.0407 31.6202 28.1641 30.8984 27.5122 28.7595C25.5595 29.8832 22.9228 28.3334 22.9829 26.0613V25.3261C21.0211 26.3062 18.5212 24.7707 18.5742 22.5518V18.6067H20.332V22.5518C20.3897 24.2897 22.9246 24.2911 22.9829 22.5518V14.1879H24.7407V26.0612C24.7955 27.7927 27.3069 27.7941 27.3623 26.0613L27.3632 14.1877H29.121L29.1214 27.8152C29.1067 28.9786 30.5814 29.5651 31.3862 28.742C31.6338 28.4944 31.7701 28.1653 31.7701 27.8152L31.7695 14.1877H33.5273L33.5278 24.3306C33.6663 26.0134 36.1093 25.9416 36.1554 24.2571V8.18519L40.2579 12.2511C41.5523 13.4575 43.3632 11.6439 42.1506 10.3552L33.5026 1.70719V0H35.2604V0.979102L43.3937 9.1125C44.4043 10.0875 44.5911 11.7591 43.8373 12.9341C46.1982 14.8529 48.1637 17.2652 49.5514 19.9632C51.1581 23.0869 51.9728 26.4639 51.9728 30.0001C51.9728 31.7505 51.7643 33.4883 51.3572 35.1749L53.462 37.2797L52.2191 38.5226L46.0495 32.3531C44.7817 31.1626 42.9839 32.9583 44.175 34.2275L50.0891 40.1418L48.8462 41.3846L40.4503 32.9888C39.1871 31.8032 37.4106 33.5781 38.5965 34.8424L46.992 43.2389L45.7489 44.4818L36.1125 34.8459C35.3003 34.013 33.8428 34.641 33.8557 35.7921C33.8557 36.1423 33.992 36.4714 34.2396 36.7189L43.8762 46.3547L42.6332 47.5976L35.4606 40.4256C34.1737 39.3342 32.4926 41.1123 33.6547 42.3356L45.0193 53.7004L39.2433 53.7262ZM22.9829 10.6723H24.7407V12.4301H22.9829V10.6723ZM29.121 10.6723H27.3632V12.4301H29.121V10.6723ZM33.5273 10.6723H31.7695V12.4301H33.5273V10.6723ZM59.0537 47.8431C58.9482 44.5276 57.6062 41.4238 55.2512 39.0687L54.7508 38.5684L53.5079 39.8114L54.0083 40.3117C56.2118 42.5054 57.3749 45.4753 57.3041 48.5793L60 51.2754V48.7895L59.0537 47.8431ZM45.109 47.5989L43.8662 48.8417L45.109 50.0844L46.3517 48.8417L45.109 47.5989ZM46.9821 45.7265L48.2249 44.4838L49.4676 45.7265L48.2249 46.9693L46.9821 45.7265ZM51.3221 41.3857L50.0794 42.6284L51.3221 43.8712L52.5649 42.6284L51.3221 41.3857ZM4.62879 39.2923C2.34187 41.5791 1.07016 44.6159 1.04484 47.8481L0 48.8406V51.3789L2.79949 48.5794C2.67586 45.5775 3.72293 42.6579 5.87168 40.5353L4.62879 39.2923ZM14.9776 47.5942L13.7348 48.837L14.9776 50.0798L16.2203 48.837L14.9776 47.5942ZM10.6197 45.7212L11.8624 44.4785L13.1052 45.7212L11.8624 46.964L10.6197 45.7212ZM8.76586 41.3812L7.52309 42.624L8.76586 43.8667L10.0086 42.624L8.76586 41.3812Z" fill="#F4BC20"></path>
  </g>
</svg>
