<?xml version="1.0" encoding="UTF-8"?>
<svg xmlns="http://www.w3.org/2000/svg" width="43" height="60" viewBox="0 0 43 60" fill="none">
  <g id="creative">
    <path id="Combined Shape" fill-rule="evenodd" clip-rule="evenodd" d="M22.8524 1.81192L22.9783 0.0559373C22.3713 0.011992 21.7534 -0.00631843 21.145 0.00192131L21.1674 1.76294C21.7273 1.75561 22.2949 1.77209 22.8524 1.81192ZM18.5843 0.186858L18.8154 1.93231C18.2606 2.00601 17.7026 2.10443 17.157 2.22528L16.7766 0.505918C17.3716 0.37454 17.9796 0.266966 18.5843 0.186858ZM3.92578 9.06013L5.36315 10.0777C5.03951 10.5346 4.73235 11.0107 4.44946 11.4927L2.9306 10.6019C3.23867 10.0768 3.5733 9.55818 3.92578 9.06013ZM14.8892 2.87255L14.3046 1.21179C13.7292 1.41458 13.1557 1.64483 12.5999 1.8966L13.3259 3.5006C13.8354 3.26989 14.3614 3.0584 14.8892 2.87255ZM6.8193 5.74914L8.02001 7.03728C7.61077 7.41905 7.21297 7.8228 6.83761 8.23799L5.53161 7.05651C5.94039 6.60469 6.37389 6.16478 6.8193 5.74914ZM11.2399 4.60015L10.3267 3.09503C9.8062 3.41088 9.29213 3.75329 8.79958 4.11309L9.83824 5.53536C10.2905 5.20486 10.762 4.89037 11.2399 4.60015ZM36.9323 6.64269C37.3525 7.08351 37.7595 7.54814 38.1408 8.02376L36.7675 9.12605C36.4173 8.68935 36.0438 8.26271 35.6579 7.85805L36.9323 6.64269ZM40.409 16.2845L42.1092 15.8259C41.9499 15.2367 41.7635 14.648 41.5543 14.0758L39.9005 14.6796C40.0923 15.2047 40.2635 15.7444 40.409 16.2845ZM42.8118 20.1673L41.054 20.2689C41.0215 19.7095 40.9648 19.1456 40.8851 18.5931L42.6278 18.3417C42.7148 18.9437 42.7766 19.558 42.8118 20.1673ZM40.5285 11.7188L38.9593 12.5176C38.7057 12.0191 38.4269 11.5252 38.1312 11.05L39.6263 10.1199C39.9485 10.6376 40.252 11.1755 40.5285 11.7188ZM31.3929 2.45599C30.8528 2.17172 30.2948 1.90805 29.734 1.67184L29.0506 3.29461C29.5651 3.51113 30.0773 3.75329 30.5722 4.01376L31.3929 2.45599ZM1.76697 12.8907L3.38195 13.5929C3.15948 14.1051 2.95623 14.6339 2.77816 15.1639L1.1087 14.6032C1.30279 14.0259 1.52435 13.4496 1.76697 12.8907ZM35.0527 4.89312C34.5822 4.50448 34.0891 4.13232 33.5888 3.78625L32.5877 5.23507C33.0473 5.55276 33.4996 5.8947 33.9317 6.2513L35.0527 4.89312ZM25.5249 0.392393C26.1236 0.508207 26.7242 0.651945 27.3101 0.819028L26.8272 2.51229C26.2902 2.3594 25.7391 2.22756 25.1893 2.12091L25.5249 0.392393ZM32.5474 37.6397L33.5449 39.0908C34.047 38.7451 34.541 38.3744 35.0115 37.9875L33.8941 36.6266C33.4616 36.9818 33.0084 37.3224 32.5474 37.6397ZM36.8957 36.2421L35.6245 35.024C36.0118 34.6198 36.3862 34.1936 36.7373 33.7587L38.1079 34.8642C37.7252 35.338 37.3178 35.8017 36.8957 36.2421ZM38.106 31.838L39.5988 32.7718C39.922 32.255 40.2268 31.718 40.5047 31.176L38.9373 30.3731C38.6823 30.8707 38.4027 31.3637 38.106 31.838ZM0.43991 17.0843L2.16476 17.439C2.05215 17.9861 1.96197 18.5454 1.89651 19.1016L0.147857 18.8956C0.219269 18.29 0.31723 17.6803 0.43991 17.0843ZM40.8778 24.3041L42.62 24.56C42.7084 23.9576 42.772 23.3437 42.8086 22.7344L41.0508 22.6282C41.0174 23.1876 40.9588 23.7511 40.8778 24.3041ZM41.536 28.8227L39.8835 28.2143C40.0767 27.6897 40.2488 27.1505 40.3958 26.6112L42.095 27.0745C41.9343 27.6622 41.7462 28.2505 41.536 28.8227ZM3.40942 29.3175L1.79718 30.0252C2.04208 30.5837 2.31445 31.138 2.60696 31.6736L4.15237 30.83C3.88412 30.3388 3.63418 29.8298 3.40942 29.3175ZM5.09994 35.2982C4.70489 34.834 4.3254 34.3474 3.97109 33.8507L5.40435 32.8281C5.72982 33.284 6.07863 33.7313 6.44073 34.157L5.09994 35.2982ZM1.76101 21.4564L0 21.4591C0.000915467 22.0693 0.0279235 22.6859 0.0801086 23.2915L1.83471 23.1405C1.78665 22.5838 1.76147 22.0171 1.76101 21.4564ZM0.454559 25.8339L2.17804 25.4732C2.29293 26.0212 2.43301 26.5709 2.59414 27.1061L0.908202 27.6142C0.732421 27.0305 0.579528 26.4313 0.454559 25.8339ZM6.87789 37.1517C7.32558 37.566 7.79616 37.9656 8.27681 38.3396L9.35805 36.9498C8.91722 36.6065 8.48464 36.2398 8.07357 35.859L6.87789 37.1517ZM5.86944 21.4243C5.86944 12.8477 12.8471 5.86999 21.4242 5.86999C30.0009 5.86999 36.9785 12.8477 36.9785 21.4243C36.9785 26.4835 34.53 31.193 30.4046 34.1172V50.902L21.3066 60L12.209 50.902V33.9469C8.23058 31.0131 5.86944 26.3663 5.86944 21.4243ZM19.2059 55.4091L21.3066 57.5098L23.4073 55.4091H19.2059ZM25.1683 53.6485H17.4453L15.2147 51.4179H27.3985L25.1683 53.6485ZM13.9696 41.2047V49.6568H16.3174V41.2047H13.9696ZM18.0784 49.6568V41.2047H20.4263V49.6568H18.0784ZM22.1873 41.2047V49.6568H24.5347V41.2047H22.1873ZM28.6436 49.6568H26.2957V41.2047H28.6436V49.6568ZM13.9696 39.4442H28.6436V37.5655H13.9696V39.4442ZM29.0368 32.9201L28.6436 33.1815V35.8049H13.9696V33.0332L13.5905 32.7704C9.85838 30.1854 7.63045 25.9438 7.63045 21.4243C7.63045 13.8186 13.818 7.63054 21.4242 7.63054C29.03 7.63054 35.2175 13.8186 35.2175 21.4243C35.2175 26.0509 32.9072 30.3484 29.0368 32.9201ZM29.4699 17.353L29.9707 18.5619L32.4545 19.4454V23.3423L29.9707 24.2258L29.4699 25.4348L30.6019 27.8156L27.8462 30.5713L25.4649 29.4397L24.2559 29.9405L23.3725 32.4244H19.4755L18.592 29.9405L17.3831 29.4397L15.0023 30.5713L12.2465 27.8156L13.3781 25.4348L12.8773 24.2258L10.3935 23.3423V19.4454L12.8773 18.5619L13.3781 17.353L12.2465 14.9717L15.0023 12.216L17.3831 13.348L18.592 12.8472L19.4755 10.3629H23.3725L24.2559 12.8472L25.4649 13.348L27.8462 12.216L30.6019 14.9717L29.4699 17.353ZM28.6436 22.8292L30.6939 22.1V20.6878L28.6436 19.959L27.5436 17.304L28.4779 15.3384L27.4795 14.34L25.5139 15.2743L22.8589 14.1747L22.1301 12.1244H20.7184L19.9891 14.1747L17.3341 15.2743L15.3685 14.34L14.3701 15.3384L15.3044 17.304L14.2048 19.959L12.1545 20.6878V22.1L14.2048 22.8292L15.3044 25.4842L14.3701 27.4494L15.3685 28.4478L17.3341 27.5135L19.9891 28.6135L20.7184 30.6638H22.1301L22.8589 28.6135L25.5139 27.5135L27.4795 28.4478L28.4779 27.4494L27.5436 25.4842L28.6436 22.8292ZM21.4242 16.9918C18.9967 16.9918 17.0219 18.9666 17.0219 21.3936C17.0219 23.8212 18.9967 25.7959 21.4242 25.7959C23.8513 25.7959 25.8261 23.8212 25.8261 21.3936C25.8261 18.9666 23.8513 16.9918 21.4242 16.9918ZM21.4242 24.0354C19.9676 24.0354 18.7829 22.8502 18.7829 21.3936C18.7829 19.9375 19.9676 18.7524 21.4242 18.7524C22.8804 18.7524 24.0655 19.9375 24.0655 21.3936C24.0655 22.8502 22.8804 24.0354 21.4242 24.0354Z" fill="#F4BC20"></path>
  </g>
</svg>
