<?xml version="1.0" encoding="UTF-8"?>
<svg xmlns="http://www.w3.org/2000/svg" width="24" height="26" viewBox="0 0 24 26" fill="none">
  <path fill-rule="evenodd" clip-rule="evenodd" d="M7.30903 8.96605H5.72719L5.74903 5.48605L3.82903 0.555176H5.45447L6.54534 3.82789L7.63631 0.555176H9.10903L7.30903 5.48605V8.96605ZM11.0399 9.07518H11.4872C12.4771 9.07518 13.2812 8.27596 13.2872 7.28605V4.37333C13.2695 3.39627 12.4753 2.61186 11.4981 2.60605H11.0508C10.0609 2.60605 9.25678 3.40527 9.25078 4.39518V7.30789C9.26859 8.28496 10.0627 9.06946 11.0399 9.07518ZM10.5926 4.2643C10.5929 3.8908 10.8959 3.58808 11.2694 3.58836C11.6426 3.58864 11.9452 3.89108 11.9453 4.2643V7.39518C11.9451 7.76868 11.6421 8.07139 11.2686 8.07111C10.8953 8.07083 10.5929 7.76839 10.5926 7.39518V4.2643ZM15.5453 9.07518C16.1821 9.01396 16.7787 8.73674 17.2362 8.28974V8.96614H18.5453V2.60614H17.2362V7.53702C17.2362 7.53702 16.7889 8.06061 16.3635 8.06061C15.9381 8.06061 15.9162 7.72246 15.9162 7.72246V2.60605H14.5308V8.20246C14.6064 8.70439 15.0378 9.07546 15.5453 9.07518ZM13.9744 16.7225C14.1425 16.5199 14.3879 16.3971 14.6508 16.3843C15.2072 16.3843 15.3272 17.137 15.3272 17.1371V20.7807C15.3272 20.7807 15.3272 21.5334 14.6508 21.5334C14.3934 21.5371 14.147 21.4297 13.9744 21.2389V16.7225ZM19.8326 16.3843C19.1562 16.3843 19.1562 17.137 19.1562 17.137V18.1079H20.5089V17.137C20.509 17.137 20.509 16.3843 19.8326 16.3843ZM20.2799 10.4716C20.2988 10.4709 20.3178 10.4705 20.3367 10.4702C22.1439 10.441 23.6326 11.8825 23.6618 13.6896C23.8731 15.0763 23.9861 16.4762 23.9999 17.8788C23.9835 19.2813 23.8705 20.681 23.6618 22.0679C23.6618 22.1048 23.6612 22.1419 23.66 22.1788C23.5998 23.9853 22.0865 25.4009 20.28 25.3406C20.28 25.3406 16.2109 25.5588 12 25.5588C7.78912 25.5588 3.72 25.3406 3.72 25.3406C3.68306 25.3418 3.64603 25.3424 3.60909 25.3424C1.80159 25.3415 0.337125 23.8754 0.338156 22.0679C0.128344 20.6811 0.015375 19.2813 0 17.8788C0.0167813 16.4908 0.129844 15.1056 0.338156 13.7333C0.338062 13.6964 0.338719 13.6594 0.339938 13.6224C0.400125 11.816 1.91344 10.4003 3.71991 10.4606C3.71991 10.4606 7.85447 10.2425 11.9999 10.2425C16.1453 10.2425 20.2581 10.4716 20.2581 10.4716H20.2799ZM5.45447 14.1261H7.10175L7.13447 12.7296H2.18175V14.1261H3.82903V22.6133H5.45447V14.1261ZM11.389 22.6133H10.0254V21.9697C9.56137 22.4019 8.96625 22.6669 8.33456 22.7225C7.82709 22.7331 7.39163 22.3631 7.32 21.8606V15.1952H8.72728V21.4243C8.72728 21.4243 8.72728 21.7516 9.17456 21.7516C9.62184 21.7516 10.08 21.217 10.08 21.217V15.1952H11.4327L11.389 22.6133ZM13.9745 22.0025C14.3201 22.4605 14.8625 22.7276 15.4363 22.7225C16.6799 22.7225 16.6799 20.9989 16.6799 20.9989L16.669 16.9297C16.669 15.9589 16.3309 15.2061 15.4254 15.2061C14.8618 15.2511 14.3377 15.5132 13.9636 15.937V12.7297H12.5017V22.6133H13.9745V22.0025ZM21.9708 19.2097H19.1562V20.8243C19.1562 20.8243 19.1562 21.577 19.8326 21.577C20.509 21.577 20.509 20.8243 20.509 20.8243V20.0606H21.9709V21.2388C21.7752 22.1832 20.9024 22.8308 19.9417 22.7442C18.9467 22.8338 18.0293 22.2008 17.7599 21.2388V17.0279C17.7903 15.98 18.6643 15.1551 19.7122 15.1854C19.7891 15.1877 19.8657 15.1945 19.9417 15.2061C20.9139 15.0669 21.8148 15.7422 21.954 16.7143C21.9689 16.8181 21.9745 16.9231 21.9709 17.0279V19.2097H21.9708Z" fill="white"></path>
</svg>
