<?xml version="1.0" encoding="UTF-8"?>
<svg xmlns="http://www.w3.org/2000/svg" width="25" height="26" viewBox="0 0 25 26" fill="none">
  <path fill-rule="evenodd" clip-rule="evenodd" d="M7.58247 8.41088H6.00063L6.02247 4.93087L4.10247 0H5.72791L6.81878 3.27272L7.90975 0H9.38247L7.58247 4.93087V8.41088ZM11.3133 8.52H11.7606C12.7505 8.52 13.5546 7.72078 13.5606 6.73088V3.81816C13.5429 2.84109 12.7487 2.05669 11.7715 2.05087H11.3242C10.3343 2.05087 9.53022 2.85009 9.52422 3.84V6.75272C9.54203 7.72978 10.3361 8.51428 11.3133 8.52ZM10.8661 3.70913C10.8663 3.33562 11.1693 3.03291 11.5428 3.03319C11.9161 3.03347 12.2186 3.33591 12.2188 3.70913V6.84C12.2185 7.2135 11.9155 7.51622 11.542 7.51594C11.1688 7.51566 10.8663 7.21322 10.8661 6.84V3.70913ZM15.8188 8.52C16.4555 8.45878 17.0522 8.18156 17.5097 7.73456V8.41097H18.8188V2.05097H17.5097V6.98184C17.5097 6.98184 17.0624 7.50544 16.6369 7.50544C16.2115 7.50544 16.1897 7.16728 16.1897 7.16728V2.05087H14.8042V7.64728C14.8799 8.14922 15.3112 8.52028 15.8188 8.52ZM14.2478 16.1673C14.4159 15.9647 14.6613 15.842 14.9242 15.8291C15.4806 15.8291 15.6006 16.5818 15.6006 16.5819V20.2255C15.6006 20.2255 15.6006 20.9783 14.9242 20.9783C14.6669 20.9819 14.4204 20.8746 14.2478 20.6837V16.1673ZM20.1061 15.8291C19.4297 15.8291 19.4297 16.5818 19.4297 16.5818V17.5527H20.7824V16.5818C20.7825 16.5818 20.7825 15.8291 20.1061 15.8291ZM20.5533 9.91641C20.5723 9.91575 20.5912 9.91528 20.6102 9.915C22.4174 9.88584 23.906 11.3273 23.9352 13.1345C24.1465 14.5211 24.2596 15.921 24.2733 17.3236C24.2569 18.7261 24.144 20.1258 23.9352 21.5127C23.9353 21.5497 23.9346 21.5867 23.9334 21.6236C23.8732 23.4301 22.3599 24.8457 20.5534 24.7854C20.5534 24.7854 16.4843 25.0036 12.2734 25.0036C8.06256 25.0036 3.99344 24.7854 3.99344 24.7854C3.9565 24.7867 3.91947 24.7872 3.88253 24.7872C2.07503 24.7863 0.610563 23.3202 0.611594 21.5127C0.401781 20.1259 0.288813 18.7261 0.273438 17.3236C0.290219 15.9356 0.403281 14.5505 0.611594 13.1782C0.6115 13.1412 0.612156 13.1042 0.613375 13.0673C0.673562 11.2608 2.18688 9.84516 3.99334 9.90544C3.99334 9.90544 8.12791 9.68728 12.2733 9.68728C16.4188 9.68728 20.5315 9.91641 20.5315 9.91641H20.5533ZM5.72791 13.5709H7.37519L7.40791 12.1745H2.45519V13.5709H4.10247V22.0582H5.72791V13.5709ZM11.6625 22.0582H10.2989V21.4146C9.83481 21.8468 9.23969 22.1117 8.608 22.1673C8.10053 22.1779 7.66506 21.8079 7.59344 21.3054V14.64H9.00072V20.8691C9.00072 20.8691 9.00072 21.1964 9.448 21.1964C9.89528 21.1964 10.3534 20.6618 10.3534 20.6618V14.64H11.7062L11.6625 22.0582ZM14.2479 21.4473C14.5936 21.9053 15.1359 22.1724 15.7098 22.1673C16.9533 22.1673 16.9533 20.4437 16.9533 20.4437L16.9425 16.3746C16.9425 15.4037 16.6043 14.651 15.6989 14.651C15.1353 14.696 14.6112 14.958 14.237 15.3818V12.1746H12.7752V22.0582H14.2479V21.4473ZM22.2442 18.6546H19.4297V20.2691C19.4297 20.2691 19.4297 21.0218 20.1061 21.0218C20.7825 21.0218 20.7825 20.2691 20.7825 20.2691V19.5054H22.2443V20.6836C22.0487 21.628 21.1758 22.2757 20.2152 22.189C19.2201 22.2787 18.3028 21.6457 18.0333 20.6836V16.4727C18.0637 15.4248 18.9377 14.5999 19.9857 14.6303C20.0626 14.6325 20.1392 14.6393 20.2152 14.6509C21.1874 14.5118 22.0882 15.187 22.2274 16.1591C22.2423 16.2629 22.248 16.3679 22.2443 16.4727V18.6546H22.2442Z" fill="white"></path>
</svg>
